<svg width="20" height="20" viewBox="0 0 20 20" fill="none" xmlns="http://www.w3.org/2000/svg">
<path d="M9.99984 19.997C4.48592 19.997 0 15.5127 0 10.0004C0 4.48752 4.48592 0.00292969 9.99984 0.00292969C15.5137 0.00292969 20 4.48786 20 10.0004C20 15.5127 15.5137 19.997 9.99984 19.997ZM9.99984 0.9984C5.03476 0.9984 0.995471 5.03669 0.995471 10.0004C0.995471 14.9639 5.03476 19.0022 9.99984 19.0022C14.9649 19.0022 19.0045 14.9639 19.0045 10.0004C19.0045 5.03669 14.9649 0.9984 9.99984 0.9984Z" fill="#E2E539"/>
<path d="M8.85461 10.1168C8.9015 10.5016 8.98031 10.7877 9.09553 10.9912C9.25565 11.2732 9.5649 11.4286 9.96544 11.4286C10.358 11.4286 10.6678 11.2728 10.8388 10.9892C10.967 10.7763 11.0473 10.4931 11.0833 10.1249L11.3781 7.3832C11.4115 7.11939 11.4284 6.85962 11.4284 6.60391C11.4284 6.13495 11.3506 5.77727 11.1895 5.50861C11.0493 5.27635 10.7376 5 10.0482 5C9.61129 5 9.25016 5.12098 8.97682 5.3593C8.70846 5.59115 8.57129 5.90715 8.57129 6.29761C8.57129 6.52784 8.59224 6.90818 8.63414 7.43823L8.85461 10.1168Z" fill="#E2E539"/>
<path d="M8.98579 12.5574C8.71494 12.8295 8.57129 13.1781 8.57129 13.5665C8.57129 14.0062 8.72642 14.3734 9.01971 14.631C9.30054 14.8755 9.63274 14.9997 10.0068 14.9997C10.3785 14.9997 10.7092 14.8735 10.988 14.6229C11.2763 14.3649 11.4284 13.9996 11.4284 13.5665C11.4284 13.1761 11.2818 12.826 11.0059 12.5548C10.4478 12.0035 9.53148 12.006 8.98579 12.5574Z" fill="#E2E539"/>
</svg>
