<svg width="16" height="16" viewBox="0 0 16 16" fill="none" xmlns="http://www.w3.org/2000/svg">
<path d="M13.625 1.875H10.2966C10.0788 0.8065 9.13188 0 8 0C6.86816 0 5.92119 0.8065 5.70341 1.875H2.375C1.59959 1.875 0.96875 2.50584 0.96875 3.28125V4.21875C0.96875 4.47762 1.17862 4.6875 1.4375 4.6875H1.94347L2.77372 14.7105C2.834 15.4336 3.44956 16 4.17513 16H11.8249C12.5505 16 13.166 15.4336 13.2263 14.7103L14.0565 4.6875H14.5625C14.8214 4.6875 15.0312 4.47762 15.0312 4.21875V3.28125C15.0312 2.50584 14.4004 1.875 13.625 1.875ZM8 0.9375C8.61112 0.9375 9.13247 1.32934 9.32594 1.875H6.67406C6.86753 1.32934 7.38888 0.9375 8 0.9375ZM12.292 14.6327C12.2719 14.8737 12.0668 15.0625 11.8249 15.0625H4.17513C3.93328 15.0625 3.72806 14.8737 3.708 14.6329L2.88419 4.6875H13.1158L12.292 14.6327ZM14.0938 3.75H1.90625V3.28125C1.90625 3.02278 2.11653 2.8125 2.375 2.8125C2.86631 2.8125 13.3156 2.8125 13.625 2.8125C13.8835 2.8125 14.0938 3.02278 14.0938 3.28125V3.75Z" fill="#F86A45"/>
<path d="M5.1875 6.5625C4.92862 6.5625 4.71875 6.77237 4.71875 7.03125V12.7188C4.71875 12.9776 4.92862 13.1875 5.1875 13.1875C5.44638 13.1875 5.65625 12.9776 5.65625 12.7188V7.03125C5.65625 6.77237 5.44638 6.5625 5.1875 6.5625Z" fill="#F86A45"/>
<path d="M8 6.5625C7.74112 6.5625 7.53125 6.77237 7.53125 7.03125V12.7188C7.53125 12.9776 7.74112 13.1875 8 13.1875C8.25888 13.1875 8.46875 12.9776 8.46875 12.7188V7.03125C8.46875 6.77237 8.25888 6.5625 8 6.5625Z" fill="#F86A45"/>
<path d="M10.8125 6.5625C10.5536 6.5625 10.3438 6.77237 10.3438 7.03125V12.7188C10.3438 12.9776 10.5536 13.1875 10.8125 13.1875C11.0714 13.1875 11.2812 12.9776 11.2812 12.7188V7.03125C11.2812 6.77237 11.0714 6.5625 10.8125 6.5625Z" fill="#F86A45"/>
</svg>
