<svg width="20" height="20" viewBox="0 0 20 20" fill="none" xmlns="http://www.w3.org/2000/svg">
<path d="M12.1417 10.0003C12.1417 9.05352 11.3422 8.28601 10.356 8.28601C9.3698 8.28601 8.57031 9.05352 8.57031 10.0003C8.57031 10.9471 9.3698 11.7146 10.356 11.7146C11.3423 11.7146 12.1417 10.9471 12.1417 10.0003Z" fill="#262028"/>
<path d="M12.1417 16.8572C12.1417 15.9105 11.3422 15.1429 10.356 15.1429C9.3698 15.1429 8.57031 15.9105 8.57031 16.8572C8.57031 17.804 9.3698 18.5715 10.356 18.5715C11.3423 18.5715 12.1417 17.804 12.1417 16.8572Z" fill="#262028"/>
<path d="M12.1417 3.14288C12.1417 2.1961 11.3422 1.42858 10.356 1.42858C9.3698 1.42859 8.57031 2.1961 8.57031 3.14288C8.57031 4.08966 9.3698 4.85718 10.356 4.85718C11.3423 4.85718 12.1417 4.08966 12.1417 3.14288Z" fill="#262028"/>
</svg>
