<svg width="24" height="24" viewBox="0 0 24 24" fill="none" xmlns="http://www.w3.org/2000/svg">
<path d="M3.42871 3.22734V8.38014C3.42871 10.3781 4.92618 12.0022 6.77745 12.0022H13.0553C13.0594 12.0022 13.0594 11.9978 13.0594 11.9978C13.0553 6.84498 9.59549 2.56877 5.05371 1.73667C4.19802 1.57648 3.42871 2.29734 3.42871 3.22734Z" fill="#951BC4"/>
<path d="M20.5716 3.22734V8.38014C20.5716 10.3781 19.0742 12.0022 17.2229 12.0022H10.945C10.9409 12.0022 10.9409 11.9978 10.9409 11.9978C10.945 6.84498 14.4048 2.56877 18.9466 1.73667C19.7982 1.57648 20.5716 2.29734 20.5716 3.22734Z" fill="#951BC4"/>
<path d="M3.42871 20.7728V15.62C3.42871 13.622 4.92618 11.9979 6.77745 11.9979H13.0553C13.0594 11.9979 13.0594 12.0023 13.0594 12.0023C13.0553 17.1551 9.59549 21.4313 5.05371 22.2634C4.19802 22.4236 3.42871 21.7028 3.42871 20.7728Z" fill="#951BC4"/>
<path d="M20.5716 20.7728V15.62C20.5716 13.6221 19.0742 11.9979 17.2229 11.9979H10.945C10.9409 11.9979 10.9409 12.0024 10.9409 12.0024C10.945 17.1552 14.4048 21.4314 18.9466 22.2635C19.7982 22.4237 20.5716 21.7028 20.5716 20.7728Z" fill="#951BC4"/>
</svg>
