<svg width="24" height="24" viewBox="0 0 24 24" fill="none" xmlns="http://www.w3.org/2000/svg">
<path d="M11.6496 1.72278C8.12188 1.86459 5.24268 4.71205 5.14501 8.07826C5.09423 10.1644 6.03964 12.0154 7.57886 13.2507C8.42269 13.915 9.02041 14.7696 9.31732 15.7175V17.6805C9.31732 17.7514 9.26653 17.8111 9.1923 17.8261C8.954 17.882 8.77039 18.091 8.77039 18.3336C8.77039 18.5762 8.954 18.7852 9.1923 18.8412C9.26262 18.8561 9.31732 18.9158 9.31732 18.9867C9.31732 19.0576 9.26653 19.1173 9.1923 19.1322C8.954 19.1882 8.77039 19.3972 8.77039 19.6398C8.77039 19.8824 8.954 20.0913 9.1923 20.1473C9.26262 20.1623 9.31732 20.222 9.31732 20.2929V20.4347C9.31732 20.9049 9.71579 21.2893 10.2119 21.2893C10.3565 21.2893 10.4893 21.3639 10.5635 21.4834C10.8526 21.9536 11.3878 22.2857 12.0012 22.2857C12.6145 22.2857 13.1497 21.9536 13.4388 21.4834C13.5131 21.3639 13.6459 21.2893 13.7904 21.2893H13.8412C14.3335 21.2893 14.7358 20.9086 14.7358 20.4347V19.4159C14.7358 19.3487 14.7788 19.2927 14.8452 19.2741C15.0679 19.2069 15.232 19.0091 15.232 18.774C15.232 18.5389 15.0679 18.3411 14.8452 18.2739C14.7788 18.2552 14.7358 18.1955 14.7358 18.1321V18.106C14.7358 18.0425 14.7788 17.9828 14.8452 17.9641C15.0679 17.897 15.232 17.6992 15.232 17.4641C15.232 17.2327 15.0679 17.0312 14.8452 16.964C14.7788 16.9453 14.7358 16.8856 14.7358 16.8222V15.7063C15.0327 14.7584 15.6305 13.9038 16.4235 13.2395C17.9119 12.0528 18.8574 10.2502 18.8574 8.25739C18.8495 4.57024 15.6226 1.53245 11.6496 1.72278Z" fill="#FF5F00"/>
</svg>
