<svg width="40" height="40" viewBox="0 0 40 40" fill="none" xmlns="http://www.w3.org/2000/svg">
<path d="M31.6759 24.2378C33.1256 22.062 33.9707 19.4596 33.9707 16.6651C33.9707 9.05131 27.7026 2.85712 19.9983 2.85712C12.294 2.85712 6.02618 9.05131 6.02618 16.6651C6.02618 19.4596 6.87133 22.062 8.32077 24.2378L2.85547 32.1148L9.10928 30.9625L10.2755 37.1428L15.4295 29.7142C16.862 30.2055 18.3991 30.4731 19.9983 30.4731C21.5978 30.4731 23.1349 30.2055 24.5671 29.7142L29.7214 37.1428L30.8874 30.9625L37.1412 32.1148L31.6759 24.2378ZM11.3806 31.9766L10.7445 28.6054L7.33348 29.2342L9.63522 25.9166C10.7376 27.1215 12.0518 28.1333 13.5187 28.8955L11.3806 31.9766ZM8.0709 16.6651C8.0709 10.1656 13.4216 4.87782 19.9983 4.87782C26.5753 4.87782 31.926 10.1656 31.926 16.6651C31.926 23.1648 26.5753 28.4526 19.9983 28.4526C13.4216 28.4526 8.0709 23.1648 8.0709 16.6651ZM29.2521 28.6054L28.6161 31.9766L26.4782 28.8955C27.9451 28.1333 29.2593 27.1215 30.3617 25.9166L32.6634 29.234L29.2521 28.6054Z" fill="#951BC4"/>
<path d="M17.5085 19.6977L14.184 16.4125L12.7383 17.8412L17.5085 22.5554L27.2605 12.9183L25.8147 11.4896L17.5085 19.6977Z" fill="#951BC4"/>
</svg>
