<svg width="40" height="40" viewBox="0 0 40 40" fill="none" xmlns="http://www.w3.org/2000/svg">
<path d="M30.4472 15.0205C27.4223 11.8099 25.6247 8.9836 24.6492 7.17792C23.5927 5.22211 23.2465 4.00932 23.2438 3.99967L22.9294 2.85712L21.8062 3.33855C21.675 3.39478 18.5718 4.75475 16.8331 8.09661C15.9602 9.77427 15.7857 11.6421 15.793 12.9136C15.7972 13.6535 15.2517 14.296 14.4959 14.4412C13.966 14.543 13.4209 14.3847 13.0384 14.0171L10.9463 12.0066L10.2266 12.9603C10.152 13.0593 8.39317 15.3903 8.07298 15.856C6.50941 18.1306 5.69411 20.7803 5.71524 23.5185C5.74356 27.1756 7.24011 30.6019 9.92919 33.1664C12.6181 35.7306 16.1949 37.1428 20.0007 37.1428C27.8778 37.1428 34.2863 30.9842 34.2863 23.4142C34.2863 20.6695 32.887 17.6102 30.4472 15.0205ZM20.0007 35.1321C16.7508 35.1321 13.6974 33.9272 11.4031 31.7391C9.10866 29.5511 7.83181 26.6262 7.80761 23.5036C7.78947 21.1659 8.48495 18.9047 9.81879 16.9644C9.98164 16.7276 10.6349 15.8517 11.202 15.0959L11.559 15.439C12.4372 16.2829 13.6883 16.6471 14.9064 16.4129C16.6422 16.0793 17.895 14.603 17.8853 12.9026C17.8793 11.8503 18.0165 10.3183 18.7045 8.99579C19.542 7.38623 20.794 6.33429 21.664 5.74931C22.4508 7.67262 24.4454 11.6461 28.8962 16.3702C29.8878 17.4226 32.194 20.2157 32.194 23.4143C32.194 29.8755 26.7241 35.1321 20.0007 35.1321Z" fill="#FF5700"/>
<path d="M22.1225 19.9149L15.5625 29.1469H17.8818L24.4419 19.9149H22.1225Z" fill="#FF5700"/>
<path d="M23.5214 24.1354C22.0667 24.1354 20.9688 25.0718 20.9688 26.7072C20.9688 28.3558 22.0666 29.279 23.5214 29.279C24.9762 29.279 26.0741 28.3558 26.0741 26.7072C26.0741 25.0718 24.9761 24.1354 23.5214 24.1354ZM23.5214 27.8546C23.2195 27.8546 22.9176 27.5908 22.9176 26.7071C22.9176 25.8235 23.2195 25.5597 23.5214 25.5597C23.8233 25.5597 24.1253 25.8235 24.1253 26.7071C24.1253 27.5908 23.8233 27.8546 23.5214 27.8546Z" fill="#FF5700"/>
<path d="M19.035 22.3548C19.035 20.7194 17.9371 19.783 16.4824 19.783C15.0276 19.783 13.9297 20.7194 13.9297 22.3548C13.9297 24.0034 15.0276 24.9266 16.4824 24.9266C17.9371 24.9266 19.035 24.0034 19.035 22.3548ZM15.8785 22.3548C15.8785 21.4711 16.1804 21.2073 16.4824 21.2073C16.7843 21.2073 17.0862 21.4711 17.0862 22.3548C17.0862 23.2384 16.7843 23.5022 16.4824 23.5022C16.1804 23.5022 15.8785 23.2384 15.8785 22.3548Z" fill="#FF5700"/>
</svg>
