<svg width="48" height="48" viewBox="0 0 48 48" fill="none" xmlns="http://www.w3.org/2000/svg">
<path d="M22.2842 42.8553C11.8875 42.8553 3.42773 34.3959 3.42773 23.9991C3.42773 13.6024 11.8875 5.14258 22.2842 5.14258C25.8996 5.14258 29.4169 6.17274 32.4563 8.12353C33.0529 8.50772 33.2278 9.3031 32.8436 9.90136C32.4581 10.4996 31.6643 10.6726 31.0661 10.2887C28.4433 8.60345 25.4058 7.71391 22.2842 7.71391C13.305 7.71391 5.99906 15.0199 5.99906 23.9991C5.99906 32.978 13.305 40.284 22.2842 40.284C31.2632 40.284 38.5691 32.978 38.5691 23.9991C38.5691 23.4624 38.5434 22.931 38.4938 22.4083C38.4254 21.7002 38.943 21.0728 39.6492 21.0043C40.3589 20.9391 40.9845 21.4535 41.0532 22.1598C41.1113 22.7649 41.1404 23.3786 41.1404 23.9991C41.1404 34.3959 32.681 42.8553 22.2842 42.8553Z" fill="#00A887"/>
<path d="M24.4268 28.2846C24.0978 28.2846 23.7685 28.1594 23.5184 27.9077L15.8044 20.1937C15.3022 19.6912 15.3022 18.8769 15.8044 18.3747C16.3066 17.8725 17.1208 17.8725 17.623 18.3747L24.4286 25.1803L42.3746 7.23408C42.8771 6.73187 43.6913 6.73187 44.1935 7.23408C44.6958 7.73629 44.6958 8.55051 44.1935 9.05272L25.337 27.9092C25.085 28.1594 24.756 28.2846 24.4268 28.2846Z" fill="#00A887"/>
</svg>
