<svg width="28" height="28" viewBox="0 0 28 28" fill="none" xmlns="http://www.w3.org/2000/svg">
<path d="M7.31889 16.5026L6.48349 19.6213L3.4301 19.6859C2.51759 17.9934 2 16.0569 2 13.9991C2 12.0093 2.48394 10.1328 3.34175 8.48047H3.3424L6.06077 8.97884L7.25158 11.6809C7.00234 12.4075 6.8665 13.1875 6.8665 13.9991C6.86659 14.88 7.02615 15.724 7.31889 16.5026Z" fill="#FBBB00"/>
<path d="M25.7901 11.7578C25.928 12.4837 25.9998 13.2334 25.9998 13.9996C25.9998 14.8587 25.9095 15.6967 25.7374 16.5051C25.1533 19.2558 23.6269 21.6578 21.5124 23.3576L21.5117 23.3569L18.0878 23.1822L17.6032 20.1571C19.0063 19.3343 20.1028 18.0466 20.6804 16.5051H14.2637V11.7578H20.774H25.7901Z" fill="#518EF8"/>
<path d="M21.5114 23.3577L21.512 23.3584C19.4556 25.0113 16.8433 26.0003 13.9995 26.0003C9.42967 26.0003 5.45651 23.4461 3.42969 19.6872L7.31847 16.5039C8.33186 19.2085 10.9409 21.1338 13.9995 21.1338C15.3142 21.1338 16.5459 20.7784 17.6028 20.1579L21.5114 23.3577Z" fill="#28B446"/>
<path d="M21.6596 4.76262L17.7721 7.94523C16.6783 7.26151 15.3853 6.86655 14 6.86655C10.8721 6.86655 8.2143 8.88015 7.25168 11.6817L3.34245 8.48129H3.3418C5.33895 4.63076 9.36222 2 14 2C16.9116 2 19.5813 3.03715 21.6596 4.76262Z" fill="#F14336"/>
</svg>
