<svg width="28" height="28" viewBox="0 0 28 28" fill="none" xmlns="http://www.w3.org/2000/svg">
<path d="M17.6094 14C17.6094 15.9903 15.9903 17.6094 14 17.6094C12.0097 17.6094 10.3906 15.9903 10.3906 14C10.3906 12.0097 12.0097 10.3906 14 10.3906C15.9903 10.3906 17.6094 12.0097 17.6094 14ZM14 2C7.38286 2 2 7.38286 2 14C2 20.6171 7.38286 26 14 26C16.424 26 18.7614 25.2783 20.7594 23.9129L20.7937 23.8889L19.1771 22.01L19.1497 22.0271C17.612 23.0171 15.8309 23.54 14 23.54C8.73971 23.54 4.46 19.2603 4.46 14C4.46 8.73971 8.73971 4.46 14 4.46C19.2603 4.46 23.54 8.73971 23.54 14C23.54 14.6814 23.4637 15.3714 23.3154 16.0503C23.0137 17.2889 22.1463 17.6677 21.4957 17.618C20.8409 17.5649 20.0746 17.0986 20.0694 15.9569V15.0869V14C20.0694 10.6529 17.3471 7.93057 14 7.93057C10.6529 7.93057 7.93057 10.6529 7.93057 14C7.93057 17.3471 10.6529 20.0694 14 20.0694C15.626 20.0694 17.1509 19.4343 18.3003 18.278C18.9689 19.3186 20.0583 19.9709 21.2986 20.0703C21.4049 20.0789 21.5137 20.0831 21.6209 20.0831C22.4943 20.0831 23.3591 19.7909 24.0569 19.262C24.776 18.7151 25.3134 17.9257 25.61 16.9769C25.6571 16.8234 25.7446 16.4729 25.7446 16.4703L25.7471 16.4574C25.922 15.6963 26 14.9377 26 14C26 7.38286 20.6171 2 14 2Z" fill="#FF9E00"/>
</svg>
