<svg width="28" height="28" viewBox="0 0 28 28" fill="none" xmlns="http://www.w3.org/2000/svg">
<path d="M6.86349 17.9536C9.23964 20.7833 12.1 23.0112 15.3647 24.5877C16.6077 25.1745 18.27 25.8707 20.122 25.9901C20.2368 25.995 20.3467 26 20.4615 26C21.7045 26 22.7028 25.5723 23.5165 24.6921C23.5215 24.6871 23.5315 24.6772 23.5365 24.6672C23.826 24.3191 24.1555 24.0058 24.4999 23.6726C24.7345 23.4488 24.9742 23.2151 25.2038 22.9764C26.2671 21.8724 26.2671 20.47 25.1938 19.4007L22.1937 16.4119C21.6845 15.8848 21.0755 15.6063 20.4365 15.6063C19.7975 15.6063 19.1835 15.8848 18.6594 16.407L16.8723 18.1873C16.7075 18.0928 16.5378 18.0083 16.3781 17.9287C16.1784 17.8293 15.9937 17.7348 15.829 17.6303C14.2016 16.6009 12.724 15.2582 11.3113 13.5325C10.5974 12.6324 10.1182 11.8765 9.78376 11.1057C10.253 10.683 10.6923 10.2404 11.1166 9.80771C11.2664 9.65354 11.4211 9.49938 11.5759 9.34521C12.115 8.80812 12.4045 8.18649 12.4045 7.55491C12.4045 6.92333 12.12 6.3017 11.5759 5.76461L10.0883 4.28264C9.91355 4.10858 9.74882 3.93949 9.57909 3.76544C9.24963 3.42727 8.90518 3.07915 8.56573 2.76585C8.05157 2.26357 7.44755 2 6.80858 2C6.17461 2 5.56559 2.26357 5.03146 2.77082L3.16448 4.63075C2.48558 5.30709 2.10121 6.12764 2.02134 7.0775C1.92649 8.26606 2.14613 9.52922 2.71521 11.0559C3.5888 13.4182 4.90666 15.6113 6.86349 17.9536ZM3.23936 7.18193C3.29927 6.52051 3.55385 5.9685 4.03308 5.49109L5.89007 3.64111C6.1796 3.36262 6.49908 3.2184 6.80858 3.2184C7.11309 3.2184 7.42259 3.36262 7.70713 3.65106C8.04158 3.95939 8.35607 4.28264 8.69552 4.62578C8.86525 4.79983 9.03997 4.97389 9.21468 5.15292L10.7023 6.63489C11.0118 6.94322 11.1715 7.25653 11.1715 7.56486C11.1715 7.87319 11.0118 8.18649 10.7023 8.49482C10.5475 8.64898 10.3928 8.80812 10.238 8.96229C9.77378 9.42976 9.33948 9.87236 8.86026 10.2951C8.85027 10.305 8.84528 10.31 8.8353 10.3199C8.42097 10.7327 8.48586 11.1256 8.5857 11.424C8.59069 11.4389 8.59569 11.4488 8.60068 11.4637C8.98506 12.3838 9.51919 13.259 10.3528 14.3034C11.8504 16.1434 13.4279 17.5707 15.165 18.6697C15.3797 18.809 15.6093 18.9184 15.824 19.0278C16.0237 19.1272 16.2084 19.2217 16.3731 19.3261C16.3931 19.3361 16.408 19.346 16.428 19.356C16.5927 19.4405 16.7525 19.4803 16.9122 19.4803C17.3116 19.4803 17.5711 19.2267 17.656 19.1421L19.523 17.2822C19.8125 16.9938 20.127 16.8396 20.4365 16.8396C20.8159 16.8396 21.1254 17.0734 21.3201 17.2822L24.3302 20.276C24.9292 20.8728 24.9242 21.5193 24.3152 22.1509C24.1056 22.3746 23.8859 22.5885 23.6513 22.8123C23.3019 23.1504 22.9375 23.4986 22.608 23.8914C22.0339 24.5081 21.35 24.7965 20.4665 24.7965C20.3816 24.7965 20.2917 24.7915 20.2069 24.7866C18.5695 24.6821 17.047 24.0456 15.9038 23.5035C12.7989 22.0066 10.0733 19.8831 7.81196 17.1877C5.94997 14.9548 4.697 12.8761 3.86834 10.6482C3.35418 9.28056 3.15949 8.18152 3.23936 7.18193Z" fill="#262028"/>
</svg>
