<svg width="28" height="28" viewBox="0 0 28 28" fill="none" xmlns="http://www.w3.org/2000/svg">
<path d="M21.9157 15.028C21.5277 14.538 21.6387 14.32 21.9157 13.882C21.9207 13.877 25.1238 9.451 25.4538 7.95L25.4558 7.949C25.6198 7.402 25.4558 7 24.6628 7H22.0387C21.3707 7 21.0627 7.345 20.8977 7.731C20.8977 7.731 19.5616 10.929 17.6715 13.002C17.0615 13.601 16.7795 13.793 16.4465 13.793C16.2825 13.793 16.0275 13.601 16.0275 13.054V7.949C16.0275 7.293 15.8405 7 15.2875 7H11.1613C10.7423 7 10.4933 7.306 10.4933 7.591C10.4933 8.213 11.4383 8.356 11.5363 10.106V13.903C11.5363 14.735 11.3853 14.888 11.0503 14.888C10.1583 14.888 7.99321 11.677 6.71016 8.002C6.45115 7.289 6.19815 7.001 5.52512 7.001H2.90003C2.15101 7.001 2 7.346 2 7.732C2 8.414 2.89203 11.805 6.14814 16.285C8.31822 19.343 11.3743 21 14.1544 21C15.8255 21 16.0295 20.632 16.0295 19.999C16.0295 17.077 15.8785 16.801 16.7155 16.801C17.1035 16.801 17.7715 16.993 19.3316 18.468C21.1147 20.217 21.4077 21 22.4057 21H25.0298C25.7778 21 26.1568 20.632 25.9388 19.906C25.4398 18.379 22.0677 15.238 21.9157 15.028Z" fill="white"/>
</svg>
