<svg width="238" height="200" viewBox="0 0 238 200" fill="none" xmlns="http://www.w3.org/2000/svg">
<path d="M227.979 123.81L212.446 126.065L209.941 105.013L227.979 103.509V123.81ZM83.4228 177.444C85.4271 179.449 87.6819 180.952 90.1872 181.955C92.6925 182.957 95.1977 183.459 97.9536 183.459H229.983V179.95H97.9536C95.6988 179.95 93.4441 179.449 91.4398 178.697C89.4356 177.945 87.6819 176.692 85.9281 175.188C84.425 173.434 83.1723 171.679 82.4207 169.674C81.6691 167.669 81.168 165.414 81.168 163.158C81.168 160.902 81.6691 158.647 82.4207 156.892C83.1723 154.887 84.425 152.882 85.9281 151.378C87.6819 149.875 89.4356 148.622 91.4398 147.619C92.943 147.118 94.1956 146.617 95.9494 146.617C96.1999 146.617 96.4504 146.617 96.7009 146.617L127.266 142.105C127.266 142.105 127.266 142.105 127.516 142.105L185.639 133.835L211.193 130.075L229.983 127.318C230.985 127.318 231.737 126.566 231.737 125.564V55.6391C231.737 54.8872 231.236 53.8847 230.234 53.8847L72.9005 30.5765L67.3889 7.01757L67.1384 5.51379H65.6352H11.0195V9.02255H64.132L74.4037 53.1328H74.6543L94.4462 142.607C92.943 142.857 91.4398 143.358 90.1872 143.86C87.6819 144.862 85.4271 146.366 83.4228 148.371C81.4186 150.376 79.9154 152.632 78.9133 155.138C77.9112 157.644 77.4101 160.15 77.4101 162.907C77.4101 165.664 77.9112 168.421 78.9133 170.677C79.9154 173.434 81.4186 175.689 83.4228 177.444ZM97.9536 142.607L91.6903 114.035L119.75 111.779L125.011 138.597L97.9536 142.607ZM208.939 126.566L186.892 129.825L183.635 107.018L206.433 105.263L208.939 126.566ZM183.384 130.326L160.085 133.584L155.325 109.023L180.128 107.018L183.384 130.326ZM156.327 134.085L128.518 138.095L123.257 111.529L151.818 109.273L156.327 134.085ZM90.9388 110.526L83.1723 75.188L112.735 75.9399L118.998 108.271L90.9388 110.526ZM82.1702 71.4286L73.9027 34.0852L227.979 56.8922V75.4386L206.433 74.9373L204.178 55.8897C203.928 54.8872 203.176 54.1353 202.174 54.386C201.172 54.386 200.421 55.3885 200.671 56.391L202.926 74.9373L179.125 74.4361L175.869 51.8797C175.618 50.8772 174.866 50.1253 173.864 50.3759C172.862 50.6266 172.111 51.3784 172.361 52.381L175.618 74.1855L148.811 73.4336L143.801 46.8672C143.55 45.8647 142.799 45.3634 141.796 45.3634C140.794 45.614 140.043 46.3659 140.293 47.3684L145.053 73.183L115.741 72.4311L109.478 41.8546C109.227 40.8521 108.476 40.1002 107.474 40.3509C106.472 40.6015 105.72 41.604 105.971 42.6065L111.983 72.4311L82.1702 71.4286ZM227.979 79.198V100L209.44 101.504L206.684 78.6967L227.979 79.198ZM116.242 75.9399L145.554 76.6917L151.066 105.764L122.506 108.02L116.242 75.9399ZM149.312 76.9424L175.869 77.6943L179.627 103.759L154.824 105.764L149.312 76.9424ZM179.376 77.6943L203.176 78.4461L205.932 101.504L182.883 103.258L179.376 77.6943Z" fill="#6B777E"/>
<path d="M106.725 179.95C106.224 180.952 105.973 182.205 105.723 183.459H143.052C142.801 182.205 142.551 180.952 142.3 179.95H106.725ZM184.64 179.95C184.139 180.952 183.888 182.205 183.888 183.459H221.217C220.967 182.205 220.716 180.952 220.466 179.95H184.64Z" fill="#40474C"/>
<path d="M231.484 54.8872L70.3933 30.827C70.1428 31.3283 69.8923 31.8295 70.1428 32.3308L71.8965 40.6014L75.6545 41.1027L74.1513 34.0851L228.228 56.8922V63.6591L231.735 64.1603V55.3884C231.735 55.3884 231.484 55.1378 231.484 54.8872ZM106.47 45.8646L110.228 46.3659L109.476 41.8546C109.226 40.8521 108.474 40.1002 107.472 40.3508C106.47 40.6014 105.718 41.604 105.969 42.6065L106.47 45.8646ZM140.542 50.8772L144.3 51.3784L143.548 46.6165C143.298 45.614 142.546 45.1127 141.544 45.1127C140.542 45.3634 139.79 46.1152 140.041 47.1178L140.542 50.8772ZM172.61 55.639L176.368 56.1403L175.867 51.629C175.616 50.6265 174.865 49.8746 173.862 50.1253C172.86 50.3759 172.109 51.1278 172.359 52.1303L172.61 55.639ZM200.92 59.8997L204.678 60.4009L204.177 55.8897C203.926 54.8872 203.174 54.1353 202.172 54.3859C201.17 54.3859 200.419 55.3884 200.669 56.3909L200.92 59.8997Z" fill="#40474C"/>
<path d="M237.999 52.6316L64.8828 26.817L66.1355 36.8421L237.999 61.9047V52.6316Z" fill="#6B777E"/>
<path d="M54.1178 3.00757H4.01172V12.2807H54.1178V3.00757Z" fill="#951BC4"/>
<path d="M6.26326 0H0V15.0376H6.26326V0Z" fill="#6F1493"/>
<path d="M60.3804 0H54.1172V15.0376H60.3804V0Z" fill="#6F1493"/>
<path fill-rule="evenodd" clip-rule="evenodd" d="M124.514 172.431C116.747 172.431 110.734 178.697 110.734 186.216C110.734 193.985 116.998 200 124.514 200C132.029 200 138.293 193.734 138.293 186.216C138.293 178.697 132.28 172.431 124.514 172.431ZM202.178 172.431C194.412 172.431 188.399 178.697 188.399 186.216C188.399 193.985 194.662 200 202.178 200C209.944 200 215.957 193.734 215.957 186.216C216.208 178.697 209.944 172.431 202.178 172.431Z" fill="#6B777E"/>
<path fill-rule="evenodd" clip-rule="evenodd" d="M124.516 180.952C121.509 180.952 119.004 183.459 119.004 186.466C119.004 189.474 121.509 191.98 124.516 191.98C127.522 191.98 130.027 189.474 130.027 186.466C130.027 183.208 127.522 180.952 124.516 180.952Z" fill="#40474C"/>
<path fill-rule="evenodd" clip-rule="evenodd" d="M202.18 180.952C199.173 180.952 196.668 183.459 196.668 186.466C196.668 189.474 199.173 191.98 202.18 191.98C205.186 191.98 207.691 189.474 207.691 186.466C207.691 183.208 205.437 180.952 202.18 180.952Z" fill="#40474C"/>
</svg>
