<svg width="238" height="176" viewBox="0 0 238 176" fill="none" xmlns="http://www.w3.org/2000/svg">
<path d="M121.678 9.12774C123.45 7.5975 123.634 4.93394 122.089 3.17851C120.545 1.42308 117.856 1.24052 116.084 2.77076C114.312 4.301 114.127 6.96456 115.672 8.71999C117.217 10.4754 119.906 10.658 121.678 9.12774Z" fill="#951BC4"/>
<path d="M114.625 5.94367C114.739 3.61047 116.526 1.72705 118.882 1.72705C119.052 1.72705 115.164 2.76715 116.129 6.36533C117.264 10.6382 122.315 8.44552 122.315 8.44552C119.79 11.6501 114.455 9.9635 114.625 5.94367Z" fill="#740B9C"/>
<path d="M118.875 115.8C116.718 115.8 113.597 118.499 113.199 121.029H124.55C124.181 118.499 121.06 115.8 118.875 115.8Z" fill="#951BC4"/>
<path d="M124.638 121.029H124.553H113.202H113.117C112.776 121.029 112.492 121.394 112.492 121.732C112.492 122.069 112.776 122.434 113.117 122.434H113.287H124.496H124.666C125.007 122.434 125.291 122.069 125.291 121.732C125.291 121.394 124.978 121.029 124.638 121.029Z" fill="#951BC4"/>
<path d="M116.891 121.029H113.202H113.116C112.776 121.029 112.492 121.394 112.492 121.732C112.492 122.069 112.776 122.434 113.116 122.434H113.287H116.891V121.029Z" fill="#740B9C"/>
<path d="M114.82 135.141V145.711H122.738V134.832C122.766 134.86 116.296 135.198 114.82 135.141Z" fill="#951BC4"/>
<path d="M114.844 135.141V145.711H117.568V134.832C117.568 134.86 115.326 135.198 114.844 135.141Z" fill="#740B9C"/>
<path d="M122.846 133.764H121.285V145.739H122.846V133.764Z" fill="#C440F8"/>
<path d="M114.761 135.197L122.736 135.225C123.871 134.382 124.864 133.145 125.29 132.021H112.52C112.917 133.117 113.655 134.157 114.761 135.197Z" fill="#740B9C"/>
<path d="M122.052 125.414H115.667C113.908 126.764 112.262 128.872 112.262 130.559H125.486C125.486 128.619 122.052 125.414 122.052 125.414Z" fill="#951BC4"/>
<path d="M125.548 130.587H125.491H112.267H112.21C111.87 130.587 111.586 130.952 111.586 131.29C111.586 131.627 111.87 131.993 112.21 131.993H112.494H125.264H125.548C125.888 131.993 126.172 131.627 126.172 131.29C126.172 130.952 125.888 130.587 125.548 130.587Z" fill="#951BC4"/>
<path d="M116.608 130.587H112.408H112.351C111.954 130.587 111.613 130.952 111.613 131.29C111.613 131.627 111.954 131.993 112.351 131.993H112.692H116.608V130.587Z" fill="#740B9C"/>
<path d="M125.598 146.723H112.147C111.579 146.723 111.125 146.273 111.125 145.711C111.125 145.149 111.579 144.699 112.147 144.699H125.598C126.165 144.699 126.619 145.149 126.619 145.711C126.619 146.273 126.165 146.723 125.598 146.723Z" fill="#951BC4"/>
<path d="M122.476 24.3281H115.297V117.544H122.476V24.3281Z" fill="#951BC4"/>
<path d="M117.652 24.3281H115.297V117.544H117.652V24.3281Z" fill="#740B9C"/>
<path d="M122.569 24.3281H121.008V117.572H122.569V24.3281Z" fill="#C440F8"/>
<path d="M122.533 24.5529H115.297V25.6492H122.533V24.5529Z" fill="#740B9C"/>
<path d="M123.562 27.3078H114.197C113.998 27.3078 113.828 27.1391 113.828 26.9423V26.5488C113.828 26.352 113.998 26.1833 114.197 26.1833H123.562C123.76 26.1833 123.931 26.352 123.931 26.5488V26.9423C123.931 27.1391 123.76 27.3078 123.562 27.3078Z" fill="#951BC4"/>
<path d="M116.893 27.3079H114.169C113.97 27.3079 113.828 27.1673 113.828 26.9705V26.5489C113.828 26.3521 113.97 26.2115 114.169 26.2115H116.893V27.3079Z" fill="#740B9C"/>
<path d="M124.131 121.114H122.258V122.463H124.131V121.114Z" fill="#C440F8"/>
<path d="M125.035 130.643H123.219V131.992H125.035V130.643Z" fill="#C440F8"/>
<path d="M128.181 148.831H109.594C108.998 148.831 108.516 148.353 108.516 147.763C108.516 147.173 108.998 146.695 109.594 146.695H128.181C128.777 146.695 129.26 147.173 129.26 147.763C129.231 148.353 128.777 148.831 128.181 148.831Z" fill="#951BC4"/>
<path d="M115.129 148.831H109.567C108.971 148.831 108.488 148.353 108.488 147.763C108.488 147.173 108.971 146.695 109.567 146.695H115.129V148.831Z" fill="#740B9C"/>
<path d="M119.843 6.89905C120.893 6.89905 121.744 6.05581 121.744 5.01563C121.744 3.97544 120.893 3.1322 119.843 3.1322C118.793 3.1322 117.941 3.97544 117.941 5.01563C117.941 6.05581 118.793 6.89905 119.843 6.89905Z" fill="#C440F8"/>
<path d="M127.193 146.723H125.121V148.831H127.193V146.723Z" fill="#C440F8"/>
<path d="M124.947 144.727H122.875V146.723H124.947V144.727Z" fill="#C440F8"/>
<path d="M116.545 146.723H112.147C111.579 146.723 111.125 146.273 111.125 145.711C111.125 145.149 111.579 144.699 112.147 144.699H116.545V146.723Z" fill="#740B9C"/>
<path d="M121.946 12.9997C122.429 12.831 122.769 13.4213 125.635 14.6582C126.799 15.1642 127.224 15.2766 127.423 15.3329C128.87 15.6702 130.147 15.4734 130.885 15.3329C134.659 14.5739 138.178 12.8029 138.178 12.8029C138.178 12.8029 142.35 10.6665 147.827 8.47381C151.374 7.04016 154.041 6.02816 157.787 5.49406C159.745 5.21295 162.186 4.90373 165.307 5.38162C167.294 5.69084 169.053 6.1125 172.43 7.37749C174.473 8.16459 176.261 9.06414 178.616 10.2729C179.156 10.554 178.758 10.3854 184.434 13.6181C188.208 15.7545 190.705 16.9914 191.699 17.3006C192.663 17.5817 193.969 17.9753 195.047 17.4131C196.154 16.8509 196.324 15.6421 196.721 15.7545C197.119 15.8389 197.374 17.0757 196.948 17.9753C196.409 19.0997 194.934 19.3808 194.139 19.5214C192.465 19.8306 191.046 19.4933 189.088 18.8467C186.534 18.0315 185.285 17.4412 182.362 16.2886C180.631 15.614 178.9 14.9393 176.658 14.1803C174.7 13.5338 172.913 12.9434 170.5 12.4093C169.082 12.1001 167.294 11.7066 164.91 11.5098C163.945 11.4255 161.448 11.2849 158.185 11.6222C155.772 11.8752 154.07 12.2969 151.8 12.831C147.827 13.7868 144.819 14.8831 144.052 15.1642C139.938 16.6822 134.234 18.2283 131.736 19.0435C125.862 20.9269 124.16 22.5574 123.223 22.473C121.492 22.2763 120.272 13.6181 121.946 12.9997Z" fill="#C440F8"/>
<path d="M123.396 21.6294C123.623 21.6013 124.19 21.2921 124.758 21.0391C126.007 20.4207 128.078 19.3524 131.54 18.2561C132.335 18.0031 133.442 17.6658 134.719 17.3004C137.528 16.457 141.047 15.4169 143.856 14.4049C145.218 13.8989 148.056 12.9432 151.688 12.0436C153.93 11.5095 155.718 11.0597 158.187 10.8067C159.549 10.6662 160.94 10.5819 162.302 10.5819C163.238 10.5819 164.175 10.61 165.054 10.6943C167.552 10.8911 169.425 11.3127 170.758 11.5939C173.284 12.1561 175.157 12.7745 177.001 13.3929C179.328 14.1801 181.145 14.8828 182.762 15.5294C183.585 15.8667 184.266 16.1197 184.89 16.3727C186.48 17.0192 187.615 17.469 189.431 18.0593C190.878 18.5372 191.928 18.7902 192.978 18.7902C193.347 18.7902 193.688 18.7621 194.056 18.7059C194.652 18.5935 195.873 18.3686 196.27 17.6096C196.298 17.5815 196.298 17.5534 196.298 17.5252C196.071 17.7501 195.816 17.9469 195.475 18.1437C194.993 18.3967 194.425 18.5091 193.829 18.5091C192.978 18.5091 192.155 18.2561 191.502 18.0875C190.339 17.7501 187.615 16.3727 184.039 14.3487C180.861 12.5215 179.584 11.7906 178.988 11.4533C178.534 11.1722 178.477 11.1441 178.25 11.0316L177.853 10.8349C175.724 9.73853 174.05 8.89521 172.149 8.19244C168.857 6.95556 167.154 6.5339 165.168 6.22468C164.118 6.05601 163.125 5.97168 162.075 5.97168C160.429 5.97168 159.038 6.16846 157.903 6.33712C154.157 6.87123 151.49 7.91133 148.113 9.26065C142.806 11.369 138.748 13.4492 138.55 13.5335C138.408 13.6178 134.889 15.3888 131.058 16.1478C130.604 16.2321 129.923 16.3446 129.1 16.3446C128.476 16.3446 127.823 16.2603 127.227 16.1197C126.915 16.0354 126.432 15.8948 125.297 15.4169C123.907 14.7985 123.084 14.3487 122.545 14.0676C122.431 14.0114 122.289 13.9271 122.204 13.8708C122.005 14.3206 121.835 15.6699 122.119 17.8064C122.459 20.1114 123.084 21.4045 123.396 21.6294Z" fill="#951BC4"/>
<path d="M155.515 111.866C154.04 111.866 152.848 110.685 152.848 109.223C152.848 107.762 154.04 106.581 155.515 106.581C156.991 106.581 158.183 107.762 158.183 109.223C158.183 110.685 156.991 111.866 155.515 111.866ZM155.515 107.115C154.352 107.115 153.415 108.043 153.415 109.195C153.415 110.348 154.352 111.276 155.515 111.276C156.679 111.276 157.615 110.348 157.615 109.195C157.615 108.071 156.679 107.115 155.515 107.115Z" fill="#F9BF3A"/>
<path d="M150.633 110.459C150.633 115.013 164.822 121.141 193.199 121.141C221.435 121.141 235.766 114.985 235.766 110.459H150.633Z" fill="#951BC4"/>
<path d="M231.593 112.062C230.118 112.062 228.926 110.881 228.926 109.42C228.926 107.958 230.118 106.777 231.593 106.777C233.069 106.777 234.261 107.958 234.261 109.42C234.261 110.881 233.069 112.062 231.593 112.062ZM231.593 107.311C230.43 107.311 229.493 108.239 229.493 109.392C229.493 110.544 230.43 111.472 231.593 111.472C232.757 111.472 233.693 110.544 233.693 109.392C233.693 108.267 232.757 107.311 231.593 107.311Z" fill="#F9BF3A"/>
<path d="M215.668 110.573H235.788C235.788 114.227 225.486 119.99 200.344 121.114C207.268 120.187 214.675 114.227 215.668 110.573Z" fill="#740B9C"/>
<path d="M159.793 110.263H169.895C173.386 115.8 179.572 120.326 185.673 120.973C178.948 120.832 173.528 119.989 169.952 119.427C165.837 118.33 161.638 114.507 159.793 110.263Z" fill="#C440F8"/>
<path d="M149.204 110.572H237.544C237.799 110.572 237.998 110.375 237.998 110.122C237.998 109.869 237.799 109.673 237.544 109.673H149.204C148.949 109.673 148.75 109.869 148.75 110.122C148.75 110.375 148.949 110.572 149.204 110.572Z" fill="#C440F8"/>
<path d="M228.644 104.951C228.531 104.951 228.389 104.923 228.276 104.867C228.049 104.782 227.85 104.586 227.736 104.361L226.545 101.55C226.346 101.072 226.573 100.509 227.055 100.285L227.793 99.9753C228.02 99.8629 228.304 99.8629 228.531 99.9753C228.758 100.06 228.957 100.256 229.07 100.481L230.262 103.292C230.375 103.517 230.375 103.798 230.262 104.023C230.177 104.248 229.978 104.445 229.751 104.557L229.013 104.867C228.9 104.923 228.786 104.951 228.644 104.951ZM227.084 101.325L228.276 104.136C228.304 104.22 228.389 104.304 228.503 104.361C228.616 104.389 228.701 104.389 228.815 104.361L229.553 104.051C229.638 104.023 229.723 103.939 229.78 103.827C229.808 103.714 229.808 103.63 229.78 103.517L228.588 100.706C228.559 100.622 228.474 100.538 228.361 100.481C228.247 100.453 228.162 100.453 228.049 100.481L227.311 100.791C227.112 100.875 226.999 101.128 227.084 101.325Z" fill="#F9BF3A"/>
<path d="M225.344 97.5859C225.23 97.5859 225.088 97.5578 224.975 97.5015C224.748 97.4172 224.549 97.2204 224.436 96.9955L223.244 94.1844C223.045 93.7065 223.272 93.1443 223.755 92.9194L224.492 92.6102C224.719 92.4978 225.003 92.4978 225.23 92.6102C225.457 92.6945 225.656 92.8913 225.769 93.1162L226.961 95.9273C227.075 96.1522 227.075 96.4333 226.961 96.6582C226.876 96.8831 226.677 97.0799 226.45 97.1923L225.713 97.5015C225.599 97.5578 225.457 97.5859 225.344 97.5859ZM223.783 93.9595L224.975 96.7706C225.003 96.855 225.088 96.9393 225.202 96.9955C225.315 97.0236 225.4 97.0236 225.514 96.9955L226.252 96.6863C226.337 96.6582 226.422 96.5739 226.479 96.4614C226.507 96.349 226.507 96.2646 226.479 96.1522L225.287 93.3411C225.259 93.2568 225.173 93.1724 225.06 93.1162C224.946 93.0881 224.861 93.0881 224.748 93.1162L224.01 93.4254C223.783 93.5098 223.698 93.7628 223.783 93.9595Z" fill="#F9BF3A"/>
<path d="M222.197 90.6138C222.083 90.6138 221.941 90.5857 221.828 90.5295C221.601 90.4451 221.402 90.2484 221.289 90.0235L220.097 87.2124C219.983 86.9875 219.983 86.7064 220.097 86.4815C220.182 86.2566 220.381 86.0599 220.608 85.9474L221.345 85.6382C221.828 85.4414 222.395 85.6663 222.622 86.1442L223.814 88.9553C224.013 89.4331 223.786 89.9954 223.304 90.2202L222.566 90.5295C222.452 90.5857 222.339 90.6138 222.197 90.6138ZM221.743 86.1161C221.686 86.1161 221.629 86.1161 221.601 86.1442L220.863 86.4534C220.778 86.4815 220.693 86.5658 220.636 86.6783C220.608 86.7907 220.608 86.8751 220.636 86.9875L221.828 89.7986C221.856 89.8829 221.941 89.9673 222.055 90.0235C222.168 90.0516 222.254 90.0516 222.367 90.0235L223.105 89.7143C223.304 89.6299 223.417 89.405 223.332 89.1802L222.14 86.3691C222.055 86.2004 221.885 86.1161 221.743 86.1161Z" fill="#F9BF3A"/>
<path d="M219.098 83.7541C218.729 83.7541 218.36 83.5292 218.189 83.1637L216.998 80.3526C216.799 79.8747 217.026 79.3125 217.508 79.0876L218.246 78.7784C218.473 78.666 218.757 78.666 218.984 78.7784C219.211 78.8628 219.41 79.0595 219.523 79.2844L220.715 82.0955C220.829 82.3204 220.829 82.6015 220.715 82.8264C220.63 83.0513 220.431 83.2481 220.204 83.3605L219.466 83.6697C219.353 83.726 219.239 83.7541 219.098 83.7541ZM218.644 79.2844C218.587 79.2844 218.53 79.2844 218.502 79.3125L217.764 79.6218C217.565 79.7061 217.452 79.931 217.537 80.1559L218.729 82.967C218.814 83.1637 219.041 83.2762 219.268 83.1918L220.006 82.8826C220.091 82.8545 220.176 82.7702 220.233 82.6577C220.261 82.5453 220.261 82.461 220.233 82.3485L219.041 79.5374C219.012 79.4531 218.927 79.3688 218.814 79.3125C218.757 79.2844 218.7 79.2844 218.644 79.2844Z" fill="#F9BF3A"/>
<path d="M215.951 76.5025C215.582 76.5025 215.213 76.2776 215.043 75.9122L213.851 73.1011C213.737 72.8762 213.737 72.5951 213.851 72.3702C213.936 72.1453 214.135 71.9485 214.362 71.8361L215.099 71.5269C215.582 71.3301 216.149 71.555 216.376 72.0329L217.568 74.844C217.682 75.0689 217.682 75.35 217.568 75.5749C217.483 75.7997 217.284 75.9965 217.057 76.109L216.32 76.4182C216.206 76.4744 216.093 76.5025 215.951 76.5025ZM215.497 72.0329C215.44 72.0329 215.383 72.0329 215.355 72.061L214.617 72.3702C214.532 72.3983 214.447 72.4826 214.39 72.5951C214.362 72.7075 214.362 72.7919 214.39 72.9043L215.582 75.7154C215.667 75.9122 215.894 76.0246 216.121 75.9403L216.859 75.6311C216.944 75.603 217.029 75.5186 217.086 75.4062C217.114 75.2938 217.114 75.2094 217.086 75.097L215.894 72.2859C215.809 72.1172 215.667 72.0329 215.497 72.0329Z" fill="#F9BF3A"/>
<path d="M212.832 69.6151C212.718 69.6151 212.577 69.5869 212.463 69.5307C212.236 69.4464 212.037 69.2496 211.924 69.0247L210.732 66.2136C210.533 65.7357 210.76 65.1735 211.243 64.9486L211.981 64.6394C212.208 64.5269 212.491 64.5269 212.718 64.6394C212.945 64.7237 213.144 64.9205 213.258 65.1454L214.449 67.9565C214.648 68.4344 214.421 68.9966 213.939 69.2215L213.201 69.5307C213.087 69.5869 212.945 69.6151 212.832 69.6151ZM212.35 65.1454C212.293 65.1454 212.236 65.1454 212.208 65.1735L211.47 65.4827C211.271 65.5671 211.158 65.7919 211.243 66.0168L212.435 68.8279C212.463 68.9123 212.548 68.9966 212.662 69.0528C212.775 69.0809 212.86 69.0809 212.974 69.0528L213.712 68.7436C213.91 68.6593 214.024 68.4344 213.939 68.2095L212.747 65.3984C212.718 65.3141 212.633 65.2297 212.52 65.1735C212.463 65.1454 212.406 65.1454 212.35 65.1454Z" fill="#F9BF3A"/>
<path d="M209.849 63.0094C209.48 63.0094 209.111 62.7845 208.941 62.4191L207.749 59.608C207.636 59.3831 207.636 59.102 207.749 58.8771C207.834 58.6523 208.033 58.4555 208.26 58.343L208.998 58.0338C209.48 57.8371 210.048 58.0619 210.275 58.5398L211.467 61.3509C211.665 61.8288 211.438 62.391 210.956 62.6158L210.218 62.9251C210.105 62.9813 209.963 63.0094 209.849 63.0094ZM209.395 58.5398C209.338 58.5398 209.282 58.5398 209.253 58.5679L208.515 58.8771C208.43 58.9053 208.345 58.9896 208.288 59.102C208.26 59.2145 208.26 59.2988 208.288 59.4112L209.48 62.2223C209.565 62.4191 209.792 62.5315 210.019 62.4472L210.757 62.138C210.956 62.0536 211.069 61.8288 210.984 61.6039L209.792 58.7928C209.707 58.6241 209.537 58.5398 209.395 58.5398Z" fill="#F9BF3A"/>
<path d="M206.529 55.6439C206.415 55.6439 206.273 55.6158 206.16 55.5596C205.933 55.4752 205.734 55.2784 205.621 55.0536L204.429 52.2424C204.315 52.0176 204.315 51.7365 204.429 51.5116C204.514 51.2867 204.713 51.0899 204.94 50.9774L205.678 50.6682C206.16 50.4714 206.728 50.6963 206.955 51.1742L208.146 53.9853C208.26 54.2102 208.26 54.4913 208.146 54.7162C208.061 54.9411 207.863 55.1379 207.636 55.2503L206.898 55.5596C206.784 55.6158 206.671 55.6439 206.529 55.6439ZM206.075 51.1742C206.018 51.1742 205.961 51.1742 205.933 51.2023L205.195 51.5116C205.11 51.5397 205.025 51.624 204.968 51.7364C204.94 51.8489 204.94 51.9332 204.968 52.0457L206.16 54.8568C206.188 54.9411 206.273 55.0254 206.387 55.0817C206.5 55.1098 206.586 55.1098 206.699 55.0817L207.437 54.7724C207.522 54.7443 207.607 54.66 207.664 54.5476C207.692 54.4351 207.692 54.3508 207.664 54.2383L206.472 51.4272C206.387 51.2586 206.245 51.1742 206.075 51.1742Z" fill="#F9BF3A"/>
<path d="M203.398 48.6725C203.029 48.6725 202.661 48.4476 202.49 48.0822L201.298 45.2711C201.1 44.7932 201.327 44.231 201.809 44.0061L202.547 43.6969C203.029 43.5001 203.597 43.725 203.824 44.2029L205.016 47.014C205.129 47.2388 205.129 47.5199 205.016 47.7448C204.931 47.9697 204.732 48.1665 204.505 48.2789L203.767 48.5881C203.654 48.6444 203.512 48.6725 203.398 48.6725ZM202.944 44.1748C202.888 44.1748 202.831 44.1748 202.802 44.2029L202.065 44.5121C201.866 44.5964 201.752 44.8213 201.838 45.0462L203.029 47.8573C203.115 48.0541 203.342 48.1665 203.569 48.0822L204.306 47.7729C204.392 47.7448 204.477 47.6605 204.533 47.5481C204.562 47.4356 204.562 47.3513 204.533 47.2388L203.342 44.4278C203.228 44.2872 203.086 44.1748 202.944 44.1748Z" fill="#F9BF3A"/>
<path d="M200.316 41.8129C200.203 41.8129 200.061 41.7848 199.947 41.7285C199.72 41.6442 199.522 41.4474 199.408 41.2226L198.216 38.4115C198.018 37.9336 198.245 37.3714 198.727 37.1465L199.465 36.8373C199.947 36.6405 200.515 36.8654 200.742 37.3433L201.934 40.1543C202.047 40.3792 202.047 40.6603 201.934 40.8852C201.849 41.1101 201.65 41.3069 201.423 41.4193L200.685 41.7285C200.572 41.8129 200.43 41.8129 200.316 41.8129ZM198.756 38.2147L199.947 41.0258C199.976 41.1101 200.061 41.1944 200.174 41.2507C200.26 41.2788 200.373 41.2788 200.487 41.2507L201.224 40.9414C201.31 40.9133 201.395 40.829 201.451 40.7166C201.48 40.6041 201.48 40.5198 201.451 40.4073L200.26 37.5963C200.174 37.3995 199.947 37.2871 199.72 37.3714L198.983 37.6806C198.756 37.7649 198.67 37.9898 198.756 38.2147Z" fill="#F9BF3A"/>
<path d="M197.169 34.5893C196.801 34.5893 196.432 34.3644 196.261 33.999L195.07 31.1879C194.956 30.9631 194.956 30.682 195.07 30.4571C195.155 30.2322 195.353 30.0354 195.58 29.923L196.318 29.6138C196.545 29.5013 196.829 29.5013 197.056 29.6138C197.283 29.6981 197.482 29.8949 197.595 30.1197L198.787 32.9308C198.901 33.1557 198.901 33.4368 198.787 33.6617C198.702 33.8866 198.503 34.0833 198.276 34.1958L197.538 34.505C197.425 34.5612 197.283 34.5893 197.169 34.5893ZM196.715 30.0916C196.659 30.0916 196.602 30.0916 196.574 30.1197L195.836 30.429C195.751 30.4571 195.665 30.5414 195.609 30.6538C195.58 30.7663 195.58 30.8506 195.609 30.9631L196.801 33.7741C196.886 33.9709 197.113 34.0833 197.34 33.999L198.078 33.6898C198.163 33.6617 198.248 33.5774 198.305 33.4649C198.333 33.3525 198.333 33.2681 198.305 33.1557L197.113 30.3446C197.084 30.2603 196.999 30.176 196.886 30.1197C196.801 30.1197 196.744 30.0916 196.715 30.0916Z" fill="#F9BF3A"/>
<path d="M194.016 27.6739C193.902 27.6739 193.76 27.6458 193.647 27.5896C193.42 27.5052 193.221 27.3085 193.107 27.0836L191.916 24.2725C191.717 23.7946 191.944 23.2324 192.426 23.0075L193.164 22.6983C193.647 22.5015 194.214 22.7264 194.441 23.2043L195.633 26.0153C195.747 26.2402 195.747 26.5213 195.633 26.7462C195.548 26.9711 195.349 27.1679 195.122 27.2803L194.384 27.5896C194.271 27.6739 194.157 27.6739 194.016 27.6739ZM192.455 24.0757L193.647 26.8868C193.675 26.9711 193.76 27.0555 193.874 27.1117C193.987 27.1398 194.072 27.1398 194.186 27.1117L194.924 26.8025C195.009 26.7743 195.094 26.69 195.151 26.5776C195.179 26.4651 195.179 26.3808 195.151 26.2683L193.959 23.4572C193.874 23.2605 193.647 23.148 193.42 23.2324L192.682 23.5416C192.483 23.6259 192.37 23.8508 192.455 24.0757Z" fill="#F9BF3A"/>
<path d="M228.804 103.938L230.677 108.155C230.705 108.239 230.819 108.267 230.904 108.239L231.273 108.099C231.358 108.071 231.386 107.958 231.358 107.874L229.485 103.657C229.456 103.573 229.343 103.545 229.258 103.573L228.889 103.713C228.804 103.77 228.775 103.854 228.804 103.938Z" fill="#EFB33C"/>
<path d="M225.499 96.799L227.372 101.016C227.4 101.1 227.514 101.128 227.599 101.1L227.968 100.959C228.053 100.931 228.081 100.819 228.053 100.734L226.18 96.5178C226.152 96.4335 226.038 96.4054 225.953 96.4335L225.584 96.5741C225.499 96.6303 225.471 96.7146 225.499 96.799Z" fill="#EFB33C"/>
<path d="M222.374 89.6862L224.247 93.9028C224.275 93.9871 224.389 94.0152 224.474 93.9871L224.843 93.8465C224.928 93.8184 224.956 93.706 224.928 93.6217L223.055 89.4051C223.027 89.3207 222.913 89.2926 222.828 89.3207L222.459 89.4613C222.374 89.5175 222.346 89.6018 222.374 89.6862Z" fill="#EFB33C"/>
<path d="M219.265 82.8834L221.138 87.1C221.166 87.1844 221.279 87.2125 221.365 87.1844L221.734 87.0438C221.819 87.0157 221.847 86.9033 221.819 86.8189L219.946 82.6023C219.917 82.518 219.804 82.4899 219.719 82.518L219.35 82.6585C219.265 82.6867 219.236 82.7991 219.265 82.8834Z" fill="#EFB33C"/>
<path d="M216.124 75.743L217.997 79.9597C218.026 80.044 218.139 80.0722 218.224 80.0441L218.593 79.9035C218.678 79.8754 218.707 79.7629 218.678 79.6786L216.805 75.4619C216.777 75.3776 216.664 75.3495 216.578 75.3776L216.21 75.5182C216.124 75.5744 216.068 75.6587 216.124 75.743Z" fill="#EFB33C"/>
<path d="M212.996 68.6315L214.868 72.8481C214.897 72.9324 215.01 72.9605 215.095 72.9324L215.464 72.7919C215.549 72.7637 215.578 72.6513 215.549 72.567L213.677 68.3504C213.648 68.266 213.535 68.2379 213.45 68.266L213.081 68.4066C212.995 68.4347 212.939 68.5471 212.996 68.6315Z" fill="#EFB33C"/>
<path d="M210.026 61.9967L211.899 66.2133C211.928 66.2977 212.041 66.3258 212.126 66.2977L212.495 66.1571C212.58 66.129 212.609 66.0165 212.58 65.9322L210.707 61.7156C210.679 61.6313 210.565 61.6032 210.48 61.6313L210.111 61.7718C210.026 61.828 209.998 61.9124 210.026 61.9967Z" fill="#EFB33C"/>
<path d="M206.698 54.8843L208.571 59.1009C208.599 59.1852 208.713 59.2133 208.798 59.1852L209.167 59.0447C209.252 59.0166 209.281 58.9041 209.252 58.8198L207.379 54.6032C207.351 54.5188 207.237 54.4907 207.152 54.5188L206.783 54.6594C206.698 54.6875 206.67 54.8 206.698 54.8843Z" fill="#EFB33C"/>
<path d="M203.585 47.6598L205.458 51.8764C205.487 51.9607 205.6 51.9889 205.685 51.9607L206.054 51.8202C206.139 51.7921 206.168 51.6796 206.139 51.5953L204.266 47.3787C204.238 47.2944 204.125 47.2662 204.039 47.2944L203.67 47.4349C203.585 47.4911 203.529 47.5755 203.585 47.6598Z" fill="#EFB33C"/>
<path d="M200.48 40.9421L202.353 45.1587C202.381 45.2431 202.495 45.2712 202.58 45.2431L202.949 45.1025C203.034 45.0744 203.062 44.962 203.034 44.8776L201.161 40.661C201.133 40.5767 201.019 40.5486 200.934 40.5767L200.565 40.7173C200.48 40.7735 200.423 40.8578 200.48 40.9421Z" fill="#EFB33C"/>
<path d="M197.171 33.5493L199.044 37.7659C199.072 37.8503 199.186 37.8784 199.271 37.8503L199.64 37.7097C199.725 37.6816 199.753 37.5691 199.725 37.4848L197.852 33.2682C197.823 33.1839 197.71 33.1558 197.625 33.1839L197.256 33.3244C197.171 33.3525 197.142 33.465 197.171 33.5493Z" fill="#EFB33C"/>
<path d="M194.186 26.6898L196.059 30.9064C196.088 30.9907 196.201 31.0189 196.286 30.9908L196.655 30.8502C196.74 30.8221 196.769 30.7096 196.74 30.6253L194.867 26.4087C194.839 26.3244 194.726 26.2963 194.64 26.3244L194.272 26.4649C194.186 26.493 194.158 26.6055 194.186 26.6898Z" fill="#EFB33C"/>
<path d="M158.463 104.95C158.349 104.95 158.207 104.922 158.094 104.865L157.356 104.556C157.129 104.444 156.93 104.275 156.845 104.022C156.76 103.797 156.76 103.516 156.845 103.291L158.037 100.48C158.236 100.002 158.803 99.7491 159.314 99.974L160.052 100.283C160.279 100.396 160.477 100.564 160.563 100.817C160.648 101.042 160.648 101.323 160.563 101.548L159.371 104.359C159.2 104.725 158.832 104.95 158.463 104.95ZM158.917 100.48C158.746 100.48 158.604 100.564 158.548 100.733L157.356 103.544C157.328 103.628 157.328 103.741 157.356 103.853C157.384 103.966 157.469 104.022 157.583 104.078L158.321 104.388C158.519 104.472 158.775 104.388 158.86 104.163L160.052 101.351C160.08 101.267 160.08 101.155 160.052 101.042C160.023 100.93 159.938 100.874 159.825 100.817L159.087 100.508C159.03 100.48 158.973 100.48 158.917 100.48Z" fill="#F9BF3A"/>
<path d="M161.76 97.5847C161.646 97.5847 161.504 97.5566 161.391 97.5004L160.653 97.1912C160.426 97.0787 160.227 96.9101 160.142 96.6571C160.057 96.4322 160.057 96.1511 160.142 95.9262L161.334 93.1151C161.532 92.6373 162.1 92.3843 162.611 92.6091L163.349 92.9184C163.831 93.1151 164.086 93.6773 163.859 94.1833L162.668 96.9944C162.554 97.2193 162.384 97.4161 162.128 97.5004C162.015 97.5566 161.901 97.5847 161.76 97.5847ZM162.242 93.1151C162.072 93.1151 161.93 93.1995 161.873 93.3681L160.681 96.1792C160.653 96.2635 160.653 96.376 160.681 96.4884C160.71 96.6009 160.795 96.6571 160.908 96.7133L161.646 97.0225C161.731 97.0506 161.845 97.0506 161.958 97.0225C162.072 96.9944 162.128 96.9101 162.185 96.7976L163.377 93.9866C163.462 93.7898 163.377 93.5368 163.15 93.4525L162.412 93.1432C162.327 93.1151 162.299 93.1151 162.242 93.1151Z" fill="#F9BF3A"/>
<path d="M164.908 90.6127C164.795 90.6127 164.653 90.5846 164.539 90.5284L163.802 90.2192C163.319 90.0224 163.064 89.4602 163.291 88.9542L164.483 86.1431C164.681 85.6652 165.249 85.4122 165.76 85.6371L166.498 85.9463C166.725 86.0588 166.923 86.2274 167.008 86.4804C167.093 86.7053 167.093 86.9864 167.008 87.2113L165.816 90.0224C165.703 90.2473 165.533 90.4441 165.277 90.5284C165.164 90.5846 165.022 90.6127 164.908 90.6127ZM165.362 86.1431C165.192 86.1431 165.05 86.2274 164.994 86.3961L163.802 89.2072C163.773 89.2915 163.773 89.404 163.802 89.5164C163.83 89.6289 163.915 89.6851 164.029 89.7413L164.766 90.0505C164.852 90.0786 164.965 90.0786 165.079 90.0505C165.192 90.0224 165.249 89.9381 165.306 89.8256L166.498 87.0145C166.526 86.9302 166.526 86.8178 166.498 86.7053C166.469 86.5929 166.384 86.5367 166.271 86.4804L165.533 86.1712C165.476 86.1431 165.419 86.1431 165.362 86.1431Z" fill="#F9BF3A"/>
<path d="M167.998 83.7819C167.885 83.7819 167.743 83.7538 167.629 83.6976L166.891 83.3884C166.409 83.1916 166.154 82.6294 166.381 82.1234L167.573 79.3123C167.686 79.0874 167.856 78.8906 168.112 78.8063C168.339 78.722 168.623 78.722 168.85 78.8063L169.587 79.1155C169.814 79.228 170.013 79.3966 170.098 79.6496C170.183 79.8745 170.183 80.1556 170.098 80.3805L168.906 83.1916C168.793 83.4165 168.623 83.6133 168.367 83.6976C168.254 83.7538 168.112 83.7819 167.998 83.7819ZM168.452 79.2842C168.396 79.2842 168.339 79.2842 168.31 79.3123C168.197 79.3404 168.14 79.4247 168.083 79.5372L166.891 82.3483C166.806 82.545 166.891 82.7699 167.118 82.8824L167.856 83.1916C167.941 83.2197 168.055 83.2197 168.168 83.1916C168.282 83.1635 168.339 83.0792 168.395 82.9667L169.587 80.1556C169.616 80.0713 169.616 79.9588 169.587 79.8464C169.559 79.734 169.474 79.6777 169.36 79.6215L168.623 79.3123C168.566 79.3123 168.509 79.2842 168.452 79.2842Z" fill="#F9BF3A"/>
<path d="M171.15 76.5297C171.037 76.5297 170.895 76.5016 170.781 76.4454L170.043 76.1362C169.816 76.0237 169.618 75.8551 169.533 75.6021C169.447 75.3772 169.447 75.0961 169.533 74.8712L170.725 72.0601C170.923 71.5822 171.491 71.3292 172.002 71.5541L172.739 71.8633C172.966 71.9758 173.165 72.1444 173.25 72.3974C173.335 72.6223 173.335 72.9034 173.25 73.1283L172.058 75.9394C171.945 76.1643 171.775 76.3611 171.519 76.4454C171.406 76.5016 171.264 76.5297 171.15 76.5297ZM171.604 72.032C171.434 72.032 171.292 72.1163 171.235 72.285L170.043 75.0961C170.015 75.1804 170.015 75.2928 170.043 75.4053C170.072 75.5177 170.157 75.574 170.27 75.6302L171.008 75.9394C171.093 75.9675 171.207 75.9675 171.32 75.9394C171.434 75.9113 171.491 75.8269 171.547 75.7145L172.739 72.9034C172.768 72.8191 172.768 72.7066 172.739 72.5942C172.711 72.4818 172.626 72.4255 172.512 72.3693L171.775 72.0601C171.718 72.0601 171.661 72.032 171.604 72.032Z" fill="#F9BF3A"/>
<path d="M174.276 69.642C174.162 69.642 174.02 69.6139 173.907 69.5577L173.169 69.2485C172.686 69.0517 172.431 68.4895 172.658 67.9835L173.85 65.1724C173.963 64.9475 174.134 64.7507 174.389 64.6664C174.616 64.5821 174.9 64.5821 175.127 64.6664L175.865 64.9756C176.092 65.0881 176.29 65.2567 176.376 65.5097C176.461 65.7346 176.461 66.0157 176.376 66.2406L175.184 69.0517C175.042 69.4171 174.673 69.642 174.276 69.642ZM174.758 65.1443C174.701 65.1443 174.644 65.1443 174.616 65.1724C174.503 65.2005 174.446 65.2848 174.389 65.3973L173.197 68.2084C173.112 68.4051 173.197 68.6581 173.424 68.7425L174.162 69.0517C174.361 69.136 174.616 69.0517 174.701 68.8268L175.893 66.0157C175.921 65.9314 175.921 65.8189 175.893 65.7065C175.865 65.5941 175.78 65.5378 175.666 65.4816L174.928 65.1724C174.843 65.1724 174.815 65.1443 174.758 65.1443Z" fill="#F9BF3A"/>
<path d="M177.248 63.008C177.135 63.008 176.993 62.9798 176.879 62.9236L176.141 62.6144C175.659 62.4176 175.404 61.8554 175.631 61.3494L176.823 58.5384C176.936 58.3135 177.106 58.1167 177.362 58.0324C177.589 57.948 177.873 57.948 178.1 58.0324L178.837 58.3416C179.064 58.454 179.263 58.6227 179.348 58.8757C179.433 59.1006 179.433 59.3817 179.348 59.6066L178.156 62.4176C177.986 62.7831 177.646 63.008 177.248 63.008ZM177.702 58.5384C177.646 58.5384 177.589 58.5384 177.56 58.5665C177.447 58.5946 177.39 58.6789 177.333 58.7914L176.141 61.6024C176.056 61.7992 176.141 62.0522 176.368 62.1365L177.106 62.4457C177.305 62.5301 177.532 62.4457 177.645 62.2209L178.837 59.4098C178.866 59.3255 178.866 59.213 178.837 59.1006C178.809 58.9881 178.724 58.9319 178.61 58.8757L177.873 58.5665C177.816 58.5384 177.759 58.5384 177.702 58.5384Z" fill="#F9BF3A"/>
<path d="M180.576 55.6431C180.463 55.6431 180.321 55.615 180.207 55.5588L179.47 55.2496C178.987 55.0528 178.732 54.4906 178.959 53.9846L180.151 51.1735C180.349 50.6956 180.917 50.4426 181.428 50.6675L182.165 50.9767C182.392 51.0892 182.591 51.2578 182.676 51.5108C182.761 51.7357 182.761 52.0168 182.676 52.2417L181.484 55.0528C181.371 55.2777 181.201 55.4745 180.945 55.5588C180.832 55.615 180.69 55.6431 180.576 55.6431ZM181.03 51.1735C180.86 51.1735 180.718 51.2578 180.661 51.4265L179.47 54.2376C179.384 54.4344 179.47 54.6874 179.697 54.7717L180.434 55.0809C180.52 55.109 180.633 55.109 180.747 55.0809C180.86 55.0528 180.917 54.9685 180.974 54.856L182.165 52.0449C182.194 51.9606 182.194 51.8482 182.165 51.7357C182.137 51.6233 182.052 51.567 181.938 51.5108L181.201 51.2016C181.144 51.1735 181.087 51.1735 181.03 51.1735Z" fill="#F9BF3A"/>
<path d="M183.701 48.6714C183.587 48.6714 183.445 48.6433 183.332 48.5871L182.594 48.2779C182.367 48.1654 182.169 47.9968 182.083 47.7438C181.998 47.5189 181.998 47.2378 182.083 47.0129L183.275 44.2018C183.389 43.9769 183.559 43.7801 183.814 43.6958C184.041 43.6115 184.325 43.6115 184.552 43.6958L185.29 44.005C185.772 44.2018 186.028 44.764 185.801 45.27L184.609 48.0811C184.439 48.4465 184.098 48.6714 183.701 48.6714ZM184.183 44.2018C184.127 44.2018 184.07 44.2018 184.041 44.2299C183.928 44.258 183.871 44.3424 183.814 44.4548L182.623 47.2659C182.594 47.3502 182.594 47.4627 182.623 47.5751C182.651 47.6875 182.736 47.7438 182.85 47.8L183.587 48.1092C183.786 48.1935 184.041 48.1092 184.127 47.8843L185.318 45.0732C185.403 44.8765 185.318 44.6235 185.091 44.5391L184.354 44.2299C184.268 44.2018 184.212 44.2018 184.183 44.2018Z" fill="#F9BF3A"/>
<path d="M186.783 41.8403C186.669 41.8403 186.528 41.8122 186.414 41.756L185.676 41.4468C185.449 41.3343 185.251 41.1657 185.165 40.9127C185.08 40.6878 185.08 40.4067 185.165 40.1818L186.357 37.3707C186.556 36.8929 187.123 36.6399 187.634 36.8648L188.372 37.174C188.855 37.3708 189.11 37.933 188.883 38.439L187.691 41.25C187.578 41.4749 187.407 41.6717 187.152 41.756C187.038 41.8122 186.925 41.8403 186.783 41.8403ZM187.237 37.3707C187.067 37.3707 186.925 37.4551 186.868 37.6237L185.676 40.4348C185.648 40.5191 185.648 40.6316 185.676 40.744C185.705 40.8565 185.79 40.9127 185.903 40.9689L186.641 41.2781C186.726 41.3062 186.84 41.3062 186.953 41.2781C187.067 41.25 187.123 41.1657 187.18 41.0532L188.372 38.2422C188.457 38.0454 188.372 37.7924 188.145 37.7081L187.407 37.3989C187.351 37.3707 187.294 37.3707 187.237 37.3707Z" fill="#F9BF3A"/>
<path d="M189.935 34.5877C189.822 34.5877 189.68 34.5595 189.566 34.5033L188.829 34.1941C188.602 34.0817 188.403 33.913 188.318 33.66C188.233 33.4351 188.233 33.154 188.318 32.9291L189.51 30.1181C189.708 29.6402 190.276 29.3872 190.787 29.6121L191.525 29.9213C191.752 30.0337 191.95 30.2024 192.035 30.4554C192.12 30.6803 192.12 30.9614 192.035 31.1863L190.843 33.9973C190.673 34.3628 190.333 34.5877 189.935 34.5877ZM190.389 30.1181C190.219 30.1181 190.077 30.2024 190.02 30.3711L188.829 33.1821C188.8 33.2665 188.8 33.3789 188.829 33.4913C188.857 33.6038 188.942 33.66 189.056 33.7162L189.793 34.0254C189.992 34.1098 190.247 34.0254 190.333 33.8006L191.525 30.9895C191.553 30.9052 191.553 30.7927 191.525 30.6803C191.496 30.5678 191.411 30.5116 191.298 30.4554L190.56 30.1462C190.503 30.1181 190.446 30.1181 190.389 30.1181Z" fill="#F9BF3A"/>
<path d="M193.084 27.7009C192.97 27.7009 192.828 27.6728 192.715 27.6166L191.977 27.3073C191.75 27.1949 191.551 27.0262 191.466 26.7732C191.381 26.5483 191.381 26.2672 191.466 26.0423L192.658 23.2312C192.857 22.7533 193.424 22.5003 193.935 22.7252L194.673 23.0345C195.155 23.2312 195.411 23.7935 195.184 24.2995L193.992 27.1106C193.878 27.3354 193.708 27.5322 193.453 27.6166C193.339 27.6728 193.197 27.7009 193.084 27.7009ZM193.538 23.2312C193.367 23.2312 193.226 23.3156 193.169 23.4842L191.977 26.2953C191.949 26.3797 191.949 26.4921 191.977 26.6046C192.005 26.717 192.091 26.7732 192.204 26.8294L192.942 27.1387C193.027 27.1668 193.14 27.1668 193.254 27.1387C193.367 27.1106 193.424 27.0262 193.481 26.9138L194.673 24.1027C194.758 23.9059 194.673 23.6529 194.446 23.5686L193.708 23.2593C193.651 23.2312 193.595 23.2312 193.538 23.2312Z" fill="#F9BF3A"/>
<path d="M158.295 103.938L156.422 108.154C156.394 108.238 156.28 108.267 156.195 108.238L155.826 108.098C155.741 108.07 155.713 107.957 155.741 107.873L157.614 103.656C157.642 103.572 157.756 103.544 157.841 103.572L158.21 103.713C158.295 103.769 158.323 103.881 158.295 103.938Z" fill="#EFB33C"/>
<path d="M161.611 96.8257L159.739 101.042C159.71 101.127 159.597 101.155 159.512 101.127L159.143 100.986C159.058 100.958 159.029 100.846 159.058 100.761L160.93 96.5446C160.959 96.4603 161.072 96.4321 161.157 96.4602L161.526 96.6008C161.611 96.6289 161.64 96.7414 161.611 96.8257Z" fill="#EFB33C"/>
<path d="M164.74 89.6848L162.867 93.9014C162.839 93.9858 162.726 94.0139 162.64 93.9858L162.272 93.8452C162.186 93.8171 162.158 93.7046 162.186 93.6203L164.059 89.4037C164.088 89.3194 164.201 89.2913 164.286 89.3194L164.655 89.4599C164.74 89.5162 164.797 89.6005 164.74 89.6848Z" fill="#EFB33C"/>
<path d="M167.826 82.8831L165.953 87.0997C165.925 87.184 165.812 87.2121 165.726 87.184L165.357 87.0434C165.272 87.0153 165.244 86.9029 165.272 86.8185L167.145 82.602C167.174 82.5176 167.287 82.4895 167.372 82.5176L167.741 82.6582C167.826 82.7144 167.855 82.7987 167.826 82.8831Z" fill="#EFB33C"/>
<path d="M170.983 75.7437L169.11 79.9603C169.081 80.0447 168.968 80.0728 168.883 80.0447L168.514 79.9041C168.429 79.876 168.4 79.7635 168.429 79.6792L170.302 75.4625C170.33 75.3782 170.443 75.3501 170.529 75.3782L170.898 75.5188C170.983 75.575 171.039 75.6593 170.983 75.7437Z" fill="#EFB33C"/>
<path d="M174.135 68.6306L172.262 72.8472C172.234 72.9316 172.12 72.9597 172.035 72.9316L171.666 72.791C171.581 72.7629 171.553 72.6505 171.581 72.5661L173.454 68.3495C173.482 68.2652 173.596 68.2371 173.681 68.2652L174.05 68.4057C174.135 68.462 174.163 68.5463 174.135 68.6306Z" fill="#EFB33C"/>
<path d="M177.088 62.0242L175.215 66.2408C175.187 66.3252 175.073 66.3533 174.988 66.3252L174.619 66.1846C174.534 66.1565 174.506 66.0441 174.534 65.9597L176.407 61.7431C176.435 61.6587 176.549 61.6306 176.634 61.6587L177.003 61.7993C177.088 61.8274 177.145 61.9399 177.088 62.0242Z" fill="#EFB33C"/>
<path d="M180.405 54.8843L178.532 59.1009C178.503 59.1852 178.39 59.2133 178.305 59.1852L177.936 59.0447C177.85 59.0165 177.822 58.9041 177.85 58.8198L179.723 54.6032C179.752 54.5188 179.865 54.4907 179.95 54.5188L180.319 54.6594C180.405 54.7156 180.461 54.8 180.405 54.8843Z" fill="#EFB33C"/>
<path d="M183.553 47.6873L181.68 51.9039C181.652 51.9883 181.538 52.0164 181.453 51.9883L181.084 51.8477C180.999 51.8196 180.971 51.7072 180.999 51.6228L182.872 47.4062C182.9 47.3218 183.014 47.2937 183.099 47.3218L183.468 47.4624C183.524 47.4905 183.581 47.6029 183.553 47.6873Z" fill="#EFB33C"/>
<path d="M186.615 40.9406L184.742 45.1572C184.714 45.2415 184.601 45.2696 184.515 45.2415L184.147 45.1009C184.061 45.0728 184.033 44.9604 184.061 44.8761L185.934 40.6595C185.963 40.5751 186.076 40.547 186.161 40.5751L186.53 40.7157C186.615 40.7719 186.672 40.8562 186.615 40.9406Z" fill="#EFB33C"/>
<path d="M189.936 33.5483L188.063 37.7649C188.034 37.8493 187.921 37.8774 187.836 37.8493L187.467 37.7087C187.382 37.6806 187.353 37.5682 187.382 37.4838L189.255 33.2672C189.283 33.1829 189.397 33.1548 189.482 33.1829L189.851 33.3235C189.936 33.3797 189.964 33.464 189.936 33.5483Z" fill="#EFB33C"/>
<path d="M192.916 26.6901L191.043 30.9067C191.015 30.991 190.901 31.0191 190.816 30.991L190.447 30.8504C190.362 30.8223 190.334 30.7099 190.362 30.6255L192.235 26.409C192.263 26.3246 192.377 26.2965 192.462 26.3246L192.831 26.4652C192.916 26.5214 192.945 26.6057 192.916 26.6901Z" fill="#EFB33C"/>
<path d="M193.791 25.1164C194.103 25.1164 194.387 24.8634 194.387 24.526V16.4863C194.387 16.1771 194.132 15.896 193.791 15.896C193.479 15.896 193.195 16.149 193.195 16.4863V24.526C193.195 24.8634 193.479 25.1164 193.791 25.1164Z" fill="#EFB33C"/>
<path d="M116.066 12.718C115.584 12.5494 115.243 13.1397 112.377 14.3766C111.214 14.8826 110.788 14.995 110.589 15.0512C109.142 15.3885 107.865 15.1918 107.127 15.0512C103.353 14.2922 99.8341 12.5212 99.8341 12.5212C99.8341 12.5212 95.6626 10.3848 90.1857 8.19218C86.6385 6.75853 83.971 5.74654 80.2251 5.21244C78.2671 4.93133 75.8266 4.62212 72.705 5.1C70.7186 5.40922 68.9592 5.83088 65.5822 7.09586C63.539 7.88296 61.7512 8.78251 59.3959 9.99127C58.8567 10.2724 59.254 10.1037 53.5784 13.3365C49.8042 15.4729 47.307 16.7097 46.3137 17.019C45.3489 17.3001 44.0435 17.6936 42.9652 17.1314C41.8584 16.5692 41.6882 15.3604 41.2909 15.4729C40.8936 15.5572 40.6382 16.7941 41.0639 17.6936C41.603 18.8181 43.0787 19.0992 43.8733 19.2397C45.5475 19.5489 46.9381 19.2116 48.9245 18.5651C51.4785 17.7498 52.7271 17.1595 55.65 16.007C57.3811 15.3323 59.1121 14.6577 61.3539 13.8987C63.312 13.2521 65.0998 12.6618 67.5119 12.1277C68.9308 11.8185 70.7186 11.4249 73.1023 11.2281C74.0672 11.1438 76.5644 11.0033 79.8278 11.3406C82.24 11.5936 83.9426 12.0153 86.2128 12.5494C90.1857 13.5051 93.1938 14.6014 93.96 14.8825C98.0747 16.4005 103.779 17.9466 106.276 18.7618C112.15 20.6453 113.853 22.2757 114.789 22.1914C116.492 21.9946 117.712 13.3365 116.066 12.718Z" fill="#C440F8"/>
<path d="M114.613 21.3201C114.386 21.292 113.819 20.9828 113.251 20.7298C112.003 20.1113 109.931 19.0431 106.469 17.9468C105.674 17.6938 104.568 17.3565 103.291 16.991C100.481 16.1477 96.9624 15.1076 94.153 14.0956C92.7908 13.5896 89.9531 12.6338 86.3207 11.7343C84.0789 11.2002 82.2911 10.7504 79.8222 10.4974C78.4601 10.3569 77.0696 10.2725 75.7074 10.2725C74.771 10.2725 73.8345 10.3006 72.9548 10.385C70.4576 10.5817 68.5846 11.0034 67.2509 11.2845C64.7253 11.8467 62.8523 12.4652 61.0078 13.0836C58.6808 13.8707 56.8646 14.5735 55.2471 15.22C54.4242 15.5574 53.7431 15.8104 53.1188 16.0634C51.5296 16.7099 50.3945 17.1597 48.5783 17.75C47.1311 18.2279 46.0811 18.4809 45.0311 18.4809C44.6622 18.4809 44.3217 18.4528 43.9528 18.3966C43.3568 18.2841 42.1366 18.0592 41.7393 17.3002C41.7109 17.2721 41.7109 17.244 41.7109 17.2159C41.938 17.4408 42.1934 17.6376 42.5339 17.8343C43.0163 18.0873 43.5839 18.1998 44.1798 18.1998C45.0311 18.1998 45.8541 17.9468 46.5068 17.7781C47.6703 17.4408 50.3945 16.0634 53.9701 14.0394C57.1484 12.2122 58.4254 11.4813 59.0213 11.144C59.4754 10.8629 59.5322 10.8348 59.7592 10.7223L60.1565 10.5255C62.2848 9.4292 63.9591 8.58588 65.8604 7.88311C69.1522 6.64623 70.8549 6.22457 72.8413 5.91535C73.8913 5.74668 74.8845 5.66235 75.9345 5.66235C77.5804 5.66235 78.9709 5.85913 80.106 6.02779C83.8519 6.5619 86.5194 7.602 89.8963 8.95132C95.2029 11.0596 99.261 13.1398 99.4596 13.2242C99.6015 13.3085 103.12 15.0795 106.951 15.8385C107.405 15.9228 108.086 16.0353 108.909 16.0353C109.534 16.0353 110.186 15.9509 110.782 15.8104C111.094 15.726 111.577 15.5855 112.712 15.1076C114.103 14.4892 114.925 14.0394 115.465 13.7583C115.578 13.7021 115.72 13.6177 115.805 13.5615C116.004 14.0113 116.174 15.3606 115.89 17.497C115.521 19.8021 114.897 21.0952 114.613 21.3201Z" fill="#951BC4"/>
<path d="M79.8242 108.914C79.8242 107.452 81.0161 106.271 82.4917 106.271C83.9674 106.271 85.1592 107.452 85.1592 108.914C85.1592 110.376 83.9674 111.556 82.4917 111.556C81.0161 111.556 79.8242 110.376 79.8242 108.914ZM80.3918 108.914C80.3918 110.066 81.3282 110.994 82.4917 110.994C83.6552 110.994 84.5917 110.066 84.5917 108.914C84.5917 107.761 83.6552 106.834 82.4917 106.834C81.3282 106.834 80.3918 107.761 80.3918 108.914Z" fill="#F9BF3A"/>
<path d="M87.3792 110.15C87.3792 114.704 73.1904 120.832 44.8127 120.832C16.5768 120.832 2.24609 114.676 2.24609 110.15H87.3792Z" fill="#951BC4"/>
<path d="M3.71484 109.11C3.71484 107.648 4.90671 106.468 6.38235 106.468C7.85799 106.468 9.04985 107.648 9.04985 109.11C9.04985 110.572 7.85799 111.752 6.38235 111.752C4.93509 111.752 3.71484 110.572 3.71484 109.11ZM4.2824 109.11C4.2824 110.262 5.21886 111.19 6.38235 111.19C7.54583 111.19 8.4823 110.262 8.4823 109.11C8.4823 107.957 7.54583 107.03 6.38235 107.03C5.24724 107.03 4.2824 107.957 4.2824 109.11Z" fill="#F9BF3A"/>
<path d="M22.3307 110.291H2.21094C2.21094 113.946 12.512 119.708 37.6547 120.833C30.7305 119.905 23.2956 113.946 22.3307 110.291Z" fill="#740B9C"/>
<path d="M78.2164 109.982H68.1139C64.6235 115.52 58.4371 120.046 52.3359 120.693C59.0615 120.552 64.4816 119.709 68.0572 119.146C72.1436 118.022 76.3719 114.227 78.2164 109.982Z" fill="#C440F8"/>
<path d="M88.7655 110.263H0.454043C0.198644 110.263 0 110.067 0 109.814C0 109.561 0.198644 109.364 0.454043 109.364H88.7938C89.0492 109.364 89.2479 109.561 89.2479 109.814C89.2479 110.067 89.0209 110.263 88.7655 110.263Z" fill="#C440F8"/>
<path d="M8.96481 104.585L8.22699 104.276C7.99997 104.163 7.80133 103.995 7.71619 103.742C7.63106 103.517 7.63106 103.236 7.71619 103.011L8.90806 100.2C9.02157 99.9749 9.19183 99.7781 9.44723 99.6937C9.67425 99.6094 9.95803 99.6094 10.1851 99.6937L10.9229 100.003C11.4053 100.2 11.6607 100.762 11.4337 101.268L10.2418 104.079C10.1283 104.304 9.95803 104.501 9.70263 104.585C9.58912 104.641 9.44723 104.669 9.33372 104.669C9.22021 104.641 9.07832 104.613 8.96481 104.585ZM10.8945 101.015C10.9796 100.818 10.8945 100.565 10.6675 100.481L9.92965 100.172C9.84452 100.144 9.73101 100.144 9.6175 100.172C9.50399 100.2 9.44723 100.284 9.39048 100.397L8.19861 103.208C8.17024 103.292 8.17024 103.404 8.19861 103.517C8.22699 103.629 8.31213 103.685 8.42564 103.742L9.16346 104.051C9.24859 104.079 9.3621 104.079 9.47561 104.051C9.58912 104.023 9.64588 103.938 9.70263 103.826L10.8945 101.015Z" fill="#F9BF3A"/>
<path d="M12.2773 97.2192L11.5395 96.91C11.3125 96.7976 11.1138 96.6289 11.0287 96.3759C10.9436 96.151 10.9436 95.8699 11.0287 95.645L12.2206 92.8339C12.3341 92.609 12.5043 92.4122 12.7597 92.3279C12.9868 92.2436 13.2705 92.2436 13.4976 92.3279L14.2354 92.6371C14.7178 92.8339 14.9732 93.3961 14.7462 93.9021L13.5543 96.7132C13.4408 96.9381 13.2705 97.1349 13.0151 97.2192C12.9016 97.2754 12.7597 97.3036 12.6462 97.3036C12.5043 97.2754 12.3908 97.2473 12.2773 97.2192ZM14.207 93.6491C14.2921 93.4523 14.207 93.1993 13.98 93.115L13.2422 92.8058C13.157 92.7777 13.0435 92.7777 12.93 92.8058C12.8165 92.8339 12.7597 92.9182 12.703 93.0307L11.5111 95.8418C11.4827 95.9261 11.4827 96.0386 11.5111 96.151C11.5395 96.2635 11.6246 96.3197 11.7381 96.3759L12.476 96.6851C12.5611 96.7132 12.6746 96.7132 12.7881 96.6851C12.9016 96.657 12.9584 96.5727 13.0151 96.4602L14.207 93.6491Z" fill="#F9BF3A"/>
<path d="M15.4066 90.2196L14.6688 89.9104C14.1864 89.7137 13.931 89.1514 14.158 88.6454L15.3499 85.8344C15.5485 85.3565 16.1161 85.1035 16.6269 85.3284L17.3647 85.6376C17.5917 85.75 17.7904 85.9187 17.8755 86.1717C17.9607 86.3966 17.9607 86.6777 17.8755 86.9026L16.6837 89.7137C16.5701 89.9385 16.3999 90.1353 16.1445 90.2196C16.031 90.2759 15.8891 90.304 15.7756 90.304C15.6621 90.304 15.5485 90.2759 15.4066 90.2196ZM15.8891 86.0593L14.6972 88.8703C14.6121 89.0671 14.6972 89.3201 14.9242 89.4044L15.6621 89.7137C15.7472 89.7418 15.8607 89.7418 15.9742 89.7137C16.0877 89.6855 16.1445 89.6012 16.2012 89.4888L17.3931 86.6777C17.4215 86.5934 17.4215 86.4809 17.3931 86.3685C17.3647 86.256 17.2796 86.1998 17.1661 86.1436L16.4283 85.8344C16.3715 85.8063 16.3147 85.8063 16.2864 85.8063C16.0877 85.8344 15.9458 85.9187 15.8891 86.0593Z" fill="#F9BF3A"/>
<path d="M18.5039 83.3896L17.7661 83.0804C17.539 82.968 17.3404 82.7993 17.2553 82.5463C17.1701 82.3214 17.1701 82.0403 17.2553 81.8154L18.4471 79.0043C18.5606 78.7794 18.7309 78.5826 18.9863 78.4983C19.2133 78.414 19.4971 78.414 19.7241 78.4983L20.4619 78.8075C20.9443 79.0043 21.1997 79.5665 20.9727 80.0725L19.7809 82.8836C19.639 83.2491 19.2701 83.474 18.8728 83.474C18.7593 83.474 18.6174 83.4459 18.5039 83.3896ZM19.1849 79.0043C19.0714 79.0324 19.0147 79.1167 18.9579 79.2292L17.7661 82.0403C17.7377 82.1246 17.7377 82.2371 17.7661 82.3495C17.7944 82.462 17.8796 82.5182 17.9931 82.5744L18.7309 82.8836C18.9295 82.968 19.1849 82.8836 19.2701 82.6588L20.4619 79.8476C20.5471 79.6509 20.4619 79.3979 20.2349 79.3135L19.4971 79.0043C19.4403 78.9762 19.3836 78.9762 19.3552 78.9762C19.2984 78.9762 19.2417 79.0043 19.1849 79.0043Z" fill="#F9BF3A"/>
<path d="M21.6562 76.1367L20.9184 75.8275C20.6914 75.715 20.4927 75.5464 20.4076 75.2934C20.3225 75.0685 20.3225 74.7874 20.4076 74.5625L21.5995 71.7514C21.7981 71.2735 22.3657 71.0205 22.8765 71.2454L23.6143 71.5546C23.8413 71.667 24.04 71.8357 24.1251 72.0887C24.2102 72.3136 24.2102 72.5947 24.1251 72.8196L22.9332 75.6307C22.7913 75.9961 22.4224 76.221 22.0251 76.221C21.9116 76.221 21.7697 76.1929 21.6562 76.1367ZM22.1386 71.9763L20.9468 74.7874C20.9184 74.8717 20.9184 74.9841 20.9468 75.0966C20.9752 75.209 21.0603 75.2653 21.1738 75.3215L21.9116 75.6307C22.1103 75.715 22.3373 75.6307 22.4508 75.4058L23.6427 72.5947C23.671 72.5104 23.671 72.3979 23.6427 72.2855C23.6143 72.173 23.5292 72.1168 23.4156 72.0606L22.6778 71.7514C22.6211 71.7233 22.5643 71.7233 22.5359 71.7233C22.3373 71.7514 22.1954 71.8357 22.1386 71.9763Z" fill="#F9BF3A"/>
<path d="M24.8051 69.2487L24.0673 68.9395C23.5848 68.7427 23.3294 68.1805 23.5565 67.6745L24.7483 64.8634C24.8618 64.6386 25.0321 64.4418 25.2875 64.3574C25.5145 64.2731 25.7983 64.2731 26.0253 64.3574L26.7631 64.6667C27.2456 64.8634 27.501 65.4257 27.2739 65.9316L26.0821 68.7427C25.9686 68.9676 25.7983 69.1644 25.5429 69.2487C25.4294 69.3049 25.2875 69.3331 25.174 69.3331C25.0321 69.3331 24.9186 69.3049 24.8051 69.2487ZM25.4861 64.8915C25.3726 64.9197 25.3159 65.004 25.2591 65.1164L24.0673 67.9275C23.9821 68.1243 24.0673 68.3773 24.2943 68.4616L25.0321 68.7708C25.1172 68.799 25.2307 68.799 25.3443 68.7708C25.4578 68.7427 25.5145 68.6584 25.5713 68.546L26.7631 65.7349C26.8483 65.5381 26.7631 65.2851 26.5361 65.2008L25.7983 64.8915C25.7415 64.8634 25.6848 64.8634 25.6564 64.8634C25.5713 64.8353 25.5429 64.8634 25.4861 64.8915Z" fill="#F9BF3A"/>
<path d="M27.7543 62.6428L27.0165 62.3336C26.5341 62.1368 26.2787 61.5746 26.5057 61.0686L27.6975 58.2575C27.8962 57.7796 28.4637 57.5266 28.9745 57.7515L29.7124 58.0607C29.9394 58.1731 30.138 58.3418 30.2232 58.5948C30.3083 58.8197 30.3083 59.1008 30.2232 59.3257L29.0313 62.1368C28.8894 62.5022 28.5205 62.7271 28.1232 62.7271C28.0097 62.699 27.8962 62.699 27.7543 62.6428ZM28.2367 58.4824L27.0449 61.2935C26.9597 61.4902 27.0449 61.7432 27.2719 61.8276L28.0097 62.1368C28.2083 62.2211 28.4637 62.1368 28.5489 61.9119L29.7407 59.1008C29.7691 59.0165 29.7691 58.904 29.7407 58.7916C29.7124 58.6791 29.6272 58.6229 29.5137 58.5667L28.7759 58.2575C28.7191 58.2294 28.6624 58.2294 28.634 58.2294C28.4354 58.2294 28.2935 58.3137 28.2367 58.4824Z" fill="#F9BF3A"/>
<path d="M31.0859 55.2775L30.3481 54.9683C30.1211 54.8558 29.9224 54.6872 29.8373 54.4342C29.7522 54.2093 29.7522 53.9282 29.8373 53.7033L31.0292 50.8922C31.2278 50.4143 31.7954 50.1614 32.3062 50.3862L33.044 50.6955C33.271 50.8079 33.4696 50.9766 33.5548 51.2296C33.6399 51.4544 33.6399 51.7355 33.5548 51.9604L32.3629 54.7715C32.2494 54.9964 32.0791 55.1931 31.8237 55.2775C31.7102 55.3337 31.5683 55.3618 31.4548 55.3618C31.3413 55.3337 31.1994 55.3337 31.0859 55.2775ZM31.54 51.1171L30.3481 53.9282C30.3197 54.0125 30.3197 54.1249 30.3481 54.2374C30.3765 54.3498 30.4616 54.406 30.5751 54.4623L31.3129 54.7715C31.3981 54.7996 31.5116 54.7996 31.6251 54.7715C31.7386 54.7434 31.7954 54.659 31.8521 54.5466L33.044 51.7355C33.0724 51.6512 33.0724 51.5388 33.044 51.4263C33.0156 51.3139 32.9305 51.2577 32.817 51.2014L32.0791 50.8922C32.0224 50.8641 31.9656 50.8641 31.9372 50.8641C31.767 50.8641 31.6251 50.9484 31.54 51.1171Z" fill="#F9BF3A"/>
<path d="M34.2265 48.3062L33.4887 47.997C33.2617 47.8846 33.063 47.7159 32.9779 47.4629C32.8928 47.238 32.8928 46.9569 32.9779 46.732L34.1698 43.9209C34.3684 43.443 34.936 43.19 35.4468 43.4149L36.1846 43.7242C36.667 43.9209 36.9224 44.4831 36.6954 44.9891L35.5035 47.8002C35.3616 48.1657 34.9927 48.3906 34.5954 48.3906C34.4535 48.3625 34.34 48.3343 34.2265 48.3062ZM34.6806 44.1458L33.4887 46.9569C33.4603 47.0412 33.4603 47.1537 33.4887 47.2661C33.5171 47.3786 33.6022 47.4348 33.7157 47.491L34.4535 47.8002C34.6522 47.8846 34.9076 47.8002 34.9927 47.5754L36.1846 44.7643C36.2697 44.5675 36.1846 44.3145 35.9576 44.2301L35.2197 43.9209C35.163 43.8928 35.1062 43.8928 35.0779 43.8928C34.8792 43.8928 34.7373 43.9772 34.6806 44.1458Z" fill="#F9BF3A"/>
<path d="M37.289 41.4479L36.5512 41.1387C36.3242 41.0263 36.1255 40.8576 36.0404 40.6046C35.9553 40.3797 35.9553 40.0986 36.0404 39.8737L37.2323 37.0626C37.4309 36.5848 37.9985 36.3318 38.5093 36.5567L39.2471 36.8659C39.7295 37.0626 39.9849 37.6249 39.7579 38.1309L38.566 40.9419C38.4525 41.1668 38.2822 41.3636 38.0268 41.4479C37.9133 41.5041 37.7714 41.5323 37.6579 41.5323C37.5444 41.5323 37.4309 41.5041 37.289 41.4479ZM39.2471 37.906C39.3322 37.7092 39.2471 37.4562 39.0201 37.3719L38.2822 37.0626C38.0836 36.9783 37.8566 37.0626 37.7431 37.2875L36.5512 40.0986C36.5228 40.1829 36.5228 40.2954 36.5512 40.4078C36.5796 40.5203 36.6647 40.5765 36.7782 40.6327L37.516 40.9419C37.6012 40.97 37.7147 40.97 37.8282 40.9419C37.9417 40.9138 37.9985 40.8295 38.0552 40.717L39.2471 37.906Z" fill="#F9BF3A"/>
<path d="M40.4648 34.1952L39.727 33.886C39.5 33.7736 39.3013 33.6049 39.2162 33.3519C39.1311 33.127 39.1311 32.8459 39.2162 32.621L40.408 29.81C40.5216 29.5851 40.6918 29.3883 40.9472 29.304C41.1742 29.2196 41.458 29.2196 41.685 29.304L42.4229 29.6132C42.6499 29.7256 42.8485 29.8943 42.9336 30.1473C43.0188 30.3722 43.0188 30.6533 42.9336 30.8782L41.7418 33.6892C41.5999 34.0547 41.231 34.2796 40.8337 34.2796C40.6918 34.2796 40.5783 34.2515 40.4648 34.1952ZM41.1459 29.8381C41.0324 29.8662 40.9756 29.9505 40.9188 30.063L39.727 32.874C39.6986 32.9584 39.6986 33.0708 39.727 33.1833C39.7554 33.2957 39.8405 33.3519 39.954 33.4081L40.6918 33.7174C40.8905 33.8017 41.1459 33.7174 41.231 33.4925L42.4229 30.6814C42.4512 30.5971 42.4512 30.4846 42.4229 30.3722C42.3945 30.2597 42.3093 30.2035 42.1958 30.1473L41.458 29.8381C41.4013 29.81 41.3445 29.81 41.3161 29.81C41.231 29.81 41.1742 29.81 41.1459 29.8381Z" fill="#F9BF3A"/>
<path d="M43.582 27.308L42.8442 26.9988C42.6172 26.8864 42.4185 26.7177 42.3334 26.4647C42.2482 26.2398 42.2482 25.9587 42.3334 25.7338L43.5253 22.9228C43.7239 22.4449 44.2915 22.1919 44.8023 22.4168L45.5401 22.726C46.0225 22.9227 46.2779 23.485 46.0509 23.991L44.859 26.802C44.7455 27.0269 44.5752 27.2237 44.3198 27.308C44.2063 27.3642 44.0644 27.3924 43.9509 27.3924C43.8374 27.3924 43.6955 27.3642 43.582 27.308ZM45.5117 23.7661C45.5968 23.5693 45.5117 23.3163 45.2847 23.232L44.5469 22.9228C44.3482 22.8384 44.0928 22.9227 44.0077 23.1476L42.8158 25.9587C42.7874 26.043 42.7874 26.1555 42.8158 26.2679C42.8442 26.3804 42.9293 26.4366 43.0428 26.4928L43.7806 26.802C43.8658 26.8301 43.9793 26.8301 44.0928 26.802C44.2063 26.7739 44.2631 26.6896 44.3198 26.5771L45.5117 23.7661Z" fill="#F9BF3A"/>
<path d="M9.1662 103.657L7.29327 107.874C7.26489 107.958 7.15138 107.986 7.06625 107.958L6.69734 107.817C6.6122 107.789 6.58383 107.677 6.6122 107.592L8.48514 103.376C8.51352 103.292 8.62703 103.263 8.71216 103.292L9.08107 103.432C9.1662 103.46 9.22296 103.573 9.1662 103.657Z" fill="#EFB33C"/>
<path d="M12.4865 96.5166L10.6136 100.733C10.5852 100.818 10.4717 100.846 10.3866 100.818L10.0177 100.677C9.93252 100.649 9.90414 100.536 9.93252 100.452L11.8054 96.2355C11.8338 96.1512 11.9473 96.1231 12.0325 96.1512L12.4014 96.2917C12.4865 96.3198 12.5433 96.4323 12.4865 96.5166Z" fill="#EFB33C"/>
<path d="M15.6349 89.3763L13.762 93.5928C13.7336 93.6771 13.6201 93.7053 13.535 93.6771L13.1661 93.5366C13.081 93.5085 13.0526 93.3961 13.081 93.3117L14.9539 89.0952C14.9823 89.0109 15.0958 88.9828 15.1809 89.0109L15.5498 89.1515C15.6349 89.2077 15.6633 89.3201 15.6349 89.3763Z" fill="#EFB33C"/>
<path d="M18.7365 82.5741L16.8636 86.7907C16.8352 86.875 16.7217 86.9031 16.6366 86.875L16.2676 86.7345C16.1825 86.7064 16.1541 86.5939 16.1825 86.5096L18.0554 82.293C18.0838 82.2087 18.1973 82.1806 18.2825 82.2087L18.6514 82.3492C18.7081 82.4054 18.7649 82.4898 18.7365 82.5741Z" fill="#EFB33C"/>
<path d="M21.885 75.4343L20.012 79.651C19.9836 79.7353 19.8701 79.7634 19.785 79.7353L19.4161 79.5948C19.331 79.5667 19.3026 79.4542 19.331 79.3699L21.2039 75.1532C21.2323 75.0689 21.3458 75.0408 21.4309 75.0689L21.7998 75.2094C21.885 75.2657 21.9133 75.3781 21.885 75.4343Z" fill="#EFB33C"/>
<path d="M25.0021 68.322L23.1292 72.5386C23.1008 72.623 22.9873 72.6511 22.9022 72.623L22.5333 72.4824C22.4481 72.4543 22.4198 72.3419 22.4481 72.2575L24.3211 68.0409C24.3495 67.9566 24.463 67.9285 24.5481 67.9566L24.917 68.0971C25.0021 68.1534 25.0305 68.2377 25.0021 68.322Z" fill="#EFB33C"/>
<path d="M27.9787 61.7153L26.1058 65.932C26.0774 66.0163 25.9639 66.0445 25.8787 66.0163L25.5098 65.8758C25.4247 65.8477 25.3963 65.7352 25.4247 65.6509L27.2976 61.4342C27.326 61.3499 27.4395 61.3218 27.5247 61.3499L27.8936 61.4905C27.9787 61.5186 28.0071 61.631 27.9787 61.7153Z" fill="#EFB33C"/>
<path d="M31.3107 54.5759L29.4378 58.7925C29.4094 58.8769 29.2959 58.905 29.2108 58.8769L28.8419 58.7363C28.7567 58.7082 28.7284 58.5958 28.7567 58.5114L30.6297 54.2948C30.6581 54.2105 30.7716 54.1824 30.8567 54.2105L31.2256 54.351C31.3107 54.4073 31.3391 54.4916 31.3107 54.5759Z" fill="#EFB33C"/>
<path d="M34.4201 47.3784L32.5472 51.5951C32.5188 51.6794 32.4053 51.7075 32.3202 51.6794L31.9512 51.5389C31.8661 51.5108 31.8377 51.3983 31.8661 51.314L33.7391 47.0973C33.7674 47.013 33.8809 46.9849 33.9661 47.013L34.335 47.1535C34.4201 47.2098 34.4485 47.2941 34.4201 47.3784Z" fill="#EFB33C"/>
<path d="M37.51 40.6607L35.637 44.8773C35.6086 44.9616 35.4951 44.9897 35.41 44.9616L35.0411 44.821C34.956 44.7929 34.9276 44.6805 34.956 44.5962L36.8289 40.3795C36.8573 40.2952 36.9708 40.2671 37.0559 40.2952L37.4248 40.4358C37.51 40.4639 37.5383 40.5763 37.51 40.6607Z" fill="#EFB33C"/>
<path d="M40.8108 33.239L38.9378 37.4556C38.9094 37.5399 38.7959 37.5681 38.7108 37.5399L38.3419 37.3994C38.2567 37.3713 38.2284 37.2588 38.2567 37.1745L40.1297 32.9579C40.1581 32.8736 40.2716 32.8455 40.3567 32.8736L40.7256 33.0141C40.8108 33.0704 40.8675 33.1547 40.8108 33.239Z" fill="#EFB33C"/>
<path d="M43.7873 26.3806L41.9144 30.5972C41.886 30.6815 41.7725 30.7097 41.6873 30.6816L41.3184 30.541C41.2333 30.5129 41.2049 30.4004 41.2333 30.3161L43.1062 26.0995C43.1346 26.0152 43.2481 25.9871 43.3332 26.0152L43.7021 26.1557C43.7873 26.212 43.844 26.2963 43.7873 26.3806Z" fill="#EFB33C"/>
<path d="M78.6325 104.079L77.4406 101.268C77.3271 101.043 77.3271 100.762 77.4406 100.537C77.5257 100.312 77.7244 100.115 77.9514 100.003L78.6892 99.6935C79.1716 99.4967 79.7392 99.7216 79.9662 100.199L81.1581 103.011C81.2716 103.235 81.2716 103.517 81.1581 103.741C81.0729 103.966 80.8743 104.163 80.6473 104.276L79.9094 104.585C79.7959 104.641 79.654 104.669 79.5405 104.669C79.1433 104.669 78.8027 104.444 78.6325 104.079ZM78.9162 100.199L78.1784 100.509C78.0933 100.537 78.0081 100.621 77.9514 100.734C77.923 100.846 77.923 100.93 77.9514 101.043L79.1433 103.854C79.2284 104.051 79.4554 104.163 79.6824 104.079L80.4202 103.77C80.5054 103.741 80.5905 103.657 80.6473 103.545C80.6756 103.432 80.6756 103.348 80.6473 103.235L79.4554 100.424C79.3987 100.284 79.2284 100.171 79.0865 100.171C79.0297 100.171 78.973 100.199 78.9162 100.199Z" fill="#F9BF3A"/>
<path d="M75.8576 97.2192C75.6306 97.1349 75.4319 96.9381 75.3184 96.7133L74.1265 93.9022C73.9279 93.4243 74.1549 92.8621 74.6374 92.6372L75.3752 92.328C75.8576 92.1312 76.4252 92.3561 76.6522 92.834L77.8441 95.6451C77.9576 95.8699 77.9576 96.151 77.8441 96.3759C77.7589 96.6008 77.5603 96.7976 77.3333 96.91L76.5954 97.2192C76.4819 97.2755 76.34 97.3036 76.2265 97.3036C76.113 97.3036 75.9711 97.2755 75.8576 97.2192ZM75.6022 92.834L74.8644 93.1432C74.6657 93.2275 74.5522 93.4524 74.6374 93.6773L75.8292 96.4884C75.8576 96.5727 75.9427 96.657 76.0563 96.7133C76.1698 96.7414 76.2549 96.7414 76.3684 96.7133L77.1062 96.404C77.1914 96.3759 77.2765 96.2916 77.3333 96.1791C77.3616 96.0667 77.3616 95.9824 77.3333 95.8699L76.1414 93.0589C76.0846 92.9183 75.9144 92.8059 75.7725 92.8059C75.7157 92.8059 75.659 92.834 75.6022 92.834Z" fill="#F9BF3A"/>
<path d="M72.7341 90.2483C72.5071 90.164 72.3085 89.9672 72.195 89.7423L71.0031 86.9312C70.8896 86.7063 70.8896 86.4252 71.0031 86.2003C71.0882 85.9754 71.2869 85.7786 71.5139 85.6662L72.2517 85.3569C72.7341 85.1602 73.3017 85.3851 73.5287 85.863L74.7206 88.6741C74.9192 89.152 74.6922 89.7142 74.2098 89.9391L73.4719 90.2483C73.3584 90.3046 73.2166 90.3327 73.103 90.3327C72.9612 90.3046 72.8476 90.3046 72.7341 90.2483ZM72.4787 85.863L71.7409 86.1722C71.6558 86.2003 71.5707 86.2846 71.5139 86.3971C71.4855 86.5095 71.4855 86.5938 71.5139 86.7063L72.7058 89.5174C72.7341 89.6018 72.8193 89.6861 72.9328 89.7423C73.0463 89.7704 73.1314 89.7704 73.2449 89.7423L73.9827 89.4331C74.0679 89.405 74.153 89.3207 74.2098 89.2082C74.2381 89.0958 74.2381 89.0114 74.2098 88.899L73.0179 86.0878C72.9612 85.9473 72.7909 85.8348 72.649 85.8348C72.5922 85.8348 72.5355 85.863 72.4787 85.863Z" fill="#F9BF3A"/>
<path d="M69.6404 83.4165C69.4134 83.3322 69.2147 83.1354 69.1012 82.9105L67.9094 80.0994C67.7958 79.8746 67.7958 79.5935 67.9094 79.3686C67.9945 79.1437 68.1931 78.9469 68.4202 78.8345L69.158 78.5252C69.385 78.4128 69.6688 78.4128 69.8958 78.5252C70.1228 78.6096 70.3214 78.8064 70.435 79.0312L71.6268 81.8423C71.8255 82.3202 71.5984 82.8824 71.116 83.1073L70.3782 83.4165C70.2647 83.4727 70.1228 83.5008 70.0093 83.5008C69.8674 83.4727 69.7539 83.4446 69.6404 83.4165ZM69.385 79.0312L68.6472 79.3405C68.562 79.3686 68.4769 79.4529 68.4202 79.5653C68.3918 79.6778 68.3918 79.7621 68.4202 79.8746L69.612 82.6856C69.6404 82.7699 69.7255 82.8543 69.839 82.9105C69.9525 82.9386 70.0377 82.9386 70.1512 82.9105L70.889 82.6013C71.0876 82.5169 71.2012 82.2921 71.116 82.0672L69.9242 79.2561C69.8958 79.1718 69.8107 79.0875 69.6971 79.0312C69.6404 79.0031 69.5836 79.0031 69.5553 79.0031C69.4985 79.0031 69.4417 79.0031 69.385 79.0312Z" fill="#F9BF3A"/>
<path d="M66.4881 76.1643C66.261 76.08 66.0624 75.8832 65.9489 75.6583L64.757 72.8473C64.6435 72.6224 64.6435 72.3413 64.757 72.1164C64.8421 71.8915 65.0408 71.6947 65.2678 71.5823L66.0057 71.2731C66.4881 71.0763 67.0556 71.3012 67.2827 71.7791L68.4745 74.5901C68.5881 74.815 68.5881 75.0961 68.4745 75.321C68.3894 75.5459 68.1908 75.7427 67.9637 75.8551L67.2259 76.1643C67.1124 76.2205 66.9705 76.2487 66.857 76.2487C66.7151 76.2206 66.6016 76.1924 66.4881 76.1643ZM66.2327 71.7791L65.4948 72.0883C65.4097 72.1164 65.3246 72.2007 65.2678 72.3132C65.2394 72.4256 65.2394 72.5099 65.2678 72.6224L66.4597 75.4334C66.4881 75.5178 66.5732 75.6021 66.6867 75.6583C66.8002 75.6864 66.8854 75.6864 66.9989 75.6583L67.7367 75.3491C67.8218 75.321 67.907 75.2367 67.9637 75.1242C67.9921 75.0118 67.9921 74.9275 67.9637 74.815L66.7719 72.004C66.7151 71.8634 66.5448 71.751 66.4029 71.751C66.3462 71.751 66.2894 71.751 66.2327 71.7791Z" fill="#F9BF3A"/>
<path d="M62.8317 68.7433L61.6398 65.9322C61.5263 65.7073 61.5263 65.4262 61.6398 65.2013C61.725 64.9764 61.9236 64.7797 62.1506 64.6672L62.8884 64.358C63.1155 64.2456 63.3992 64.2456 63.6262 64.358C63.8533 64.4423 64.0519 64.6391 64.1654 64.864L65.3573 67.6751C65.5559 68.153 65.3289 68.7152 64.8465 68.9401L64.1087 69.2493C63.9952 69.3055 63.8533 69.3336 63.7398 69.3336C63.3425 69.3336 62.9736 69.1087 62.8317 68.7433ZM63.0871 64.8921L62.3493 65.2013C62.2641 65.2294 62.179 65.3138 62.1222 65.4262C62.0939 65.5387 62.0939 65.623 62.1222 65.7354L63.3141 68.5465C63.3992 68.7433 63.6263 68.8557 63.8533 68.7714L64.5911 68.4622C64.7897 68.3778 64.9032 68.153 64.8181 67.9281L63.6262 65.117C63.5979 65.0327 63.5127 64.9483 63.3992 64.8921C63.3425 64.864 63.2857 64.864 63.2573 64.864C63.2006 64.864 63.1438 64.864 63.0871 64.8921Z" fill="#F9BF3A"/>
<path d="M59.8356 62.1377L58.6437 59.3266C58.5302 59.1018 58.5302 58.8206 58.6437 58.5958C58.7289 58.3709 58.9275 58.1741 59.1545 58.0616L59.8924 57.7524C60.1194 57.64 60.4032 57.64 60.6302 57.7524C60.8572 57.8368 61.0559 58.0335 61.1694 58.2584L62.3613 61.0695C62.5599 61.5474 62.3329 62.1096 61.8505 62.3345L61.1126 62.6437C60.9991 62.6999 60.8572 62.7281 60.7437 62.7281C60.3464 62.7281 59.9775 62.5032 59.8356 62.1377ZM60.1194 58.2865L59.3816 58.5958C59.2964 58.6239 59.2113 58.7082 59.1545 58.8206C59.1262 58.9331 59.1262 59.0174 59.1545 59.1299L60.3464 61.941C60.4316 62.1377 60.6586 62.2502 60.8856 62.1658L61.6234 61.8566C61.8221 61.7723 61.9356 61.5474 61.8505 61.3225L60.6586 58.5114C60.6302 58.4271 60.5451 58.3428 60.4316 58.2865C60.3748 58.2584 60.318 58.2584 60.2897 58.2584C60.2045 58.2584 60.1478 58.2584 60.1194 58.2865Z" fill="#F9BF3A"/>
<path d="M57.074 55.2789C56.847 55.1946 56.6483 54.9978 56.5348 54.773L55.3429 51.9619C55.2294 51.737 55.2294 51.4559 55.3429 51.231C55.4281 51.0061 55.6267 50.8094 55.8537 50.6969L56.5916 50.3877C57.074 50.1909 57.6415 50.4158 57.8685 50.8937L59.0604 53.7048C59.259 54.1826 59.032 54.7448 58.5496 54.9697L57.8118 55.2789C57.6983 55.3352 57.5564 55.3633 57.4429 55.3633C57.301 55.3633 57.1875 55.3352 57.074 55.2789ZM56.8186 50.9218L56.0808 51.231C55.9956 51.2591 55.9105 51.3435 55.8537 51.4559C55.8254 51.5683 55.8254 51.6527 55.8537 51.7651L57.0456 54.5762C57.074 54.6605 57.1591 54.7448 57.2726 54.8011C57.3861 54.8292 57.4713 54.8292 57.5848 54.8011L58.3226 54.4918C58.5212 54.4075 58.6347 54.1826 58.5496 53.9577L57.3577 51.1467C57.301 51.0061 57.1307 50.8937 56.9888 50.8937C56.9321 50.8937 56.8753 50.8937 56.8186 50.9218Z" fill="#F9BF3A"/>
<path d="M53.3965 47.8007L52.2047 44.9896C52.006 44.5117 52.233 43.9495 52.7155 43.7246L53.4533 43.4154C53.6803 43.3029 53.9641 43.3029 54.1911 43.4154C54.4181 43.4997 54.6168 43.6965 54.7303 43.9214L55.9221 46.7325C56.0356 46.9574 56.0356 47.2385 55.9221 47.4634C55.837 47.6882 55.6384 47.885 55.4113 47.9975L54.6735 48.3067C54.56 48.3629 54.4181 48.391 54.3046 48.391C53.9073 48.391 53.5384 48.1661 53.3965 47.8007ZM53.6803 43.9214L52.9425 44.2306C52.7438 44.3149 52.6303 44.5398 52.7155 44.7647L53.9073 47.5758C53.9925 47.7726 54.2195 47.885 54.4465 47.8007L55.1843 47.4915C55.2694 47.4634 55.3546 47.379 55.4113 47.2666C55.4397 47.1541 55.4397 47.0698 55.4113 46.9574L54.2195 44.1463C54.1911 44.0619 54.106 43.9776 53.9925 43.9214C53.9357 43.8933 53.8789 43.8933 53.8506 43.8933C53.7654 43.8933 53.7087 43.9214 53.6803 43.9214Z" fill="#F9BF3A"/>
<path d="M50.8185 41.4754C50.5915 41.3911 50.3929 41.1943 50.2794 40.9694L49.0875 38.1583C48.8888 37.6805 49.1159 37.1182 49.5983 36.8933L50.3361 36.5841C50.8185 36.3873 51.3861 36.6122 51.6131 37.0901L52.805 39.9012C52.9185 40.1261 52.9185 40.4072 52.805 40.6321C52.7199 40.857 52.5212 41.0538 52.2942 41.1662L51.5564 41.4754C51.4429 41.5317 51.301 41.5598 51.1875 41.5598C51.0739 41.5317 50.9604 41.5317 50.8185 41.4754ZM50.5915 37.0901L49.8537 37.3993C49.655 37.4837 49.5415 37.7086 49.6267 37.9334L50.8185 40.7446C50.8469 40.8289 50.9321 40.9132 51.0456 40.9694C51.1591 40.9976 51.2442 40.9976 51.3577 40.9694L52.0956 40.6602C52.1807 40.6321 52.2658 40.5478 52.3226 40.4353C52.351 40.3229 52.351 40.2386 52.3226 40.1261L51.1307 37.315C51.0739 37.1745 50.9037 37.062 50.7618 37.062C50.6767 37.062 50.6199 37.062 50.5915 37.0901Z" fill="#F9BF3A"/>
<path d="M47.1676 33.7167L45.9758 30.9056C45.8622 30.6808 45.8622 30.3996 45.9758 30.1748C46.0609 29.9499 46.2595 29.7531 46.4866 29.6407L47.2244 29.3314C47.7068 29.1347 48.2744 29.3595 48.5014 29.8374L49.6933 32.6485C49.8068 32.8734 49.8068 33.1545 49.6933 33.3794C49.6081 33.6043 49.4095 33.8011 49.1824 33.9135L48.4446 34.2227C48.3311 34.279 48.1892 34.3071 48.0757 34.3071C47.6784 34.3071 47.3095 34.0822 47.1676 33.7167ZM47.4514 29.8374L46.7136 30.1467C46.6284 30.1748 46.5433 30.2591 46.4866 30.3715C46.4582 30.484 46.4582 30.5683 46.4866 30.6808L47.6784 33.4919C47.7636 33.6886 47.9906 33.8011 48.2176 33.7167L48.9554 33.4075C49.0406 33.3794 49.1257 33.2951 49.1824 33.1826C49.2108 33.0702 49.2108 32.9859 49.1824 32.8734L47.9906 30.0623C47.9338 29.9218 47.7636 29.8093 47.6217 29.8093C47.5365 29.8093 47.4798 29.8374 47.4514 29.8374Z" fill="#F9BF3A"/>
<path d="M44.5529 27.3364C44.3259 27.2521 44.1272 27.0553 44.0137 26.8304L42.8219 24.0193C42.6232 23.5414 42.8502 22.9792 43.3327 22.7543L44.0705 22.4451C44.5529 22.2483 45.1205 22.4732 45.3475 22.9511L46.5393 25.7622C46.6529 25.9871 46.6529 26.2682 46.5393 26.4931C46.4542 26.718 46.2556 26.9147 46.0285 27.0272L45.2907 27.3364C45.1772 27.3926 45.0353 27.4207 44.9218 27.4207C44.7799 27.3926 44.6664 27.3926 44.5529 27.3364ZM44.2975 22.9511L43.5597 23.2603C43.361 23.3446 43.2475 23.5695 43.3327 23.7944L44.5245 26.6055C44.5529 26.6898 44.638 26.7742 44.7515 26.8304C44.8651 26.8585 44.9502 26.8585 45.0637 26.8304L45.8015 26.5212C45.8867 26.4931 45.9718 26.4087 46.0285 26.2963C46.0569 26.1838 46.0569 26.0995 46.0285 25.9871L44.8367 23.176C44.7799 23.0354 44.6097 22.923 44.4678 22.923C44.411 22.923 44.3543 22.923 44.2975 22.9511Z" fill="#F9BF3A"/>
<path d="M79.7182 103.657L81.5911 107.874C81.6195 107.958 81.733 107.986 81.8181 107.958L82.187 107.818C82.2722 107.789 82.3005 107.677 82.2722 107.593L80.3992 103.376C80.3708 103.292 80.2573 103.264 80.1722 103.292L79.8033 103.432C79.7182 103.489 79.6614 103.573 79.7182 103.657Z" fill="#EFB33C"/>
<path d="M76.3978 96.5176L78.2708 100.734C78.2991 100.819 78.4126 100.847 78.4978 100.819L78.8667 100.678C78.9518 100.65 78.9802 100.537 78.9518 100.453L77.0789 96.2365C77.0505 96.1521 76.937 96.124 76.8519 96.1521L76.483 96.2927C76.3978 96.3489 76.3411 96.4332 76.3978 96.5176Z" fill="#EFB33C"/>
<path d="M73.245 89.4049L75.1179 93.6215C75.1463 93.7058 75.2598 93.734 75.3449 93.7058L75.7138 93.5653C75.799 93.5372 75.8274 93.4247 75.799 93.3404L73.9261 89.1238C73.8977 89.0395 73.7842 89.0114 73.699 89.0395L73.3301 89.18C73.245 89.2362 73.2166 89.3206 73.245 89.4049Z" fill="#EFB33C"/>
<path d="M70.183 82.6019L72.056 86.8186C72.0844 86.903 72.1979 86.9311 72.283 86.903L72.6519 86.7624C72.7371 86.7343 72.7654 86.6218 72.7371 86.5375L70.8641 82.3208C70.8357 82.2365 70.7222 82.2084 70.6371 82.2365L70.2681 82.3771C70.183 82.4052 70.1262 82.5176 70.183 82.6019Z" fill="#EFB33C"/>
<path d="M66.9989 75.462L68.8719 79.6787C68.9003 79.763 69.0138 79.7911 69.0989 79.763L69.4678 79.6224C69.553 79.5943 69.5814 79.4819 69.553 79.3975L67.68 75.1809C67.6516 75.0966 67.5381 75.0685 67.453 75.0966L67.0841 75.2372C66.9989 75.2653 66.9705 75.3777 66.9989 75.462Z" fill="#EFB33C"/>
<path d="M63.8856 68.3496L65.7586 72.5663C65.787 72.6506 65.9005 72.6787 65.9856 72.6506L66.3545 72.5101C66.4397 72.482 66.468 72.3695 66.4397 72.2852L64.5667 68.0685C64.5383 67.9842 64.4248 67.9561 64.3397 67.9842L63.9708 68.1247C63.8856 68.1528 63.8573 68.2653 63.8856 68.3496Z" fill="#EFB33C"/>
<path d="M60.9013 61.7153L62.7742 65.932C62.8026 66.0163 62.9161 66.0445 63.0012 66.0163L63.3701 65.8758C63.4552 65.8477 63.4836 65.7352 63.4552 65.6509L61.5823 61.4342C61.5539 61.3499 61.4404 61.3218 61.3553 61.3499L60.9864 61.4905C60.9013 61.5467 60.8729 61.631 60.9013 61.7153Z" fill="#EFB33C"/>
<path d="M57.581 54.5759L59.4539 58.7925C59.4823 58.8769 59.5958 58.905 59.6809 58.8769L60.0498 58.7363C60.1349 58.7082 60.1633 58.5958 60.1349 58.5114L58.262 54.2948C58.2336 54.2105 58.1201 54.1824 58.035 54.2105L57.6661 54.351C57.581 54.4073 57.5526 54.5197 57.581 54.5759Z" fill="#EFB33C"/>
<path d="M54.4599 47.3784L56.3328 51.5951C56.3612 51.6794 56.4747 51.7075 56.5598 51.6794L56.9287 51.5389C57.0138 51.5108 57.0422 51.3983 57.0138 51.314L55.1409 47.0973C55.1125 47.013 54.999 46.9849 54.9139 47.013L54.545 47.1535C54.4599 47.2098 54.4315 47.2941 54.4599 47.3784Z" fill="#EFB33C"/>
<path d="M51.3622 40.6603L53.2351 44.8769C53.2635 44.9612 53.377 44.9893 53.4621 44.9612L53.831 44.8207C53.9162 44.7925 53.9445 44.6801 53.9162 44.5958L52.0433 40.3792C52.0149 40.2948 51.9014 40.2667 51.8162 40.2948L51.4473 40.4354C51.3622 40.4916 51.3338 40.576 51.3622 40.6603Z" fill="#EFB33C"/>
<path d="M48.0697 33.2399L49.9427 37.4565C49.9711 37.5408 50.0846 37.5689 50.1697 37.5408L50.5386 37.4003C50.6238 37.3721 50.6522 37.2597 50.6238 37.1754L48.7508 32.9588C48.7224 32.8744 48.6089 32.8463 48.5238 32.8744L48.1549 33.015C48.0697 33.0712 48.013 33.1837 48.0697 33.2399Z" fill="#EFB33C"/>
<path d="M45.101 26.4092L46.9739 30.6259C47.0023 30.7102 47.1158 30.7383 47.2009 30.7102L47.5698 30.5696C47.655 30.5415 47.6833 30.4291 47.655 30.3447L45.782 26.1281C45.7537 26.0437 45.6401 26.0156 45.555 26.0437L45.1861 26.1843C45.101 26.2124 45.0442 26.3249 45.101 26.4092Z" fill="#EFB33C"/>
<path d="M44.2092 24.8339C43.8971 24.8339 43.6133 24.5809 43.6133 24.2436V16.2039C43.6133 15.8946 43.8687 15.6135 44.2092 15.6135C44.5214 15.6135 44.8051 15.8665 44.8051 16.2039V24.2436C44.7768 24.5809 44.5214 24.8339 44.2092 24.8339Z" fill="#EFB33C"/>
<path d="M123.331 9.96301H114.449V25.0585H123.331V9.96301Z" fill="#951BC4"/>
<path d="M123.328 9.96301H121.285V25.0585H123.328V9.96301Z" fill="#C440F8"/>
<path d="M117.259 9.96301H114.449V25.0585H117.259V9.96301Z" fill="#740B9C"/>
<path d="M163.32 148.831H74.4414V175.002H163.32V148.831Z" fill="#C440F8"/>
<path d="M160.586 172.473V151.671L77.1554 151.671V172.473H160.586Z" fill="#740B9C"/>
<path d="M159.738 171.348V152.795L78.2942 152.795V171.348H159.738Z" fill="#951BC4"/>
<path d="M78.3008 152.795V171.348H93.2842L106.792 152.795H78.3008Z" fill="#740B9C"/>
<path d="M139.34 152.795L125.832 171.348H133.92L147.144 152.795H139.34Z" fill="#C440F8"/>
<path d="M151.316 152.795L137.809 171.348H141.64L155.147 152.795H151.316Z" fill="#C440F8"/>
<path d="M122.846 26.2115H121.285V27.3079H122.846V26.2115Z" fill="#C440F8"/>
<path d="M122.054 125.528C123.161 124.6 124.182 122.998 124.494 122.436H113.285C113.597 122.998 114.534 124.628 115.669 125.584L122.054 125.528Z" fill="#740B9C"/>
<path d="M72.7918 5.99948C72.054 5.29671 71.8553 3.55383 71.8553 3.55383C71.8553 3.55383 71.8837 5.12804 71.004 6.02759C70.1811 6.87091 68.5352 6.95525 68.5352 6.95525C68.5352 6.95525 70.1527 6.95525 71.0324 7.79857C71.9121 8.6419 71.9689 10.2442 71.9689 10.2442C71.9689 10.2442 72.054 8.55757 72.8202 7.77046C73.6431 6.92714 75.2891 6.8428 75.2891 6.8428C75.2891 6.8428 73.7283 6.89903 72.7918 5.99948Z" fill="#E2E539"/>
<path d="M122.248 2.37418C121.794 1.92441 121.653 0.856201 121.653 0.856201C121.653 0.856201 121.681 1.84008 121.142 2.4023C120.631 2.9364 119.609 2.99263 119.609 2.99263C119.609 2.99263 120.631 2.99262 121.17 3.49862C121.738 4.03272 121.766 5.0166 121.766 5.0166C121.766 5.0166 121.823 3.94839 122.277 3.47051C122.788 2.9364 123.809 2.88018 123.809 2.88018C123.809 2.88018 122.816 2.9364 122.248 2.37418Z" fill="#E2E539"/>
<path d="M177.903 11.3407C177.534 11.0034 177.449 10.16 177.449 10.16C177.449 10.16 177.477 10.919 177.051 11.3688C176.654 11.7905 175.859 11.8186 175.859 11.8186C175.859 11.8186 176.654 11.8186 177.08 12.2121C177.505 12.6338 177.534 13.3928 177.534 13.3928C177.534 13.3928 177.562 12.5776 177.931 12.184C178.328 11.7624 179.123 11.7342 179.123 11.7342C179.123 11.7342 178.385 11.7905 177.903 11.3407Z" fill="#E2E539"/>
<path d="M40.3556 49.5436C39.7597 48.9813 39.561 47.5758 39.561 47.5758C39.561 47.5758 39.6178 48.8408 38.9083 49.5717C38.2556 50.2744 36.9219 50.3588 36.9219 50.3588C36.9219 50.3588 38.2273 50.3588 38.9367 51.0053C39.6745 51.68 39.7313 52.9731 39.7313 52.9731C39.7313 52.9731 39.788 51.5956 40.384 50.9772C41.0366 50.2744 42.3704 50.1901 42.3704 50.1901C42.3704 50.1901 41.1218 50.2463 40.3556 49.5436Z" fill="#E2E539"/>
</svg>
