<svg width="283" height="284" viewBox="0 0 283 284" fill="none" xmlns="http://www.w3.org/2000/svg">
<path d="M177.791 178.465C170.366 176.038 162.102 177.17 155.607 181.874C160.326 175.395 161.458 167.098 159.015 159.689C166.44 162.116 174.705 160.984 181.2 156.281C176.496 162.776 175.364 171.072 177.791 178.465Z" fill="#F4F2EE"/>
<path d="M152.898 196.693C149.54 193.335 144.132 193.305 140.811 196.627C144.132 193.305 144.103 187.898 140.745 184.54C144.103 187.898 149.51 187.928 152.831 184.607C149.51 187.928 149.54 193.335 152.898 196.693Z" fill="#F4F2EE"/>
<path d="M111.307 142.951L120.023 151.667C123.397 155.041 128.853 155.087 132.206 151.734L143.563 140.377C143.563 140.377 143.578 140.361 143.562 140.345C134.847 131.63 121.355 130.665 111.722 137.482C109.9 138.761 109.724 141.368 111.307 142.951Z" fill="#F4F2EE"/>
<path d="M142.331 111.972L151.047 120.688C154.421 124.062 154.467 129.518 151.114 132.871L139.758 144.228C139.758 144.228 139.742 144.243 139.726 144.227C131.01 135.512 130.045 122.02 136.863 112.388C138.141 110.566 140.748 110.389 142.331 111.972Z" fill="#F4F2EE"/>
<path d="M140.942 172.649L132.227 163.933C128.852 160.559 128.806 155.104 132.16 151.751L143.516 140.394C143.516 140.394 143.532 140.378 143.548 140.394C152.264 149.11 153.229 162.602 146.411 172.234C145.117 174.04 142.51 174.216 140.942 172.649Z" fill="#F4F2EE"/>
<path d="M171.967 141.67L163.251 132.954C159.876 129.58 154.421 129.534 151.068 132.887L139.711 144.244C139.711 144.244 139.695 144.26 139.711 144.276C148.427 152.992 161.919 153.956 171.551 147.139C173.357 145.845 173.534 143.237 171.967 141.67Z" fill="#F4F2EE"/>
<path d="M126.151 169.95C122.777 166.576 117.322 166.53 113.969 169.883C117.306 166.545 117.292 161.091 113.901 157.701C117.276 161.075 122.731 161.121 126.084 157.768C122.731 161.121 122.777 166.576 126.151 169.95Z" fill="#F4F2EE"/>
<path d="M124.322 124.805C116.897 122.379 108.633 123.51 102.138 128.214C106.858 121.735 107.989 113.439 105.547 106.03C112.972 108.456 121.236 107.325 127.731 102.621C123.027 109.116 121.896 117.412 124.322 124.805Z" fill="#F4F2EE"/>
<path d="M99.4292 143.034C96.071 139.676 90.6637 139.646 87.3423 142.967C90.6637 139.646 90.6339 134.239 87.2758 130.88C90.6339 134.239 96.0412 134.268 99.3626 130.947C96.0412 134.268 96.071 139.676 99.4292 143.034Z" fill="#F4F2EE"/>
<path d="M57.8384 89.2915L66.5542 98.0072C69.9285 101.381 75.3839 101.427 78.7371 98.0742L90.0938 86.7175C90.0938 86.7175 90.1096 86.7017 90.0936 86.6857C81.3778 77.97 67.8858 77.0052 58.2536 83.8228C56.4317 85.101 56.2552 87.7083 57.8384 89.2915Z" fill="#F4F2EE"/>
<path d="M88.8626 58.3126L97.5783 67.0283C100.953 70.4026 100.999 75.858 97.6454 79.2112L86.2888 90.5678C86.2888 90.5678 86.2729 90.5837 86.2569 90.5677C77.5412 81.852 76.5762 68.36 83.3938 58.7278C84.672 56.9059 87.2793 56.7294 88.8626 58.3126Z" fill="#F4F2EE"/>
<path d="M87.4732 118.99L78.7577 110.274C75.3834 106.9 75.3375 101.445 78.6907 98.0915L90.0473 86.7349C90.0473 86.7349 90.0631 86.7191 90.0791 86.7351C98.7946 95.4509 99.7594 108.943 92.9419 118.575C91.6637 120.397 89.0404 120.557 87.4732 118.99Z" fill="#F4F2EE"/>
<path d="M118.498 88.0107L109.782 79.295C106.408 75.9207 100.952 75.8748 97.5991 79.228L86.2424 90.5848C86.2424 90.5848 86.2266 90.6006 86.2426 90.6166C94.9585 99.3323 108.451 100.297 118.083 93.4795C119.905 92.2012 120.065 89.5779 118.498 88.0107Z" fill="#F4F2EE"/>
<path d="M72.6814 116.29C69.3074 112.916 63.8524 112.87 60.4995 116.223C63.8366 112.886 63.8225 107.431 60.4324 104.041C63.8065 107.415 69.2614 107.461 72.6144 104.108C69.2614 107.461 69.3074 112.916 72.6814 116.29Z" fill="#F4F2EE"/>
<path d="M115.931 73.1974C112.557 69.8234 107.102 69.7774 103.749 73.1304C107.087 69.7932 107.073 64.3385 103.682 60.9484C107.057 64.3225 112.511 64.3684 115.864 61.0155C112.511 64.3684 112.557 69.8234 115.931 73.1974Z" fill="#F4F2EE"/>
<path d="M164.244 196.082L172.96 204.798C176.335 208.172 181.79 208.218 185.143 204.864L196.5 193.508C196.5 193.508 196.516 193.492 196.5 193.476C187.784 184.76 174.292 183.795 164.659 190.613C162.838 191.891 162.677 194.515 164.244 196.082Z" fill="#F4F2EE"/>
<path d="M195.276 165.103L203.992 173.818C207.367 177.193 207.413 182.648 204.059 186.001L192.703 197.358C192.703 197.358 192.687 197.374 192.671 197.358C183.955 188.642 182.99 175.15 189.808 165.518C191.086 163.696 193.709 163.535 195.276 165.103Z" fill="#F4F2EE"/>
<path d="M193.88 225.78L185.164 217.064C181.79 213.69 181.744 208.235 185.097 204.881L196.454 193.525C196.454 193.525 196.469 193.509 196.485 193.525C205.201 202.241 206.166 215.733 199.349 225.365C198.07 227.187 195.463 227.363 193.88 225.78Z" fill="#F4F2EE"/>
<path d="M224.912 194.801L216.196 186.085C212.822 182.711 207.366 182.665 204.013 186.018L192.656 197.375C192.656 197.375 192.641 197.39 192.657 197.406C201.372 206.122 214.864 207.087 224.497 200.27C226.319 198.991 226.495 196.384 224.912 194.801Z" fill="#F4F2EE"/>
<path d="M179.096 223.08C175.722 219.706 170.267 219.66 166.914 223.013C170.251 219.676 170.237 214.221 166.847 210.831C170.221 214.205 175.676 214.251 179.029 210.898C175.692 214.267 175.722 219.706 179.096 223.08Z" fill="#F4F2EE"/>
<path d="M94.3071 212.321L103.023 221.037C106.397 224.411 111.853 224.457 115.206 221.104L126.563 209.747C126.563 209.747 126.578 209.732 126.562 209.716C117.847 201 104.355 200.035 94.7223 206.853C92.9162 208.115 92.7239 210.738 94.3071 212.321Z" fill="#F4F2EE"/>
<path d="M125.347 181.327L134.063 190.042C137.437 193.417 137.483 198.872 134.13 202.225L122.773 213.582C122.773 213.582 122.757 213.598 122.741 213.582C114.026 204.866 113.061 191.374 119.878 181.742C121.156 179.92 123.764 179.744 125.347 181.327Z" fill="#F4F2EE"/>
<path d="M123.942 242.019L115.227 233.304C111.852 229.929 111.806 224.474 115.16 221.121L126.516 209.764C126.516 209.764 126.532 209.748 126.548 209.764C135.264 218.48 136.229 231.972 129.411 241.604C128.133 243.394 125.51 243.587 123.942 242.019Z" fill="#F4F2EE"/>
<path d="M154.982 211.025L146.266 202.309C142.892 198.935 137.437 198.889 134.083 202.242L122.727 213.599C122.727 213.599 122.711 213.615 122.727 213.631C131.443 222.346 144.935 223.311 154.567 216.494C156.373 215.199 156.55 212.592 154.982 211.025Z" fill="#F4F2EE"/>
<path d="M107.846 194.705C100.421 192.278 92.1563 193.41 85.6612 198.114C90.3811 191.635 91.5124 183.338 89.07 175.929C96.495 178.356 104.759 177.224 111.254 172.521C106.566 179 105.419 187.28 107.846 194.705Z" fill="#F4F2EE"/>
<path d="M82.9526 212.932C79.5944 209.574 74.1872 209.544 70.8658 212.866C74.1872 209.544 74.1574 204.137 70.7992 200.779C74.1574 204.137 79.5647 204.167 82.8861 200.845C79.5487 204.151 79.5944 209.574 82.9526 212.932Z" fill="#F4F2EE"/>
<path d="M41.35 159.175L50.0658 167.891C53.4402 171.265 58.8956 171.311 62.2488 167.958L73.6055 156.601C73.6055 156.601 73.6213 156.585 73.6053 156.569C64.8895 147.854 51.3974 146.889 41.7652 153.706C39.9751 154.985 39.7828 157.608 41.35 159.175Z" fill="#F4F2EE"/>
<path d="M72.3898 128.18L81.1056 136.896C84.48 140.27 84.526 145.725 81.1727 149.079L69.816 160.435C69.816 160.435 69.8002 160.451 69.7842 160.435C61.0684 151.719 60.1035 138.227 66.9211 128.595C68.2153 126.789 70.8226 126.613 72.3898 128.18Z" fill="#F4F2EE"/>
<path d="M70.9814 188.873L62.2657 180.157C58.8913 176.783 58.8454 171.328 62.1986 167.974L73.5552 156.618C73.5552 156.618 73.571 156.602 73.587 156.618C82.3028 165.334 83.2677 178.826 76.4502 188.458C75.1878 190.264 72.5647 190.456 70.9814 188.873Z" fill="#F4F2EE"/>
<path d="M102.029 157.878L93.3133 149.163C89.9389 145.788 84.4835 145.742 81.1303 149.096L69.7736 160.452C69.7736 160.452 69.7578 160.468 69.7738 160.484C78.4896 169.2 91.9816 170.165 101.614 163.347C103.436 162.069 103.612 159.462 102.029 157.878Z" fill="#F4F2EE"/>
<path d="M212.564 83.8422C209.19 80.4681 203.735 80.4222 200.382 83.7752C203.719 80.438 203.705 74.9833 200.315 71.5932C203.689 74.9673 209.144 75.0132 212.497 71.6603C209.144 75.0132 209.19 80.4681 212.564 83.8422Z" fill="#F4F2EE"/>
<path d="M222.312 179.955C218.954 176.597 213.547 176.567 210.225 179.889C213.547 176.567 213.517 171.16 210.159 167.802C213.517 171.16 218.924 171.19 222.245 167.868C218.924 171.19 218.954 176.597 222.312 179.955Z" fill="#F4F2EE"/>
<path d="M180.721 126.213L189.437 134.929C192.811 138.303 198.267 138.349 201.62 134.996L212.977 123.639C212.977 123.639 212.992 123.624 212.976 123.608C204.261 114.892 190.769 113.927 181.136 120.745C179.33 122.007 179.138 124.63 180.721 126.213Z" fill="#F4F2EE"/>
<path d="M211.761 95.2195L220.477 103.935C223.851 107.31 223.897 112.765 220.544 116.118L209.187 127.475C209.187 127.475 209.171 127.491 209.155 127.475C200.44 118.759 199.475 105.267 206.292 95.6347C207.57 93.8128 210.178 93.6363 211.761 95.2195Z" fill="#F4F2EE"/>
<path d="M210.356 155.912L201.641 147.196C198.266 143.822 198.22 138.366 201.574 135.013L212.93 123.657C212.93 123.657 212.946 123.641 212.962 123.657C221.678 132.372 222.643 145.864 215.825 155.497C214.547 157.287 211.924 157.479 210.356 155.912Z" fill="#F4F2EE"/>
<path d="M241.396 124.917L232.68 116.202C229.306 112.827 223.851 112.781 220.497 116.135L209.141 127.491C209.141 127.491 209.125 127.507 209.141 127.523C217.857 136.239 231.349 137.204 240.981 130.386C242.787 129.092 242.964 126.484 241.396 124.917Z" fill="#F4F2EE"/>
<path d="M195.565 153.214C192.191 149.84 186.736 149.794 183.383 153.147C186.72 149.81 186.706 144.355 183.315 140.965C186.69 144.339 192.145 144.385 195.498 141.032C192.161 144.369 192.191 149.84 195.565 153.214Z" fill="#F4F2EE"/>
<path d="M194.267 108.597C186.842 106.17 178.578 107.302 172.083 112.006C176.803 105.527 177.934 97.2306 175.492 89.8214C182.917 92.248 191.181 91.1165 197.676 86.4126C192.972 92.9077 191.841 101.172 194.267 108.597Z" fill="#F4F2EE"/>
<path d="M169.367 126.825C166.009 123.467 160.601 123.437 157.28 126.759C160.601 123.437 160.571 118.03 157.213 114.672C160.571 118.03 165.979 118.06 169.3 114.738C165.963 118.044 166.009 123.467 169.367 126.825Z" fill="#F4F2EE"/>
<path d="M127.764 73.0675L136.48 81.7832C139.854 85.1575 145.31 85.2034 148.663 81.8502L160.02 70.4935C160.02 70.4935 160.035 70.4777 160.019 70.4617C151.304 61.746 137.811 60.7812 128.179 67.5988C126.389 68.8772 126.197 71.5003 127.764 73.0675Z" fill="#F4F2EE"/>
<path d="M158.804 42.0727L167.52 50.7884C170.894 54.1628 170.94 59.6181 167.587 62.9714L156.23 74.3281C156.23 74.3281 156.214 74.3439 156.198 74.3279C147.482 65.6122 146.518 52.1201 153.335 42.4879C154.629 40.682 157.237 40.5055 158.804 42.0727Z" fill="#F4F2EE"/>
<path d="M157.396 102.766L148.68 94.05C145.305 90.6757 145.259 85.2203 148.613 81.867L159.97 70.5102C159.97 70.5102 159.985 70.4944 160.001 70.5104C168.717 79.226 169.683 92.718 162.865 102.35C161.603 104.156 158.979 104.349 157.396 102.766Z" fill="#F4F2EE"/>
<path d="M188.443 71.7712L179.727 63.0555C176.353 59.6812 170.898 59.6353 167.544 62.9885L156.188 74.3451C156.188 74.3451 156.172 74.361 156.188 74.377C164.904 83.0926 178.396 84.0575 188.028 77.2399C189.85 75.9617 190.026 73.3544 188.443 71.7712Z" fill="#F4F2EE"/>
<path d="M142.627 100.083C139.253 96.7087 133.798 96.6628 130.445 100.016C133.782 96.6786 133.768 91.2239 130.378 87.8338C133.752 91.2079 139.207 91.2538 142.56 87.9008C139.223 91.238 139.237 96.6927 142.627 100.083Z" fill="#F4F2EE"/>
</svg>
