<svg width="218" height="174" viewBox="0 0 218 174" fill="none" xmlns="http://www.w3.org/2000/svg">
<path d="M42.221 12.4899C45.1051 10.5097 48.2436 8.78788 51.4669 7.49649C54.6902 6.119 58.1681 5.17198 61.6459 4.48324C65.1237 3.7945 68.6863 3.45013 72.249 3.45013C75.8116 3.36403 79.459 3.7945 82.9369 4.65542C89.9773 6.37728 96.5936 9.64881 102.447 13.8674C105.415 16.0197 108.13 18.3442 110.759 20.8409C112.032 22.1323 113.304 23.4237 114.576 24.715C115.17 25.4038 115.764 26.0925 116.358 26.7813C116.952 27.47 117.545 28.1588 118.139 29.0197L113.728 29.1058C114.661 27.6422 115.594 26.4369 116.527 25.1455C117.461 23.8541 118.478 22.6488 119.581 21.4435C121.702 19.0329 123.907 16.7945 126.282 14.7283C131.032 10.5097 136.376 6.89384 142.314 4.22496C145.283 2.93357 148.337 1.90046 151.56 1.12562C154.783 0.436878 158.092 0.0925074 161.23 0.00641456C167.592 -0.0796783 174.123 0.695156 180.316 2.67529C186.508 4.65543 192.361 7.66867 197.535 11.8011C202.709 15.8475 207.12 20.927 210.428 26.6952C213.821 32.3773 216.112 38.7482 217.214 45.2912C218.317 51.8343 218.232 58.6356 217.129 65.0926C216.027 71.5495 213.906 77.7482 211.192 83.6025C208.477 89.4569 205.254 94.8807 201.691 100.132C198.129 105.298 194.227 110.205 190.155 114.94C186.168 119.675 181.842 124.152 177.347 128.457C172.936 132.762 168.355 136.894 163.605 140.854C158.94 144.901 154.19 148.689 149.27 152.477C139.515 159.881 129.421 166.94 118.818 173.139L117.291 174L115.849 173.139C108.639 168.834 101.853 164.013 95.1516 159.106C88.4505 154.113 81.919 148.947 75.6419 143.523C69.3649 138.099 63.1727 132.417 57.4046 126.477C51.6366 120.536 46.2078 114.165 41.2031 107.536C46.8016 113.649 52.6545 119.503 58.7618 125.013C64.954 130.523 71.3159 135.689 77.8474 140.682C81.1555 143.179 84.4637 145.589 87.7719 148C89.4684 149.205 91.08 150.411 92.7765 151.53C94.473 152.735 96.1695 153.854 97.866 154.973C104.652 159.536 111.692 163.841 118.733 167.801H115.764C125.858 161.43 135.528 154.113 144.859 146.536C149.524 142.748 154.19 138.874 158.685 134.914C163.181 130.868 167.592 126.821 171.748 122.516C180.146 113.993 188.119 104.954 194.736 95.139C198.044 90.2317 201.013 85.1522 203.473 79.8145C205.848 74.4767 207.714 68.9668 208.732 63.3707C209.75 57.7747 209.835 52.0926 208.986 46.4965C208.053 40.9866 206.102 35.5627 203.303 30.7415C200.504 25.9203 196.772 21.5296 192.53 17.9998C188.204 14.3839 183.2 11.715 177.94 9.90709C172.597 8.09914 166.998 7.23821 161.23 7.23821C158.346 7.23821 155.632 7.41039 152.832 7.92695C150.118 8.44351 147.404 9.21834 144.774 10.2515C139.515 12.4038 134.595 15.5031 130.099 19.2051C127.809 21.0131 125.688 23.0793 123.653 25.1455C122.635 26.1786 121.617 27.2978 120.684 28.417C119.751 29.5363 118.818 30.7416 117.969 31.7747L115.679 34.9601L113.559 31.8608C112.71 30.5694 111.608 29.1919 110.505 27.9005C109.402 26.6091 108.299 25.3177 107.112 24.1124C104.737 21.6157 102.277 19.2912 99.6473 17.225C94.3034 13.0064 88.3656 9.56272 81.919 7.58258C78.6956 6.63556 75.3875 6.03291 71.9097 5.86073C68.5167 5.68854 65.0389 5.68854 61.6459 6.119C55.0295 6.97993 48.3284 9.13225 42.221 12.4899Z" fill="#951BC4"/>
<path d="M37.3073 21.5298C37.3073 21.5298 41.2092 17.3974 46.0442 18C52.0668 18.6888 55.375 23.7682 54.866 28.6755C54.3571 33.5828 50.2855 37.3709 47.0621 39.8676C42.7361 43.3113 36.459 46.4106 32.8964 47.7881C29.9275 45.3775 25.0925 40.2981 22.0389 35.649C19.8334 32.2053 17.2038 27.298 18.2217 22.4768C19.3245 17.6556 24.0746 13.9536 30.0124 15.245C34.9322 16.3642 37.3073 21.5298 37.3073 21.5298Z" fill="#FFCE1F"/>
<path d="M26.5294 63.3707C26.5294 63.3707 29.2438 54.6753 36.4539 52.0925C45.5301 48.821 53.6733 53.5561 56.3877 60.9601C59.0173 68.278 55.8787 76.5429 53.0795 82.3111C49.2624 90.2317 42.6461 99.0992 38.5745 103.576C32.7216 102.199 22.2882 98.4966 14.8236 94.1058C9.31 90.8343 2.18473 85.7548 0.403411 78.1787C-1.37791 70.5164 2.7785 61.9932 12.1092 59.5826C19.5738 57.6886 26.5294 63.3707 26.5294 63.3707Z" fill="#00A887"/>
</svg>
