<svg width="24" height="24" viewBox="0 0 24 24" fill="none" xmlns="http://www.w3.org/2000/svg">
<path d="M22.2218 14.4184L18.6037 6.774C18.535 6.62886 18.415 6.51456 18.2687 6.45876L13.8082 4.73089C13.8684 2.88572 11.6624 2.00046 10.5741 3.47805C10.5674 3.47544 6.11482 1.75069 6.11952 1.75253C5.83421 1.64238 5.51315 1.77674 5.37582 2.067L1.77929 9.66794C1.73232 9.76727 1.71219 9.88375 1.71512 9.97685C1.72553 12.4445 3.61472 14.4485 5.93562 14.4485C8.25721 14.4485 10.1468 12.4433 10.1562 9.97467C10.1589 9.87879 10.1374 9.76274 10.0907 9.66516L7.14584 3.51521L10.1912 4.69492C10.1988 5.19767 10.3858 5.6692 10.7207 6.02558C10.9182 6.2358 11.1504 6.38709 11.3979 6.47962V18.3393H11.2909C9.57864 18.3393 8.18557 19.8219 8.18557 21.6443C8.18557 21.9985 8.45541 22.2857 8.78825 22.2857H15.2128C15.5456 22.2857 15.8155 21.9985 15.8155 21.6443C15.8155 19.8219 14.4224 18.3393 12.7101 18.3393H12.6032V6.47967C12.8954 6.37037 13.1566 6.18376 13.3674 5.92535L17.2223 7.41859L13.9111 14.4185C13.864 14.5182 13.8441 14.6345 13.847 14.7275C13.8575 17.1945 15.7462 19.198 18.0665 19.198C20.3869 19.198 22.2756 17.1944 22.286 14.7274C22.2893 14.6218 22.2646 14.5088 22.2218 14.4184ZM5.9173 3.77482L8.57012 9.31498H3.29582L5.9173 3.77482ZM5.93562 13.1657C4.47924 13.1657 3.26071 12.0612 2.98074 10.5978H8.8905C8.61054 12.0612 7.39201 13.1657 5.93562 13.1657ZM12.7101 19.6222C13.5472 19.6222 14.2596 20.2013 14.5122 21.0029H9.48892C9.74148 20.2013 10.4539 19.6222 11.291 19.6222H12.7101ZM11.573 5.11848C11.3372 4.86755 11.3372 4.45926 11.573 4.20834C11.9515 3.80548 12.6052 4.09164 12.6052 4.66341C12.6052 5.23539 11.9513 5.52116 11.573 5.11848ZM18.0656 8.48865L20.7051 14.0655H15.4276L18.0656 8.48865ZM18.0665 17.9152C16.6107 17.9152 15.3926 16.8112 15.1126 15.3484H21.0203C20.7404 16.8111 19.5223 17.9152 18.0665 17.9152Z" fill="#3E3E3E"/>
</svg>
