<svg width="24" height="24" viewBox="0 0 24 24" fill="none" xmlns="http://www.w3.org/2000/svg">
<path d="M12.0006 22.2857C17.6806 22.2857 22.2863 17.68 22.2863 11.9999C22.2863 6.3199 17.6806 1.71423 12.0006 1.71423C6.32051 1.71423 1.71484 6.3199 1.71484 11.9999C1.71484 17.68 6.32051 22.2857 12.0006 22.2857Z" fill="#F0F0F0"/>
<path d="M21.6462 15.5757C22.4996 13.2673 22.4996 10.7299 21.6462 8.42151H2.35489C1.50149 10.7299 1.50149 13.2673 2.35489 15.5757L12.0006 16.4745L21.6462 15.5757Z" fill="#0052B4"/>
<path d="M12.0011 22.2856C16.424 22.2856 20.1952 19.4972 21.6468 15.5758H2.35547C3.80873 19.4972 7.57828 22.2856 12.0011 22.2856Z" fill="#D80027"/>
</svg>
