<svg width="24" height="24" viewBox="0 0 24 24" fill="none" xmlns="http://www.w3.org/2000/svg">
<path d="M12.0005 21.4286C11.7077 21.4286 11.4253 21.3192 11.2053 21.1207C10.3743 20.372 9.57303 19.6684 8.86614 19.0477L8.86253 19.0445C6.79005 17.2248 5.00038 15.6533 3.75516 14.1053C2.36319 12.3747 1.71484 10.7338 1.71484 8.94127C1.71484 7.19967 2.29445 5.59293 3.34678 4.41683C4.41167 3.22682 5.87285 2.57141 7.46162 2.57141C8.64909 2.57141 9.73657 2.95822 10.6938 3.721C11.1769 4.10602 11.6148 4.57724 12.0005 5.12689C12.3865 4.57724 12.8242 4.10602 13.3074 3.721C14.2647 2.95822 15.3521 2.57141 16.5396 2.57141C18.1282 2.57141 19.5896 3.22682 20.6545 4.41683C21.7068 5.59293 22.2862 7.19967 22.2862 8.94127C22.2862 10.7338 21.638 12.3747 20.2461 14.1051C19.0009 15.6533 17.2113 17.2246 15.1392 19.0442C14.431 19.6658 13.6286 20.3705 12.7956 21.121C12.5757 21.3192 12.2932 21.4286 12.0005 21.4286ZM7.46162 3.81301C6.21342 3.81301 5.06677 4.32627 4.23259 5.25836C3.38602 6.20451 2.91973 7.51241 2.91973 8.94127C2.91973 10.4489 3.46355 11.7972 4.68287 13.3131C5.86139 14.7783 7.61433 16.3174 9.64398 18.0996L9.64774 18.1029C10.3573 18.7259 11.1617 19.4323 11.9988 20.1865C12.841 19.4308 13.6466 18.7233 14.3576 18.0993C16.3871 16.3171 18.1398 14.7783 19.3184 13.3131C20.5375 11.7972 21.0813 10.4489 21.0813 8.94127C21.0813 7.51241 20.6151 6.20451 19.7685 5.25836C18.9345 4.32627 17.7877 3.81301 16.5396 3.81301C15.6252 3.81301 14.7857 4.11249 14.0445 4.70305C13.3839 5.22957 12.9237 5.89517 12.6539 6.36089C12.5152 6.60038 12.271 6.74333 12.0005 6.74333C11.7301 6.74333 11.4859 6.60038 11.3472 6.36089C11.0775 5.89517 10.6174 5.22957 9.95661 4.70305C9.21535 4.11249 8.37584 3.81301 7.46162 3.81301Z" fill="#3E3E3E"/>
</svg>
