<svg width="24" height="24" viewBox="0 0 24 24" fill="none" xmlns="http://www.w3.org/2000/svg">
<path d="M19.3034 4.67058C17.3491 2.78144 14.7777 1.71429 12.0391 1.71429C4.17913 1.71429 -0.756299 10.23 3.16856 17.004L1.71484 22.2857L7.14484 20.8697C9.51056 22.1477 11.4486 22.0346 12.0443 22.11C21.1583 22.11 25.6951 11.0837 19.2906 4.70401L19.3034 4.67058Z" fill="#ECEFF1"/>
<path d="M12.0584 20.358L12.0533 20.3572H12.0396C9.31216 20.3572 7.56959 19.0654 7.39816 18.9909L4.18387 19.8266L5.0453 16.7023L4.84044 16.3809C3.99187 15.03 3.54102 13.4743 3.54102 11.8723C3.54102 4.33544 12.751 0.566587 18.0807 5.89373C23.3976 11.1652 19.6647 20.358 12.0584 20.358Z" fill="#4CAF50"/>
<path d="M16.7212 13.9774L16.7135 14.0417C16.4555 13.9131 15.199 13.2986 14.965 13.2137C14.4395 13.0191 14.5878 13.1829 13.579 14.3383C13.429 14.5054 13.2798 14.5183 13.0252 14.4026C12.7681 14.274 11.9427 14.004 10.9655 13.1297C10.2044 12.4483 9.69353 11.6126 9.54267 11.3554C9.29153 10.9217 9.81696 10.86 10.2952 9.95486C10.381 9.77486 10.3372 9.63343 10.2738 9.50572C10.2095 9.37715 9.69781 8.11715 9.48353 7.61486C9.27781 7.11429 9.0661 7.17772 8.90753 7.17772C8.41381 7.13486 8.05296 7.14172 7.73496 7.47258C6.35153 8.99315 6.70038 10.5617 7.8841 12.2297C10.2104 15.2743 11.4498 15.8349 13.7161 16.6131C14.3281 16.8077 14.8861 16.7803 15.3275 16.7169C15.8195 16.6389 16.8421 16.0989 17.0555 15.4946C17.2741 14.8903 17.2741 14.3889 17.2098 14.2731C17.1464 14.1574 16.9784 14.0931 16.7212 13.9774Z" fill="#FAFAFA"/>
</svg>
