<svg width="124" height="24" viewBox="0 0 124 24" fill="none" xmlns="http://www.w3.org/2000/svg">
<path d="M11.5947 7.11161C11.7883 6.75449 11.9974 6.40512 12.2221 6.07129C12.4467 6.40512 12.6558 6.75449 12.8495 7.11161C12.9657 7.32123 13.0741 7.53085 13.1748 7.74823C13.2832 7.97337 13.3839 8.19852 13.4769 8.43143C13.6395 8.85066 13.8099 9.31648 13.9106 9.65031C13.9339 9.71242 13.9494 9.7823 13.9726 9.84441C14.0036 9.96086 14.0423 10.0773 14.0733 10.1938C14.0888 10.2636 14.112 10.3335 14.1275 10.4111C14.143 10.4733 14.1585 10.5354 14.174 10.6052C14.1895 10.6596 14.1972 10.7139 14.2127 10.7683C14.2205 10.7838 14.2205 10.7993 14.2282 10.8226C14.2437 10.877 14.2514 10.9313 14.2669 10.9934C14.2824 11.0478 14.2902 11.1021 14.2979 11.1642C14.3057 11.2186 14.3211 11.2729 14.3289 11.335C14.3366 11.3816 14.3444 11.4359 14.3521 11.4825C14.3599 11.5446 14.3754 11.6067 14.3831 11.6766C14.3909 11.7154 14.3909 11.7465 14.3986 11.7853C14.3986 11.8086 14.4063 11.8241 14.4063 11.8474C14.4063 11.8629 14.4141 11.8862 14.4141 11.9018C14.4141 11.9095 14.4141 11.9173 14.4141 11.9251C14.4218 11.9561 14.4218 11.9872 14.4296 12.0182C14.4296 12.026 14.4296 12.0415 14.4296 12.0493C14.4373 12.0803 14.4373 12.1114 14.4373 12.1424V12.1502C14.4373 12.158 14.4373 12.1657 14.4373 12.1735C14.4373 12.1813 14.4373 12.1812 14.4373 12.189C14.4451 12.2356 14.4451 12.2744 14.4528 12.321C14.4606 12.3676 14.4606 12.4064 14.4683 12.453C14.4683 12.4918 14.4761 12.5384 14.4838 12.5772V12.585C14.4915 12.6471 14.4915 12.7092 14.4993 12.7713C14.5148 12.9498 14.5225 13.1206 14.5303 13.2992C14.5303 13.3846 14.538 13.47 14.538 13.5554V13.5709C14.538 13.6563 14.538 13.7417 14.538 13.8194V13.8271C14.538 13.8349 14.538 13.8427 14.538 13.8504C14.5303 13.9824 14.4761 14.1144 14.3754 14.2075C14.3057 14.2774 14.2205 14.3318 14.1198 14.3551C14.112 14.3551 14.1043 14.3628 14.0965 14.3628C14.081 14.3628 14.0655 14.3706 14.0423 14.3706C14.0268 14.3706 14.0036 14.3706 13.9881 14.3706H10.4406C10.4251 14.3706 10.4018 14.3706 10.3863 14.3706C10.3709 14.3706 10.3554 14.3628 10.3321 14.3628C10.3244 14.3628 10.3166 14.3551 10.3089 14.3551C10.2159 14.3318 10.1307 14.2852 10.0533 14.2075C9.96034 14.1144 9.89837 13.9824 9.89062 13.8504C9.89062 13.8427 9.89062 13.8349 9.89062 13.8271C9.89062 13.7417 9.89062 13.6563 9.89062 13.5787V13.5399C9.89062 13.4545 9.89837 13.3691 9.89837 13.2837C9.90612 13.1051 9.91386 12.9266 9.92935 12.7558C9.9371 12.6704 9.94485 12.5772 9.95259 12.4918C9.96808 12.3132 9.99132 12.1424 10.0146 11.9639C10.0223 11.9018 10.03 11.8396 10.0378 11.7775C10.0455 11.7154 10.0533 11.6533 10.0688 11.5912C10.0765 11.5291 10.092 11.467 10.0998 11.4127C10.1075 11.3738 10.1152 11.335 10.123 11.2962C10.123 11.2807 10.1307 11.2651 10.1307 11.2496C10.1307 11.2341 10.1385 11.2186 10.1385 11.203C10.1462 11.1642 10.154 11.1332 10.1617 11.0943C10.1617 11.0788 10.1695 11.0711 10.1695 11.0555C10.1772 11.0167 10.185 10.9779 10.1927 10.9391C10.2005 10.908 10.2082 10.877 10.2082 10.8459C10.2392 10.7139 10.2702 10.5742 10.3011 10.4422C10.3166 10.3723 10.3321 10.3102 10.3554 10.2403C10.3554 10.2326 10.3631 10.2171 10.3631 10.2093C10.3786 10.1549 10.3941 10.0928 10.4096 10.0385C10.4251 9.97639 10.4483 9.91428 10.4638 9.85217C10.487 9.78229 10.5025 9.71242 10.5258 9.64255C10.6265 9.31648 10.7891 8.85842 10.9518 8.44695V8.43919C11.0525 8.19852 11.1532 7.96561 11.2616 7.74046C11.3778 7.53085 11.4862 7.32123 11.5947 7.11161ZM11.6876 12.4763C11.6876 12.189 11.9122 11.9483 12.1988 11.9328C12.2066 11.9328 12.2143 11.9328 12.2298 11.9328C12.2376 11.9328 12.2453 11.9328 12.2531 11.9328C12.5396 11.9483 12.7643 12.1812 12.7643 12.4763V13.2759H12.772H13.4536C13.4459 13.1284 13.4381 12.9887 13.4304 12.8412C13.4226 12.7868 13.4226 12.7247 13.4149 12.6704C13.4072 12.5461 13.3917 12.4219 13.3762 12.3055C13.3684 12.2666 13.3684 12.2201 13.3607 12.1812C13.3529 12.1191 13.3452 12.057 13.3374 11.9872C13.3297 11.9483 13.3297 11.9095 13.322 11.8707C13.3142 11.8397 13.3142 11.8086 13.3065 11.7775C13.2987 11.731 13.291 11.6844 13.2832 11.6456C13.2755 11.599 13.2677 11.5602 13.26 11.5136C13.2445 11.4204 13.229 11.335 13.2058 11.2419C13.198 11.1953 13.1903 11.1487 13.1748 11.1099C13.1593 11.0245 13.1361 10.9391 13.1206 10.8537C13.1051 10.7993 13.0973 10.745 13.0818 10.6906C13.0663 10.613 13.0431 10.5276 13.0199 10.45C13.0121 10.4034 12.9966 10.3646 12.9811 10.318C12.9502 10.2015 12.9192 10.0928 12.8805 9.97638C12.865 9.93756 12.8572 9.89099 12.8417 9.85217C12.8185 9.76677 12.7875 9.68137 12.7565 9.59597C12.7178 9.48728 12.6791 9.38635 12.6403 9.27766C12.5939 9.16121 12.5474 9.04475 12.5009 8.9283C12.4157 8.71092 12.3228 8.5013 12.2221 8.28392C12.1214 8.49353 12.0284 8.71092 11.9432 8.9283C11.8968 9.04475 11.8503 9.16121 11.8038 9.27766C11.7651 9.38635 11.7263 9.48728 11.6876 9.59597C11.6566 9.68137 11.6257 9.76677 11.6024 9.85217C11.5559 10.0074 11.5095 10.1627 11.463 10.318C11.4475 10.3646 11.4398 10.4034 11.4243 10.45C11.401 10.5276 11.3778 10.613 11.3623 10.6906C11.3468 10.745 11.3391 10.7993 11.3236 10.8537C11.3003 10.9391 11.2848 11.0245 11.2694 11.1099C11.2616 11.1565 11.2539 11.1953 11.2384 11.2419C11.2229 11.3273 11.1996 11.4204 11.1842 11.5136C11.1764 11.5602 11.1687 11.6067 11.1609 11.6456C11.1532 11.6921 11.1454 11.7387 11.1377 11.7775C11.1299 11.8086 11.1299 11.8397 11.1222 11.8707C11.1144 11.9095 11.1067 11.9483 11.1067 11.9872C11.0989 12.0493 11.0912 12.1114 11.0835 12.1812C11.0757 12.2201 11.0757 12.2666 11.068 12.3055C11.0525 12.4297 11.0447 12.5539 11.0292 12.6704C11.0215 12.7247 11.0215 12.7868 11.0137 12.8412C11.006 12.9887 10.9983 13.1284 10.9905 13.2759H11.6721H11.6799V12.4763H11.6876Z" fill="#00A887"/>
<path d="M2.21526 0.0232908C2.42439 -0.00776361 2.63352 -0.00776361 2.84266 0.0232908C2.87364 0.0310544 2.91237 0.0310554 2.94335 0.038819C3.13699 0.0698734 3.33063 0.108691 3.52428 0.147509C3.61722 0.1708 3.70243 0.186326 3.79537 0.209617C3.88058 0.232908 3.96578 0.248436 4.05098 0.271727C6.66902 0.947161 9.07792 2.39119 10.9136 4.40973L10.9214 4.41749C11.2312 4.75909 11.5333 5.12398 11.8044 5.49663L11.8354 5.54322L11.208 6.51367L11.1383 6.4205C11.1305 6.41274 11.1305 6.40498 11.1228 6.39721C11.1073 6.38169 11.0995 6.35839 11.084 6.34287C10.8362 5.9935 10.5728 5.65191 10.2862 5.32584C8.60543 3.3927 6.36694 2.01078 3.90381 1.35863C3.82636 1.33534 3.7489 1.31981 3.67144 1.29652C3.59399 1.27323 3.51653 1.25771 3.43907 1.24218C3.43133 1.24218 3.42358 1.24218 3.41584 1.23441C3.36936 1.22665 3.33064 1.21889 3.28416 1.20336C3.23769 1.1956 3.19896 1.18783 3.15248 1.18007C3.02081 1.15678 2.88913 1.12572 2.75746 1.1102C2.35468 1.04032 1.95191 1.15678 1.63434 1.42074C1.31676 1.69247 1.13087 2.08841 1.13087 2.50765V7.69374C1.13087 10.7759 3.63272 13.2758 6.7 13.2758C6.99433 13.2758 7.24219 13.5164 7.24219 13.8192C7.24219 14.122 7.00208 14.3627 6.7 14.3627C5.59237 14.3627 4.68613 15.2633 4.68613 16.3812V21.4586C4.68613 21.513 4.68613 21.5673 4.69387 21.6216C4.69387 21.6449 4.70162 21.676 4.70936 21.6993C4.71711 21.7226 4.71711 21.7536 4.72485 21.7769C4.72485 21.7769 4.72485 21.7769 4.72485 21.7847C4.7326 21.808 4.7326 21.8235 4.74035 21.8468C4.74809 21.8623 4.74809 21.8856 4.75584 21.9011C4.84104 22.1729 5.01144 22.4135 5.24381 22.5999C5.58462 22.8638 6.01838 22.957 6.4289 22.8561C6.44439 22.8561 6.45214 22.8483 6.46763 22.8483C6.47537 22.8483 6.48312 22.8483 6.49087 22.8405C6.52185 22.8328 6.54509 22.825 6.57607 22.8172C6.59931 22.8095 6.63029 22.8017 6.65352 22.794C6.69225 22.7862 6.72324 22.7707 6.76196 22.7629C6.80069 22.7474 6.84717 22.7396 6.88589 22.7241C6.89364 22.7241 6.90138 22.7163 6.90913 22.7163C6.96335 22.7008 7.01757 22.6853 7.06404 22.6697C7.08728 22.662 7.11052 22.6542 7.13376 22.6464C7.18023 22.6309 7.21896 22.6154 7.26543 22.5999C7.28092 22.5921 7.30416 22.5843 7.31965 22.5843C7.36613 22.5688 7.4126 22.5533 7.45907 22.53C7.47456 22.5222 7.48231 22.5222 7.49006 22.5145C7.54427 22.4912 7.5985 22.4679 7.66046 22.4446C7.72243 22.4213 7.78439 22.3902 7.84636 22.367C7.90832 22.3437 7.97029 22.3126 8.03225 22.2893C8.04 22.2893 8.04774 22.2815 8.04774 22.2815C8.10196 22.2583 8.16393 22.2272 8.21815 22.2039C8.28011 22.1729 8.34208 22.1418 8.40405 22.1108C8.46601 22.0797 8.52797 22.0486 8.58219 22.0176C8.64416 21.9865 8.69838 21.9555 8.76034 21.9167C8.82231 21.8856 8.87653 21.8468 8.93849 21.8157C8.98497 21.7847 9.03144 21.7614 9.07792 21.7303C9.21734 21.6449 9.35676 21.5518 9.48844 21.4508C9.58913 21.381 9.68982 21.3033 9.79052 21.2335C9.8215 21.2102 9.86023 21.1791 9.89121 21.1558C9.95318 21.1015 10.0229 21.0549 10.0849 21.0006C10.1468 20.9462 10.2088 20.8919 10.2707 20.8375C10.3327 20.7832 10.3947 20.7288 10.4566 20.6667C10.5186 20.6124 10.5806 20.5503 10.6348 20.4959C10.658 20.4726 10.6735 20.4571 10.6968 20.4338C10.72 20.4183 10.7355 20.395 10.7587 20.3717C10.8362 20.2941 10.9136 20.2087 10.9911 20.131C11.0221 20.0922 11.0608 20.0534 11.0918 20.0146C11.3319 19.7429 11.5565 19.4634 11.7657 19.1606C11.7889 19.1295 11.8121 19.0985 11.8354 19.0752C11.8586 19.0519 11.8896 19.0286 11.9206 19.0053C11.9593 18.982 11.998 18.9665 12.0445 18.951C12.0987 18.9354 12.1529 18.9277 12.2072 18.9277C12.3543 18.9277 12.486 18.982 12.5867 19.0829C12.6099 19.1062 12.6332 19.1295 12.6487 19.1606C12.6719 19.1916 12.6874 19.2149 12.7106 19.246C12.7339 19.277 12.7494 19.3003 12.7726 19.3314C12.8113 19.3857 12.8578 19.4401 12.8965 19.4944C12.9353 19.5488 12.9817 19.6031 13.0205 19.6575C13.1521 19.8205 13.2838 19.9758 13.4232 20.1233C13.4542 20.1621 13.4929 20.2009 13.5317 20.2397C13.5704 20.2785 13.6014 20.3174 13.6401 20.3484C13.7098 20.4183 13.7873 20.4959 13.857 20.5658C13.9577 20.659 14.0584 20.7521 14.1591 20.8453C14.2133 20.8919 14.2598 20.9384 14.314 20.9773C14.3682 21.0238 14.4224 21.0627 14.4689 21.1092C14.4999 21.1325 14.5386 21.1636 14.5696 21.1869C14.74 21.3189 14.9104 21.4431 15.0886 21.5595C15.1583 21.6061 15.228 21.6527 15.3054 21.6993C15.3596 21.7303 15.4139 21.7692 15.4681 21.8002C15.4758 21.808 15.4836 21.808 15.4836 21.808C15.5378 21.839 15.5998 21.8778 15.654 21.9089C15.7159 21.94 15.7702 21.9788 15.8321 22.0098C15.8941 22.0409 15.9483 22.0719 16.0103 22.103C16.0645 22.134 16.1265 22.1651 16.1884 22.1884L16.1962 22.1962C16.2504 22.2194 16.3046 22.2505 16.3588 22.2738C16.3666 22.2816 16.3743 22.2815 16.3821 22.2815C16.4363 22.3048 16.4983 22.3359 16.5525 22.3592C16.5602 22.3592 16.5602 22.367 16.568 22.367C16.6299 22.3902 16.6919 22.4213 16.7539 22.4446C16.8081 22.4679 16.8623 22.4912 16.9243 22.5145C16.932 22.5222 16.9475 22.5222 16.9553 22.53C16.994 22.5455 17.0327 22.561 17.0792 22.5766C17.1024 22.5843 17.1334 22.5999 17.1566 22.6076C17.1876 22.6154 17.2186 22.6309 17.2496 22.6387C17.2883 22.6542 17.327 22.662 17.358 22.6775C17.42 22.7008 17.4742 22.7163 17.5362 22.7318C17.5672 22.7396 17.5981 22.7474 17.6291 22.7629C17.6756 22.7784 17.7221 22.7862 17.7686 22.8017C17.784 22.8017 17.7918 22.8095 17.8073 22.8095C17.846 22.8172 17.8847 22.8328 17.9157 22.8405C17.9235 22.8405 17.9312 22.8483 17.939 22.8483C17.9467 22.8483 17.9622 22.8561 17.9699 22.8561C18.3805 22.957 18.8142 22.8716 19.155 22.5999C19.3874 22.4213 19.5578 22.1806 19.643 21.9011C19.6507 21.8856 19.6507 21.8623 19.6585 21.8468C19.6662 21.8235 19.6662 21.808 19.674 21.7847C19.674 21.7847 19.674 21.7847 19.674 21.7769C19.6817 21.7536 19.6817 21.7226 19.6895 21.6993C19.6972 21.676 19.6972 21.6449 19.705 21.6216C19.7127 21.5673 19.7127 21.513 19.7127 21.4586V16.3734C19.7127 15.2633 18.8065 14.3549 17.6988 14.3549C17.3968 14.3549 17.1566 14.1142 17.1566 13.8115C17.1566 13.5164 17.3968 13.268 17.6988 13.268C20.7739 13.268 23.268 10.7604 23.268 7.68597V2.49988C23.268 2.08065 23.0821 1.6847 22.7645 1.41298C22.4547 1.14901 22.0442 1.03256 21.6414 1.10243C21.5097 1.12572 21.378 1.14902 21.2464 1.17231C21.1999 1.18007 21.1611 1.18783 21.1147 1.1956C21.0682 1.20336 21.0295 1.21112 20.983 1.22665C20.9753 1.22665 20.9675 1.22665 20.9598 1.23441C20.8823 1.24994 20.8048 1.27323 20.7274 1.28876C20.6499 1.30429 20.5725 1.32758 20.495 1.35087C18.0242 2.01077 15.7934 3.3927 14.1126 5.31807C13.826 5.64414 13.5627 5.98574 13.3148 6.3351C13.2993 6.35063 13.2916 6.37392 13.2761 6.38945C13.2683 6.39721 13.2683 6.40498 13.2606 6.41274L13.1909 6.5059L12.5635 5.53545L12.5944 5.48887C12.8733 5.11622 13.1676 4.75133 13.4775 4.40973L13.4852 4.40196C15.3209 2.38343 17.7221 0.939397 20.3479 0.263963C20.4331 0.240672 20.5183 0.217382 20.6035 0.201855C20.6964 0.178564 20.7816 0.163036 20.8746 0.139745C21.0682 0.100927 21.2618 0.0621093 21.4555 0.0310549C21.4865 0.0232913 21.5252 0.0232903 21.5562 0.0155267C21.5794 0.0155267 21.6104 0.00776503 21.6336 0.00776503C21.6569 0.00776503 21.6879 9.48053e-07 21.7111 9.48053e-07C21.7266 9.48053e-07 21.7421 9.48053e-07 21.7576 9.48053e-07C21.7963 9.48053e-07 21.835 9.48053e-07 21.8738 9.48053e-07C21.8815 9.48053e-07 21.8892 9.48053e-07 21.8892 9.48053e-07C21.9125 9.48053e-07 21.928 9.48053e-07 21.9512 9.48053e-07C21.9744 9.48053e-07 22.0054 1.42179e-06 22.0287 0.00776503C22.0829 0.00776503 22.1294 0.0155272 22.1836 0.0232908C22.2068 0.0232908 22.2378 0.0310554 22.261 0.038819C22.3307 0.0465826 22.3927 0.0621098 22.4547 0.077637C22.5166 0.0931642 22.5864 0.116454 22.6483 0.131981C22.7025 0.147508 22.749 0.1708 22.7955 0.186327C22.8652 0.217381 22.9272 0.248437 22.9891 0.279491C23.1518 0.364891 23.299 0.465817 23.4384 0.582272C24.0038 1.05585 24.3214 1.75458 24.3214 2.49212V7.67821C24.3214 10.5585 22.4314 13.1516 19.705 14.0288C20.3788 14.6189 20.7661 15.4651 20.7661 16.3657V21.4586C20.7661 21.5828 20.7584 21.6993 20.7429 21.8235C20.7351 21.8934 20.7196 21.9632 20.7042 22.0331C20.6964 22.0564 20.6887 22.0797 20.6887 22.103C20.6732 22.1729 20.6499 22.235 20.6267 22.3048C20.6267 22.3048 20.6267 22.3048 20.6267 22.3126C20.6035 22.367 20.588 22.4213 20.5647 22.4756C20.4021 22.8483 20.1387 23.1821 19.8057 23.4461C19.2015 23.9119 18.4424 24.0827 17.6988 23.9119C17.6911 23.9119 17.6911 23.9119 17.6833 23.9119C17.6833 23.9119 17.6833 23.9119 17.6756 23.9119C17.6446 23.9041 17.6059 23.8964 17.5749 23.8886C17.5439 23.8809 17.5129 23.8731 17.4742 23.8653C17.4045 23.8498 17.3425 23.8265 17.2728 23.811C17.2031 23.7877 17.1412 23.7722 17.0714 23.7489C17.0095 23.7256 16.9398 23.7101 16.8778 23.6868H16.8701C16.8081 23.6635 16.7384 23.6402 16.6764 23.6169C16.6144 23.5936 16.5525 23.5703 16.4983 23.547C16.4905 23.547 16.4828 23.5393 16.475 23.5393C16.4131 23.516 16.3511 23.4927 16.2891 23.4616C16.2427 23.4461 16.2039 23.4228 16.1575 23.4073C16.1265 23.3917 16.0877 23.3762 16.0568 23.3607C16.049 23.3607 16.0413 23.3529 16.0335 23.3529C15.9793 23.3296 15.9173 23.2986 15.8631 23.2753H15.8554C15.7934 23.2442 15.7314 23.2209 15.6772 23.1899C15.6153 23.1588 15.5533 23.1278 15.4913 23.0967C15.4294 23.0657 15.3674 23.0346 15.3054 23.0036C15.2435 22.9725 15.1815 22.9415 15.1273 22.9026C14.8175 22.7241 14.5076 22.53 14.2133 22.3204C14.1126 22.2505 14.0196 22.1806 13.9267 22.1108C13.888 22.0797 13.8415 22.0486 13.8028 22.0176C13.7253 21.9555 13.6401 21.8856 13.5627 21.8235C13.5239 21.7924 13.4852 21.7536 13.4465 21.7226C13.2993 21.5984 13.1599 21.4664 13.0205 21.3344C12.974 21.2878 12.9275 21.2412 12.881 21.2024C12.8423 21.1636 12.8113 21.1325 12.7726 21.0937C12.5557 20.8686 12.3543 20.6434 12.1529 20.395C11.9593 20.6357 11.7502 20.8686 11.5333 21.0937C11.4946 21.1325 11.4636 21.1636 11.4249 21.2024C11.3784 21.249 11.3319 21.2956 11.2854 21.3344C11.146 21.4664 11.0066 21.5984 10.8594 21.7226C10.8207 21.7536 10.782 21.7924 10.7432 21.8235C10.6658 21.8934 10.5806 21.9555 10.5031 22.0176C10.4644 22.0486 10.4257 22.0797 10.3792 22.1108C10.2165 22.235 10.0461 22.3514 9.87572 22.4679C9.8215 22.5067 9.75953 22.5455 9.70532 22.5843C9.6511 22.6231 9.58913 22.6542 9.53491 22.693C9.47294 22.7318 9.41873 22.7629 9.35676 22.8017C9.2948 22.8328 9.24058 22.8716 9.17861 22.9026C9.13214 22.9259 9.08566 22.957 9.03144 22.9803C8.96173 23.0191 8.88427 23.0579 8.81456 23.0967C8.7526 23.1278 8.69838 23.1588 8.63641 23.1899H8.62867C8.57445 23.2132 8.52023 23.2442 8.46601 23.2675C8.45826 23.2753 8.45052 23.2753 8.44277 23.2831C8.38855 23.3063 8.33433 23.3374 8.27237 23.3607C8.26462 23.3607 8.25688 23.3685 8.24913 23.3685C8.21815 23.384 8.17942 23.3995 8.14844 23.415C8.10196 23.4306 8.06324 23.4539 8.01676 23.4694C7.9548 23.4927 7.89283 23.5237 7.83086 23.547C7.82312 23.547 7.81537 23.5548 7.80763 23.5548C7.74566 23.5781 7.69144 23.6014 7.62948 23.6247C7.56751 23.6479 7.50555 23.6712 7.43584 23.6945C7.42809 23.6945 7.42034 23.7023 7.42034 23.7023C7.35838 23.7256 7.29641 23.7411 7.23445 23.7644C7.17248 23.7877 7.10277 23.8032 7.04081 23.8265C6.9711 23.8498 6.90913 23.8653 6.83942 23.8809C6.77745 23.8964 6.71549 23.9119 6.65352 23.9274C6.64578 23.9274 6.63803 23.9352 6.63029 23.9352C5.8867 24.106 5.12763 23.9352 4.52347 23.4694C4.09746 23.1433 3.79537 22.693 3.65595 22.1884C3.64821 22.1573 3.64046 22.1185 3.63272 22.0875C3.61722 22.0098 3.60173 21.9322 3.58624 21.8468C3.57075 21.7303 3.563 21.6061 3.563 21.4819V16.3967C3.563 15.4962 3.95029 14.6499 4.62416 14.0599C1.89769 13.1826 0 10.5896 0 7.70926V2.52317C0 1.78563 0.325318 1.08691 0.890751 0.613325C1.03017 0.496871 1.18509 0.388181 1.34 0.310545C1.40197 0.279491 1.47168 0.248435 1.53364 0.217381C1.58012 0.19409 1.63433 0.178564 1.68081 0.163037C1.74277 0.139746 1.80474 0.124218 1.87445 0.108691C1.93642 0.0931638 2.00613 0.0776365 2.06809 0.0698729C2.16104 0.0310549 2.19202 0.0310544 2.21526 0.0232908Z" fill="#951BC4"/>
<path d="M31.0211 16.9011C29.7818 15.69 29.1621 14.1761 29.1621 12.3594C29.1621 10.5427 29.7818 9.02883 31.0211 7.81771C32.2604 6.60659 33.8405 6.00879 35.7614 6.00879C37.9225 6.00879 39.58 6.76962 40.7264 8.29129C40.8271 8.41551 40.92 8.54749 41.0052 8.67947C41.5397 9.47912 40.9588 10.5583 39.9983 10.5583H39.8821C39.4793 10.5583 39.1153 10.3409 38.8984 9.99929C38.7822 9.82072 38.6505 9.64992 38.4956 9.49465C37.7753 8.77263 36.8613 8.41551 35.7537 8.41551C34.6305 8.41551 33.7088 8.78816 32.9885 9.5257C32.2604 10.2632 31.9041 11.2104 31.9041 12.3672C31.9041 13.5705 32.2526 14.5255 32.9575 15.2397C33.6623 15.954 34.5918 16.3111 35.7614 16.3111C36.9233 16.3111 37.8605 15.9074 38.5731 15.1077C38.7358 14.9214 38.8752 14.7273 38.9914 14.5255C39.2082 14.1528 39.5955 13.9044 40.0293 13.9044H40.1067C41.0362 13.9044 41.6326 14.9214 41.1524 15.7211C41.0285 15.9229 40.8968 16.117 40.7574 16.3111C39.5258 17.9104 37.8605 18.7178 35.7692 18.7178C33.8405 18.7101 32.2604 18.1123 31.0211 16.9011Z" fill="#951BC4"/>
<path d="M43.3848 17.4448V10.5352C43.3848 10.0228 43.7953 9.61133 44.3065 9.61133H48.1793C49.0778 9.61133 49.7749 9.81318 50.2707 10.2091C50.7586 10.6128 51.0065 11.1252 51.0065 11.7541C51.0065 12.4218 50.7586 12.9419 50.2707 13.3146C50.0383 13.4854 49.8059 13.5941 49.5503 13.6406V13.726C49.8834 13.7959 50.1932 13.9124 50.4953 14.0832C51.1227 14.5335 51.4403 15.1235 51.4403 15.8688C51.4403 16.5986 51.1537 17.1964 50.5805 17.6622C50.0073 18.128 49.2095 18.3609 48.1793 18.3609H44.3065C43.7953 18.3687 43.3848 17.9572 43.3848 17.4448ZM45.7782 12.9574H47.8308C48.0941 12.9574 48.3033 12.8798 48.4582 12.7323C48.6131 12.5848 48.6905 12.3985 48.6905 12.1811C48.6905 11.9637 48.6131 11.7774 48.4582 11.6299C48.3033 11.4824 48.0941 11.4047 47.8308 11.4047H45.7782V12.9574ZM45.7782 16.5675H48.0089C48.3033 16.5675 48.5511 16.4744 48.7448 16.2958C48.9384 16.1095 49.0391 15.8921 49.0391 15.6281C49.0391 15.3642 48.9384 15.139 48.7448 14.9605C48.5511 14.7741 48.3033 14.6887 48.0089 14.6887H45.7782V16.5675Z" fill="#951BC4"/>
<path d="M53.7382 17.2821C52.832 16.3815 52.375 15.2868 52.375 13.9903C52.375 12.6938 52.832 11.5991 53.7382 10.6985C54.6445 9.79795 55.7599 9.34766 57.0844 9.34766C58.4321 9.34766 59.532 9.80571 60.4072 10.6908C61.2593 11.5448 61.5614 12.655 61.6698 13.4546C61.7395 14.0058 61.3135 14.5027 60.7558 14.5027H54.8614C54.9543 15.0772 55.2099 15.5585 55.6359 15.9623C56.0619 16.366 56.5422 16.56 57.0921 16.56C57.6963 16.56 58.2152 16.3892 58.649 16.0476C59.0285 15.7138 59.5165 15.5353 60.0277 15.5353H60.0587C60.8565 15.5353 61.2903 16.4669 60.779 17.0802C59.8651 18.1128 58.6412 18.6252 57.0921 18.6252C55.7599 18.6252 54.6445 18.1826 53.7382 17.2821ZM54.9466 13.0431H59.1447C59.0518 12.5851 58.8194 12.1969 58.4476 11.8864C58.0758 11.568 57.6188 11.4128 57.0844 11.4128C56.5499 11.4128 56.0929 11.568 55.7134 11.8786C55.3416 12.1891 55.0782 12.5773 54.9466 13.0431Z" fill="#951BC4"/>
<path d="M85.705 17.2821C84.7988 16.3815 84.3418 15.2868 84.3418 13.9903C84.3418 12.6938 84.7988 11.5991 85.705 10.6985C86.6113 9.79795 87.7267 9.34766 89.0512 9.34766C90.3989 9.34766 91.4988 9.80571 92.3741 10.6908C93.2261 11.5448 93.5282 12.655 93.6366 13.4546C93.7063 14.0058 93.2803 14.5027 92.7226 14.5027H86.8282C86.9211 15.0772 87.1767 15.5585 87.6027 15.9623C88.0287 16.366 88.509 16.56 89.0589 16.56C89.6631 16.56 90.182 16.3892 90.6158 16.0476C90.9953 15.7138 91.4833 15.5353 91.9945 15.5353H92.0255C92.8233 15.5353 93.2571 16.4669 92.7458 17.0802C91.8319 18.1128 90.608 18.6252 89.0589 18.6252C87.7344 18.6252 86.6113 18.1826 85.705 17.2821ZM86.9134 13.0431H91.1115C91.0186 12.5851 90.7862 12.1969 90.4144 11.8864C90.0426 11.568 89.5856 11.4128 89.0512 11.4128C88.5167 11.4128 88.0597 11.568 87.6802 11.8786C87.3084 12.1891 87.0528 12.5773 86.9134 13.0431Z" fill="#00A887"/>
<path d="M62.3125 10.7293V10.5585C62.3125 10.0383 62.7308 9.61133 63.2575 9.61133H69.5934C70.1124 9.61133 70.5384 10.0383 70.5384 10.5585V10.7293C70.5384 11.2494 70.1124 11.6764 69.5934 11.6764H67.626V17.4215C67.626 17.9417 67.2078 18.3687 66.6811 18.3687H66.1698C65.6509 18.3687 65.2249 17.9417 65.2249 17.4215V11.6764H63.2575C62.7308 11.6764 62.3125 11.2494 62.3125 10.7293Z" fill="#951BC4"/>
<path d="M70.709 19.572V16.8936C70.709 16.3812 71.1195 15.9697 71.6307 15.9697H72.08L74.3804 7.05707C74.4889 6.63784 74.8607 6.35059 75.2944 6.35059H79.2292C79.6552 6.35059 80.0348 6.6456 80.1432 7.05707L82.4437 15.9697H82.8929C83.4041 15.9697 83.8147 16.3812 83.8147 16.8936V19.572C83.8147 20.0922 83.3886 20.5192 82.8697 20.5192H82.2733C81.7543 20.5192 81.3283 20.0922 81.3283 19.572V18.3687H73.1876V19.572C73.1876 20.0922 72.7616 20.5192 72.2426 20.5192H71.6462C71.1272 20.5192 70.709 20.0922 70.709 19.572ZM74.5586 15.9697H79.9573L78.0751 8.7573H76.4485L74.5586 15.9697Z" fill="#00A887"/>
<path d="M94.8984 17.2916V10.4208C94.8984 9.90063 95.3167 9.47363 95.8434 9.47363H96.3546C96.8736 9.47363 97.2996 9.90063 97.2996 10.4208V12.7421H98.3298L100.359 9.87734C100.537 9.62891 100.824 9.4814 101.126 9.4814H101.482C102.249 9.4814 102.691 10.3432 102.257 10.972L100.475 13.5185L102.605 16.7792C103.016 17.408 102.567 18.2387 101.815 18.2387H101.327C101.01 18.2387 100.708 18.0757 100.537 17.8117L98.5854 14.8072H97.2996V17.2916C97.2996 17.8117 96.8813 18.2387 96.3546 18.2387H95.8434C95.3167 18.2387 94.8984 17.8195 94.8984 17.2916Z" fill="#00A887"/>
<path d="M105.148 17.2821C104.234 16.3815 103.777 15.2868 103.777 13.9903C103.777 12.6938 104.234 11.5991 105.148 10.6985C106.062 9.79795 107.201 9.34766 108.572 9.34766C109.927 9.34766 111.074 9.79795 111.988 10.6985C112.909 11.5991 113.366 12.6938 113.366 13.9903C113.366 15.2868 112.909 16.3815 111.988 17.2821C111.066 18.1826 109.927 18.6329 108.572 18.6329C107.201 18.6252 106.062 18.1826 105.148 17.2821ZM106.93 12.1348C106.481 12.6161 106.264 13.2372 106.264 13.9903C106.264 14.7434 106.488 15.3645 106.93 15.8458C107.379 16.3271 107.921 16.5678 108.572 16.5678C109.223 16.5678 109.772 16.3271 110.214 15.8458C110.655 15.3645 110.88 14.7434 110.88 13.9903C110.88 13.2372 110.655 12.6161 110.214 12.1348C109.765 11.6534 109.223 11.4128 108.572 11.4128C107.921 11.4128 107.371 11.6534 106.93 12.1348Z" fill="#00A887"/>
<path d="M114.744 20.6898V10.5583C114.744 10.0382 115.162 9.61118 115.689 9.61118H116.2C116.719 9.61118 117.145 10.0304 117.145 10.5583V10.7291H117.23C117.416 10.4885 117.633 10.2633 117.897 10.0459C118.516 9.58789 119.206 9.35498 119.972 9.35498C121.111 9.35498 122.072 9.78198 122.846 10.636C123.621 11.49 124 12.6079 124 13.9899C124 15.3718 123.613 16.4975 122.846 17.3437C122.072 18.1977 121.119 18.6247 119.972 18.6247C119.206 18.6247 118.516 18.3996 117.897 17.9415C117.633 17.7241 117.409 17.499 117.23 17.2583H117.145V20.6898C117.145 21.21 116.727 21.637 116.2 21.637H115.689C115.162 21.6292 114.744 21.21 114.744 20.6898ZM117.757 12.0955C117.347 12.5458 117.138 13.1824 117.138 13.9899C117.138 14.805 117.347 15.4339 117.757 15.8842C118.168 16.3345 118.702 16.5596 119.368 16.5596C119.996 16.5596 120.507 16.3345 120.91 15.8764C121.312 15.4184 121.506 14.7895 121.506 13.9899C121.506 13.1902 121.305 12.5613 120.91 12.1033C120.507 11.6452 119.996 11.4201 119.368 11.4201C118.702 11.4123 118.168 11.6375 117.757 12.0955Z" fill="#00A887"/>
</svg>
