<svg width="24" height="24" viewBox="0 0 24 24" fill="none" xmlns="http://www.w3.org/2000/svg">
<path fill-rule="evenodd" clip-rule="evenodd" d="M20.9148 14V15.3333C20.9127 16.0399 20.623 16.717 20.1091 17.2166C19.5952 17.7163 18.8988 17.9979 18.172 18H4.45772C3.73027 18 3.03261 17.719 2.51822 17.219C2.00384 16.7189 1.71486 16.0406 1.71486 15.3333V8.66668C1.71359 8.31614 1.78367 7.96883 1.92106 7.64473C2.05846 7.32064 2.26044 7.02618 2.5154 6.77831C2.77035 6.53045 3.07322 6.33407 3.40657 6.20049C3.73992 6.06692 4.09716 5.99878 4.45772 6.00002H18.172C18.8994 6.00002 19.5971 6.28097 20.1115 6.78106C20.6259 7.28116 20.9148 7.95944 20.9148 8.66668V10H22.2863V14H20.9148ZM18.172 14V8.66668H4.45772V15.3333H18.172V14ZM8.572 14H5.82914V10H8.572V14ZM12.6863 14H9.94342V10H12.6863V14ZM16.8006 14H14.0577V10H16.8006V14Z" fill="#47C65F"/>
</svg>
