<svg width="40" height="40" viewBox="0 0 40 40" fill="none" xmlns="http://www.w3.org/2000/svg">
<g clip-path="url(#clip0_1707_95221)">
<path d="M27.1597 26.1836L29.4515 24.5104H21.7783V34.5333H29.4515V32.8601H23.9701V30.301H28.6549V28.6278H23.9701V26.1836H27.1597Z" fill="#21A038"/>
<path d="M15.9814 28.4145H13.3246V26.1836H17.5767L19.8686 24.5104H11.1318V34.5333H15.6994C18.2571 34.5333 19.7361 33.385 19.7361 31.3837C19.7361 29.4644 18.4067 28.4145 15.9814 28.4145ZM15.6165 32.8601H13.3246V30.0878H15.6165C17.0116 30.0878 17.6596 30.5471 17.6596 31.4821C17.6596 32.4171 16.9621 32.8601 15.6165 32.8601Z" fill="#21A038"/>
<path d="M35.6643 24.5104H31.4951V34.5333H33.6879V31.6954H35.6815C38.3393 31.6954 40.0003 30.3174 40.0003 28.1029C40.0003 25.8883 38.3393 24.5104 35.6643 24.5104ZM35.6148 30.0221H33.6717V26.1836H35.6148C37.0271 26.1836 37.7914 26.8726 37.7914 28.1029C37.7914 29.3332 37.0271 30.0221 35.6148 30.0221Z" fill="#21A038"/>
<path d="M7.37628 32.368C6.79498 32.6797 6.14796 32.8436 5.48275 32.8436C3.50632 32.8436 2.07783 31.4493 2.07783 29.5301C2.07783 27.6108 3.50632 26.2164 5.48275 26.2164C6.1975 26.2 6.89506 26.4297 7.47636 26.8398L9.05448 25.6916L8.95439 25.5931C8.04149 24.7893 6.81217 24.3792 5.41704 24.3792C3.90565 24.3792 2.5267 24.8878 1.52989 25.8064C0.533086 26.7578 -0.0310315 28.0864 0.00131925 29.4644C-0.0148561 30.8587 0.533086 32.2039 1.52989 33.1881C2.57624 34.1559 3.97137 34.6973 5.39985 34.6645C6.97796 34.6645 8.35692 34.1231 9.287 33.1389L7.87469 32.1054L7.37628 32.368Z" fill="#21A038"/>
<path d="M25.7748 7.91504C26.1741 8.42354 26.5057 8.98134 26.7888 9.57184L19.1145 15.1656L15.8916 13.1643V10.7693L19.0974 12.7542L25.7748 7.91504Z" fill="#21A038"/>
<path d="M12.6198 12.9994C12.6198 12.8845 12.6198 12.7861 12.637 12.6713L10.6939 12.5729C10.6939 12.7041 10.6768 12.8517 10.6768 12.983C10.6768 15.2795 11.624 17.3629 13.1516 18.872L14.5305 17.5105C13.3507 16.3622 12.6198 14.771 12.6198 12.9994Z" fill="url(#paint0_linear_1707_95221)"/>
<path d="M19.0978 6.60155C19.2141 6.60155 19.3142 6.60155 19.4304 6.61795L19.5305 4.69865C19.3971 4.69865 19.2475 4.68225 19.115 4.68225C16.7888 4.68225 14.6799 5.61725 13.1514 7.12645L14.5303 8.48795C15.6929 7.32325 17.3206 6.60155 19.0978 6.60155Z" fill="url(#paint1_linear_1707_95221)"/>
<path d="M19.0967 19.3969C18.9805 19.3969 18.8814 19.3969 18.7651 19.3805L18.665 21.2997C18.7985 21.2997 18.9471 21.3161 19.0805 21.3161C21.4057 21.3161 23.5156 20.3811 25.0432 18.8719L23.6653 17.5104C22.5026 18.6915 20.8912 19.3969 19.0967 19.3969Z" fill="url(#paint2_linear_1707_95221)"/>
<path d="M22.7523 7.71783L24.3971 6.52032C22.9514 5.37202 21.1074 4.66663 19.0977 4.66663V6.58593C20.4604 6.60233 21.7221 7.01243 22.7523 7.71783Z" fill="url(#paint3_linear_1707_95221)"/>
<path d="M27.5355 12.9993C27.5355 12.4908 27.486 11.9986 27.4031 11.5065L25.5925 12.8352C25.5925 12.8845 25.5925 12.9501 25.5925 12.9993C25.5925 14.8858 24.7614 16.5754 23.4492 17.7401L24.7614 19.1672C26.4558 17.658 27.5355 15.4435 27.5355 12.9993Z" fill="#21A038"/>
<path d="M19.0973 19.3984C17.1876 19.3984 15.476 18.5782 14.2972 17.2822L12.8516 18.5782C14.3973 20.2678 16.6224 21.3176 19.0973 21.3176V19.3984Z" fill="url(#paint4_linear_1707_95221)"/>
<path d="M14.7631 8.25948L13.4508 6.83228C11.7403 8.35788 10.6768 10.5561 10.6768 13.0003H12.6198C12.6198 11.1302 13.4508 9.42418 14.7631 8.25948Z" fill="url(#paint5_linear_1707_95221)"/>
</g>
<defs>
<linearGradient id="paint0_linear_1707_95221" x1="12.9504" y1="18.6385" x2="11.0052" y2="12.9633" gradientUnits="userSpaceOnUse">
<stop offset="0.1444" stop-color="#F2E913"/>
<stop offset="0.3037" stop-color="#E7E518"/>
<stop offset="0.5823" stop-color="#CADB26"/>
<stop offset="0.891" stop-color="#A3CD39"/>
</linearGradient>
<linearGradient id="paint1_linear_1707_95221" x1="13.7054" y1="6.90395" x2="18.732" y2="4.97073" gradientUnits="userSpaceOnUse">
<stop offset="0.0592" stop-color="#0FA8E0"/>
<stop offset="0.5385" stop-color="#0099F9"/>
<stop offset="0.9234" stop-color="#0291EB"/>
</linearGradient>
<linearGradient id="paint2_linear_1707_95221" x1="18.5508" y1="19.6789" x2="24.5515" y2="18.3101" gradientUnits="userSpaceOnUse">
<stop offset="0.1226" stop-color="#A3CD39"/>
<stop offset="0.2846" stop-color="#86C339"/>
<stop offset="0.8693" stop-color="#21A038"/>
</linearGradient>
<linearGradient id="paint3_linear_1707_95221" x1="18.6983" y1="5.89463" x2="23.685" y2="7.44742" gradientUnits="userSpaceOnUse">
<stop offset="0.0566" stop-color="#0291EB"/>
<stop offset="0.79" stop-color="#0C8ACB"/>
</linearGradient>
<linearGradient id="paint4_linear_1707_95221" x1="13.3459" y1="18.8899" x2="18.6957" y2="20.9075" gradientUnits="userSpaceOnUse">
<stop offset="0.1324" stop-color="#F2E913"/>
<stop offset="0.2977" stop-color="#EBE716"/>
<stop offset="0.5306" stop-color="#D9E01F"/>
<stop offset="0.8023" stop-color="#BBD62D"/>
<stop offset="0.9829" stop-color="#A3CD39"/>
</linearGradient>
<linearGradient id="paint5_linear_1707_95221" x1="12.1558" y1="13.2321" x2="14.2597" y2="7.7065" gradientUnits="userSpaceOnUse">
<stop offset="0.0698" stop-color="#A3CD39"/>
<stop offset="0.2599" stop-color="#81C55F"/>
<stop offset="0.9216" stop-color="#0FA8E0"/>
</linearGradient>
<clipPath id="clip0_1707_95221">
<rect width="40" height="40" fill="white"/>
</clipPath>
</defs>
</svg>
