<svg width="40" height="40" viewBox="0 0 40 40" fill="none" xmlns="http://www.w3.org/2000/svg">
<g clip-path="url(#clip0_1707_95260)">
<path d="M8.64324 32.9979C8.64324 32.44 9.01925 31.9822 9.63849 31.9822C10.2292 31.9822 10.6275 32.4214 10.6275 32.9979C10.6275 33.5743 10.2292 34.0146 9.63849 34.0146C9.01925 34.0146 8.64324 33.5566 8.64324 32.9979ZM11.3001 32.9979V31.4117H10.5903V31.7969C10.4674 31.6448 10.3086 31.5231 10.1274 31.4421C9.94624 31.3613 9.74767 31.3232 9.54788 31.3312C8.62833 31.3312 7.90858 32.0303 7.90858 32.9979C7.90858 33.9655 8.62833 34.6645 9.54788 34.6645C9.74643 34.6726 9.94376 34.6349 10.1249 34.5544C10.3049 34.474 10.4637 34.3531 10.5866 34.2018V34.5841H11.2964L11.3001 32.9979ZM35.4156 32.9979C35.4156 32.44 35.7941 31.9822 36.4096 31.9822C37.0028 31.9822 37.3999 32.4214 37.3999 32.9979C37.3999 33.5743 37.0028 34.0146 36.4096 34.0146C35.7941 34.0146 35.4156 33.5566 35.4156 32.9979ZM38.0725 32.9979V30.1361H37.3627V31.7969C37.241 31.6446 37.0822 31.5229 36.9023 31.4419C36.7211 31.3609 36.5225 31.3228 36.324 31.3312C35.4032 31.3312 34.681 32.0292 34.681 32.9979C34.681 33.9665 35.4032 34.6645 36.324 34.6645C36.5213 34.6728 36.7198 34.6351 36.8998 34.5546C37.0797 34.4741 37.2373 34.3531 37.3602 34.2018V34.5841H38.0688L38.0725 32.9979ZM20.1581 31.9499C20.6184 31.9499 20.9138 32.2283 20.9895 32.7195H19.2882C19.3614 32.2626 19.6493 31.9499 20.1581 31.9499ZM20.1754 31.3312C19.2149 31.3312 18.5411 32.0068 18.5411 32.9979C18.5411 34.0087 19.2422 34.6645 20.2238 34.6645C20.714 34.6812 21.193 34.5232 21.5703 34.2204L21.2203 33.7097C20.9485 33.9197 20.6122 34.0367 20.2648 34.0419C19.8044 34.0419 19.3849 33.8341 19.2819 33.2645H21.7204C21.7266 33.1783 21.7328 33.0901 21.7328 32.9979C21.7266 32.0077 21.095 31.3312 20.1754 31.3312ZM28.7926 32.9979C28.7926 32.44 29.1724 31.9822 29.7891 31.9822C30.381 31.9822 30.7769 32.4214 30.7769 32.9979C30.7769 33.5743 30.381 34.0146 29.7891 34.0146C29.1724 34.0146 28.7926 33.5566 28.7926 32.9979ZM31.4508 32.9979V31.4117H30.7422V31.7969C30.6181 31.6439 30.4592 31.5217 30.2768 31.4407C30.0956 31.3597 29.8958 31.3221 29.6948 31.3312C28.7752 31.3312 28.0555 32.0292 28.0555 32.9979C28.0555 33.9665 28.7752 34.6645 29.6948 34.6645C29.8946 34.6728 30.0919 34.6351 30.2719 34.5546C30.453 34.4742 30.6106 34.3532 30.7335 34.2018V34.5841H31.4433L31.4508 32.9979ZM24.7608 32.9979C24.7608 33.9615 25.4532 34.6645 26.5118 34.6645C26.9411 34.6853 27.363 34.5503 27.6944 34.2862L27.3506 33.7292C27.1024 33.9102 26.8021 34.01 26.4919 34.0146C25.9211 34.0087 25.5016 33.6106 25.5016 32.9979C25.5016 32.3851 25.9211 31.989 26.4919 31.9822C26.8021 31.9865 27.1037 32.0872 27.3506 32.2695L27.6944 31.7106C27.3618 31.4463 26.9399 31.3111 26.5105 31.3312C25.452 31.3312 24.7583 32.0341 24.7583 32.9979H24.7608ZM33.9625 31.3312C33.7887 31.3264 33.6162 31.367 33.4636 31.4487C33.3109 31.5305 33.1844 31.6505 33.0963 31.7959V31.4107H32.3864V34.5832H33.0963V32.8018C33.0963 32.2782 33.3308 31.9852 33.7962 31.9852C33.9488 31.9824 34.1014 32.0094 34.2429 32.0646L34.4638 31.4145C34.3012 31.3579 34.1287 31.3286 33.9562 31.3282L33.9625 31.3312ZM14.8244 31.6586C14.4819 31.442 14.0066 31.3282 13.4854 31.3282C12.654 31.3282 12.1191 31.7136 12.1191 32.3419C12.1191 32.8625 12.5175 33.1802 13.2521 33.2812L13.5872 33.3253C13.9793 33.3802 14.1667 33.4792 14.1667 33.6596C14.1667 33.9037 13.9036 34.044 13.4172 34.044C13.0251 34.0549 12.6403 33.9381 12.3251 33.7125L11.9889 34.2488C12.4033 34.5301 12.9009 34.6745 13.4073 34.6606C14.3541 34.6606 14.9051 34.2293 14.9051 33.6262C14.9051 33.0675 14.4708 32.7764 13.7584 32.6744L13.4222 32.6292C13.1132 32.5911 12.8662 32.5312 12.8662 32.3165C12.8662 32.0851 13.0983 31.9459 13.4916 31.9459C13.8515 31.9516 14.2027 32.0449 14.5154 32.2175L14.8244 31.6586ZM24.0385 31.3312C23.8648 31.3266 23.6923 31.3673 23.5397 31.449C23.387 31.5308 23.2605 31.6506 23.1711 31.7959V31.4107H22.4625V34.5832H23.1711V32.8018C23.1711 32.2782 23.4069 31.9852 23.8722 31.9852C24.0249 31.9824 24.1775 32.0094 24.319 32.0646L24.5386 31.4145C24.3773 31.3575 24.2048 31.3284 24.0323 31.3282L24.0385 31.3312ZM17.9429 31.4077H16.7802V30.4488H16.0579V31.4117H15.3915V32.043H16.0579V33.4881C16.0579 34.2263 16.3533 34.6645 17.1996 34.6645C17.5148 34.6654 17.8238 34.5801 18.0906 34.4184L17.8884 33.8303C17.696 33.9416 17.4788 34.004 17.2555 34.0116C16.8981 34.0116 16.7814 33.7988 16.7814 33.4792V32.043H17.9442L17.9429 31.4077ZM7.27695 34.5841V32.5949C7.27695 31.845 6.78305 31.339 5.98511 31.3322C5.56567 31.3244 5.13257 31.4519 4.83102 31.8959C4.71933 31.7169 4.56048 31.5702 4.37062 31.4708C4.18075 31.3716 3.96732 31.3233 3.75139 31.3312C3.56277 31.3224 3.37537 31.3613 3.2066 31.4439C3.03783 31.5266 2.89389 31.6503 2.79089 31.8028V31.4107H2.08105V34.5832H2.80329V32.8253C2.80329 32.2763 3.11975 31.9822 3.60496 31.9822C4.09142 31.9822 4.31478 32.2822 4.31478 32.8185V34.5832H5.03578V32.8253C5.03578 32.2763 5.36587 31.9822 5.83992 31.9822C6.31272 31.9822 6.55967 32.2822 6.55967 32.8185V34.5832L7.27695 34.5841Z" fill="black"/>
<path d="M25.4089 7.22498H14.5928V26.0238H25.4089V7.22498Z" fill="#EB611D"/>
<path d="M15.2786 16.6209C15.2762 14.8108 15.7006 13.0241 16.5184 11.3958C17.3362 9.76759 18.5262 8.34068 19.998 7.22298C18.175 5.8373 15.9847 4.97572 13.679 4.73668C11.3721 4.49763 9.04408 4.89078 6.95803 5.87117C4.87198 6.85157 3.11355 8.37968 1.88253 10.2809C0.65274 12.182 0 14.3795 0 16.6223C0 18.8651 0.65274 21.0628 1.88253 22.9639C3.11355 24.8651 4.87198 26.3932 6.95803 27.3736C9.04408 28.354 11.3721 28.7471 13.679 28.5081C15.9847 28.269 18.175 27.4075 19.998 26.0218C18.5262 24.9035 17.3362 23.476 16.5184 21.8473C15.7006 20.2186 15.2762 18.4314 15.2786 16.6209Z" fill="#E41322"/>
<path d="M40.0007 16.6211C39.9983 18.8635 39.3443 21.06 38.1133 22.9602C36.8822 24.8605 35.1238 26.3878 33.039 27.368C30.9529 28.3482 28.6249 28.7417 26.3192 28.5038C24.0135 28.2658 21.8232 27.4058 19.999 26.022C21.4696 24.9028 22.6596 23.4753 23.4762 21.847C24.294 20.2189 24.7184 18.4325 24.7184 16.6226C24.7184 14.8127 24.294 13.0262 23.4762 11.3981C22.6596 9.77 21.4696 8.34246 19.999 7.22317C21.8232 5.83678 24.0123 4.97453 26.3192 4.73498C28.6261 4.49545 30.9554 4.88829 33.0415 5.86861C35.1275 6.84892 36.8872 8.37716 38.117 10.2786C39.348 12.1801 40.0007 14.378 40.0007 16.6211Z" fill="#F59E21"/>
</g>
<defs>
<clipPath id="clip0_1707_95260">
<rect width="40" height="40" fill="white"/>
</clipPath>
</defs>
</svg>
