<svg width="40" height="40" viewBox="0 0 40 40" fill="none" xmlns="http://www.w3.org/2000/svg">
<g clip-path="url(#clip0_1707_95250)">
<path d="M39.6201 23.991V23.5277H39.5001L39.3601 23.8366L39.2201 23.5277H39.1001V23.991H39.1801V23.6435L39.3201 23.9524H39.4201L39.5601 23.6435V23.991H39.6201ZM38.8201 23.991V23.6049H38.9801V23.5277H38.5801V23.6049H38.7401V23.991H38.8201Z" fill="#00A2E5"/>
<path d="M25.4001 25.9782H14.5801V7.21436H25.4001V25.9782Z" fill="#7375CF"/>
<path d="M15.28 16.5968C15.28 12.7938 17.12 9.39621 20 7.21481C17.9 5.61254 15.24 4.66663 12.36 4.66663C5.54 4.66663 0 10.0139 0 16.5968C0 23.1796 5.54 28.5269 12.36 28.5269C15.24 28.5269 17.9 27.581 20 25.9787C17.12 23.7973 15.28 20.3997 15.28 16.5968Z" fill="#EB001B"/>
<path d="M40 16.5968C40 23.1796 34.46 28.5269 27.64 28.5269C24.76 28.5269 22.1 27.581 20 25.9787C22.88 23.7973 24.72 20.3997 24.72 16.5968C24.72 12.7938 22.88 9.39621 20 7.21481C22.1 5.61254 24.76 4.66663 27.64 4.66663C34.46 4.66663 40 10.0139 40 16.5968Z" fill="#00A2E5"/>
<path d="M29.0405 31.288C29.1805 31.288 29.4005 31.3074 29.5405 31.3653L29.3205 32.0216C29.1605 31.9637 29.0205 31.9444 28.8805 31.9444C28.4205 31.9444 28.1805 32.234 28.1805 32.7552V34.5312H27.4605V31.3653H28.1605V31.7514C28.3605 31.4618 28.6405 31.288 29.0405 31.288ZM26.4005 31.983H25.2405V33.4115C25.2405 33.7204 25.3605 33.9328 25.7205 33.9328C25.9005 33.9328 26.1405 33.8748 26.3605 33.759L26.5605 34.3575C26.3405 34.5119 25.9805 34.6084 25.6605 34.6084C24.8205 34.6084 24.5205 34.1644 24.5205 33.4308V31.983H23.8605V31.346H24.5205V30.3807H25.2405V31.346H26.4005V31.983ZM17.2605 32.6587C17.3405 32.1954 17.6205 31.8865 18.1405 31.8865C18.6005 31.8865 18.9005 32.1567 18.9805 32.6587H17.2605ZM19.7205 32.9482C19.7205 31.9637 19.0805 31.288 18.1605 31.288C17.2005 31.288 16.5205 31.9637 16.5205 32.9482C16.5205 33.9521 17.2205 34.6084 18.2005 34.6084C18.7005 34.6084 19.1405 34.4926 19.5405 34.1644L19.1805 33.6625C18.9005 33.8748 18.5605 33.9907 18.2205 33.9907C17.7605 33.9907 17.3405 33.7783 17.2405 33.2185H19.6805C19.7005 33.122 19.7205 33.0447 19.7205 32.9482ZM22.8605 32.176C22.6605 32.0602 22.2605 31.9058 21.8405 31.9058C21.4405 31.9058 21.2205 32.0409 21.2205 32.2726C21.2205 32.4849 21.4605 32.5428 21.7805 32.5814L22.1205 32.6201C22.8405 32.7166 23.2605 33.0061 23.2605 33.566C23.2605 34.1644 22.7205 34.6084 21.7605 34.6084C21.2205 34.6084 20.7205 34.4733 20.3405 34.203L20.6805 33.6625C20.9205 33.8362 21.2805 33.9907 21.7805 33.9907C22.2605 33.9907 22.5205 33.8555 22.5205 33.6046C22.5205 33.4308 22.3405 33.3343 21.9405 33.2764L21.6005 33.2378C20.8605 33.1413 20.4605 32.8131 20.4605 32.3112C20.4605 31.6741 21.0005 31.288 21.8205 31.288C22.3405 31.288 22.8205 31.4039 23.1605 31.6162L22.8605 32.176ZM31.6605 31.9251C31.5205 31.9251 31.3805 31.9444 31.2605 32.0023C31.1405 32.0602 31.0205 32.1181 30.9405 32.2147C30.8605 32.3112 30.7805 32.4077 30.7205 32.5428C30.6605 32.6587 30.6405 32.8131 30.6405 32.9482C30.6405 33.1027 30.6605 33.2378 30.7205 33.3536C30.7805 33.4694 30.8405 33.5853 30.9405 33.6818C31.0405 33.7783 31.1405 33.8362 31.2605 33.8941C31.3805 33.9521 31.5205 33.9714 31.6605 33.9714C31.8005 33.9714 31.9405 33.9521 32.0605 33.8941C32.1805 33.8362 32.3005 33.7783 32.3805 33.6818C32.4805 33.5853 32.5405 33.4888 32.6005 33.3536C32.6605 33.2378 32.6805 33.0834 32.6805 32.9482C32.6805 32.7938 32.6605 32.6587 32.6005 32.5428C32.5405 32.427 32.4805 32.3112 32.3805 32.2147C32.2805 32.1181 32.1805 32.0602 32.0605 32.0023C31.9405 31.9637 31.8005 31.9251 31.6605 31.9251ZM31.6605 31.288C31.9205 31.288 32.1605 31.3267 32.3605 31.4232C32.5805 31.5004 32.7605 31.6162 32.9205 31.7707C33.0805 31.9251 33.2005 32.0988 33.3005 32.2919C33.3805 32.5042 33.4405 32.7166 33.4405 32.9482C33.4405 33.1799 33.4005 33.4115 33.3005 33.6046C33.2205 33.8169 33.0805 33.9907 32.9205 34.1258C32.7605 34.2802 32.5805 34.3961 32.3605 34.4733C32.1405 34.5505 31.9005 34.6084 31.6605 34.6084C31.4005 34.6084 31.1605 34.5698 30.9605 34.4733C30.7405 34.3961 30.5605 34.2802 30.4005 34.1258C30.2405 33.9714 30.1205 33.7976 30.0205 33.6046C29.9405 33.3922 29.8805 33.1799 29.8805 32.9482C29.8805 32.7166 29.9205 32.4849 30.0205 32.2919C30.1005 32.0795 30.2405 31.9058 30.4005 31.7707C30.5605 31.6162 30.7405 31.5004 30.9605 31.4232C31.1605 31.3267 31.4005 31.288 31.6605 31.288ZM13.1005 32.9482C13.1005 32.3884 13.4805 31.9251 14.1005 31.9251C14.7005 31.9251 15.0805 32.3691 15.0805 32.9482C15.0805 33.5274 14.6805 33.9521 14.1005 33.9521C13.4805 33.9521 13.1005 33.5081 13.1005 32.9482ZM15.7605 32.9482V31.3653H15.0405V31.7514C14.8205 31.4618 14.4805 31.288 14.0005 31.288C13.0805 31.288 12.3605 31.983 12.3605 32.9482C12.3605 33.9134 13.0805 34.6084 14.0005 34.6084C14.4605 34.6084 14.8005 34.4347 15.0405 34.1451V34.5312H15.7605V32.9482ZM11.7405 34.5312V32.5428C11.7405 31.79 11.2405 31.288 10.4405 31.288C10.0205 31.288 9.58051 31.4039 9.28051 31.8479C9.06051 31.5004 8.70051 31.288 8.20051 31.288C7.86051 31.288 7.50051 31.3846 7.24051 31.7514V31.3653H6.52051V34.5312H7.24051V32.7745C7.24051 32.234 7.56051 31.9251 8.04051 31.9251C8.52051 31.9251 8.76051 32.2147 8.76051 32.7552V34.5119H9.48051V32.7552C9.48051 32.2147 9.82051 31.9058 10.2805 31.9058C10.7605 31.9058 11.0005 32.1954 11.0005 32.7359V34.4926H11.7405V34.5312Z" fill="black"/>
<path d="M34.2003 34.2799V34.3571H34.2804C34.3004 34.3571 34.3204 34.3571 34.3204 34.3378C34.3405 34.3378 34.3405 34.3185 34.3405 34.2992C34.3405 34.2799 34.3405 34.2799 34.3204 34.2799C34.3204 34.2799 34.3004 34.2605 34.2804 34.2605H34.2003V34.2799ZM34.2804 34.2412C34.3204 34.2412 34.3405 34.2412 34.3605 34.2605C34.3805 34.2799 34.4005 34.2992 34.4005 34.3378C34.4005 34.3571 34.4005 34.3764 34.3805 34.3957C34.3605 34.415 34.3405 34.415 34.3004 34.415L34.4005 34.5308H34.3204L34.2203 34.415H34.2003V34.5308H34.1402V34.2412H34.2804ZM34.2604 34.6273C34.3004 34.6273 34.3204 34.6273 34.3605 34.608C34.4005 34.5887 34.4206 34.5694 34.4406 34.5501C34.4606 34.5308 34.4807 34.5115 34.5007 34.4729C34.5207 34.4343 34.5207 34.415 34.5207 34.3764C34.5207 34.3378 34.5207 34.3185 34.5007 34.2799C34.4807 34.2412 34.4606 34.2219 34.4406 34.2026C34.4206 34.1833 34.4005 34.164 34.3605 34.1447C34.3405 34.1254 34.3004 34.1254 34.2604 34.1254C34.2203 34.1254 34.2003 34.1254 34.1602 34.1447C34.1202 34.164 34.1002 34.1833 34.0801 34.2026C34.0601 34.2219 34.0401 34.2605 34.0201 34.2799C34 34.3185 34 34.3378 34 34.3764C34 34.415 34 34.4343 34.0201 34.4729C34.0401 34.5115 34.0601 34.5308 34.0801 34.5501C34.1002 34.5694 34.1402 34.5887 34.1602 34.608C34.2003 34.6273 34.2203 34.6273 34.2604 34.6273ZM34.2604 34.0675C34.3004 34.0675 34.3405 34.0675 34.3805 34.0868C34.4206 34.1061 34.4606 34.1254 34.4806 34.1447C34.5007 34.164 34.5407 34.2026 34.5608 34.2412C34.5808 34.2799 34.5808 34.3185 34.5808 34.3571C34.5808 34.3957 34.5808 34.4343 34.5608 34.4729C34.5407 34.5115 34.5207 34.5501 34.4806 34.5694C34.4406 34.5887 34.4206 34.6273 34.3805 34.6466C34.3405 34.6659 34.3004 34.6659 34.2604 34.6659C34.2203 34.6659 34.1602 34.6659 34.1202 34.6466C34.0801 34.6273 34.0401 34.608 34.0201 34.5694C34 34.5501 33.96 34.5115 33.9399 34.4729C33.9199 34.4343 33.9199 34.3957 33.9199 34.3571C33.9199 34.3185 33.9199 34.2799 33.9399 34.2412C33.96 34.2026 33.98 34.164 34.0201 34.1447C34.0401 34.1254 34.0801 34.0868 34.1202 34.0868C34.1602 34.0675 34.2203 34.0675 34.2604 34.0675Z" fill="black"/>
</g>
<defs>
<clipPath id="clip0_1707_95250">
<rect width="40" height="40" fill="white"/>
</clipPath>
</defs>
</svg>
