<svg width="20" height="20" viewBox="0 0 20 20" fill="none" xmlns="http://www.w3.org/2000/svg">
<g clip-path="url(#clip0_1672_86328)">
<path d="M17.1 2.87417C15.2 1.0375 12.7 0 10.0375 0C2.39583 0 -2.4025 8.27917 1.41333 14.865L0 20L5.27917 18.6233C7.57917 19.8658 9.46333 19.7558 10.0425 19.8292C18.9033 19.8292 23.3142 9.10917 17.0875 2.90667L17.1 2.87417Z" fill="#ECEFF1"/>
<path d="M10.0557 18.1259L10.0507 18.1251H10.0374C7.38574 18.1251 5.69157 16.8692 5.5249 16.7967L2.3999 17.6092L3.2374 14.5717L3.03824 14.2592C2.21324 12.9459 1.7749 11.4334 1.7749 9.87589C1.7749 2.54839 10.7291 -1.11578 15.9107 4.06339C21.0799 9.18839 17.4507 18.1259 10.0557 18.1259Z" fill="#4CAF50"/>
<path d="M14.5893 11.9226L14.5818 11.9851C14.3309 11.8601 13.1093 11.2626 12.8818 11.1801C12.3709 10.9909 12.5151 11.1501 11.5343 12.2734C11.3884 12.4359 11.2434 12.4484 10.9959 12.3359C10.7459 12.2109 9.94345 11.9484 8.99345 11.0984C8.25345 10.4359 7.75678 9.62339 7.61012 9.37339C7.36595 8.95173 7.87678 8.89173 8.34178 8.01173C8.42512 7.83673 8.38262 7.69923 8.32095 7.57506C8.25845 7.45006 7.76095 6.22506 7.55262 5.73673C7.35262 5.25006 7.14678 5.31173 6.99261 5.31173C6.51261 5.27006 6.16178 5.27673 5.85261 5.59839C4.50761 7.07673 4.84678 8.60173 5.99761 10.2234C8.25928 13.1834 9.46428 13.7284 11.6676 14.4851C12.2626 14.6742 12.8051 14.6476 13.2343 14.5859C13.7126 14.5101 14.7068 13.9851 14.9143 13.3976C15.1268 12.8101 15.1268 12.3226 15.0643 12.2101C15.0026 12.0976 14.8393 12.0351 14.5893 11.9226Z" fill="#FAFAFA"/>
</g>
<defs>
<clipPath id="clip0_1672_86328">
<rect width="20" height="20" fill="white"/>
</clipPath>
</defs>
</svg>
