<svg width="123" height="80" viewBox="0 0 123 80" fill="none" xmlns="http://www.w3.org/2000/svg">
<path d="M60.7218 0.0273313C65.3537 -0.164818 69.7578 0.680639 73.3266 1.79511C77.0093 2.948 80.1985 4.4852 83.046 6.52199C85.8555 8.52034 88.2853 10.8261 90.1836 13.8237C92.044 16.7443 93.6386 20.3183 93.7904 24.7378C93.9423 29.5415 92.6135 33.2308 90.8291 36.2667C89.0446 39.3411 86.6528 41.8391 83.9951 43.9143C81.2615 46.0279 78.1103 47.6804 74.5795 48.9102C70.9727 50.1784 66.9103 50.947 62.3543 51.1007C57.6465 51.216 53.4322 50.4858 49.7495 49.3329C46.0288 48.18 42.8776 46.6044 40.0301 44.606C37.2206 42.6461 34.7908 40.2634 32.8545 37.3043C30.9562 34.4221 29.4375 30.8865 29.2477 26.3902C29.0579 21.7018 30.4626 17.8588 32.2091 14.8613C34.0314 11.71 36.2715 9.32737 39.043 7.21372C43.1813 4.1009 48.041 1.79511 54.1536 0.642209C56.2038 0.29634 58.3299 0.104191 60.7218 0.0273313ZM54.6092 3.98561C49.2939 4.98479 44.8139 6.90628 41.2071 9.59638C38.7772 11.4026 36.7271 13.4778 35.0945 16.2063C33.5379 18.7811 32.285 22.2782 32.4748 26.3134C32.6647 30.2332 34.0694 33.2692 35.7779 35.7671C37.5244 38.3035 39.7264 40.3787 42.2322 42.0696C44.7759 43.7606 47.6234 45.144 50.8885 46.0664C54.1536 47.0271 57.9502 47.6804 62.0886 47.5267C70.0615 47.2577 76.3639 44.9903 81.2615 41.3395C83.6534 39.5333 85.7416 37.4196 87.3741 34.7295C88.9687 32.0779 90.1457 28.8882 89.9938 24.6225C89.8799 20.8179 88.3992 17.6282 86.6907 15.1687C84.9063 12.5555 82.8182 10.634 80.2365 8.86621C76.4398 6.29141 71.8839 4.4852 66.3408 3.7166C64.5184 3.48602 62.3923 3.29387 60.3421 3.37073C58.254 3.52445 56.3936 3.63974 54.6092 3.98561Z" fill="#A4A4A4"/>
<path d="M70.8195 7.09843C72.9836 7.32901 74.73 9.28894 74.2744 11.8253C74.0466 11.6716 73.0215 10.5187 71.6548 11.3257C70.8954 11.7869 70.212 12.6708 69.9083 13.8621C69.6805 14.6691 69.5287 15.7067 69.5287 16.7059C69.5287 17.5129 69.5666 18.1662 70.25 18.3584C70.4778 18.3968 70.6676 18.3968 70.8195 18.32C71.0853 18.2431 71.427 17.9357 71.427 17.9357C71.427 17.9357 71.4649 19.7419 71.427 20.5105C71.351 21.6249 70.3639 22.8931 69.187 22.3551C68.7314 22.163 68.3517 21.6634 68.1619 21.1254C67.972 20.5873 68.01 19.7803 68.01 19.0117C68.01 17.6282 68.048 15.822 68.048 14.5154C68.048 13.0935 67.7822 11.7485 67.1747 10.8646C66.6432 10.0575 65.6941 9.28894 64.4032 9.17365C63.4161 9.09679 62.6947 9.32737 62.0493 9.67324C61.4798 9.98068 60.8723 10.5187 60.5686 11.172C60.1889 12.0559 60.2649 13.6315 60.2649 14.9766C60.2649 14.9766 60.1889 18.6658 60.3788 19.2423C60.7964 20.5873 62.9605 20.4336 63.1503 19.0117C63.1883 18.589 63.1883 17.9741 63.1883 17.4361V14.477C63.2642 13.5547 62.9605 12.5171 63.7578 12.5171C64.4412 12.5555 64.3273 13.3241 64.3273 14.0927V22.7778C64.3273 22.7778 63.1883 21.8555 62.7707 21.7018C61.9354 21.3944 61.1001 21.8555 60.7964 22.3935C60.4547 22.9316 60.5686 24.1613 60.5686 25.1221V35.4597C60.5686 36.9969 60.5686 38.3804 60.9483 39.3411C61.1001 39.6486 61.29 39.9944 61.4798 40.2634C62.0873 41.1089 63.2262 41.5701 64.3652 41.3011C65.4283 41.0705 66.0737 40.3787 66.4154 39.2643C67.1747 40.8399 66.4534 42.8382 65.5802 43.799C64.8968 44.5676 63.7957 45.1825 62.5429 45.2209C61.1761 45.2978 60.113 44.6829 59.3537 43.9911C58.8222 43.4916 58.3286 42.7614 58.1388 41.8775C58.0628 41.6469 57.9489 41.1089 58.0249 40.9168C58.0628 40.8015 58.2527 40.7246 58.3286 40.6862C58.6703 40.4172 58.974 39.956 58.8601 39.2258C58.7462 38.5725 58.1008 38.0729 57.3794 38.1114C55.7089 38.2267 55.7469 40.6862 57.1516 40.9168C56.734 41.7622 55.9747 42.4539 55.0255 42.7614C52.6716 43.53 50.6974 41.8391 50.2798 39.9176C50.0899 39.0721 50.3177 38.0729 50.6594 37.4581C50.7733 37.2659 50.8872 37.0353 51.077 36.9585C50.6974 38.9568 53.0133 39.6486 54.3801 38.9184C54.7977 38.6878 55.2154 38.3035 55.3672 37.8808C55.7849 36.92 55.7849 34.9985 55.7849 33.6151V28.5423C55.7849 25.2758 56.1645 22.2398 53.5069 21.5481C53.8106 21.3175 54.1523 21.1638 54.4181 20.8948C54.6838 20.6642 54.9116 20.3952 55.1015 20.0493C55.4811 19.3576 55.595 18.5505 55.595 17.4361C55.595 17.4361 55.671 12.2096 55.5571 11.2873C55.4432 10.2497 54.1903 9.59638 53.1652 10.1344L52.8615 10.2881C52.8615 10.2881 53.6587 8.05918 54.9876 7.21372C56.0127 6.56041 57.2276 5.94553 58.974 6.09925C58.2147 6.48355 57.3415 6.90628 56.9618 7.71331C56.772 8.13604 56.6961 8.82778 56.9238 9.32737C57.3794 10.365 59.3537 10.2497 59.4296 9.05836C59.5056 8.05918 58.5944 7.79017 58.5944 7.79017C58.5944 7.79017 63.2642 4.33148 69.6046 7.67488C69.6046 7.67488 69.4147 7.98232 69.3768 8.25133C69.2629 9.21208 69.9842 9.71167 70.8195 9.44266C71.8066 9.09679 71.5788 7.55959 70.8195 7.09843ZM56.0506 21.5481L58.0249 24.5072L59.9991 21.5481L58.0249 18.589L56.0506 21.5481Z" fill="#A4A4A4"/>
<path d="M43.4102 29.6952C42.499 30.118 41.5878 31.3861 42.0814 32.9233C42.461 34.0378 43.638 34.9601 45.2705 34.5758C46.6373 34.2684 47.2068 32.9233 47.7004 31.5399C48.156 30.1564 48.4597 28.5808 48.5356 26.9283C48.6116 25.0836 48.4977 23.3159 48.156 21.8171C48.0041 21.0869 47.7384 20.3952 47.5106 19.7419C47.2828 19.0886 47.017 18.3968 46.7133 17.8204C46.5614 17.5514 46.4095 17.2824 46.1438 17.0518C44.5871 15.6683 41.8536 16.8596 42.1193 19.0501C42.1573 19.3191 42.3471 19.8572 42.3471 19.8572C42.3471 19.8572 41.8915 19.5113 41.7017 19.2807C41.5119 19.0501 41.2841 18.7811 41.1702 18.5505C40.7905 17.782 40.7146 16.7828 40.8285 15.9757C41.1702 13.3241 43.8278 11.0567 46.8272 11.9406C47.2068 12.0559 47.8902 12.3249 47.8902 12.3249C47.8902 12.3249 47.8143 11.9022 47.7763 11.6332C47.7384 10.4034 48.7634 9.40423 49.9404 9.44266C50.8896 9.48109 51.535 10.0575 51.8387 10.8646C51.2313 11.0951 50.6997 11.8637 51.0035 12.7092C51.3072 13.4394 52.2184 14.1311 52.8258 14.6307C53.5472 15.2456 54.2686 15.822 54.914 16.2448C54.952 17.5898 54.952 18.7811 54.4964 19.6266C54.3065 19.934 53.9269 20.5105 53.5852 20.5489C53.2814 20.5489 52.1804 19.5497 51.8387 19.396C51.9146 20.3568 52.1804 21.2791 52.2943 22.2783C52.5221 24.315 52.5601 26.6593 52.3323 28.696C51.9526 31.5399 51.1174 34.4221 49.6367 36.1899C48.118 38.0345 45.9539 38.7263 45.5363 38.8415C42.8787 39.687 40.6386 38.4188 39.6895 36.6126C39.3478 35.9977 39.082 35.2291 39.082 34.3452C39.082 32.9618 39.6895 31.9242 40.3349 31.1171C41.398 29.8874 43.4102 29.6568 43.4102 29.6952ZM82.6674 33.5766C83.2369 35.0754 82.7433 36.6126 82.0219 37.5734C81.2626 38.5725 80.0477 39.2643 78.4531 39.149C77.6558 39.1106 77.1622 38.8031 76.5548 38.4957C76.4029 40.4556 75.0361 42.0697 72.948 42.0697C70.3283 42.0697 69.569 39.3411 69.569 39.3411C69.569 39.3411 70.1764 39.6486 70.2903 39.7254C72.3026 40.4556 74.011 38.1882 72.91 36.382C72.6063 35.9209 72.0368 35.4981 71.5432 35.1523C68.1642 32.5006 64.5954 29.7337 61.3303 27.1204V25.1989C61.3303 24.5456 61.2544 23.7002 61.4062 23.3159C61.5581 22.97 61.8998 22.701 62.3554 22.7394C62.8869 22.7394 63.3425 23.3159 63.7601 23.5849C66.5696 25.6985 72.7961 30.3485 72.7961 30.3485C71.5053 25.6985 71.8849 19.127 73.4795 15.1687C74.049 13.8237 74.7704 12.4786 75.9094 11.8253C78.8707 10.1344 81.4904 11.5179 82.5155 12.7092C83.1989 13.5162 83.9202 14.7076 83.7304 16.091C83.4647 18.0894 82.5914 19.127 82.3257 19.2423C82.8572 16.9749 81.4904 15.2456 79.2884 15.3993C78.2633 15.4762 77.5799 16.0142 77.1622 16.7828C76.5927 17.782 76.289 19.2423 76.0233 20.6642C75.7575 22.0477 75.6436 23.7002 75.6436 25.2758C75.6436 26.9667 75.8334 28.427 76.0992 29.8105C76.4789 31.8857 76.9724 33.3845 78.1873 34.5374C78.9846 35.306 80.1616 36.113 81.3385 35.3829C82.1738 34.9217 82.6674 33.5766 82.6674 33.5766ZM57.9893 23.5464L56.5845 21.5481L57.9893 19.5497L59.394 21.5481L57.9893 23.5464Z" fill="#A4A4A4"/>
<path d="M67.1 36.7279C66.7583 37.3812 66.1508 37.9576 65.3536 37.9576C64.3285 37.9576 63.5312 37.1506 63.4552 36.113C63.4173 35.0754 63.4173 33.9994 63.4173 32.8849V29.5799L64.9359 30.7328C64.9359 30.7328 64.898 34.6527 65.0119 34.8832C65.2776 35.5365 66.4546 35.4597 66.8722 34.9601C67.0241 34.7679 67.2519 34.1146 67.2519 34.1146C67.2519 34.1146 67.5176 35.9208 67.1 36.7279ZM4 65.3582H12.6184V68.7016H7.94849V71.0458H12.1248V74.3123H7.91053V79.6541H4V65.3582ZM18.0475 65.3582L23.9323 73.6975V65.3582H27.8428V79.6541H24.0462L18.1614 71.2764V79.6541H14.2509V65.3582H18.0475ZM36.651 65.3582H40.5616V70.7768H45.5731V65.3582H49.4836V79.6541H45.5731V73.8512H40.5616V79.6541H36.651V65.3582ZM52.0274 65.3582H60.2661V68.5863H55.862V70.8152H59.9244V74.0433H55.862V76.3876H60.2661V79.6541H52.0274V65.3582ZM62.4681 65.3582H68.3149C69.5678 65.3582 70.7068 65.6656 71.4282 66.2421C72.4912 67.0491 73.0987 68.3941 73.0987 69.9313C73.0987 72.0065 71.8838 73.659 70.0993 73.928L74.1997 79.6541H69.4539L66.2647 74.7351V79.6541H62.5061V65.3582H62.4681ZM67.4797 71.8528C68.4668 71.8528 69.1122 71.1995 69.1122 70.2388C69.1122 69.2012 68.5048 68.5863 67.4797 68.5863H66.3027V71.8528H67.4797Z" fill="#A4A4A4"/>
<path d="M75.756 74.8888C76.9329 76.2723 77.8441 76.8487 78.8692 76.8487C80.0462 76.8487 80.7675 76.2723 80.7675 75.4268C80.7675 75.1194 80.6916 74.8504 80.5777 74.6966C80.3499 74.4276 79.6665 74.0818 78.8313 73.8512C76.819 73.2747 76.0597 72.852 75.4143 71.9681C74.9207 71.3148 74.6929 70.5846 74.6929 69.547C74.6929 66.8185 76.7811 64.9738 79.8563 64.9738C81.1852 64.9738 82.2862 65.3197 84.0326 66.3189L82.6658 69.278C81.8306 68.471 80.8814 68.0482 80.0082 68.0482C79.1729 68.0482 78.5655 68.5478 78.5655 69.2011C78.5655 69.5086 78.6794 69.8545 78.9831 70.0466C79.097 70.1619 79.3248 70.2772 79.5526 70.354L81.4509 70.9305C82.4381 71.2379 83.4252 71.8912 83.9187 72.5446C84.3743 73.1594 84.6021 73.9665 84.6021 75.0809C84.6021 76.4644 84.1086 77.6173 83.1974 78.5012C82.1343 79.5388 80.8055 80 78.9452 80C77.7302 80 76.4773 79.6541 75.5282 79.0008C75.1485 78.7702 74.8448 78.5012 73.9336 77.6942L75.756 74.8888ZM92.3473 79.6541H88.4367V68.74H85.2855V65.3581H95.4225V68.74H92.3093V79.6541H92.3473ZM99.4849 65.3581H104.307L109.318 79.6541H105.142L104.383 77.1562H99.371L98.6117 79.6541H94.5113L99.4849 65.3581ZM103.547 74.2739L101.915 68.8168L100.282 74.2739H103.547ZM110.381 65.3581H114.292V76.2338H119V79.6541H110.381V65.3581Z" fill="#A4A4A4"/>
</svg>
