<svg width="195" height="54" viewBox="0 0 195 54" fill="none" xmlns="http://www.w3.org/2000/svg">
<path d="M71.2621 17.9812V27.9612H68.6999V14.3779L67.668 12.7465V12.5408H70.7215L78.4432 23.4997V12.5408H81.0054V27.9683H78.4432L71.2621 17.9812Z" fill="#262028"/>
<path d="M89.0929 16.5767C92.329 16.5767 94.842 19.0947 94.842 22.3859C94.842 25.6559 92.329 28.2165 89.0929 28.2165C85.8357 28.2165 83.3438 25.6559 83.3438 22.3859C83.3438 19.0947 85.8357 16.5767 89.0929 16.5767ZM89.0929 25.7694C90.9531 25.7694 92.329 24.2514 92.329 22.3859C92.329 20.5275 90.9601 19.0025 89.0929 19.0025C87.2537 19.0025 85.8357 20.5204 85.8357 22.3859C85.8357 24.2443 87.2537 25.7694 89.0929 25.7694Z" fill="#262028"/>
<path d="M98.2582 16.8037L100.505 24.9041L102.793 18.2578L102.252 16.8037H104.723L107.756 24.9041L109.981 16.8037H112.564L109.195 27.9683H106.612L104 21.1376L101.621 27.9683H99.0164L95.668 16.8037H98.2582Z" fill="#262028"/>
<path d="M119.144 16.5767C122.38 16.5767 124.893 19.0947 124.893 22.3859C124.893 25.6559 122.38 28.2165 119.144 28.2165C115.887 28.2165 113.395 25.6559 113.395 22.3859C113.395 19.0947 115.887 16.5767 119.144 16.5767ZM119.144 25.7694C121.004 25.7694 122.38 24.2514 122.38 22.3859C122.38 20.5275 121.011 19.0025 119.144 19.0025C117.304 19.0025 115.887 20.5204 115.887 22.3859C115.887 24.2443 117.297 25.7694 119.144 25.7694Z" fill="#262028"/>
<path d="M135.512 26.1527C134.705 27.4223 133.357 28.2168 131.715 28.2168C128.57 28.2168 126.352 25.6561 126.352 22.3862C126.352 19.095 128.577 16.5769 131.743 16.5769C133.378 16.5769 134.705 17.3501 135.512 18.6198V12.314H137.962V27.9685H135.512V26.1527ZM132.213 19.0312C130.325 19.0312 128.914 20.5278 128.914 22.3862C128.914 24.2233 130.332 25.7696 132.213 25.7696C134.101 25.7696 135.512 24.2304 135.512 22.3862C135.512 20.5278 134.094 19.0312 132.213 19.0312Z" fill="#262028"/>
<path d="M142.159 16.8037L145.121 24.8828L148.133 16.8037H150.737L146.448 27.9683H143.844L139.555 16.8037H142.159Z" fill="#262028"/>
<path d="M157.069 16.5767C160.306 16.5767 162.819 19.0947 162.819 22.3859C162.819 25.6559 160.306 28.2165 157.069 28.2165C153.812 28.2165 151.32 25.6559 151.32 22.3859C151.32 19.0947 153.812 16.5767 157.069 16.5767ZM157.069 25.7694C158.93 25.7694 160.306 24.2514 160.306 22.3859C160.306 20.5275 158.937 19.0025 157.069 19.0025C155.23 19.0025 153.812 20.5204 153.812 22.3859C153.812 24.2443 155.23 25.7694 157.069 25.7694Z" fill="#262028"/>
<path d="M167.424 18.1655C167.944 17.2363 168.842 16.5767 170.141 16.5767C170.435 16.5767 170.793 16.5979 171.06 16.6476V19.3004C170.653 19.116 170.141 19.0025 169.579 19.0025C168.231 19.0025 167.466 19.953 167.424 21.3858V27.9682H164.953V16.8036H167.424V18.1655Z" fill="#262028"/>
<path d="M178.785 19.5487C178.069 19.0734 177.149 18.7543 176.293 18.7543C175.352 18.7543 174.854 19.2295 174.854 19.8466C174.854 20.3218 175.148 20.5701 175.682 20.9106L177.458 21.9745C178.827 22.8115 179.297 23.8329 179.297 24.9253C179.297 26.8546 177.837 28.2165 175.345 28.2165C174.292 28.2165 173.211 27.9186 172.474 27.5781V25.0175C173.036 25.514 174.201 26.0602 175.212 26.0602C176.201 26.0602 176.735 25.5637 176.735 24.904C176.735 24.45 176.489 24.0883 175.794 23.6769L173.906 22.542C172.762 21.861 172.312 20.8609 172.312 19.7757C172.312 17.9173 173.702 16.5767 176.222 16.5767C177.142 16.5767 178.083 16.7824 178.785 17.0306V19.5487Z" fill="#262028"/>
<path d="M181.5 12.314H183.971V21.5492L187.698 16.8039H190.598L187.095 21.2939L190.668 27.9614H187.797L185.284 23.0388L183.978 24.6915V27.9614H181.507V12.314H181.5Z" fill="#262028"/>
<path d="M193.496 11.8599C194.373 11.8599 194.998 12.5621 194.998 13.3991C194.998 14.2644 194.373 14.9454 193.496 14.9454C192.619 14.9454 191.973 14.2644 191.973 13.3991C191.966 12.5621 192.619 11.8599 193.496 11.8599ZM194.731 27.9684H192.261V16.8038H194.731V27.9684Z" fill="#262028"/>
<path d="M68.707 42.0412V35.6858H69.76V41.0269H72.1818V42.0483H68.707V42.0412Z" fill="#262028"/>
<path d="M75.8828 35.6787H76.9358V42.0342H75.8828V35.6787Z" fill="#262028"/>
<path d="M85.7934 37.0831C85.3581 36.8278 84.7545 36.6434 84.0806 36.6434C82.81 36.6434 81.8904 37.5867 81.8904 38.8564C81.8904 40.0622 82.7609 41.0695 83.9753 41.0695C85.1476 41.0695 85.8706 40.2467 85.8706 39.3175C85.8706 39.2607 85.8706 39.1472 85.8636 39.0905H83.9332V38.1258H86.9516C87.0008 38.3528 87.0288 38.6933 87.0288 39.0054C87.0288 40.7006 85.9267 42.1263 83.9542 42.1263C82.1291 42.1263 80.8164 40.6864 80.8164 38.8422C80.8164 36.9838 82.1852 35.5581 84.0946 35.5581C84.7685 35.5581 85.3792 35.7 85.8074 35.8986V37.0831H85.7934Z" fill="#262028"/>
<path d="M95.0593 39.3458H91.8303V42.0412H90.7773V35.6858H91.8303V38.3315H95.0593V35.6858H96.1123V42.0412H95.0593V39.3458Z" fill="#262028"/>
<path d="M101.421 36.7001H99.8203V35.6787H104.074V36.7001H102.474V42.0412H101.421V36.7001Z" fill="#262028"/>
<path d="M107.777 35.6787H108.83V42.0342H107.777V35.6787Z" fill="#262028"/>
<path d="M114.2 37.9272V42.0412H113.147V36.4448L112.719 35.7709V35.6858H113.975L117.155 40.2041V35.6858H118.208V42.0412H117.155L114.2 37.9272Z" fill="#262028"/>
<path d="M127.071 37.0831C126.635 36.8278 126.032 36.6434 125.358 36.6434C124.087 36.6434 123.168 37.5867 123.168 38.8564C123.168 40.0622 124.038 41.0695 125.253 41.0695C126.425 41.0695 127.148 40.2467 127.148 39.3175C127.148 39.2607 127.148 39.1472 127.141 39.0905H125.21V38.1258H128.229C128.278 38.3528 128.306 38.6933 128.306 39.0054C128.306 40.7006 127.204 42.1263 125.232 42.1263C123.406 42.1263 122.094 40.6864 122.094 38.8422C122.094 36.9838 123.463 35.5581 125.372 35.5581C126.046 35.5581 126.657 35.7 127.085 35.8986V37.0831H127.071Z" fill="#262028"/>
<path d="M26.7169 0C11.9616 0 0 12.0867 0 26.9965C0 41.9062 11.9616 54 26.7169 54C41.4723 54 53.4339 41.9133 53.4339 27.0035C53.4339 12.0938 41.4723 0 26.7169 0ZM51.9106 27.0035C51.9106 33.7491 49.2993 39.8847 45.0454 44.4385L41.8725 41.2324V12.6187C41.8725 11.7462 40.6861 11.498 40.3422 12.2924L35.5898 23.3506L23.5862 17.286L30.2549 1.79456C42.4761 3.53947 51.9106 14.1721 51.9106 27.0035ZM38.138 21.3007C38.6364 20.1374 40.3562 20.4991 40.3562 21.7688V39.6932L33.2944 32.5575L38.138 21.3007ZM32.1361 31.3871L20.5888 19.726C19.7745 18.9032 20.7291 17.5697 21.761 18.0875L34.9861 24.7692L32.1361 31.3871ZM1.52327 27.0035C1.52327 12.9662 12.825 1.5463 26.7169 1.5463C27.3698 1.5463 28.0226 1.58177 28.6614 1.63142L22.2243 16.5979L12.6986 11.7817C12.1721 11.5192 11.5614 11.9023 11.5614 12.491V41.3742C11.5614 42.2538 12.7478 42.4949 13.0917 41.7005L21.3048 22.62L31.4903 32.9121L23.179 52.2054C10.9577 50.4605 1.52327 39.8279 1.52327 27.0035ZM20.1395 21.4425L15.2748 32.7419C14.7764 33.891 13.0777 33.5363 13.0777 32.2808V14.3068L20.1395 21.4425ZM24.7655 52.3757L32.6345 34.0754L43.9713 45.5237C39.4577 49.8151 33.3856 52.4537 26.7169 52.4537C26.0571 52.4608 25.4113 52.4253 24.7655 52.3757Z" fill="#262028"/>
</svg>
