<svg width="195" height="48" viewBox="0 0 195 48" fill="none" xmlns="http://www.w3.org/2000/svg">
<g clip-path="url(#clip0_1102_19186)">
<path fill-rule="evenodd" clip-rule="evenodd" d="M148.094 29.882C148.094 25.3971 152.011 22.5448 155.653 22.5448C160.329 22.5448 163.79 26.0793 163.79 30.1185V40.515H159.662V30.2379C159.48 27.7119 157.931 26.4056 155.836 26.4056C153.589 26.4056 152.557 28.128 152.345 29.9115V40.515H148.094V29.882ZM102.919 26.7921C104.527 22.3368 110.903 20.9999 114.183 24.5344C116.915 21.8605 121.742 21.7718 124.446 24.6231C125.447 25.7825 125.932 26.9104 125.992 28.3952V40.515H121.864V29.4649C121.864 27.5335 120.77 26.4658 119.07 26.4658C117.248 26.4658 116.4 28.129 116.4 29.4649V40.515H112.15V29.4353C112.15 27.3856 110.812 26.4056 109.477 26.4056C107.11 26.4056 106.775 28.5145 106.775 29.8809V40.515H102.647V28.3952C102.677 27.8618 102.797 27.2969 102.919 26.7921ZM96.4535 34.7228C95.9366 34.426 95.0871 34.1292 94.2668 33.8611C90.9877 32.8525 86.3735 32.05 86.1608 27.7425C86.2828 24.4456 88.8323 22.9303 91.9904 22.7824H100.338V26.7329H91.8987C91.3525 26.7329 90.9575 26.8512 90.6844 27.357C90.5322 27.6834 90.5625 28.337 91.1097 28.6338C92.4146 29.3466 95.1173 29.882 96.6047 30.297C99.8535 31.1597 102.13 34.1293 100.795 37.6637C99.7316 39.7726 97.82 40.3977 95.5738 40.516H86.1619V36.6838H95.5134C96.3337 36.6838 96.8486 36.5053 97.031 35.9108C97.2113 35.3764 96.8778 34.9604 96.4535 34.7228ZM170.469 7.3963V16.3661H176.693V20.3166H170.469V35.3162C170.591 36.2962 171.715 36.6827 172.928 36.6827H176.692V40.515H173.323C170.956 40.515 167.768 40.1876 166.704 37.3955L166.493 36.4145L166.431 35.4947V20.3166H66.7001V16.6037H166.432V7.3963H170.469ZM191.723 24.98C191.965 15.8022 186.712 7.81237 177.97 4.51549C175.603 3.68439 173.143 3.11944 170.804 3.11944H23.8626C23.5896 3.14901 23.1643 3.17858 22.861 3.20815C11.2331 4.18814 2.91452 13.574 3.21887 24.98C3.82653 35.2867 11.8408 43.4845 22.2846 44.644C22.9829 44.7031 23.772 44.7031 24.4703 44.7929H170.653C182.067 44.7929 191.083 35.9403 191.723 24.98ZM0.000253071 23.6737C0.0607064 10.6045 10.565 0.297769 24.4401 0H109.507V0.0295723L170.469 0C184.314 0 194.85 10.7523 195 24.3263C195.061 37.6331 183.252 48 170.196 48H24.7434C10.7172 47.5839 -0.0602003 37.0101 0.000253071 23.6737ZM38.1922 36.1484H46.1772C49.5167 36.1484 51.642 33.654 51.642 30.3867V11.7619H37.9806C40.9855 14.7029 42.8679 19.4254 43.0201 24.0591C43.1723 28.6929 41.5025 32.9106 38.1922 36.1484ZM8.53147 26.7024C8.43094 26.2119 8.35994 25.7162 8.31884 25.2176C7.71118 17.4052 12.9029 10.7523 20.2198 8.16825L21.8281 7.72262L23.4374 7.48502L25.1374 7.3963H56.1041V30.1491C56.1041 37.2783 52.3997 40.6343 46.1157 40.6343H23.6813C16.3643 40.6333 9.9886 33.9508 8.53147 26.7024ZM75.0802 26.4362C70.222 27.2082 68.522 32.4956 72.1649 35.7925C76.1423 38.8518 81.6977 35.6436 80.8785 30.6835C80.2406 27.9801 77.9642 26.2873 75.0802 26.4362ZM76.6582 22.4857C83.0642 23.3168 86.5861 29.4955 84.3691 35.3468C82.0917 39.8022 77.8423 41.8519 72.833 40.6037C66.7303 38.4948 64.2413 31.9898 67.7622 26.5841C69.9187 23.6737 72.9851 22.2766 76.6582 22.4857ZM136.528 26.4362C131.671 27.2082 129.971 32.4956 133.613 35.7925C138.228 39.3576 144.542 34.2781 141.78 29.2273C140.747 27.2969 138.745 26.3169 136.528 26.4362ZM138.107 22.4857C145.209 23.4065 148.793 30.9802 144.906 36.9214C141.901 40.8719 137.164 42.1191 132.58 39.8909C127.661 36.9509 126.023 31.4565 129.211 26.5841C131.366 23.6737 134.433 22.2766 138.107 22.4857Z" fill="#A4A4A4"/>
</g>
<defs>
<clipPath id="clip0_1102_19186">
<rect width="195" height="48" fill="white"/>
</clipPath>
</defs>
</svg>
