<svg width="24" height="24" viewBox="0 0 24 24" fill="none" xmlns="http://www.w3.org/2000/svg">
<path d="M5.1668 22.2857H18.831C20.2634 22.2857 21.4275 21.0629 21.4275 19.5581V5.9657C21.4275 4.46094 20.2634 3.23808 18.831 3.23808H17.8011V2.47618C17.8011 2.05713 17.4747 1.71429 17.0758 1.71429C16.6769 1.71429 16.3505 2.05713 16.3505 2.47618V3.23808H7.64726V2.47618C7.64726 2.05713 7.32084 1.71429 6.92194 1.71429C6.52303 1.71429 6.19668 2.05713 6.19668 2.47618V3.23808H5.1668C3.73439 3.23808 2.57031 4.46094 2.57031 5.9657V19.5581C2.57031 21.0629 3.73439 22.2857 5.1668 22.2857ZM4.02089 5.9657C4.02089 5.30287 4.53583 4.76192 5.1668 4.76192H6.19668V5.52381C6.19668 5.94286 6.52303 6.2857 6.92194 6.2857C7.32084 6.2857 7.6472 5.94286 7.6472 5.52381V4.76192H16.3505V5.52381C16.3505 5.94286 16.6769 6.2857 17.0758 6.2857C17.4747 6.2857 17.801 5.94286 17.801 5.52381V4.76192H18.8309C19.4619 4.76192 19.9768 5.30287 19.9768 5.9657V19.5581C19.9768 20.2209 19.4619 20.7619 18.8309 20.7619H5.1668C4.53583 20.7619 4.02089 20.2209 4.02089 19.5581V5.9657Z" fill="#A4A4A4"/>
<path d="M7.82845 10.4761C8.32914 10.4761 8.73503 10.0497 8.73503 9.52374C8.73503 8.99777 8.32914 8.57138 7.82845 8.57138C7.32776 8.57138 6.92188 8.99777 6.92188 9.52374C6.92188 10.0497 7.32776 10.4761 7.82845 10.4761Z" fill="#A4A4A4"/>
<path d="M11.8167 10.4761C12.3174 10.4761 12.7233 10.0497 12.7233 9.52374C12.7233 8.99777 12.3174 8.57138 11.8167 8.57138C11.316 8.57138 10.9102 8.99777 10.9102 9.52374C10.9102 10.0497 11.316 10.4761 11.8167 10.4761Z" fill="#A4A4A4"/>
<path d="M15.805 10.4761C16.3057 10.4761 16.7116 10.0497 16.7116 9.52374C16.7116 8.99777 16.3057 8.57138 15.805 8.57138C15.3043 8.57138 14.8984 8.99777 14.8984 9.52374C14.8984 10.0497 15.3043 10.4761 15.805 10.4761Z" fill="#A4A4A4"/>
<path d="M7.82845 14.2858C8.32914 14.2858 8.73503 13.8594 8.73503 13.3334C8.73503 12.8074 8.32914 12.381 7.82845 12.381C7.32776 12.381 6.92188 12.8074 6.92188 13.3334C6.92188 13.8594 7.32776 14.2858 7.82845 14.2858Z" fill="#A4A4A4"/>
<path d="M11.8167 14.2858C12.3174 14.2858 12.7233 13.8594 12.7233 13.3334C12.7233 12.8074 12.3174 12.381 11.8167 12.381C11.316 12.381 10.9102 12.8074 10.9102 13.3334C10.9102 13.8594 11.316 14.2858 11.8167 14.2858Z" fill="#A4A4A4"/>
<path d="M15.805 14.2858C16.3057 14.2858 16.7116 13.8594 16.7116 13.3334C16.7116 12.8074 16.3057 12.381 15.805 12.381C15.3043 12.381 14.8984 12.8074 14.8984 13.3334C14.8984 13.8594 15.3043 14.2858 15.805 14.2858Z" fill="#A4A4A4"/>
<path d="M7.82845 18.0952C8.32914 18.0952 8.73503 17.6688 8.73503 17.1428C8.73503 16.6168 8.32914 16.1905 7.82845 16.1905C7.32776 16.1905 6.92188 16.6168 6.92188 17.1428C6.92188 17.6688 7.32776 18.0952 7.82845 18.0952Z" fill="#A4A4A4"/>
<path d="M11.8167 18.0952C12.3174 18.0952 12.7233 17.6688 12.7233 17.1428C12.7233 16.6168 12.3174 16.1905 11.8167 16.1905C11.316 16.1905 10.9102 16.6168 10.9102 17.1428C10.9102 17.6688 11.316 18.0952 11.8167 18.0952Z" fill="#A4A4A4"/>
<path d="M15.805 18.0952C16.3057 18.0952 16.7116 17.6688 16.7116 17.1428C16.7116 16.6168 16.3057 16.1905 15.805 16.1905C15.3043 16.1905 14.8984 16.6168 14.8984 17.1428C14.8984 17.6688 15.3043 18.0952 15.805 18.0952Z" fill="#A4A4A4"/>
</svg>
