<svg width="24" height="24" viewBox="0 0 24 24" fill="none" xmlns="http://www.w3.org/2000/svg">
<path d="M12.0006 1.71429C6.32911 1.71429 1.71484 6.32857 1.71484 12C1.71484 17.6714 6.32911 22.2857 12.0006 22.2857C17.672 22.2857 22.2863 17.6714 22.2863 12C22.2863 6.32857 17.672 1.71429 12.0006 1.71429ZM12.0006 21C7.03787 21 3.00056 16.9627 3.00056 12C3.00056 7.03732 7.03787 3.00001 12.0006 3.00001C16.9632 3.00001 21.0005 7.03732 21.0005 12C21.0005 16.9627 16.9632 21 12.0006 21Z" fill="#3E3E3E"/>
<path d="M12.6451 5.57144H11.3594V12.2662L15.4048 16.3117L16.3139 15.4026L12.6451 11.7338V5.57144Z" fill="#3E3E3E"/>
</svg>
