<svg width="60" height="60" viewBox="0 0 60 60" fill="none" xmlns="http://www.w3.org/2000/svg">
<path d="M28.1406 31.6967H31.8587V35.4404H28.1406V31.6967Z" fill="#E4E4E4"/>
<path d="M30.6289 31.6967H31.858V35.4404H30.6289V31.6967Z" fill="#A4A4A4"/>
<path d="M35.9979 55.5088C35.9979 54.8845 36.2442 54.2912 36.6653 53.8328C38.1616 52.2039 39.0771 50.0262 39.0771 47.6321C39.0771 44.3827 37.3917 41.5312 34.8541 39.9114C34.1198 39.4429 33.6884 38.6159 33.6884 37.7407V36.3971C33.6884 35.8689 33.2631 35.4404 32.7383 35.4404H27.2646C26.74 35.4404 26.3145 35.8686 26.3145 36.3971V37.7407C26.3145 38.6159 25.883 39.4429 25.1488 39.9114C22.6111 41.5312 20.9258 44.3829 20.9258 47.6321C20.9258 50.0262 21.8412 52.2039 23.3375 53.8328C23.7586 54.2912 24.005 54.8845 24.005 55.5088C24.005 56.4976 23.4103 57.3877 22.501 57.7607C22.0875 57.9303 21.8171 58.3352 21.8171 58.785V58.8937C21.8171 59.5045 22.3088 59.9996 22.9155 59.9996H37.0872C37.6938 59.9996 38.1855 59.5045 38.1855 58.8937V58.785C38.1855 58.3352 37.9151 57.9305 37.5016 57.7607C36.5926 57.388 35.9979 56.4976 35.9979 55.5088Z" fill="#951BC4"/>
<path d="M37.5005 57.7611C36.5912 57.3881 35.9965 56.4978 35.9965 55.5091C35.9965 54.8849 36.2429 54.2916 36.6639 53.8332C38.1603 52.2042 39.0757 50.0265 39.0757 47.6325C39.0757 44.383 37.3904 41.5316 34.8527 39.9118C34.1185 39.4432 33.687 38.6163 33.687 37.741V36.3975C33.687 35.869 33.2618 35.4408 32.7369 35.4408H31.5078C32.0324 35.4408 32.4579 35.869 32.4579 36.3975V37.741C32.4579 38.6163 32.8893 39.4432 33.6236 39.9118C36.1612 41.5316 37.8466 44.383 37.8466 47.6325C37.8466 50.0265 36.9312 52.204 35.4348 53.8332C35.0137 54.2916 34.7674 54.8849 34.7674 55.5091C34.7674 56.498 35.3621 57.3883 36.2714 57.7611C36.6848 57.9309 36.9552 58.3356 36.9552 58.7854V58.894C36.9552 59.5049 36.4636 59.9999 35.8569 59.9999H37.086C37.6927 59.9999 38.1844 59.5049 38.1844 58.894V58.7854C38.1844 58.3356 37.914 57.9307 37.5005 57.7611Z" fill="#731298"/>
<path d="M46.2696 31.6967H13.7305C12.8409 31.6967 12.2457 30.7742 12.6076 29.9559L21.9144 8.90215C22.3092 8.00884 23.1893 7.43335 24.1603 7.43335H35.8398C36.8108 7.43335 37.6909 8.00884 38.0856 8.90215L47.3925 29.9559C47.7541 30.7745 47.1592 31.6967 46.2696 31.6967Z" fill="#00A887"/>
<path d="M17.8472 22.2467C17.7806 22.2467 17.7125 22.2328 17.6473 22.2039C17.3993 22.0927 17.2877 21.8002 17.398 21.5502L20.9969 13.4094C21.107 13.1599 21.3973 13.0473 21.6461 13.1584C21.8941 13.2696 22.0057 13.5621 21.8954 13.8121L18.2965 21.9529C18.2152 22.1373 18.0355 22.2467 17.8472 22.2467ZM22.2457 12.297C22.1791 12.297 22.111 12.2832 22.0458 12.2542C21.7978 12.1431 21.6862 11.8505 21.7966 11.6005L21.8914 11.3864C22.0018 11.1367 22.2919 11.0245 22.5407 11.1354C22.7887 11.2466 22.9003 11.5391 22.7899 11.7891L22.6953 12.003C22.6134 12.1874 22.434 12.297 22.2457 12.297Z" fill="white"/>
<path d="M42.5234 31.6967H43.5067V41.0639H42.5234V31.6967Z" fill="#A4A4A4"/>
<path d="M43.0152 44.1427C43.8843 44.1427 44.5889 43.4332 44.5889 42.558C44.5889 41.6829 43.8843 40.9734 43.0152 40.9734C42.146 40.9734 41.4414 41.6829 41.4414 42.558C41.4414 43.4332 42.146 44.1427 43.0152 44.1427Z" fill="#951BC4"/>
<path d="M43.8562 41.2186C44.0095 41.4632 44.0998 41.7523 44.0998 42.0629C44.0998 42.9382 43.3952 43.6476 42.526 43.6476C42.2175 43.6476 41.9306 43.5567 41.6875 43.4023C41.9663 43.8466 42.4569 44.1426 43.0177 44.1426C43.8869 44.1426 44.5914 43.4332 44.5914 42.558C44.5914 41.9936 44.2974 41.4993 43.8562 41.2186Z" fill="#731298"/>
<path d="M29.9995 6.23682C29.7281 6.23682 29.5078 6.01504 29.5078 5.74177V0.495044C29.5078 0.22178 29.7281 0 29.9995 0C30.2708 0 30.4911 0.22178 30.4911 0.495044V5.74153C30.4911 6.01504 30.2708 6.23682 29.9995 6.23682Z" fill="#00A887"/>
<path d="M26.3777 6.23686C26.2002 6.23686 26.0289 6.13983 25.9414 5.97053L23.2238 0.72405C23.0982 0.481726 23.1916 0.182472 23.4325 0.0562354C23.6729 -0.0702484 23.9704 0.0238099 24.0958 0.266382L26.8133 5.51286C26.9389 5.75519 26.8455 6.05444 26.6046 6.18068C26.5321 6.21879 26.4542 6.23686 26.3777 6.23686Z" fill="#00A887"/>
<path d="M33.6241 6.23684C33.5474 6.23684 33.4697 6.21877 33.3972 6.18066C33.1565 6.05417 33.0631 5.75516 33.1885 5.51284L35.9061 0.26636C36.0317 0.024036 36.3291 -0.0697749 36.5693 0.0562139C36.81 0.182698 36.9034 0.481705 36.778 0.724029L34.0607 5.97051C33.9729 6.13981 33.8016 6.23684 33.6241 6.23684Z" fill="#00A887"/>
</svg>
