<svg width="60" height="60" viewBox="0 0 60 60" fill="none" xmlns="http://www.w3.org/2000/svg">
<path d="M0.445312 9.45171C0.445312 4.18542 4.75242 -0.0749299 10.0362 0.00112475C15.1543 0.0747185 19.316 4.27214 19.3484 9.39066C19.3665 12.2572 18.1082 14.8298 16.1087 16.5748C15.8977 16.7589 15.9281 17.095 16.1692 17.2376L17.9501 18.2914C18.238 18.4618 18.1172 18.9031 17.7826 18.9031L9.71801 18.9011C4.58062 18.8056 0.445312 14.6118 0.445312 9.45171Z" fill="#00A887"/>
<path d="M17.9502 18.2913L16.1692 17.2376C15.9295 17.0958 15.8962 16.7602 16.1061 16.5771C18.1284 14.8136 19.3933 12.2034 19.3475 9.29883C19.2681 4.27465 15.2017 0.150472 10.1789 0.00410465C9.46668 -0.0166375 8.77152 0.0416047 8.10156 0.170394C12.443 1.00266 15.7517 4.82942 15.7805 9.39047C15.7945 11.5993 15.0504 13.6337 13.7935 15.2494C13.0345 16.225 13.2811 17.6397 14.345 18.2692L14.3822 18.2912C14.667 18.4597 14.5514 18.8926 14.2253 18.902L17.7827 18.9028C18.1172 18.9031 18.2382 18.4616 17.9502 18.2913Z" fill="#008E72"/>
<path d="M46.4992 34.3072H25.0579C19.7027 34.3072 16.7721 28.0663 20.1924 23.9455L20.3826 23.7163C21.8894 21.9009 22.7142 19.6159 22.7142 17.2567V13.122C22.7143 5.87484 28.5891 0 35.8362 0C43.0834 0 48.9582 5.87484 48.9582 13.122V17.3962C48.9582 19.7802 49.8003 22.0875 51.3359 23.9111C54.7989 28.0234 51.8756 34.3072 46.4992 34.3072Z" fill="#C59191"/>
<path d="M57.7719 44.9332V59.1082H13.7891V45.0398C13.7891 41.8547 15.698 38.9801 18.6324 37.7449L25.7328 34.6582L28.1234 33.6187C29.9375 32.8301 31.1105 31.0406 31.1105 29.0625V28.1449H40.4492V29.0156C40.4492 31.0019 41.634 32.7984 43.4609 33.5812L53.0644 37.698C55.9262 38.966 57.7719 41.8019 57.7719 44.9332Z" fill="white"/>
<path d="M25.7332 38.0379C28.1566 38.762 31.7234 39.5342 36.0712 39.4582C40.1506 39.3869 43.4993 38.5937 45.8295 37.8494L46.9873 35.0924L43.4616 33.5812C41.6351 32.7983 40.4508 31.0024 40.4508 29.0151V28.1451H31.1121V29.0625C31.1121 31.0404 29.9389 32.8297 28.1252 33.6184L25.2695 34.86L25.7332 38.0379Z" fill="#FFCEBF"/>
<path d="M53.0636 37.6975L45.8294 34.5968L45.8281 34.5969V59.108H57.7716V44.9333C57.7716 41.8024 55.9261 38.9659 53.0636 37.6975Z" fill="#951BC4"/>
<path d="M25.7328 34.6582V59.1082H13.7891V45.0398C13.7891 41.8547 15.698 38.9801 18.6324 37.7449L25.7328 34.6582Z" fill="#951BC4"/>
<path d="M39.0173 33.2709C40.0917 33.2709 41.1154 33.0552 42.0486 32.6659C41.0476 31.7419 40.4495 30.427 40.4495 29.0153V28.1453H31.1108V29.0625C31.1108 29.777 30.9569 30.4666 30.6758 31.0936C32.0899 32.4416 34.003 33.2708 36.1108 33.2708H39.0173V33.2709Z" fill="#FFB09E"/>
<path d="M45.1127 14.0968V21.8224C45.1127 26.1747 41.5844 29.7029 37.2322 29.7029H34.3258C29.9735 29.7029 26.4453 26.1746 26.4453 21.8224V14.0968C26.4453 11.2654 28.7405 8.97009 31.572 8.97009H39.9861C42.8175 8.97021 45.1127 11.2654 45.1127 14.0968Z" fill="#FFCEBF"/>
<path d="M45.1144 18.1163C45.1109 18.127 45.1066 18.1373 45.1034 18.1482C44.8185 19.132 44.0709 20.9904 42.2641 22.3836C41.4228 23.0325 40.4631 23.5012 39.412 23.7771C38.9355 23.9021 38.6505 24.3897 38.7755 24.8662C38.8808 25.2669 39.242 25.5321 39.6378 25.5321C39.7127 25.5321 39.7888 25.5226 39.8648 25.5027C41.1482 25.1659 42.322 24.5918 43.3536 23.7964C44.0659 23.247 44.6425 22.6402 45.1093 22.0302C45.111 21.961 45.1145 21.8922 45.1145 21.8226V18.1163H45.1144Z" fill="#3E3E3E"/>
<path d="M38.4302 26.2429H36.34C35.3885 26.2429 34.6172 25.4716 34.6172 24.5201C34.6172 23.5687 35.3885 22.7974 36.34 22.7974H38.4302C39.3817 22.7974 40.153 23.5687 40.153 24.5201C40.1529 25.4717 39.3817 26.2429 38.4302 26.2429Z" fill="#262028"/>
<path d="M37.6423 6.92547C37.8425 4.40125 40.2591 2.72605 42.572 1.8584C46.3981 4.15094 48.9596 8.33699 48.9596 13.1219V14.024C48.748 14.0684 48.5376 14.1073 48.3294 14.1384C47.0553 14.3287 45.9702 14.2463 45.2289 14.1384C40.452 13.502 37.4005 9.9741 37.6423 6.92547Z" fill="#B98080"/>
<path d="M35.8367 0C38.8001 0 41.5339 0.982734 43.7305 2.63965C42.6347 4.54641 40.1185 8.31633 35.4002 11.1073C31.8974 13.1793 28.5946 13.8755 26.5607 14.1383H22.7148V13.1218C22.7147 5.87484 28.5896 0 35.8367 0V0Z" fill="#C59191"/>
<path d="M50.5054 59.108H21.9522L20.3773 44.2516C20.2656 43.1978 21.0917 42.2795 22.1513 42.2795H50.3064C51.366 42.2795 52.1921 43.1978 52.0804 44.2516L50.5054 59.108Z" fill="#EFEDEF"/>
<path d="M50.3062 42.2795H46.7383C47.7979 42.2795 48.6239 43.1978 48.5123 44.2516L46.9374 59.1081H50.5053L52.0802 44.2516C52.1919 43.1978 51.3659 42.2795 50.3062 42.2795Z" fill="#E5E1E5"/>
<path d="M59.1211 60H0.878906C0.393398 60 0 59.6065 0 59.1211C0 58.6357 0.393398 58.2422 0.878906 58.2422H59.1211C59.6066 58.2422 60 58.6357 60 59.1211C60 59.6065 59.6066 60 59.1211 60Z" fill="#C9BFC8"/>
<path d="M36.228 53.1913C37.6073 53.1913 38.7255 52.0731 38.7255 50.6938C38.7255 49.3145 37.6073 48.1963 36.228 48.1963C34.8486 48.1963 33.7305 49.3145 33.7305 50.6938C33.7305 52.0731 34.8486 53.1913 36.228 53.1913Z" fill="#A4A4A4"/>
<path d="M6.32941 10.3434C6.822 10.3434 7.22133 9.94407 7.22133 9.45148C7.22133 8.95889 6.822 8.55957 6.32941 8.55957C5.83682 8.55957 5.4375 8.95889 5.4375 9.45148C5.4375 9.94407 5.83682 10.3434 6.32941 10.3434Z" fill="white"/>
<path d="M9.89582 10.3434C10.3884 10.3434 10.7877 9.94407 10.7877 9.45148C10.7877 8.95889 10.3884 8.55957 9.89582 8.55957C9.40323 8.55957 9.00391 8.95889 9.00391 9.45148C9.00391 9.94407 9.40323 10.3434 9.89582 10.3434Z" fill="white"/>
<path d="M13.4661 10.3434C13.9587 10.3434 14.358 9.94407 14.358 9.45148C14.358 8.95889 13.9587 8.55957 13.4661 8.55957C12.9735 8.55957 12.5742 8.95889 12.5742 9.45148C12.5742 9.94407 12.9735 10.3434 13.4661 10.3434Z" fill="white"/>
</svg>
