<svg width="60" height="60" viewBox="0 0 60 60" fill="none" xmlns="http://www.w3.org/2000/svg">
<g clip-path="url(#clip0_1909_18570)">
<path d="M59.7407 41.4833C59.1371 40.4531 37.1999 3.01865 36.5744 1.95127C36.0412 1.04161 34.8605 0.729878 33.9372 1.2552L17.6367 10.5269C18.0519 10.7415 17.7696 10.5436 22.3965 14.2808C23.2344 10.8662 27.9013 10.1824 29.6947 13.2431C30.8514 15.2169 30.0621 17.7698 27.9264 18.7472L26.5252 17.6155L31.0015 21.2309C31.7692 21.851 32.2094 22.7674 32.2094 23.7453C32.2094 57.9579 32.2407 55.9236 32.1437 56.3953L32.4891 56.9846C33.0223 57.8943 34.2028 58.2061 35.1263 57.6808L59.0342 44.0817C59.9575 43.5564 60.2739 42.3931 59.7407 41.4833Z" fill="#951BC4"/>
<path d="M32.2102 49.8154C32.2102 56.2998 32.2323 55.9678 32.1445 56.3952L32.4899 56.9845C33.0231 57.8941 34.2036 58.206 35.1271 57.6807L36.3963 56.9587L32.2102 49.8154Z" fill="#711E90"/>
<path d="M35.0512 46.7832C34.8011 46.3565 34.9495 45.8109 35.3826 45.5646L48.6622 38.0112C49.0953 37.7651 49.6491 37.9109 49.8991 38.3377C50.1492 38.7644 50.0008 39.3101 49.5677 39.5563L36.2881 47.1097C35.8547 47.3561 35.301 47.2098 35.0512 46.7832Z" fill="#711E90"/>
<path d="M37.3129 50.6423C37.0628 50.2156 37.2112 49.6699 37.6443 49.4237L50.924 41.8704C51.3572 41.6241 51.911 41.7701 52.1609 42.1969C52.411 42.6236 52.2627 43.1693 51.8295 43.4155L38.5498 50.9688C38.1168 51.2152 37.563 51.0689 37.3129 50.6423Z" fill="#711E90"/>
<path d="M49.4732 23.96L32.2109 33.7789V42.8776L53.4721 30.7839C53.0091 29.9941 50.1757 25.159 49.4732 23.96Z" fill="#711E91"/>
<path d="M31.0019 21.2307L18.1968 10.8885C16.9807 9.90669 15.2282 9.9075 14.0126 10.8886L1.20785 21.2307C0.440157 21.8507 0 22.7672 0 23.7451V55.7486C0 57.5415 1.48032 59 3.30013 59H28.9098C30.7295 59 32.2099 57.5415 32.2099 55.7486V23.7451C32.2098 22.7672 31.7695 21.8508 31.0019 21.2307ZM15.7338 26.9844C13.7855 26.9844 12.2063 25.4284 12.2063 23.5089C12.2063 21.5896 13.7855 20.0336 15.7338 20.0336C17.682 20.0336 19.2612 21.5896 19.2612 23.5089C19.2613 25.4284 17.682 26.9844 15.7338 26.9844Z" fill="#00A887"/>
<path d="M28.911 56.0262C29.0664 56.0262 29.1927 55.9016 29.1927 55.7485C29.1927 21.9033 29.2451 23.6562 29.0896 23.5306C15.5231 12.5734 16.1837 12.9817 15.9274 13.1887C2.24318 24.2411 3.01979 23.5505 3.01979 23.7451V55.7485C3.01979 55.9016 3.14612 56.0262 3.30151 56.0262H28.911ZM15.7351 20.0337C17.6834 20.0337 19.2626 21.5896 19.2626 23.509C19.2626 25.4285 17.6833 26.9845 15.7351 26.9845C13.7869 26.9845 12.2077 25.4285 12.2077 23.509C12.2077 21.5898 13.787 20.0337 15.7351 20.0337Z" fill="#008369"/>
<path d="M13.6309 38.019C13.6309 36.7936 14.6734 36.6035 15.7512 36.5363C16.0899 36.5136 17.6001 36.7037 18.9304 37.527C19.1659 37.6698 19.4756 37.5888 19.6078 37.3494L20.2713 36.1492C20.3948 35.9258 20.3181 35.6461 20.097 35.5144C18.8322 34.7609 17.6335 34.4125 16.3727 34.3182V32.9251C16.3727 32.2786 15.2458 32.2838 15.2458 32.9251V34.3365C12.7344 34.5435 10.9639 36.0037 10.9639 38.4259C10.9639 40.6155 12.5474 41.3857 14.7356 41.9776C14.8584 42.0115 14.922 42.0558 15.6462 42.2139C16.1003 42.4876 18.1943 42.6958 18.1943 44.0321C18.1943 44.8915 17.5245 45.3459 16.2035 45.3827C14.623 45.4269 12.8593 44.6724 12.0815 44.1617C11.9608 44.0823 11.8286 43.9851 11.6103 44.0398C11.3362 44.1082 11.3483 44.1892 10.6157 45.5972C10.5016 45.8165 10.5765 46.0854 10.7882 46.2168C12.0335 46.9892 13.5952 47.5239 15.2457 47.64V49.2182C15.2457 49.481 15.4619 49.694 15.7286 49.694H15.8895C16.1562 49.694 16.3725 49.481 16.3725 49.2182L16.3723 47.6587C19.0029 47.5517 20.9549 46.3785 20.9549 43.7732C20.9551 38.9043 13.6309 40.6554 13.6309 38.019Z" fill="#EAE9E8"/>
</g>
<defs>
<clipPath id="clip0_1909_18570">
<rect width="60" height="60" fill="white"/>
</clipPath>
</defs>
</svg>
