<svg width="60" height="60" viewBox="0 0 60 60" fill="none" xmlns="http://www.w3.org/2000/svg">
<g clip-path="url(#clip0_1909_18545)">
<path d="M44.6755 36.5681L46.3954 21.7137H41.8671L35.6211 47.6627L57.8351 46.4066L59.6552 39.6722L44.6755 36.5681Z" fill="#8213AD"/>
<path d="M41.5449 39.672H37.0166L34.5898 48.6512H54.9672C56.2177 48.6512 57.503 47.6462 57.838 46.4064H41.989C40.7385 46.4064 39.9964 45.4014 40.3314 44.1616L41.5449 39.672Z" fill="#5E127B"/>
<path d="M59.3403 36.7734L55.5125 34.0602L51.1539 31.2451L55.4746 26.2033L55.4609 23.3679C55.4562 22.3913 54.7447 21.7137 53.7236 21.7137H46.3964L41.543 39.6722H59.6562L59.9193 38.6984C60.1323 37.9098 59.9125 37.179 59.3403 36.7734Z" fill="#951BC4"/>
<path d="M33.8059 19.4688H43.6076C44.2328 19.4688 44.6039 19.9713 44.4363 20.5912L37.4595 46.4064L4.79145 48.307C4.16628 48.307 3.92739 48.0062 4.09496 47.3863L10.3403 24.1151L33.8059 19.4688Z" fill="#00A887"/>
<path d="M6.89207 46.4065C6.26676 46.4065 5.89581 45.9039 6.06339 45.2841L7.71713 39.1651C7.88972 38.5265 8.58315 38.1616 9.20261 38.4063C11.2594 39.2188 13.498 39.6722 15.8477 39.6722C25.8513 39.6722 33.9609 31.632 33.9609 21.7138C33.9609 20.9519 33.8974 20.2059 33.8045 19.469H11.9082C11.2829 19.469 10.6403 19.9714 10.4727 20.5914L3.19259 47.529C3.02501 48.1488 3.3961 48.6514 4.02127 48.6514H36.8514L37.458 46.4066H6.89207V46.4065Z" fill="#008066"/>
<path d="M51.9707 51.6007C54.123 49.7331 54.6989 46.8948 53.2569 45.2612C51.8148 43.6276 48.901 43.8172 46.7487 45.6848C44.5964 47.5523 44.0205 50.3906 45.4626 52.0242C46.9046 53.6578 49.8184 53.4682 51.9707 51.6007Z" fill="#262028"/>
<path d="M50.6651 50.1218C51.7413 49.188 52.0292 47.7689 51.3082 46.952C50.5871 46.1352 49.1302 46.23 48.054 47.1637C46.9779 48.0975 46.69 49.5167 47.411 50.3335C48.132 51.1503 49.589 51.0556 50.6651 50.1218Z" fill="#A4A4A4"/>
<path d="M16.8613 51.6185C19.0137 49.7509 19.5895 46.9127 18.1475 45.279C16.7055 43.6454 13.7917 43.8351 11.6393 45.7026C9.487 47.5702 8.91117 50.4084 10.3532 52.042C11.7952 53.6757 14.709 53.486 16.8613 51.6185Z" fill="#262028"/>
<path d="M15.5558 50.1395C16.6319 49.2057 16.9198 47.7866 16.1988 46.9697C15.4777 46.1529 14.0208 46.2477 12.9447 47.1814C11.8685 48.1152 11.5806 49.5344 12.3016 50.3512C13.0227 51.1681 14.4796 51.0733 15.5558 50.1395Z" fill="#A4A4A4"/>
<path d="M55.4754 26.2032H49.7122L47.707 28.4481L48.4906 33.3339L55.5133 31.8153L55.4754 26.2032Z" fill="#DBEAFF"/>
<path d="M50.4603 31.8153C49.2098 31.8153 48.4678 30.8103 48.8028 29.5705L49.7128 26.2032C48.4624 26.2032 47.177 27.2083 46.842 28.4481L45.932 31.8153C45.597 33.0551 46.339 34.0601 47.5895 34.0601H55.5141L55.5032 31.8153H50.4603Z" fill="#C3DDFF"/>
<path d="M15.8491 37.4272C24.6023 37.4272 31.6982 30.392 31.6982 21.7136C31.6982 13.0352 24.6023 6 15.8491 6C7.09588 6 0 13.0352 0 21.7136C0 30.392 7.09588 37.4272 15.8491 37.4272Z" fill="#E4E4E4"/>
<path d="M15.8506 35.1824C23.3533 35.1824 29.4355 29.1522 29.4355 21.7136C29.4355 14.2749 23.3533 8.24475 15.8506 8.24475C8.34781 8.24475 2.26562 14.2749 2.26562 21.7136C2.26562 29.1522 8.34781 35.1824 15.8506 35.1824Z" fill="white"/>
<path d="M15.8469 12.7344C15.2212 12.7344 14.7148 12.2318 14.7148 11.612V10.4896C14.7148 9.86976 15.2212 9.36719 15.8469 9.36719C16.4727 9.36719 16.979 9.86976 16.979 10.4896V11.612C16.979 12.2318 16.4727 12.7344 15.8469 12.7344Z" fill="#E4E4E4"/>
<path d="M15.8469 34.0601C15.2212 34.0601 14.7148 33.5575 14.7148 32.9377V31.8153C14.7148 31.1954 15.2212 30.6929 15.8469 30.6929C16.4727 30.6929 16.979 31.1954 16.979 31.8153V32.9377C16.979 33.5575 16.4727 34.0601 15.8469 34.0601Z" fill="#E4E4E4"/>
<path d="M27.1665 22.8361H26.0344C25.4087 22.8361 24.9023 22.3335 24.9023 21.7137C24.9023 21.0939 25.4087 20.5913 26.0344 20.5913H27.1665C27.7922 20.5913 28.2986 21.0939 28.2986 21.7137C28.2986 22.3335 27.7924 22.8361 27.1665 22.8361Z" fill="#E4E4E4"/>
<path d="M5.65869 22.8361H4.52661C3.90088 22.8361 3.39453 22.3335 3.39453 21.7137C3.39453 21.0939 3.90088 20.5913 4.52661 20.5913H5.65869C6.28441 20.5913 6.79076 21.0939 6.79076 21.7137C6.79076 22.3335 6.28441 22.8361 5.65869 22.8361Z" fill="#E4E4E4"/>
<path d="M12.4524 26.2032C12.1628 26.2032 11.8731 26.0936 11.652 25.8744C11.2097 25.4359 11.2097 24.7258 11.652 24.2873L22.4067 13.6245C22.849 13.186 23.5652 13.186 24.0075 13.6245C24.4498 14.063 24.4498 14.7732 24.0075 15.2117L13.2528 25.8744C13.0316 26.0936 12.742 26.2032 12.4524 26.2032Z" fill="#00A887"/>
<path d="M15.8501 23.9584C17.1005 23.9584 18.1142 22.9533 18.1142 21.7136C18.1142 20.4738 17.1005 19.4688 15.8501 19.4688C14.5996 19.4688 13.5859 20.4738 13.5859 21.7136C13.5859 22.9533 14.5996 23.9584 15.8501 23.9584Z" fill="#262028"/>
</g>
<defs>
<clipPath id="clip0_1909_18545">
<rect width="60" height="60" fill="white"/>
</clipPath>
</defs>
</svg>
