<svg width="28" height="28" viewBox="0 0 28 28" fill="none" xmlns="http://www.w3.org/2000/svg">
<path d="M14 2C9.03744 2 5 5.74238 5 10.3423C5 16.1239 14.0089 26 14.0089 26C14.0089 26 23 15.8396 23 10.3423C23 5.74238 18.9627 2 14 2ZM16.7155 12.7849C15.9667 13.4788 14.9834 13.8258 14 13.8258C13.0167 13.8258 12.0331 13.4788 11.2847 12.7849C9.7873 11.3971 9.7873 9.13892 11.2847 7.75098C12.0097 7.07861 12.9742 6.7083 14 6.7083C15.0258 6.7083 15.9901 7.07876 16.7155 7.75098C18.2129 9.13892 18.2129 11.3971 16.7155 12.7849Z" fill="#262028"/>
</svg>
