<svg width="28" height="28" viewBox="0 0 28 28" fill="none" xmlns="http://www.w3.org/2000/svg">
<path d="M14 2C7.38332 2 2 7.38332 2 14C2 20.6167 7.38332 26 14 26C20.6167 26 26 20.6167 26 14C26 7.38332 20.6167 2 14 2ZM14 24.5C8.2102 24.5 3.50001 19.7898 3.50001 14C3.50001 8.2102 8.2102 3.50001 14 3.50001C19.7898 3.50001 24.5 8.2102 24.5 14C24.5 19.7898 19.7898 24.5 14 24.5Z" fill="#262028"/>
<path d="M14.75 6.5H13.25V14.3105L17.9697 19.0302L19.0303 17.9697L14.75 13.6894V6.5Z" fill="#262028"/>
</svg>
