<svg width="28" height="28" viewBox="0 0 28 28" fill="none" xmlns="http://www.w3.org/2000/svg">
<path d="M23.8906 6H4.10938C2.94392 6 2 6.90053 2 8V20C2 21.106 2.95086 22 4.10938 22H23.8906C25.0463 22 26 21.1098 26 20V8C26 6.90249 25.0598 6 23.8906 6ZM23.5952 7.33333C23.1642 7.73978 15.7476 14.7348 15.4916 14.9763C15.0931 15.3541 14.5634 15.5621 14 15.5621C13.4366 15.5621 12.9069 15.354 12.5071 14.9751C12.3349 14.8126 5.00014 7.89484 4.40478 7.33333H23.5952ZM3.40625 19.7286V8.27222L9.48303 14.0036L3.40625 19.7286ZM4.40567 20.6667L10.4801 14.9439L11.5141 15.9191C12.1781 16.5487 13.061 16.8954 14 16.8954C14.939 16.8954 15.8219 16.5487 16.4846 15.9204L17.5199 14.9439L23.5943 20.6667H4.40567ZM24.5938 19.7286L18.517 14.0036L24.5938 8.27222V19.7286Z" fill="#262028"/>
</svg>
