<svg width="24" height="24" viewBox="0 0 24 24" fill="none" xmlns="http://www.w3.org/2000/svg">
<path d="M5.88294 15.3887C7.91964 17.8142 10.3714 19.7238 13.1697 21.0751C14.2351 21.5781 15.66 22.1748 17.2474 22.2771C17.3458 22.2814 17.4399 22.2857 17.5383 22.2857C18.6038 22.2857 19.4595 21.9191 20.157 21.1646C20.1612 21.1603 20.1698 21.1518 20.1741 21.1433C20.4222 20.8449 20.7046 20.5763 20.9999 20.2908C21.201 20.0989 21.4064 19.8986 21.6032 19.694C22.5146 18.7477 22.5146 17.5456 21.5946 16.6292L19.0231 14.0673C18.5866 13.6155 18.0646 13.3768 17.517 13.3768C16.9693 13.3768 16.443 13.6155 15.9937 14.0631L14.4619 15.5891C14.3207 15.5081 14.1752 15.4356 14.0383 15.3674C13.8671 15.2822 13.7088 15.2012 13.5676 15.1117C12.1728 14.2293 10.9062 13.0784 9.69534 11.5993C9.08347 10.8277 8.67271 10.1798 8.38603 9.5191C8.78823 9.15678 9.16477 8.7774 9.52846 8.40655C9.65683 8.27441 9.78947 8.14227 9.92211 8.01013C10.3842 7.54977 10.6324 7.01694 10.6324 6.47558C10.6324 5.93423 10.3885 5.4014 9.92211 4.94104L8.64703 3.67078C8.49728 3.52159 8.35608 3.37666 8.2106 3.22747C7.9282 2.93761 7.63296 2.63922 7.34201 2.37068C6.90129 1.94015 6.38356 1.71423 5.83587 1.71423C5.29247 1.71423 4.77046 1.94015 4.31263 2.37494L2.71236 3.96916C2.13045 4.54888 1.80098 5.25221 1.73252 6.06637C1.65122 7.08514 1.83949 8.16785 2.32727 9.47647C3.07606 11.5012 4.20566 13.381 5.88294 15.3887ZM2.77654 6.15589C2.82789 5.58896 3.04611 5.11581 3.45687 4.7066L5.04858 3.1209C5.29675 2.88219 5.57059 2.75858 5.83587 2.75858C6.09688 2.75858 6.36216 2.88219 6.60605 3.12942C6.89273 3.39371 7.1623 3.67078 7.45325 3.9649C7.59873 4.11409 7.74849 4.26328 7.89825 4.41674L9.17332 5.687C9.43861 5.95128 9.57553 6.21983 9.57553 6.48411C9.57553 6.74839 9.43861 7.01694 9.17332 7.28122C9.04068 7.41336 8.90804 7.54977 8.7754 7.68191C8.37747 8.08259 8.00522 8.46197 7.59445 8.82429C7.5859 8.83282 7.58162 8.83708 7.57306 8.8456C7.21792 9.1994 7.27354 9.53615 7.35912 9.79191C7.3634 9.8047 7.36768 9.81322 7.37196 9.82601C7.70142 10.6146 8.15925 11.3648 8.87381 12.26C10.1574 13.8371 11.5095 15.0605 12.9986 16.0026C13.1825 16.1219 13.3794 16.2157 13.5634 16.3095C13.7345 16.3947 13.8928 16.4757 14.034 16.5652C14.0511 16.5737 14.064 16.5823 14.0811 16.5908C14.2223 16.6633 14.3592 16.6974 14.4961 16.6974C14.8384 16.6974 15.0609 16.48 15.1337 16.4075L16.7339 14.8133C16.9821 14.566 17.2517 14.4339 17.517 14.4339C17.8421 14.4339 18.1074 14.6342 18.2743 14.8133L20.8544 17.3794C21.3679 17.8909 21.3636 18.445 20.8416 18.9864C20.6619 19.1782 20.4736 19.3615 20.2725 19.5533C19.973 19.8432 19.6606 20.1416 19.3782 20.4783C18.8862 21.0069 18.3 21.2541 17.5426 21.2541C17.4699 21.2541 17.3929 21.2498 17.3201 21.2456C15.9167 21.1561 14.6117 20.6104 13.6318 20.1458C10.9704 18.8628 8.6342 17.0426 6.69591 14.7323C5.09992 12.8184 4.02595 11.0366 3.31567 9.12694C2.87496 7.95472 2.70808 7.01268 2.77654 6.15589Z" fill="#951BC4"/>
</svg>
