<svg width="24" height="24" viewBox="0 0 24 24" fill="none" xmlns="http://www.w3.org/2000/svg">
<path d="M20.4776 5.14282H3.52227C2.52331 5.14282 1.71423 5.91471 1.71423 6.85711V17.1428C1.71423 18.0908 2.52926 18.8571 3.52227 18.8571H20.4776C21.4682 18.8571 22.2857 18.0941 22.2857 17.1428V6.85711C22.2857 5.91638 21.4798 5.14282 20.4776 5.14282ZM20.2244 6.28568C19.855 6.63406 13.4979 12.6298 13.2784 12.8368C12.9369 13.1606 12.4829 13.3389 11.9999 13.3389C11.517 13.3389 11.063 13.1606 10.7203 12.8357C10.5727 12.6965 4.28578 6.76697 3.77547 6.28568H20.2244ZM2.91959 16.9102V7.09044L8.12826 12.003L2.91959 16.9102ZM3.77624 17.7143L8.98286 12.809L9.86916 13.6449C10.4383 14.1846 11.195 14.4818 11.9999 14.4818C12.8048 14.4818 13.5616 14.1846 14.1296 13.646L15.017 12.809L20.2237 17.7143H3.77624ZM21.0803 16.9102L15.8716 12.003L21.0803 7.09044V16.9102Z" fill="#951BC4"/>
</svg>
