<svg width="24" height="24" viewBox="0 0 24 24" fill="none" xmlns="http://www.w3.org/2000/svg">
<path d="M21.834 9.25531L2.66777 1.76013C2.54099 1.71194 2.403 1.70143 2.27039 1.72986C2.13778 1.75829 2.01621 1.82444 1.92031 1.92036C1.82442 2.01628 1.75828 2.13788 1.72986 2.27052C1.70144 2.40316 1.71195 2.54119 1.76012 2.668L9.25351 21.8388C9.30509 21.9704 9.39511 22.0834 9.51182 22.1631C9.62853 22.2428 9.76654 22.2855 9.90786 22.2857H9.98526C10.1391 22.2689 10.2831 22.202 10.3951 22.0951C10.507 21.9882 10.5806 21.8474 10.6044 21.6945L12.1172 12.1197L21.6897 10.6066C21.8427 10.5829 21.9836 10.5094 22.0906 10.3975C22.1976 10.2856 22.2647 10.1415 22.2815 9.98759C22.2983 9.83368 22.2639 9.67851 22.1837 9.54612C22.1034 9.41373 21.9817 9.31152 21.8375 9.25531H21.834ZM11.389 10.8071C11.2425 10.8305 11.1071 10.8996 11.0023 11.0045C10.8974 11.1094 10.8283 11.2448 10.805 11.3913L9.61587 18.9076L3.65282 3.65328L18.9035 9.63535L11.389 10.8071Z" fill="#951BC4"/>
</svg>
