<svg width="66" height="11" viewBox="0 0 66 11" fill="none" xmlns="http://www.w3.org/2000/svg">
<path fill-rule="evenodd" clip-rule="evenodd" d="M66 5.47312C65.9805 2.43517 63.2423 -0.0119773 59.8916 0.00595248C56.5337 0.0238823 53.8298 2.50073 53.8493 5.53274C53.8689 8.57069 56.6071 11.0178 59.9577 10.9999C61.7448 10.9879 63.4281 10.2717 64.5759 9.0362C64.1725 9.71071 63.5919 10.2776 62.9195 10.6299V10.9163H66V5.47312ZM59.9381 8.1649C58.3086 8.17084 56.9897 6.97713 56.9823 5.50887C56.9762 4.03466 58.2952 2.83501 59.9185 2.83501C61.548 2.82907 62.867 4.02278 62.8731 5.49093V5.49699C62.8731 6.97119 61.5602 8.15885 59.9381 8.1649ZM9.00422 0.0895519H12.125V1.22947C12.125 2.88869 11.2999 4.45849 9.87458 5.50293C11.2999 6.54737 12.125 8.11716 12.125 9.77639V10.9163H9.00422V9.48983C9.00422 8.02157 7.68525 6.83391 6.0619 6.83391C4.43977 6.83391 3.12691 8.02157 3.12691 9.48983V10.9163H0V9.77639C0 8.11716 0.823895 6.54737 2.24922 5.50293C0.823895 4.45849 0 2.88869 0 1.22947V0.0895519H3.12691V1.51602C3.12691 2.98417 4.43977 4.17194 6.0619 4.17194C7.68525 4.17194 9.00422 2.98417 9.00422 1.51602V0.0895519ZM38.4519 4.07646C39.4616 6.54142 39.5142 8.77958 39.5142 10.9163H36.3946C36.3946 9.18547 36.3286 7.60379 35.9252 6.17733C35.3849 4.26742 34.3887 2.87681 33.4584 2.87681C32.5282 2.87681 31.5258 4.26742 30.9916 6.17733C30.5894 7.60379 30.5234 9.14367 30.5234 10.9163H27.3965C27.3965 8.97064 27.4491 6.54142 28.4576 4.07646C29.4012 1.78452 31.1566 1.0765e-05 33.4584 1.0765e-05C35.7541 1.0765e-05 37.5156 1.78452 38.4519 4.07646ZM51.3092 5.16864C52.0353 4.166 52.1013 2.79321 51.4351 1.7667C50.7689 0.734141 49.5416 0.101432 48.2226 0.0895519H41.4933V10.9163L49.0208 10.9104C51.3813 10.9104 52.6941 9.14961 52.6941 7.66946C52.6941 6.24894 51.8042 5.53273 51.3092 5.16864ZM44.5737 2.78727L47.9317 2.78133C48.2947 2.78133 48.901 3.12145 48.901 3.66463C48.901 4.10033 48.5123 4.57179 47.8327 4.57179H44.5737V2.78727ZM48.5722 8.21858H44.5737V6.43396H48.4989C48.9878 6.43396 49.5611 6.85184 49.5611 7.3233C49.5611 7.66947 49.2641 8.21858 48.5722 8.21858ZM19.4008 1.0765e-05C16.0502 -0.00592918 13.3181 2.44705 13.312 5.485C13.3059 8.52295 16.0172 10.994 19.3739 10.9999C21.1757 10.9999 22.8834 10.2837 24.0447 9.0362C23.6425 9.71071 23.0619 10.2776 22.3896 10.6299V10.9163H25.4627V5.47312C25.4504 2.44705 22.7453 0.00595071 19.4008 1.0765e-05ZM19.4008 8.1649C17.7774 8.17084 16.4523 6.97713 16.4523 5.50293C16.445 4.03466 17.7579 2.83501 19.3873 2.83501C21.0168 2.82907 22.3358 4.01673 22.3431 5.49093V5.49699C22.3431 6.97119 21.0302 8.15885 19.4008 8.1649Z" fill="#353537"/>
</svg>
