<svg width="40" height="40" viewBox="0 0 40 40" fill="none" xmlns="http://www.w3.org/2000/svg">
<g clip-path="url(#clip0_1605_68688)">
<path d="M39.6181 23.991V23.5277H39.4981L39.3581 23.8366L39.2181 23.5277H39.0981V23.991H39.1781V23.6435L39.3181 23.9524H39.4181L39.5581 23.6435V23.991H39.6181ZM38.8181 23.991V23.6049H38.9781V23.5277H38.5781V23.6049H38.7381V23.991H38.8181Z" fill="#00A2E5"/>
<path d="M25.3981 25.9782H14.5781V7.21436H25.3981V25.9782Z" fill="#7375CF"/>
<path d="M15.28 16.5968C15.28 12.7938 17.12 9.39621 20 7.21481C17.9 5.61254 15.24 4.66663 12.36 4.66663C5.54 4.66663 0 10.0139 0 16.5968C0 23.1796 5.54 28.5269 12.36 28.5269C15.24 28.5269 17.9 27.581 20 25.9787C17.12 23.7973 15.28 20.3997 15.28 16.5968Z" fill="#EB001B"/>
<path d="M40 16.5968C40 23.1796 34.46 28.5269 27.64 28.5269C24.76 28.5269 22.1 27.581 20 25.9787C22.88 23.7973 24.72 20.3997 24.72 16.5968C24.72 12.7938 22.88 9.39621 20 7.21481C22.1 5.61254 24.76 4.66663 27.64 4.66663C34.46 4.66663 40 10.0139 40 16.5968Z" fill="#00A2E5"/>
<path d="M29.0395 31.288C29.1795 31.288 29.3995 31.3074 29.5395 31.3653L29.3195 32.0216C29.1595 31.9637 29.0195 31.9444 28.8795 31.9444C28.4195 31.9444 28.1795 32.234 28.1795 32.7552V34.5312H27.4595V31.3653H28.1595V31.7514C28.3595 31.4618 28.6395 31.288 29.0395 31.288ZM26.3995 31.983H25.2395V33.4115C25.2395 33.7204 25.3595 33.9328 25.7195 33.9328C25.8995 33.9328 26.1395 33.8748 26.3595 33.759L26.5595 34.3575C26.3395 34.5119 25.9795 34.6084 25.6595 34.6084C24.8195 34.6084 24.5195 34.1644 24.5195 33.4308V31.983H23.8595V31.346H24.5195V30.3807H25.2395V31.346H26.3995V31.983ZM17.2595 32.6587C17.3395 32.1954 17.6195 31.8865 18.1395 31.8865C18.5995 31.8865 18.8995 32.1567 18.9795 32.6587H17.2595ZM19.7195 32.9482C19.7195 31.9637 19.0795 31.288 18.1595 31.288C17.1995 31.288 16.5195 31.9637 16.5195 32.9482C16.5195 33.9521 17.2195 34.6084 18.1995 34.6084C18.6995 34.6084 19.1395 34.4926 19.5395 34.1644L19.1795 33.6625C18.8995 33.8748 18.5595 33.9907 18.2195 33.9907C17.7595 33.9907 17.3395 33.7783 17.2395 33.2185H19.6795C19.6995 33.122 19.7195 33.0447 19.7195 32.9482ZM22.8595 32.176C22.6595 32.0602 22.2595 31.9058 21.8395 31.9058C21.4395 31.9058 21.2195 32.0409 21.2195 32.2726C21.2195 32.4849 21.4595 32.5428 21.7795 32.5814L22.1195 32.6201C22.8395 32.7166 23.2595 33.0061 23.2595 33.566C23.2595 34.1644 22.7195 34.6084 21.7595 34.6084C21.2195 34.6084 20.7195 34.4733 20.3395 34.203L20.6795 33.6625C20.9195 33.8362 21.2795 33.9907 21.7795 33.9907C22.2595 33.9907 22.5195 33.8555 22.5195 33.6046C22.5195 33.4308 22.3395 33.3343 21.9395 33.2764L21.5995 33.2378C20.8595 33.1413 20.4595 32.8131 20.4595 32.3112C20.4595 31.6741 20.9995 31.288 21.8195 31.288C22.3395 31.288 22.8195 31.4039 23.1595 31.6162L22.8595 32.176ZM31.6595 31.9251C31.5195 31.9251 31.3795 31.9444 31.2595 32.0023C31.1395 32.0602 31.0195 32.1181 30.9395 32.2147C30.8595 32.3112 30.7795 32.4077 30.7195 32.5428C30.6595 32.6587 30.6395 32.8131 30.6395 32.9482C30.6395 33.1027 30.6595 33.2378 30.7195 33.3536C30.7795 33.4694 30.8395 33.5853 30.9395 33.6818C31.0395 33.7783 31.1395 33.8362 31.2595 33.8941C31.3795 33.9521 31.5195 33.9714 31.6595 33.9714C31.7995 33.9714 31.9395 33.9521 32.0595 33.8941C32.1795 33.8362 32.2995 33.7783 32.3795 33.6818C32.4795 33.5853 32.5395 33.4888 32.5995 33.3536C32.6595 33.2378 32.6795 33.0834 32.6795 32.9482C32.6795 32.7938 32.6595 32.6587 32.5995 32.5428C32.5395 32.427 32.4795 32.3112 32.3795 32.2147C32.2795 32.1181 32.1795 32.0602 32.0595 32.0023C31.9395 31.9637 31.7995 31.9251 31.6595 31.9251ZM31.6595 31.288C31.9195 31.288 32.1595 31.3267 32.3595 31.4232C32.5795 31.5004 32.7595 31.6162 32.9195 31.7707C33.0795 31.9251 33.1995 32.0988 33.2995 32.2919C33.3795 32.5042 33.4395 32.7166 33.4395 32.9482C33.4395 33.1799 33.3995 33.4115 33.2995 33.6046C33.2195 33.8169 33.0795 33.9907 32.9195 34.1258C32.7595 34.2802 32.5795 34.3961 32.3595 34.4733C32.1395 34.5505 31.8995 34.6084 31.6595 34.6084C31.3995 34.6084 31.1595 34.5698 30.9595 34.4733C30.7395 34.3961 30.5595 34.2802 30.3995 34.1258C30.2395 33.9714 30.1195 33.7976 30.0195 33.6046C29.9395 33.3922 29.8795 33.1799 29.8795 32.9482C29.8795 32.7166 29.9195 32.4849 30.0195 32.2919C30.0995 32.0795 30.2395 31.9058 30.3995 31.7707C30.5595 31.6162 30.7395 31.5004 30.9595 31.4232C31.1595 31.3267 31.3995 31.288 31.6595 31.288ZM13.0995 32.9482C13.0995 32.3884 13.4795 31.9251 14.0995 31.9251C14.6995 31.9251 15.0795 32.3691 15.0795 32.9482C15.0795 33.5274 14.6795 33.9521 14.0995 33.9521C13.4795 33.9521 13.0995 33.5081 13.0995 32.9482ZM15.7595 32.9482V31.3653H15.0395V31.7514C14.8195 31.4618 14.4795 31.288 13.9995 31.288C13.0795 31.288 12.3595 31.983 12.3595 32.9482C12.3595 33.9134 13.0795 34.6084 13.9995 34.6084C14.4595 34.6084 14.7995 34.4347 15.0395 34.1451V34.5312H15.7595V32.9482ZM11.7395 34.5312V32.5428C11.7395 31.79 11.2395 31.288 10.4395 31.288C10.0195 31.288 9.57953 31.4039 9.27953 31.8479C9.05953 31.5004 8.69953 31.288 8.19953 31.288C7.85953 31.288 7.49953 31.3846 7.23953 31.7514V31.3653H6.51953V34.5312H7.23953V32.7745C7.23953 32.234 7.55953 31.9251 8.03953 31.9251C8.51953 31.9251 8.75953 32.2147 8.75953 32.7552V34.5119H9.47953V32.7552C9.47953 32.2147 9.81953 31.9058 10.2795 31.9058C10.7595 31.9058 10.9995 32.1954 10.9995 32.7359V34.4926H11.7395V34.5312Z" fill="black"/>
<path d="M34.1983 34.2799V34.3571H34.2784C34.2985 34.3571 34.3185 34.3571 34.3185 34.3378C34.3385 34.3378 34.3385 34.3185 34.3385 34.2992C34.3385 34.2799 34.3385 34.2799 34.3185 34.2799C34.3185 34.2799 34.2985 34.2605 34.2784 34.2605H34.1983V34.2799ZM34.2784 34.2412C34.3185 34.2412 34.3385 34.2412 34.3585 34.2605C34.3786 34.2799 34.3986 34.2992 34.3986 34.3378C34.3986 34.3571 34.3986 34.3764 34.3786 34.3957C34.3585 34.415 34.3385 34.415 34.2985 34.415L34.3986 34.5308H34.3185L34.2184 34.415H34.1983V34.5308H34.1383V34.2412H34.2784ZM34.2584 34.6273C34.2985 34.6273 34.3185 34.6273 34.3585 34.608C34.3986 34.5887 34.4186 34.5694 34.4386 34.5501C34.4587 34.5308 34.4787 34.5115 34.4987 34.4729C34.5187 34.4343 34.5188 34.415 34.5188 34.3764C34.5188 34.3378 34.5187 34.3185 34.4987 34.2799C34.4787 34.2412 34.4587 34.2219 34.4386 34.2026C34.4186 34.1833 34.3986 34.164 34.3585 34.1447C34.3385 34.1254 34.2985 34.1254 34.2584 34.1254C34.2184 34.1254 34.1983 34.1254 34.1583 34.1447C34.1182 34.164 34.0982 34.1833 34.0782 34.2026C34.0581 34.2219 34.0381 34.2605 34.0181 34.2799C33.9981 34.3185 33.9981 34.3378 33.9981 34.3764C33.9981 34.415 33.9981 34.4343 34.0181 34.4729C34.0381 34.5115 34.0581 34.5308 34.0782 34.5501C34.0982 34.5694 34.1383 34.5887 34.1583 34.608C34.1983 34.6273 34.2184 34.6273 34.2584 34.6273ZM34.2584 34.0675C34.2985 34.0675 34.3385 34.0675 34.3786 34.0868C34.4186 34.1061 34.4587 34.1254 34.4787 34.1447C34.4987 34.164 34.5388 34.2026 34.5588 34.2412C34.5788 34.2799 34.5788 34.3185 34.5788 34.3571C34.5788 34.3957 34.5788 34.4343 34.5588 34.4729C34.5388 34.5115 34.5187 34.5501 34.4787 34.5694C34.4386 34.5887 34.4186 34.6273 34.3786 34.6466C34.3385 34.6659 34.2985 34.6659 34.2584 34.6659C34.2184 34.6659 34.1583 34.6659 34.1182 34.6466C34.0782 34.6273 34.0381 34.608 34.0181 34.5694C33.9981 34.5501 33.958 34.5115 33.938 34.4729C33.918 34.4343 33.918 34.3957 33.918 34.3571C33.918 34.3185 33.918 34.2799 33.938 34.2412C33.958 34.2026 33.978 34.164 34.0181 34.1447C34.0381 34.1254 34.0782 34.0868 34.1182 34.0868C34.1583 34.0675 34.2184 34.0675 34.2584 34.0675Z" fill="black"/>
</g>
<defs>
<clipPath id="clip0_1605_68688">
<rect width="40" height="40" fill="white"/>
</clipPath>
</defs>
</svg>
