<svg width="40" height="40" viewBox="0 0 40 40" fill="none" xmlns="http://www.w3.org/2000/svg">
<g clip-path="url(#clip0_1605_68698)">
<path d="M8.64422 32.9979C8.64422 32.44 9.02023 31.9822 9.63946 31.9822C10.2302 31.9822 10.6285 32.4214 10.6285 32.9979C10.6285 33.5743 10.2302 34.0146 9.63946 34.0146C9.02023 34.0146 8.64422 33.5566 8.64422 32.9979ZM11.3011 32.9979V31.4117H10.5913V31.7969C10.4684 31.6448 10.3096 31.5231 10.1284 31.4421C9.94722 31.3613 9.74865 31.3232 9.54886 31.3312C8.62931 31.3312 7.90956 32.0303 7.90956 32.9979C7.90956 33.9655 8.62931 34.6645 9.54886 34.6645C9.74741 34.6726 9.94474 34.6349 10.1259 34.5544C10.3059 34.474 10.4647 34.3531 10.5875 34.2018V34.5841H11.2974L11.3011 32.9979ZM35.4166 32.9979C35.4166 32.44 35.7951 31.9822 36.4106 31.9822C37.0038 31.9822 37.4009 32.4214 37.4009 32.9979C37.4009 33.5743 37.0038 34.0146 36.4106 34.0146C35.7951 34.0146 35.4166 33.5566 35.4166 32.9979ZM38.0735 32.9979V30.1361H37.3636V31.7969C37.242 31.6446 37.0832 31.5229 36.9032 31.4419C36.7221 31.3609 36.5235 31.3228 36.325 31.3312C35.4042 31.3312 34.6819 32.0292 34.6819 32.9979C34.6819 33.9665 35.4042 34.6645 36.325 34.6645C36.5223 34.6728 36.7208 34.6351 36.9008 34.5546C37.0807 34.4741 37.2383 34.3531 37.3612 34.2018V34.5841H38.0697L38.0735 32.9979ZM20.159 31.9499C20.6194 31.9499 20.9148 32.2283 20.9905 32.7195H19.2891C19.3624 32.2626 19.6502 31.9499 20.159 31.9499ZM20.1764 31.3312C19.2159 31.3312 18.5421 32.0068 18.5421 32.9979C18.5421 34.0087 19.2432 34.6645 20.2248 34.6645C20.715 34.6812 21.194 34.5232 21.5712 34.2204L21.2213 33.7097C20.9495 33.9197 20.6132 34.0367 20.2657 34.0419C19.8054 34.0419 19.3859 33.8341 19.2829 33.2645H21.7214C21.7276 33.1783 21.7338 33.0901 21.7338 32.9979C21.7276 32.0077 21.096 31.3312 20.1764 31.3312ZM28.7936 32.9979C28.7936 32.44 29.1733 31.9822 29.7901 31.9822C30.382 31.9822 30.7779 32.4214 30.7779 32.9979C30.7779 33.5743 30.382 34.0146 29.7901 34.0146C29.1733 34.0146 28.7936 33.5566 28.7936 32.9979ZM31.4517 32.9979V31.4117H30.7431V31.7969C30.6191 31.6439 30.4602 31.5217 30.2778 31.4407C30.0966 31.3597 29.8968 31.3221 29.6958 31.3312C28.7762 31.3312 28.0565 32.0292 28.0565 32.9979C28.0565 33.9665 28.7762 34.6645 29.6958 34.6645C29.8956 34.6728 30.0929 34.6351 30.2728 34.5546C30.454 34.4742 30.6116 34.3532 30.7345 34.2018V34.5841H31.4443L31.4517 32.9979ZM24.7617 32.9979C24.7617 33.9615 25.4542 34.6645 26.5127 34.6645C26.9421 34.6853 27.364 34.5503 27.6953 34.2862L27.3516 33.7292C27.1034 33.9102 26.8031 34.01 26.4929 34.0146C25.922 34.0087 25.5026 33.6106 25.5026 32.9979C25.5026 32.3851 25.922 31.989 26.4929 31.9822C26.8031 31.9865 27.1047 32.0872 27.3516 32.2695L27.6953 31.7106C27.3628 31.4463 26.9409 31.3111 26.5115 31.3312C25.4529 31.3312 24.7593 32.0341 24.7593 32.9979H24.7617ZM33.9634 31.3312C33.7897 31.3264 33.6172 31.367 33.4646 31.4487C33.3119 31.5305 33.1854 31.6505 33.0972 31.7959V31.4107H32.3874V34.5832H33.0972V32.8018C33.0972 32.2782 33.3318 31.9852 33.7971 31.9852C33.9498 31.9824 34.1024 32.0094 34.2439 32.0646L34.4648 31.4145C34.3022 31.3579 34.1297 31.3286 33.9572 31.3282L33.9634 31.3312ZM14.8254 31.6586C14.4829 31.442 14.0076 31.3282 13.4864 31.3282C12.655 31.3282 12.1201 31.7136 12.1201 32.3419C12.1201 32.8625 12.5185 33.1802 13.2531 33.2812L13.5882 33.3253C13.9803 33.3802 14.1677 33.4792 14.1677 33.6596C14.1677 33.9037 13.9046 34.044 13.4182 34.044C13.026 34.0549 12.6413 33.9381 12.3261 33.7125L11.9898 34.2488C12.4043 34.5301 12.9019 34.6745 13.4082 34.6606C14.3551 34.6606 14.9061 34.2293 14.9061 33.6262C14.9061 33.0675 14.4717 32.7764 13.7594 32.6744L13.4231 32.6292C13.1141 32.5911 12.8672 32.5312 12.8672 32.3165C12.8672 32.0851 13.0992 31.9459 13.4926 31.9459C13.8525 31.9516 14.2037 32.0449 14.5164 32.2175L14.8254 31.6586ZM24.0395 31.3312C23.8658 31.3266 23.6933 31.3673 23.5406 31.449C23.388 31.5308 23.2614 31.6506 23.1721 31.7959V31.4107H22.4635V34.5832H23.1721V32.8018C23.1721 32.2782 23.4078 31.9852 23.8732 31.9852C24.0258 31.9824 24.1785 32.0094 24.3199 32.0646L24.5396 31.4145C24.3783 31.3575 24.2058 31.3284 24.0333 31.3282L24.0395 31.3312ZM17.9439 31.4077H16.7811V30.4488H16.0589V31.4117H15.3925V32.043H16.0589V33.4881C16.0589 34.2263 16.3543 34.6645 17.2006 34.6645C17.5158 34.6654 17.8248 34.5801 18.0916 34.4184L17.8893 33.8303C17.697 33.9416 17.4798 34.004 17.2564 34.0116C16.8991 34.0116 16.7824 33.7988 16.7824 33.4792V32.043H17.9452L17.9439 31.4077ZM7.27793 34.5841V32.5949C7.27793 31.845 6.78403 31.339 5.98609 31.3322C5.56665 31.3244 5.13354 31.4519 4.83199 31.8959C4.72031 31.7169 4.56146 31.5702 4.3716 31.4708C4.18173 31.3716 3.96829 31.3233 3.75237 31.3312C3.56374 31.3224 3.37634 31.3613 3.20757 31.4439C3.0388 31.5266 2.89486 31.6503 2.79187 31.8028V31.4107H2.08203V34.5832H2.80427V32.8253C2.80427 32.2763 3.12073 31.9822 3.60594 31.9822C4.09239 31.9822 4.31575 32.2822 4.31575 32.8185V34.5832H5.03676V32.8253C5.03676 32.2763 5.36685 31.9822 5.84089 31.9822C6.3137 31.9822 6.56065 32.2822 6.56065 32.8185V34.5832L7.27793 34.5841Z" fill="black"/>
<path d="M25.4099 7.22498H14.5938V26.0238H25.4099V7.22498Z" fill="#EB611D"/>
<path d="M15.2786 16.6209C15.2762 14.8108 15.7006 13.0241 16.5184 11.3958C17.3362 9.76759 18.5262 8.34068 19.998 7.22298C18.175 5.8373 15.9847 4.97572 13.679 4.73668C11.3721 4.49763 9.04408 4.89078 6.95803 5.87117C4.87198 6.85157 3.11355 8.37968 1.88253 10.2809C0.65274 12.182 0 14.3795 0 16.6223C0 18.8651 0.65274 21.0628 1.88253 22.9639C3.11355 24.8651 4.87198 26.3932 6.95803 27.3736C9.04408 28.354 11.3721 28.7471 13.679 28.5081C15.9847 28.269 18.175 27.4075 19.998 26.0218C18.5262 24.9035 17.3362 23.476 16.5184 21.8473C15.7006 20.2186 15.2762 18.4314 15.2786 16.6209Z" fill="#E41322"/>
<path d="M40.0017 16.6211C39.9992 18.8635 39.3453 21.06 38.1142 22.9602C36.8832 24.8605 35.1248 26.3878 33.04 27.368C30.9539 28.3482 28.6259 28.7417 26.3202 28.5038C24.0145 28.2658 21.8242 27.4058 20 26.022C21.4705 24.9028 22.6606 23.4753 23.4772 21.847C24.2949 20.2189 24.7193 18.4325 24.7193 16.6226C24.7193 14.8127 24.2949 13.0262 23.4772 11.3981C22.6606 9.77 21.4705 8.34246 20 7.22317C21.8242 5.83678 24.0132 4.97453 26.3202 4.73498C28.6271 4.49545 30.9564 4.88829 33.0424 5.86861C35.1285 6.84892 36.8882 8.37716 38.1179 10.2786C39.349 12.1801 40.0017 14.378 40.0017 16.6211Z" fill="#F59E21"/>
</g>
<defs>
<clipPath id="clip0_1605_68698">
<rect width="40" height="40" fill="white"/>
</clipPath>
</defs>
</svg>
