<svg width="24" height="24" viewBox="0 0 24 24" fill="none" xmlns="http://www.w3.org/2000/svg">
<path d="M11.9994 1.71423C7.74582 1.71423 4.28516 4.92199 4.28516 8.86476C4.28516 13.8204 12.007 22.2857 12.007 22.2857C12.007 22.2857 19.7137 13.5767 19.7137 8.86476C19.7137 4.92199 16.2532 1.71423 11.9994 1.71423ZM14.327 10.9584C13.6852 11.5532 12.8424 11.8507 11.9994 11.8507C11.1566 11.8507 10.3135 11.5532 9.67202 10.9584C8.38856 9.76891 8.38856 7.8333 9.67202 6.64364C10.2935 6.06733 11.1202 5.74992 11.9994 5.74992C12.8787 5.74992 13.7053 6.06746 14.327 6.64364C15.6105 7.8333 15.6105 9.76891 14.327 10.9584Z" fill="#262028"/>
</svg>
