<svg width="24" height="24" viewBox="0 0 24 24" fill="none" xmlns="http://www.w3.org/2000/svg">
<path d="M15.5807 15.306C17.8638 11.8711 17.5768 12.2996 17.6426 12.21C18.4738 11.0859 18.9132 9.76288 18.9132 8.38388C18.9132 4.72682 15.818 1.71423 11.9989 1.71423C8.19217 1.71423 5.0846 4.72088 5.0846 8.38388C5.0846 9.762 5.53315 11.1197 6.39161 12.2589L8.41695 15.3061C6.25152 15.6251 2.57031 16.576 2.57031 18.6696C2.57031 19.4328 3.08985 20.5204 5.56491 21.3679C7.29315 21.9597 9.57809 22.2857 11.9989 22.2857C16.5256 22.2857 21.4275 21.0613 21.4275 18.6696C21.4275 16.5756 17.7506 15.6258 15.5807 15.306ZM7.4417 11.596C7.43478 11.5856 7.42758 11.5755 7.42003 11.5655C6.70568 10.6232 6.34174 9.50651 6.34174 8.38388C6.34174 5.36976 8.87304 2.91959 11.9989 2.91959C15.1182 2.91959 17.656 5.37084 17.656 8.38388C17.656 9.50831 17.299 10.5871 16.6232 11.5046C16.5627 11.5812 16.8786 11.1106 11.9989 18.4522L7.4417 11.596ZM11.9989 21.0803C7.05437 21.0803 3.82746 19.6868 3.82746 18.6696C3.82746 17.9859 5.48554 16.8618 9.15975 16.4236L11.4688 19.8975C11.5842 20.0712 11.7841 20.1763 11.9988 20.1763C12.2136 20.1763 12.4135 20.0711 12.5289 19.8975L14.8379 16.4236C18.5122 16.8618 20.1703 17.9859 20.1703 18.6696C20.1703 19.6782 16.9724 21.0803 11.9989 21.0803Z" fill="white"/>
<path d="M11.9983 5.37048C10.2654 5.37048 8.85547 6.72229 8.85547 8.38388C8.85547 10.0455 10.2654 11.3973 11.9983 11.3973C13.7313 11.3973 15.1412 10.0455 15.1412 8.38388C15.1412 6.72229 13.7313 5.37048 11.9983 5.37048ZM11.9983 10.1919C10.9585 10.1919 10.1126 9.38083 10.1126 8.38388C10.1126 7.38693 10.9585 6.57584 11.9983 6.57584C13.0381 6.57584 13.884 7.38693 13.884 8.38388C13.884 9.38083 13.0381 10.1919 11.9983 10.1919Z" fill="white"/>
</svg>
