<svg width="18" height="18" viewBox="0 0 18 18" fill="none" xmlns="http://www.w3.org/2000/svg">
<g clip-path="url(#clip0_1589_72645)">
<path d="M9.49395 13.789L17.7964 5.22476C18.0683 4.94417 18.0679 4.48987 17.795 4.20974C17.5223 3.92983 17.0804 3.93056 16.8083 4.21119L8.99997 12.2657L1.19166 4.2109C0.919548 3.9303 0.477953 3.92958 0.205141 4.20945C0.0683842 4.34988 3.79136e-06 4.53385 3.78332e-06 4.71781C3.7753e-06 4.90131 0.0679264 5.08455 0.203733 5.22473L8.50603 13.789C8.63674 13.9242 8.81463 14 8.99997 14C9.18531 14 9.36299 13.9239 9.49395 13.789Z" fill="#262028"/>
</g>
<defs>
<clipPath id="clip0_1589_72645">
<rect width="18" height="18" fill="white" transform="translate(18) rotate(90)"/>
</clipPath>
</defs>
</svg>
