<svg width="36" height="36" viewBox="0 0 36 36" fill="none" xmlns="http://www.w3.org/2000/svg">
<path d="M23.4249 21.7968C23.0921 21.7968 22.8223 22.0666 22.8223 22.3995V26.558C22.8223 28.2196 21.4705 29.5714 19.8089 29.5714H13.3019C12.9691 29.5714 12.6994 29.841 12.6992 30.1736L12.6984 31.3719L11.2599 29.9335C11.1668 29.7197 10.9537 29.5714 10.7072 29.5714H6.79102C5.12943 29.5714 3.77762 28.2196 3.77762 26.558V17.2767C3.77762 15.6151 5.12943 14.2633 6.79102 14.2633H12.8781C13.2109 14.2633 13.4807 13.9935 13.4807 13.6607C13.4807 13.3278 13.2109 13.058 12.8781 13.058H6.79102C4.4648 13.058 2.57227 14.9505 2.57227 17.2767V26.558C2.57227 28.8842 4.4648 30.7767 6.79102 30.7767H10.3985L12.8738 33.252C12.9891 33.3673 13.1432 33.4285 13.3001 33.4285C13.3776 33.4285 13.4559 33.4135 13.5303 33.3827C13.7556 33.2895 13.9024 33.0699 13.9026 32.8263L13.9041 30.7767H19.8089C22.1351 30.7767 24.0276 28.8842 24.0276 26.558V22.3995C24.0276 22.0666 23.7577 21.7968 23.4249 21.7968Z" fill="#00A887"/>
<path d="M24.6698 2.57141H23.1445C18.3144 2.57141 14.3848 6.501 14.3848 11.3311C14.3848 16.1612 18.3144 20.0907 23.1444 20.0907H24.6697C25.4236 20.0907 26.1698 19.995 26.893 19.8057L29.1462 22.0577C29.2615 22.1729 29.4156 22.2341 29.5724 22.2341C29.6501 22.2341 29.7284 22.2191 29.803 22.1882C30.0281 22.0949 30.1749 21.8751 30.1749 21.6314V18.1446C31.1289 17.372 31.9214 16.3961 32.4775 15.3058C33.1092 14.0676 33.4294 12.7303 33.4294 11.3311C33.4294 6.501 29.4998 2.57141 24.6698 2.57141ZM29.2096 17.3693C29.0585 17.4831 28.9696 17.6614 28.9696 17.8507V20.177L27.4948 18.703C27.38 18.5884 27.2261 18.5266 27.0687 18.5266C27.0096 18.5266 26.95 18.5353 26.8917 18.5532C26.1744 18.7737 25.4268 18.8854 24.6698 18.8854H23.1445C18.9789 18.8854 15.5901 15.4966 15.5901 11.3311C15.5901 7.16563 18.979 3.77677 23.1445 3.77677H24.6698C28.8352 3.77677 32.2241 7.16563 32.2241 11.3311C32.2241 13.7256 31.1254 15.9265 29.2096 17.3693Z" fill="#00A887"/>
<path d="M26.6164 9.16584C26.5295 7.90413 25.5124 6.88705 24.2506 6.80008C23.5354 6.75096 22.8528 6.99222 22.3303 7.47996C21.815 7.96096 21.5195 8.6409 21.5195 9.34549C21.5195 9.67835 21.7894 9.94817 22.1222 9.94817C22.455 9.94817 22.7249 9.67835 22.7249 9.34549C22.7249 8.96828 22.8769 8.61866 23.1528 8.36114C23.4285 8.10386 23.7887 7.97651 24.1678 8.00267C24.8325 8.04847 25.3682 8.58419 25.414 9.24876C25.4603 9.91997 25.0199 10.5131 24.3669 10.6592C23.8379 10.7776 23.4685 11.2373 23.4685 11.7771V13.2251C23.4685 13.5579 23.7384 13.8277 24.0712 13.8277C24.404 13.8277 24.6738 13.5579 24.6738 13.2251V11.8253C25.8882 11.5319 26.7029 10.4207 26.6164 9.16584Z" fill="#00A887"/>
<path d="M24.5014 15.1831C24.3893 15.071 24.2338 15.0065 24.0753 15.0065C23.9168 15.0065 23.7613 15.071 23.6492 15.1831C23.5371 15.2952 23.4727 15.4506 23.4727 15.6091C23.4727 15.7683 23.5372 15.9237 23.6492 16.0358C23.7613 16.1479 23.9168 16.2118 24.0753 16.2118C24.2338 16.2118 24.3893 16.1479 24.5014 16.0358C24.6135 15.9231 24.678 15.7683 24.678 15.6091C24.678 15.4506 24.6135 15.2952 24.5014 15.1831Z" fill="#00A887"/>
<path d="M19.1454 21.2544H6.42885C6.09605 21.2544 5.82617 21.5242 5.82617 21.8571C5.82617 22.1899 6.09605 22.4598 6.42885 22.4598H19.1454C19.4782 22.4598 19.748 22.1899 19.748 21.8571C19.748 21.5242 19.4782 21.2544 19.1454 21.2544Z" fill="#00A887"/>
<path d="M19.5697 24.806C19.4577 24.6939 19.3022 24.6294 19.1437 24.6294C18.9852 24.6294 18.8297 24.6939 18.7176 24.806C18.6054 24.9181 18.541 25.0736 18.541 25.2321C18.541 25.3906 18.6055 25.5461 18.7176 25.6582C18.8297 25.7703 18.9852 25.8348 19.1437 25.8348C19.3022 25.8348 19.4577 25.7703 19.5697 25.6582C19.6819 25.5461 19.7464 25.3912 19.7464 25.2321C19.7464 25.0736 19.6818 24.9181 19.5697 24.806Z" fill="#00A887"/>
<path d="M16.7749 24.6294H6.42885C6.09605 24.6294 5.82617 24.8992 5.82617 25.2321C5.82617 25.5649 6.09605 25.8348 6.42885 25.8348H16.7749C17.1077 25.8348 17.3775 25.5649 17.3775 25.2321C17.3775 24.8992 17.1077 24.6294 16.7749 24.6294Z" fill="#00A887"/>
<path d="M15.228 17.8794H6.42885C6.09605 17.8794 5.82617 18.1492 5.82617 18.4821C5.82617 18.8149 6.09605 19.0847 6.42885 19.0847H15.228C15.5608 19.0847 15.8306 18.8149 15.8306 18.4821C15.8306 18.1492 15.5608 17.8794 15.228 17.8794Z" fill="#00A887"/>
</svg>
