<svg width="24" height="24" viewBox="0 0 24 24" fill="none" xmlns="http://www.w3.org/2000/svg">
<path d="M20.4782 5.14282H3.52288C2.52392 5.14282 1.71484 5.91471 1.71484 6.85711V17.1428C1.71484 18.0908 2.52987 18.8571 3.52288 18.8571H20.4782C21.4688 18.8571 22.2863 18.0941 22.2863 17.1428V6.85711C22.2863 5.91638 21.4804 5.14282 20.4782 5.14282ZM20.225 6.28568C19.8556 6.63406 13.4985 12.6298 13.279 12.8368C12.9375 13.1606 12.4835 13.3389 12.0006 13.3389C11.5176 13.3389 11.0636 13.1606 10.7209 12.8357C10.5733 12.6965 4.28639 6.76697 3.77608 6.28568H20.225ZM2.9202 16.9102V7.09044L8.12887 12.003L2.9202 16.9102ZM3.77685 17.7143L8.98347 12.809L9.86977 13.6449C10.4389 14.1846 11.1957 14.4818 12.0006 14.4818C12.8055 14.4818 13.5622 14.1846 14.1302 13.646L15.0176 12.809L20.2243 17.7143H3.77685ZM21.0809 16.9102L15.8722 12.003L21.0809 7.09044V16.9102Z" fill="white"/>
</svg>
