<svg width="28" height="28" viewBox="0 0 28 28" fill="none" xmlns="http://www.w3.org/2000/svg">
<path d="M21.3126 10.5144C19.1952 8.26695 17.9369 6.28854 17.254 5.02456C16.5145 3.65549 16.2722 2.80654 16.2703 2.79978L16.0502 2L15.264 2.337C15.1721 2.37636 12.9999 3.32834 11.7828 5.66764C11.1718 6.84201 11.0496 8.14952 11.0547 9.03953C11.0577 9.55748 10.6758 10.0072 10.1467 10.1089C9.7758 10.1801 9.39423 10.0693 9.1265 9.81201L7.66204 8.40465L7.15826 9.07223C7.10598 9.14152 5.87483 10.7732 5.6507 11.0993C4.5562 12.6915 3.98549 14.5462 4.00028 16.463C4.0201 19.023 5.06768 21.4214 6.95004 23.2165C8.83231 25.0115 11.336 26 14.0001 26C19.5141 26 24 21.6889 24 16.39C24 14.4687 23.0205 12.3271 21.3126 10.5144ZM14.0001 24.5925C11.7251 24.5925 9.5878 23.749 7.98176 22.2174C6.37567 20.6858 5.48187 18.6384 5.46493 16.4525C5.45224 14.8162 5.93908 13.2333 6.87276 11.8751C6.98676 11.7093 7.44406 11.0962 7.84101 10.5671L8.09092 10.8073C8.70567 11.3981 9.5814 11.653 10.4341 11.4891C11.6491 11.2555 12.5261 10.2221 12.5194 9.03183C12.5151 8.2952 12.6112 7.22283 13.0928 6.29707C13.679 5.17038 14.5554 4.43402 15.1644 4.02454C15.7152 5.37085 17.1114 8.15229 20.227 11.4591C20.9211 12.1958 22.5354 14.151 22.5354 16.39C22.5354 20.9129 18.7065 24.5925 14.0001 24.5925Z" fill="#F86A45"/>
<path d="M15.4827 13.9404L10.8906 20.4029H12.5141L17.1062 13.9404H15.4827Z" fill="#F86A45"/>
<path d="M16.4666 16.8948C15.4483 16.8948 14.6797 17.5502 14.6797 18.6951C14.6797 19.8491 15.4482 20.4953 16.4666 20.4953C17.4849 20.4953 18.2534 19.8491 18.2534 18.6951C18.2534 17.5502 17.4849 16.8948 16.4666 16.8948ZM16.4666 19.4982C16.2552 19.4982 16.0439 19.3136 16.0439 18.695C16.0439 18.0765 16.2552 17.8918 16.4666 17.8918C16.6779 17.8918 16.8892 18.0765 16.8892 18.695C16.8892 19.3136 16.6779 19.4982 16.4666 19.4982Z" fill="#F86A45"/>
<path d="M13.3237 15.6484C13.3237 14.5036 12.5552 13.8481 11.5369 13.8481C10.5185 13.8481 9.75 14.5036 9.75 15.6484C9.75 16.8024 10.5185 17.4487 11.5369 17.4487C12.5552 17.4487 13.3237 16.8024 13.3237 15.6484ZM11.1142 15.6484C11.1142 15.0298 11.3255 14.8452 11.5369 14.8452C11.7482 14.8452 11.9596 15.0298 11.9596 15.6484C11.9596 16.2669 11.7482 16.4516 11.5369 16.4516C11.3255 16.4516 11.1142 16.2669 11.1142 15.6484Z" fill="#F86A45"/>
</svg>
