<svg width="28" height="28" viewBox="0 0 28 28" fill="none" xmlns="http://www.w3.org/2000/svg">
<path d="M19.9716 5.05128L7.60588 9.73693H4.24995C3.00998 9.73693 2 10.6938 2 11.8685V14.4737C2 15.5897 2.92498 16.3685 4.24995 16.3685H5.09994L6.00792 22.3899C6.06091 22.7404 6.37691 23 6.7499 23H9.74984C9.96383 23 10.1668 22.9138 10.3098 22.7632C10.4518 22.6125 10.5198 22.4117 10.4958 22.2099L9.90584 17.24L19.9706 21.0541C20.0616 21.0882 20.1556 21.1053 20.2496 21.1053C20.3966 21.1053 20.5446 21.0636 20.6706 20.9831C20.8766 20.8504 20.9996 20.6306 20.9996 20.3948V5.71065C20.9996 5.47475 20.8766 5.25497 20.6706 5.12233C20.4636 4.9897 20.2016 4.96318 19.9716 5.05128ZM3.49997 14.4737V11.8685C3.49997 11.4772 3.83696 11.158 4.24995 11.158H6.9999V14.9474H4.24995C3.90796 14.9474 3.49997 14.865 3.49997 14.4737ZM8.91086 21.579H7.39989L6.6149 16.3685H7.60588L8.32687 16.6413L8.91086 21.579ZM19.4996 19.346L9.32385 15.4893C9.28085 15.4704 9.23985 15.4505 9.19285 15.4391L8.49986 15.1767V10.9287L19.4996 6.76032V19.346Z" fill="#F86A45"/>
<path d="M23.2194 11.0028L25.7193 9.10809C26.0423 8.86272 26.0953 8.41557 25.8363 8.10862C25.5763 7.80357 25.1053 7.75431 24.7813 7.99778L22.2814 9.89251C21.9584 10.1379 21.9054 10.585 22.1644 10.892C22.3124 11.0663 22.5304 11.1582 22.7504 11.1582C22.9154 11.1582 23.0804 11.107 23.2194 11.0028Z" fill="#F86A45"/>
<path d="M23.2194 16.05C22.8974 15.8066 22.4254 15.8558 22.1644 16.1609C21.9054 16.4669 21.9584 16.915 22.2814 17.1603L24.7813 19.0551C24.9203 19.1593 25.0853 19.2104 25.2503 19.2104C25.4703 19.2104 25.6883 19.1185 25.8363 18.9442C26.0953 18.6382 26.0423 18.1901 25.7193 17.9448L23.2194 16.05Z" fill="#F86A45"/>
<path d="M25.2499 12.8159H22.75C22.336 12.8159 22 13.1342 22 13.5264C22 13.9186 22.336 14.237 22.75 14.237H25.2499C25.6639 14.237 25.9999 13.9186 25.9999 13.5264C25.9999 13.1342 25.6639 12.8159 25.2499 12.8159Z" fill="#F86A45"/>
</svg>
