<svg width="28" height="28" viewBox="0 0 28 28" fill="none" xmlns="http://www.w3.org/2000/svg">
<path d="M16.6236 14.1142V12.982C16.6236 11.6956 15.7909 10.6111 14.6654 10.2989V2.69907C14.6327 1.76662 13.367 1.76733 13.3346 2.69907V10.2989C12.2092 10.6111 11.3765 11.6956 11.3765 12.982V14.1142C8.24998 15.2649 6 18.4119 6 22.1045C6 22.493 6.29793 22.808 6.66543 22.808H10.3567C11.1578 27.0655 16.8437 27.0625 17.6433 22.808H21.3346C21.7021 22.808 22 22.493 22 22.1045C22 18.4119 19.75 15.2649 16.6236 14.1142ZM12.7073 12.982C12.7725 11.1709 15.2281 11.1723 15.2927 12.982V13.7575C14.8717 13.6849 14.44 13.6465 14 13.6465C13.5599 13.6465 13.1283 13.6849 12.7073 13.7575V12.982ZM14 24.6138C12.9223 24.6138 12.0107 23.8502 11.7222 22.808H16.2779C15.9894 23.8502 15.0777 24.6138 14 24.6138ZM7.36381 21.4009C8.35219 12.9926 19.6508 12.9986 20.6362 21.4009H7.36381Z" fill="#F86A45"/>
</svg>
