<svg width="24" height="24" viewBox="0 0 24 24" fill="none" xmlns="http://www.w3.org/2000/svg">
<path d="M11.9996 22.2857C17.6796 22.2857 22.2853 17.6801 22.2853 12C22.2853 6.31996 17.6796 1.71429 11.9996 1.71429C6.31954 1.71429 1.71387 6.31996 1.71387 12C1.71387 17.6801 6.31954 22.2857 11.9996 22.2857Z" fill="#F0F0F0"/>
<path d="M21.6453 15.5758C22.4987 13.2674 22.4987 10.73 21.6453 8.42163H2.35392C1.50052 10.73 1.50052 13.2674 2.35392 15.5758L11.9996 16.4746L21.6453 15.5758Z" fill="#0052B4"/>
<path d="M11.9992 22.2857C16.422 22.2857 20.1932 19.4974 21.6449 15.5759H2.35352C3.80677 19.4974 7.57633 22.2857 11.9992 22.2857Z" fill="#D80027"/>
</svg>
