<svg width="195" height="38" viewBox="0 0 195 38" fill="none" xmlns="http://www.w3.org/2000/svg">
<path d="M18.2344 11.2597C18.5389 10.6943 18.8678 10.1411 19.2211 9.61255C19.5743 10.1411 19.9032 10.6943 20.2077 11.2597C20.3904 11.5916 20.5609 11.9235 20.7193 12.2677C20.8898 12.6242 21.0482 12.9807 21.1943 13.3494C21.4501 14.0132 21.7181 14.7508 21.8764 15.2793C21.913 15.3777 21.9373 15.4883 21.9739 15.5866C22.0226 15.771 22.0835 15.9554 22.1322 16.1398C22.1566 16.2504 22.1931 16.3611 22.2175 16.484C22.2419 16.5823 22.2662 16.6807 22.2906 16.7913C22.3149 16.8773 22.3271 16.9634 22.3515 17.0494C22.3637 17.074 22.3637 17.0986 22.3758 17.1355C22.4002 17.2215 22.4124 17.3076 22.4368 17.4059C22.4611 17.492 22.4733 17.578 22.4855 17.6764C22.4977 17.7624 22.522 17.8484 22.5342 17.9468C22.5464 18.0205 22.5586 18.1066 22.5707 18.1803C22.5829 18.2787 22.6073 18.377 22.6195 18.4876C22.6316 18.5491 22.6316 18.5983 22.6438 18.6597C22.6438 18.6966 22.656 18.7212 22.656 18.7581C22.656 18.7827 22.6682 18.8195 22.6682 18.8441C22.6682 18.8564 22.6682 18.8687 22.6682 18.881C22.6804 18.9302 22.6804 18.9793 22.6925 19.0285C22.6925 19.0408 22.6925 19.0654 22.6925 19.0777C22.7047 19.1269 22.7047 19.176 22.7047 19.2252V19.2375C22.7047 19.2498 22.7047 19.2621 22.7047 19.2744C22.7047 19.2867 22.7047 19.2866 22.7047 19.2989C22.7169 19.3727 22.7169 19.4342 22.7291 19.5079C22.7413 19.5817 22.7413 19.6431 22.7535 19.7169C22.7535 19.7783 22.7656 19.8521 22.7778 19.9136V19.9259C22.79 20.0242 22.79 20.1225 22.8022 20.2209C22.8265 20.5036 22.8387 20.774 22.8509 21.0568C22.8509 21.192 22.8631 21.3272 22.8631 21.4624V21.487C22.8631 21.6222 22.8631 21.7574 22.8631 21.8803V21.8926C22.8631 21.9049 22.8631 21.9172 22.8631 21.9295C22.8509 22.1385 22.7656 22.3475 22.6073 22.495C22.4977 22.6056 22.3637 22.6916 22.2053 22.7285C22.1931 22.7285 22.181 22.7408 22.1688 22.7408C22.1444 22.7408 22.1201 22.7531 22.0835 22.7531C22.0592 22.7531 22.0226 22.7531 21.9982 22.7531H16.4195C16.3952 22.7531 16.3586 22.7531 16.3342 22.7531C16.3099 22.7531 16.2855 22.7408 16.249 22.7408C16.2368 22.7408 16.2246 22.7285 16.2124 22.7285C16.0663 22.6916 15.9323 22.6179 15.8105 22.495C15.6643 22.3475 15.5669 22.1385 15.5547 21.9295C15.5547 21.9172 15.5547 21.9049 15.5547 21.8926C15.5547 21.7574 15.5547 21.6222 15.5547 21.4993V21.4378C15.5547 21.3026 15.5669 21.1674 15.5669 21.0322C15.579 20.7494 15.5912 20.4667 15.6156 20.1963C15.6278 20.0611 15.64 19.9136 15.6521 19.7783C15.6765 19.4956 15.713 19.2252 15.7496 18.9425C15.7618 18.8441 15.7739 18.7458 15.7861 18.6474C15.7983 18.5491 15.8105 18.4508 15.8348 18.3524C15.847 18.2541 15.8714 18.1558 15.8836 18.0697C15.8957 18.0082 15.9079 17.9468 15.9201 17.8853C15.9201 17.8607 15.9323 17.8362 15.9323 17.8116C15.9323 17.787 15.9445 17.7624 15.9445 17.7378C15.9567 17.6764 15.9688 17.6272 15.981 17.5657C15.981 17.5411 15.9932 17.5288 15.9932 17.5043C16.0054 17.4428 16.0176 17.3813 16.0297 17.3199C16.0419 17.2707 16.0541 17.2215 16.0541 17.1724C16.1028 16.9634 16.1515 16.7421 16.2003 16.5332C16.2246 16.4225 16.249 16.3242 16.2855 16.2136C16.2855 16.2013 16.2977 16.1767 16.2977 16.1644C16.3221 16.0783 16.3464 15.98 16.3708 15.894C16.3952 15.7956 16.4317 15.6973 16.4561 15.5989C16.4926 15.4883 16.517 15.3777 16.5535 15.267C16.7119 14.7508 16.9676 14.0255 17.2234 13.374V13.3617C17.3818 12.9807 17.5401 12.6119 17.7107 12.2554C17.8934 11.9235 18.0639 11.5916 18.2344 11.2597ZM18.3806 19.7538C18.3806 19.2989 18.7338 18.9179 19.1845 18.8933C19.1967 18.8933 19.2089 18.8933 19.2332 18.8933C19.2454 18.8933 19.2576 18.8933 19.2698 18.8933C19.7205 18.9179 20.0737 19.2867 20.0737 19.7538V21.0199H20.0859H21.1578C21.1456 20.7863 21.1334 20.5651 21.1212 20.3315C21.1091 20.2455 21.1091 20.1471 21.0969 20.0611C21.0847 19.8644 21.0603 19.6677 21.036 19.4833C21.0238 19.4219 21.0238 19.3481 21.0116 19.2867C20.9994 19.1883 20.9873 19.09 20.9751 18.9793C20.9629 18.9179 20.9629 18.8564 20.9507 18.795C20.9385 18.7458 20.9385 18.6966 20.9264 18.6474C20.9142 18.5737 20.902 18.4999 20.8898 18.4385C20.8776 18.3647 20.8654 18.3033 20.8533 18.2295C20.8289 18.082 20.8045 17.9468 20.768 17.7993C20.7558 17.7255 20.7436 17.6518 20.7193 17.5903C20.6949 17.4551 20.6584 17.3199 20.634 17.1847C20.6097 17.0986 20.5975 17.0126 20.5731 16.9265C20.5488 16.8036 20.5122 16.6684 20.4757 16.5455C20.4635 16.4717 20.4391 16.4102 20.4148 16.3365C20.366 16.1521 20.3173 15.98 20.2564 15.7956C20.2321 15.7342 20.2199 15.6604 20.1955 15.5989C20.159 15.4637 20.1102 15.3285 20.0615 15.1933C20.0006 15.0212 19.9397 14.8614 19.8788 14.6893C19.8057 14.5049 19.7327 14.3205 19.6596 14.1361C19.5256 13.792 19.3794 13.4601 19.2211 13.1159C19.0627 13.4478 18.9165 13.792 18.7826 14.1361C18.7095 14.3205 18.6364 14.5049 18.5633 14.6893C18.5024 14.8614 18.4415 15.0212 18.3806 15.1933C18.3319 15.3285 18.2832 15.4637 18.2466 15.5989C18.1735 15.8448 18.1004 16.0906 18.0274 16.3365C18.003 16.4102 17.9908 16.4717 17.9665 16.5455C17.9299 16.6684 17.8934 16.8036 17.869 16.9265C17.8446 17.0126 17.8325 17.0986 17.8081 17.1847C17.7716 17.3199 17.7472 17.4551 17.7228 17.5903C17.7107 17.6641 17.6985 17.7255 17.6741 17.7993C17.6498 17.9345 17.6132 18.082 17.5889 18.2295C17.5767 18.3033 17.5645 18.377 17.5523 18.4385C17.5401 18.5122 17.528 18.586 17.5158 18.6474C17.5036 18.6966 17.5036 18.7458 17.4914 18.795C17.4792 18.8564 17.4671 18.9179 17.4671 18.9793C17.4549 19.0777 17.4427 19.176 17.4305 19.2867C17.4183 19.3481 17.4183 19.4219 17.4061 19.4833C17.3818 19.68 17.3696 19.8767 17.3452 20.0611C17.3331 20.1471 17.3331 20.2455 17.3209 20.3315C17.3087 20.5651 17.2965 20.7863 17.2843 21.0199H18.3562H18.3684V19.7538H18.3806Z" fill="#00A887"/>
<path d="M3.48367 0.0368771C3.81254 -0.0122924 4.14142 -0.0122924 4.4703 0.0368771C4.51902 0.0491695 4.57992 0.049171 4.62865 0.0614634C4.93316 0.110633 5.23768 0.172094 5.54219 0.233556C5.68836 0.270433 5.82235 0.295016 5.96852 0.331893C6.1025 0.368771 6.23649 0.393358 6.37048 0.430235C10.4875 1.49967 14.2757 3.78605 17.1625 6.98207L17.1747 6.99436C17.6619 7.53523 18.137 8.11297 18.5633 8.703L18.612 8.77676L17.6254 10.3133L17.5158 10.1658C17.5036 10.1535 17.5036 10.1412 17.4914 10.1289C17.467 10.1043 17.4549 10.0675 17.4305 10.0429C17.0407 9.48972 16.6266 8.94885 16.1759 8.43257C13.5327 5.37177 10.0125 3.18373 6.13905 2.15117C6.01724 2.11429 5.89543 2.0897 5.77363 2.05283C5.65182 2.01595 5.53001 1.99137 5.40821 1.96678C5.39603 1.96678 5.38385 1.96678 5.37167 1.95449C5.29858 1.9422 5.23768 1.9299 5.1646 1.90532C5.09151 1.89303 5.03061 1.88073 4.95752 1.86844C4.75045 1.83156 4.54338 1.78239 4.33631 1.75781C3.70292 1.64718 3.06952 1.83156 2.57012 2.24951C2.07071 2.67974 1.77838 3.30665 1.77838 3.97044V12.1817C1.77838 17.0618 5.71272 21.02 10.5363 21.02C10.9991 21.02 11.3889 21.401 11.3889 21.8804C11.3889 22.3598 11.0113 22.7409 10.5363 22.7409C8.79443 22.7409 7.36929 24.1668 7.36929 25.9369V33.9761C7.36929 34.0622 7.36929 34.1482 7.38147 34.2343C7.38147 34.2711 7.39365 34.3203 7.40583 34.3572C7.41801 34.3941 7.41801 34.4432 7.43019 34.4801C7.43019 34.4801 7.43019 34.4801 7.43019 34.4924C7.44237 34.5293 7.44237 34.5539 7.45456 34.5908C7.46674 34.6153 7.46674 34.6522 7.47892 34.6768C7.6129 35.107 7.88088 35.4881 8.2463 35.7831C8.78225 36.2011 9.46436 36.3486 10.1099 36.1888C10.1343 36.1888 10.1465 36.1765 10.1708 36.1765C10.183 36.1765 10.1952 36.1765 10.2074 36.1642C10.2561 36.1519 10.2926 36.1396 10.3414 36.1273C10.3779 36.115 10.4266 36.1027 10.4632 36.0904C10.5241 36.0781 10.5728 36.0535 10.6337 36.0413C10.6946 36.0167 10.7677 36.0044 10.8286 35.9798C10.8408 35.9798 10.853 35.9675 10.8651 35.9675C10.9504 35.9429 11.0357 35.9183 11.1087 35.8937C11.1453 35.8815 11.1818 35.8692 11.2184 35.8569C11.2915 35.8323 11.3524 35.8077 11.4254 35.7831C11.4498 35.7708 11.4863 35.7585 11.5107 35.7585C11.5838 35.7339 11.6569 35.7094 11.73 35.6725C11.7543 35.6602 11.7665 35.6602 11.7787 35.6479C11.8639 35.611 11.9492 35.5741 12.0467 35.5373C12.1441 35.5004 12.2415 35.4512 12.339 35.4143C12.4364 35.3775 12.5339 35.3283 12.6313 35.2914C12.6435 35.2914 12.6557 35.2791 12.6557 35.2791C12.741 35.2422 12.8384 35.1931 12.9237 35.1562C13.0211 35.107 13.1186 35.0579 13.216 35.0087C13.3134 34.9595 13.4109 34.9104 13.4962 34.8612C13.5936 34.812 13.6789 34.7628 13.7763 34.7014C13.8738 34.6522 13.959 34.5907 14.0565 34.5416C14.1295 34.4924 14.2026 34.4555 14.2757 34.4064C14.495 34.2711 14.7142 34.1236 14.9213 33.9638C15.0796 33.8532 15.238 33.7303 15.3963 33.6197C15.4451 33.5828 15.506 33.5336 15.5547 33.4967C15.6521 33.4107 15.7618 33.3369 15.8592 33.2509C15.9566 33.1648 16.0541 33.0788 16.1515 32.9927C16.249 32.9067 16.3464 32.8206 16.4439 32.7223C16.5413 32.6363 16.6388 32.5379 16.724 32.4519C16.7606 32.415 16.7849 32.3904 16.8215 32.3535C16.858 32.329 16.8824 32.2921 16.9189 32.2552C17.0407 32.1323 17.1625 31.9971 17.2843 31.8741C17.3331 31.8127 17.394 31.7512 17.4427 31.6898C17.8203 31.2595 18.1735 30.817 18.5024 30.3376C18.5389 30.2884 18.5755 30.2393 18.612 30.2024C18.6486 30.1655 18.6973 30.1286 18.746 30.0917C18.8069 30.0549 18.8678 30.0303 18.9409 30.0057C19.0262 29.9811 19.1114 29.9688 19.1967 29.9688C19.4281 29.9688 19.6352 30.0549 19.7936 30.2147C19.8301 30.2515 19.8666 30.2884 19.891 30.3376C19.9275 30.3868 19.9519 30.4236 19.9884 30.4728C20.025 30.522 20.0493 30.5589 20.0859 30.608C20.1468 30.6941 20.2199 30.7801 20.2808 30.8662C20.3417 30.9522 20.4148 31.0383 20.4757 31.1243C20.6827 31.3824 20.8898 31.6283 21.1091 31.8618C21.1578 31.9233 21.2187 31.9848 21.2796 32.0462C21.3405 32.1077 21.3892 32.1692 21.4501 32.2183C21.5597 32.329 21.6816 32.4519 21.7912 32.5625C21.9495 32.71 22.1079 32.8575 22.2662 33.005C22.3515 33.0788 22.4246 33.1525 22.5098 33.214C22.5951 33.2878 22.6804 33.3492 22.7534 33.423C22.8022 33.4599 22.8631 33.509 22.9118 33.5459C23.1798 33.7549 23.4477 33.9515 23.7279 34.1359C23.8375 34.2097 23.9471 34.2834 24.069 34.3572C24.1542 34.4064 24.2395 34.4678 24.3247 34.517C24.3369 34.5293 24.3491 34.5293 24.3491 34.5293C24.4344 34.5785 24.5318 34.6399 24.6171 34.6891C24.7145 34.7383 24.7998 34.7997 24.8972 34.8489C24.9947 34.8981 25.0799 34.9472 25.1774 34.9964C25.2627 35.0456 25.3601 35.0947 25.4576 35.1316L25.4697 35.1439C25.555 35.1808 25.6403 35.23 25.7255 35.2668C25.7377 35.2791 25.7499 35.2791 25.7621 35.2791C25.8473 35.316 25.9448 35.3652 26.03 35.402C26.0422 35.402 26.0422 35.4143 26.0544 35.4143C26.1518 35.4512 26.2493 35.5004 26.3467 35.5373C26.432 35.5741 26.5173 35.611 26.6147 35.6479C26.6269 35.6602 26.6513 35.6602 26.6634 35.6725C26.7243 35.6971 26.7852 35.7217 26.8583 35.7462C26.8949 35.7585 26.9436 35.7831 26.9801 35.7954C27.0289 35.8077 27.0776 35.8323 27.1263 35.8446C27.1872 35.8692 27.2481 35.8815 27.2968 35.906C27.3943 35.9429 27.4795 35.9675 27.577 35.9921C27.6257 36.0044 27.6744 36.0167 27.7231 36.0413C27.7962 36.0658 27.8693 36.0781 27.9424 36.1027C27.9668 36.1027 27.9789 36.115 28.0033 36.115C28.0642 36.1273 28.1251 36.1519 28.1738 36.1642C28.186 36.1642 28.1982 36.1765 28.2104 36.1765C28.2226 36.1765 28.2469 36.1888 28.2591 36.1888C28.9047 36.3486 29.5868 36.2133 30.1227 35.7831C30.4882 35.5004 30.7561 35.1193 30.8901 34.6768C30.9023 34.6522 30.9023 34.6153 30.9145 34.5908C30.9267 34.5539 30.9267 34.5293 30.9388 34.4924C30.9388 34.4924 30.9388 34.4924 30.9388 34.4801C30.951 34.4432 30.951 34.3941 30.9632 34.3572C30.9754 34.3203 30.9754 34.2711 30.9876 34.2343C30.9997 34.1482 30.9997 34.0622 30.9997 33.9761V25.9246C30.9997 24.1668 29.5746 22.7286 27.8328 22.7286C27.3577 22.7286 26.9801 22.3475 26.9801 21.8681C26.9801 21.401 27.3577 21.0077 27.8328 21.0077C32.6685 21.0077 36.5907 17.0372 36.5907 12.1695V3.95814C36.5907 3.29436 36.2983 2.66745 35.7989 2.23721C35.3117 1.81927 34.6661 1.63489 34.0327 1.74552C33.8257 1.78239 33.6186 1.81927 33.4115 1.85615C33.3384 1.86844 33.2775 1.88073 33.2044 1.89303C33.1314 1.90532 33.0705 1.91761 32.9974 1.9422C32.9852 1.9422 32.973 1.9422 32.9608 1.95449C32.839 1.97907 32.7172 2.01595 32.5954 2.04054C32.4736 2.06512 32.3518 2.102 32.23 2.13887C28.3444 3.18373 24.8363 5.37177 22.1931 8.42028C21.7425 8.93656 21.3283 9.47743 20.9385 10.0306C20.9142 10.0552 20.902 10.092 20.8776 10.1166C20.8654 10.1289 20.8654 10.1412 20.8533 10.1535L20.7436 10.301L19.757 8.76447L19.8057 8.69071C20.2442 8.10068 20.7071 7.52294 21.1943 6.98207L21.2065 6.96978C24.0933 3.77376 27.8693 1.48738 31.9986 0.417942C32.1325 0.381064 32.2665 0.344189 32.4005 0.319604C32.5467 0.282727 32.6807 0.25814 32.8268 0.221263C33.1314 0.159801 33.4359 0.0983398 33.7404 0.0491703C33.7891 0.0368779 33.85 0.0368764 33.8987 0.024584C33.9353 0.024584 33.984 0.0122946 34.0205 0.0122946C34.0571 0.0122946 34.1058 1.50108e-06 34.1423 1.50108e-06C34.1667 1.50108e-06 34.1911 1.50108e-06 34.2154 1.50108e-06C34.2763 1.50108e-06 34.3372 1.50108e-06 34.3981 1.50108e-06C34.4103 1.50108e-06 34.4225 1.50108e-06 34.4225 1.50108e-06C34.459 1.50108e-06 34.4834 1.50108e-06 34.52 1.50108e-06C34.5565 1.50108e-06 34.6052 2.25117e-06 34.6418 0.0122946C34.727 0.0122946 34.8001 0.0245848 34.8854 0.0368771C34.9219 0.0368771 34.9706 0.049171 35.0072 0.0614634C35.1168 0.0737558 35.2142 0.0983405 35.3117 0.122925C35.4091 0.14751 35.5188 0.184385 35.6162 0.20897C35.7015 0.233554 35.7746 0.270433 35.8476 0.295018C35.9573 0.344187 36.0547 0.393358 36.1522 0.442528C36.4079 0.577744 36.6394 0.737544 36.8586 0.92193C37.7478 1.67176 38.2472 2.77808 38.2472 3.94586V12.1572C38.2472 16.7176 35.2752 20.8233 30.9876 22.2123C32.0473 23.1465 32.6563 24.4864 32.6563 25.9123V33.9761C32.6563 34.1728 32.6441 34.3572 32.6198 34.5539C32.6076 34.6645 32.5832 34.7751 32.5589 34.8858C32.5467 34.9226 32.5345 34.9595 32.5345 34.9964C32.5101 35.107 32.4736 35.2054 32.4371 35.316C32.4371 35.316 32.4371 35.316 32.4371 35.3283C32.4005 35.4143 32.3762 35.5004 32.3396 35.5864C32.0838 36.1765 31.6697 36.705 31.1459 37.123C30.1958 37.8605 29.0021 38.131 27.8328 37.8605C27.8206 37.8605 27.8206 37.8605 27.8084 37.8605C27.8084 37.8605 27.8084 37.8605 27.7962 37.8605C27.7475 37.8482 27.6866 37.8359 27.6379 37.8236C27.5892 37.8114 27.5404 37.7991 27.4795 37.7868C27.3699 37.7622 27.2725 37.7253 27.1628 37.7007C27.0532 37.6638 26.9558 37.6393 26.8461 37.6024C26.7487 37.5655 26.6391 37.5409 26.5416 37.504H26.5294C26.432 37.4672 26.3224 37.4303 26.2249 37.3934C26.1275 37.3565 26.03 37.3197 25.9448 37.2828C25.9326 37.2828 25.9204 37.2705 25.9082 37.2705C25.8108 37.2336 25.7133 37.1967 25.6159 37.1476C25.5428 37.123 25.4819 37.0861 25.4088 37.0615C25.3601 37.0369 25.2992 37.0124 25.2505 36.9878C25.2383 36.9878 25.2261 36.9755 25.2139 36.9755C25.1287 36.9386 25.0312 36.8894 24.946 36.8526H24.9338C24.8363 36.8034 24.7389 36.7665 24.6536 36.7173C24.5562 36.6682 24.4587 36.619 24.3613 36.5698C24.2638 36.5207 24.1664 36.4715 24.069 36.4223C23.9715 36.3731 23.8741 36.324 23.7888 36.2625C23.3016 35.9798 22.8144 35.6725 22.3515 35.3406C22.1931 35.23 22.047 35.1193 21.9008 35.0087C21.8399 34.9595 21.7668 34.9104 21.7059 34.8612C21.5841 34.7628 21.4501 34.6522 21.3283 34.5539C21.2674 34.5047 21.2065 34.4432 21.1456 34.3941C20.9142 34.1974 20.6949 33.9884 20.4757 33.7795C20.4026 33.7057 20.3295 33.6319 20.2564 33.5705C20.1955 33.509 20.1468 33.4599 20.0859 33.3984C19.7448 33.0419 19.4281 32.6854 19.1114 32.2921C18.8069 32.6731 18.478 33.0419 18.137 33.3984C18.0761 33.4599 18.0274 33.509 17.9665 33.5705C17.8934 33.6442 17.8203 33.718 17.7472 33.7795C17.5279 33.9884 17.3087 34.1974 17.0773 34.3941C17.0164 34.4432 16.9555 34.5047 16.8946 34.5539C16.7727 34.6645 16.6388 34.7628 16.517 34.8612C16.4561 34.9104 16.3952 34.9595 16.3221 35.0087C16.0663 35.2054 15.7983 35.3898 15.5303 35.5741C15.4451 35.6356 15.3476 35.6971 15.2623 35.7585C15.1771 35.82 15.0796 35.8692 14.9944 35.9306C14.8969 35.9921 14.8117 36.0413 14.7142 36.1027C14.6168 36.1519 14.5315 36.2133 14.4341 36.2625C14.361 36.2994 14.2879 36.3486 14.2026 36.3854C14.093 36.4469 13.9712 36.5084 13.8616 36.5698C13.7641 36.619 13.6789 36.6682 13.5814 36.7173H13.5692C13.484 36.7542 13.3987 36.8034 13.3134 36.8403C13.3013 36.8525 13.2891 36.8526 13.2769 36.8648C13.1916 36.9017 13.1064 36.9509 13.0089 36.9878C12.9967 36.9878 12.9846 37.0001 12.9724 37.0001C12.9237 37.0246 12.8628 37.0492 12.814 37.0738C12.741 37.0984 12.6801 37.1353 12.607 37.1599C12.5095 37.1967 12.4121 37.2459 12.3146 37.2828C12.3025 37.2828 12.2903 37.2951 12.2781 37.2951C12.1806 37.332 12.0954 37.3688 11.9979 37.4057C11.9005 37.4426 11.803 37.4795 11.6934 37.5163C11.6812 37.5163 11.6691 37.5286 11.6691 37.5286C11.5716 37.5655 11.4742 37.5901 11.3767 37.627C11.2793 37.6638 11.1697 37.6884 11.0722 37.7253C10.9626 37.7622 10.8651 37.7868 10.7555 37.8114C10.6581 37.8359 10.5606 37.8605 10.4632 37.8851C10.451 37.8851 10.4388 37.8974 10.4266 37.8974C9.25729 38.1678 8.06359 37.8974 7.1135 37.1599C6.44356 36.6436 5.96852 35.9306 5.74926 35.1316C5.73708 35.0825 5.7249 35.021 5.71272 34.9718C5.68836 34.8489 5.664 34.726 5.63964 34.5908C5.61528 34.4064 5.6031 34.2097 5.6031 34.013V25.9615C5.6031 24.5356 6.21213 23.1957 7.27185 22.2615C2.98426 20.8725 0 16.7668 0 12.2063V3.99502C0 2.82725 0.511587 1.72093 1.40077 0.971099C1.62003 0.786713 1.86364 0.61462 2.10725 0.491697C2.2047 0.442527 2.31432 0.393356 2.41177 0.344187C2.48485 0.307309 2.57012 0.282727 2.6432 0.258142C2.74064 0.221265 2.83809 0.196679 2.94772 0.172094C3.04516 0.147509 3.15479 0.122925 3.25223 0.110632C3.3984 0.0491703 3.44712 0.0491695 3.48367 0.0368771Z" fill="#951BC4"/>
<path d="M48.7827 26.7604C46.8338 24.8428 45.8594 22.4457 45.8594 19.5693C45.8594 16.6929 46.8338 14.2959 48.7827 12.3783C50.7316 10.4607 53.2165 9.51416 56.2373 9.51416C59.6357 9.51416 62.2423 10.7188 64.0451 13.1281C64.2034 13.3248 64.3496 13.5338 64.4836 13.7427C65.324 15.0089 64.4105 16.7175 62.9001 16.7175H62.7174C62.084 16.7175 61.5115 16.3733 61.1705 15.8324C60.9877 15.5497 60.7807 15.2793 60.5371 15.0334C59.4043 13.8902 57.9669 13.3248 56.2251 13.3248C54.4589 13.3248 53.0094 13.9148 51.8766 15.0826C50.7316 16.2504 50.1713 17.7501 50.1713 19.5816C50.1713 21.4869 50.7195 22.9989 51.8279 24.1298C52.9363 25.2607 54.398 25.8261 56.2373 25.8261C58.0644 25.8261 59.5382 25.1869 60.6589 23.9208C60.9147 23.6258 61.1339 23.3185 61.3166 22.9989C61.6577 22.4089 62.2667 22.0155 62.9488 22.0155H63.0706C64.5323 22.0155 65.4702 23.6258 64.715 24.8919C64.5201 25.2115 64.3131 25.5188 64.0938 25.8261C62.1571 28.3584 59.5382 29.6368 56.2495 29.6368C53.2165 29.6245 50.7316 28.678 48.7827 26.7604Z" fill="#951BC4"/>
<path d="M68.2227 27.621V16.6808C68.2227 15.8695 68.8682 15.218 69.6722 15.218H75.7625C77.1754 15.218 78.2717 15.5376 79.0513 16.1645C79.8186 16.8037 80.2084 17.615 80.2084 18.6107C80.2084 19.6679 79.8186 20.4914 79.0513 21.0815C78.6858 21.3519 78.3204 21.524 77.9185 21.5978V21.733C78.4422 21.8436 78.9294 22.028 79.4045 22.2984C80.3911 23.0114 80.8905 23.9456 80.8905 25.1257C80.8905 26.2812 80.4398 27.2277 79.5385 27.9652C78.6371 28.7028 77.3825 29.0715 75.7625 29.0715H69.6722C68.8682 29.0838 68.2227 28.4323 68.2227 27.621ZM71.9865 20.516H75.2143C75.6285 20.516 75.9574 20.3931 76.201 20.1596C76.4446 19.926 76.5664 19.631 76.5664 19.2868C76.5664 18.9426 76.4446 18.6476 76.201 18.414C75.9574 18.1805 75.6285 18.0576 75.2143 18.0576H71.9865V20.516ZM71.9865 26.232H75.4945C75.9574 26.232 76.3471 26.0845 76.6517 25.8018C76.9562 25.5067 77.1145 25.1626 77.1145 24.7446C77.1145 24.3267 76.9562 23.9702 76.6517 23.6875C76.3471 23.3924 75.9574 23.2572 75.4945 23.2572H71.9865V26.232Z" fill="#951BC4"/>
<path d="M84.511 27.3629C83.0858 25.9369 82.3672 24.2037 82.3672 22.1509C82.3672 20.0981 83.0858 18.3648 84.511 16.9389C85.9361 15.513 87.6901 14.8 89.773 14.8C91.8925 14.8 93.6221 15.5253 94.9985 16.9266C96.3384 18.2788 96.8134 20.0366 96.984 21.3027C97.0936 22.1755 96.4236 22.9622 95.5466 22.9622H86.2772C86.4233 23.8718 86.8253 24.634 87.4952 25.2732C88.1652 25.9124 88.9204 26.2197 89.7852 26.2197C90.7353 26.2197 91.5514 25.9492 92.2335 25.4084C92.8304 24.8798 93.5977 24.5971 94.4017 24.5971H94.4504C95.705 24.5971 96.3871 26.0722 95.5832 27.0433C94.1459 28.6781 92.2213 29.4894 89.7852 29.4894C87.6901 29.4894 85.9361 28.7888 84.511 27.3629ZM86.4112 20.6512H93.0131C92.8669 19.926 92.5015 19.3114 91.9168 18.8197C91.3321 18.3157 90.6135 18.0698 89.773 18.0698C88.9326 18.0698 88.2139 18.3157 87.617 18.8074C87.0324 19.2991 86.6182 19.9137 86.4112 20.6512Z" fill="#951BC4"/>
<path d="M134.781 27.3629C133.355 25.9369 132.637 24.2037 132.637 22.1509C132.637 20.0981 133.355 18.3648 134.781 16.9389C136.206 15.513 137.96 14.8 140.043 14.8C142.162 14.8 143.892 15.5253 145.268 16.9266C146.608 18.2788 147.083 20.0366 147.253 21.3027C147.363 22.1755 146.693 22.9622 145.816 22.9622H136.547C136.693 23.8718 137.095 24.634 137.765 25.2732C138.435 25.9124 139.19 26.2197 140.055 26.2197C141.005 26.2197 141.821 25.9492 142.503 25.4084C143.1 24.8798 143.867 24.5971 144.671 24.5971H144.72C145.975 24.5971 146.657 26.0722 145.853 27.0433C144.415 28.6781 142.491 29.4894 140.055 29.4894C137.972 29.4894 136.206 28.7888 134.781 27.3629ZM136.681 20.6512H143.283C143.136 19.926 142.771 19.3114 142.186 18.8197C141.602 18.3157 140.883 18.0698 140.043 18.0698C139.202 18.0698 138.483 18.3157 137.887 18.8074C137.302 19.2991 136.9 19.9137 136.681 20.6512Z" fill="#00A887"/>
<path d="M97.9922 16.9881V16.7177C97.9922 15.8941 98.6499 15.218 99.4782 15.218H109.442C110.258 15.218 110.928 15.8941 110.928 16.7177V16.9881C110.928 17.8117 110.258 18.4878 109.442 18.4878H106.348V27.5842C106.348 28.4077 105.69 29.0838 104.862 29.0838H104.058C103.242 29.0838 102.572 28.4077 102.572 27.5842V18.4878H99.4782C98.6499 18.4878 97.9922 17.8117 97.9922 16.9881Z" fill="#951BC4"/>
<path d="M111.195 30.9891V26.7482C111.195 25.9369 111.841 25.2854 112.645 25.2854H113.351L116.969 11.1738C117.139 10.51 117.724 10.0552 118.406 10.0552H124.594C125.264 10.0552 125.861 10.5223 126.031 11.1738L129.649 25.2854H130.355C131.159 25.2854 131.805 25.9369 131.805 26.7482V30.9891C131.805 31.8127 131.135 32.4888 130.319 32.4888H129.381C128.565 32.4888 127.895 31.8127 127.895 30.9891V29.0838H115.093V30.9891C115.093 31.8127 114.423 32.4888 113.607 32.4888H112.669C111.853 32.4888 111.195 31.8127 111.195 30.9891ZM117.249 25.2854H125.739L122.779 13.8658H120.221L117.249 25.2854Z" fill="#00A887"/>
<path d="M149.234 27.3784V16.4997C149.234 15.6761 149.892 15 150.72 15H151.524C152.34 15 153.01 15.6761 153.01 16.4997V20.1751H154.63L157.822 15.6392C158.102 15.2458 158.553 15.0123 159.028 15.0123H159.588C160.794 15.0123 161.488 16.3767 160.806 17.3724L158.004 21.4043L161.354 26.5671C162 27.5628 161.293 28.8781 160.112 28.8781H159.344C158.845 28.8781 158.37 28.62 158.102 28.202L155.032 23.4449H153.01V27.3784C153.01 28.202 152.353 28.8781 151.524 28.8781H150.72C149.892 28.8781 149.234 28.2143 149.234 27.3784Z" fill="#00A887"/>
<path d="M165.351 27.3629C163.914 25.9369 163.195 24.2037 163.195 22.1509C163.195 20.0981 163.914 18.3648 165.351 16.9389C166.789 15.513 168.579 14.8 170.735 14.8C172.867 14.8 174.669 15.513 176.107 16.9389C177.556 18.3648 178.275 20.0981 178.275 22.1509C178.275 24.2037 177.556 25.9369 176.107 27.3629C174.657 28.7888 172.867 29.5017 170.735 29.5017C168.579 29.4894 166.789 28.7888 165.351 27.3629ZM168.153 19.213C167.446 19.9751 167.105 20.9585 167.105 22.1509C167.105 23.3433 167.459 24.3266 168.153 25.0888C168.859 25.8509 169.712 26.232 170.735 26.232C171.758 26.232 172.623 25.8509 173.317 25.0888C174.012 24.3266 174.365 23.3433 174.365 22.1509C174.365 20.9585 174.012 19.9751 173.317 19.213C172.611 18.4509 171.758 18.0698 170.735 18.0698C169.712 18.0698 168.847 18.4509 168.153 19.213Z" fill="#00A887"/>
<path d="M180.445 32.7591V16.7176C180.445 15.894 181.103 15.2179 181.931 15.2179H182.735C183.551 15.2179 184.221 15.8817 184.221 16.7176V16.988H184.355C184.648 16.6069 184.989 16.2505 185.403 15.9063C186.377 15.181 187.461 14.8123 188.667 14.8123C190.458 14.8123 191.968 15.4883 193.186 16.8405C194.404 18.1927 195.001 19.9628 195.001 22.1508C195.001 24.3388 194.392 26.1212 193.186 27.4611C191.968 28.8133 190.47 29.4894 188.667 29.4894C187.461 29.4894 186.377 29.1329 185.403 28.4076C184.989 28.0634 184.635 27.707 184.355 27.3259H184.221V32.7591C184.221 33.5827 183.564 34.2588 182.735 34.2588H181.931C181.103 34.2465 180.445 33.5827 180.445 32.7591ZM185.184 19.1515C184.538 19.8644 184.209 20.8724 184.209 22.1508C184.209 23.4415 184.538 24.4372 185.184 25.1501C185.829 25.8631 186.67 26.2196 187.717 26.2196C188.704 26.2196 189.508 25.8631 190.141 25.1378C190.774 24.4126 191.079 23.4169 191.079 22.1508C191.079 20.8847 190.762 19.889 190.141 19.1638C189.508 18.4385 188.704 18.082 187.717 18.082C186.67 18.0697 185.829 18.4262 185.184 19.1515Z" fill="#00A887"/>
</svg>
