<svg width="28" height="28" viewBox="0 0 28 28" fill="none" xmlns="http://www.w3.org/2000/svg">
<path d="M14 26C7.38293 26 2 20.6171 2 14C2 7.38293 7.38293 2 14 2C20.6171 2 26 7.38293 26 14C26 20.6171 20.6171 26 14 26ZM14 3.5C8.21002 3.5 3.5 8.21002 3.5 14C3.5 19.79 8.21002 24.5 14 24.5C19.79 24.5 24.5 19.79 24.5 14C24.5 8.21002 19.79 3.5 14 3.5Z" fill="#3E3E3E"/>
<path d="M9.84009 19C9.62488 19 9.40968 18.9184 9.24618 18.7536C8.91794 18.4254 8.91794 17.8932 9.24618 17.565L17.565 9.24617C17.8934 8.91794 18.4256 8.91794 18.7538 9.24617C19.0821 9.57441 19.0821 10.1066 18.7538 10.435L10.4348 18.7536C10.2691 18.9184 10.0541 19 9.84009 19Z" fill="#3E3E3E"/>
<path d="M18.1587 19C17.9437 19 17.7285 18.9183 17.565 18.7536L9.24633 10.4351C8.91789 10.1068 8.91789 9.57462 9.24633 9.24635C9.57457 8.91788 10.1067 8.91788 10.435 9.24635L18.7537 17.5659C19.0821 17.8941 19.0821 18.4264 18.7537 18.7546C18.5891 18.9183 18.3739 19 18.1587 19Z" fill="#3E3E3E"/>
</svg>
