<svg width="12" height="12" viewBox="0 0 12 12" fill="none" xmlns="http://www.w3.org/2000/svg">
<path d="M11.1264 4.76287C11.091 4.6485 10.9967 4.56514 10.8832 4.54787L7.69458 4.06213L6.26854 1.0332C6.2178 0.925371 6.11303 0.857117 5.99834 0.857117C5.88363 0.857117 5.77889 0.925371 5.72812 1.0332L4.30203 4.06213L1.11347 4.54787C0.999988 4.56514 0.905669 4.6485 0.870232 4.76285C0.834774 4.87722 0.864346 5.00276 0.94649 5.08668L3.2537 7.44439L2.70912 10.7736C2.68971 10.8921 2.7362 11.0118 2.82899 11.0825C2.88148 11.1225 2.94366 11.1428 3.00614 11.1428C3.05411 11.1428 3.10224 11.1308 3.14632 11.1065L5.99832 9.5347L8.85021 11.1065C8.95176 11.1625 9.07476 11.1532 9.16756 11.0825C9.26035 11.0118 9.30685 10.892 9.28747 10.7735L8.74271 7.44439L11.0502 5.08666C11.1323 5.00276 11.1619 4.87722 11.1264 4.76287Z" fill="#E4E4E4"/>
</svg>
