<svg width="24" height="24" viewBox="0 0 24 24" fill="none" xmlns="http://www.w3.org/2000/svg">
<path d="M12.001 6C8.27492 6 4.55429 8.00156 1.71429 11.9993C7.3943 20.0002 16.6078 20.0002 22.2878 11.9993C19.4478 8.00156 15.7272 6 12.001 6ZM12.001 16.0024C9.72794 16.0024 7.87864 14.2096 7.87864 11.9993C7.87864 9.789 9.72794 7.9908 12.001 7.9908C14.2742 7.9908 16.118 9.789 16.118 11.9993C16.118 14.2096 14.2742 16.0024 12.001 16.0024Z" fill="#AFB3BB"/>
<path d="M12.0008 14.0005C13.1375 14.0005 14.059 13.1045 14.059 11.9992C14.059 10.8938 13.1375 9.9978 12.0008 9.9978C10.864 9.9978 9.94252 10.8938 9.94252 11.9992C9.94252 13.1045 10.864 14.0005 12.0008 14.0005Z" fill="#AFB3BB"/>
</svg>
