<svg width="24" height="24" viewBox="0 0 24 24" fill="none" xmlns="http://www.w3.org/2000/svg">
<path d="M8.3422 15.1431H8.34314C8.34393 15.1431 8.34471 15.143 8.3455 15.143H19.2724C19.5414 15.143 19.7779 14.9568 19.8518 14.6871L22.2625 5.88708C22.3145 5.69737 22.2781 5.49341 22.1643 5.33594C22.0503 5.17847 21.8722 5.08582 21.6831 5.08582H6.95227L6.52145 3.06375C6.46008 2.77615 6.21556 2.57153 5.93305 2.57153H2.31697C1.98409 2.57153 1.71429 2.85292 1.71429 3.2001C1.71429 3.54729 1.98409 3.82868 2.31697 3.82868H5.44965C5.52593 4.18699 7.51132 13.5052 7.62558 14.0413C6.98507 14.3317 6.53573 14.9978 6.53573 15.7715C6.53573 16.8113 7.34684 17.6572 8.34377 17.6572H19.2724C19.6052 17.6572 19.875 17.3759 19.875 17.0287C19.875 16.6815 19.6052 16.4001 19.2724 16.4001H8.34377C8.01151 16.4001 7.74109 16.1181 7.74109 15.7715C7.74109 15.4255 8.01057 15.1439 8.3422 15.1431V15.1431ZM20.8841 6.34296L18.8177 13.8858H8.82717L7.22002 6.34296H20.8841Z" fill="#fff"/>
<path d="M7.74109 19.5429C7.74109 20.5827 8.5522 21.4287 9.54913 21.4287C10.5461 21.4287 11.3572 20.5827 11.3572 19.5429C11.3572 18.5032 10.5461 17.6572 9.54913 17.6572C8.5522 17.6572 7.74109 18.5032 7.74109 19.5429ZM9.54913 18.9144C9.88139 18.9144 10.1518 19.1964 10.1518 19.5429C10.1518 19.8895 9.88139 20.1715 9.54913 20.1715C9.21687 20.1715 8.94645 19.8895 8.94645 19.5429C8.94645 19.1964 9.21687 18.9144 9.54913 18.9144Z" fill="#fff"/>
<path d="M16.2593 19.5429C16.2593 20.5827 17.0704 21.4287 18.0674 21.4287C19.0643 21.4287 19.8754 20.5827 19.8754 19.5429C19.8754 18.5032 19.0643 17.6572 18.0674 17.6572C17.0704 17.6572 16.2593 18.5032 16.2593 19.5429ZM18.0674 18.9144C18.3996 18.9144 18.6701 19.1964 18.6701 19.5429C18.6701 19.8895 18.3996 20.1715 18.0674 20.1715C17.7351 20.1715 17.4647 19.8895 17.4647 19.5429C17.4647 19.1964 17.7351 18.9144 18.0674 18.9144Z" fill="#fff"/>
</svg>
