<svg width="24" height="24" viewBox="0 0 24 24" fill="none" xmlns="http://www.w3.org/2000/svg">
<path d="M22.2212 14.4184L18.6032 6.774C18.5345 6.62886 18.4145 6.51456 18.2682 6.45876L13.8077 4.73089C13.8679 2.88572 11.6619 2.00046 10.5735 3.47805C10.5668 3.47544 6.11427 1.75069 6.11897 1.75253C5.83366 1.64238 5.5126 1.77674 5.37527 2.067L1.77874 9.66794C1.73177 9.76727 1.71164 9.88375 1.71457 9.97685C1.72498 12.4445 3.61417 14.4485 5.93507 14.4485C8.25666 14.4485 10.1463 12.4433 10.1556 9.97467C10.1583 9.87879 10.1368 9.76274 10.0901 9.66516L7.14529 3.51521L10.1907 4.69492C10.1982 5.19767 10.3852 5.6692 10.7201 6.02558C10.9176 6.2358 11.1499 6.38709 11.3973 6.47962V18.3393H11.2904C9.57809 18.3393 8.18503 19.8219 8.18503 21.6443C8.18503 21.9985 8.45486 22.2857 8.7877 22.2857H15.2122C15.5451 22.2857 15.8149 21.9985 15.8149 21.6443C15.8149 19.8219 14.4219 18.3393 12.7096 18.3393H12.6026V6.47967C12.8948 6.37037 13.156 6.18376 13.3669 5.92535L17.2217 7.41859L13.9106 14.4185C13.8634 14.5182 13.8436 14.6345 13.8464 14.7275C13.8569 17.1945 15.7456 19.198 18.0659 19.198C20.3863 19.198 22.275 17.1944 22.2854 14.7274C22.2888 14.6218 22.2641 14.5088 22.2212 14.4184ZM5.91675 3.77482L8.56957 9.31498H3.29527L5.91675 3.77482ZM5.93507 13.1657C4.47869 13.1657 3.26016 12.0612 2.98019 10.5978H8.88996C8.60999 12.0612 7.39146 13.1657 5.93507 13.1657ZM12.7096 19.6222C13.5467 19.6222 14.2591 20.2013 14.5116 21.0029H9.48837C9.74093 20.2013 10.4533 19.6222 11.2904 19.6222H12.7096ZM11.5724 5.11848C11.3367 4.86755 11.3367 4.45926 11.5724 4.20834C11.9509 3.80548 12.6047 4.09164 12.6047 4.66341C12.6047 5.23539 11.9508 5.52116 11.5724 5.11848ZM18.0651 8.48865L20.7046 14.0655H15.427L18.0651 8.48865ZM18.0659 17.9152C16.6102 17.9152 15.3921 16.8112 15.1121 15.3484H21.0198C20.7398 16.8111 19.5217 17.9152 18.0659 17.9152Z" fill="#fff"/>
</svg>
