<svg width="24" height="24" viewBox="0 0 24 24" fill="none" xmlns="http://www.w3.org/2000/svg">
<path d="M12.0477 1.71423C12.0421 1.71975 12.0309 1.71975 12.014 1.71975C6.33374 1.71975 1.71429 6.25587 1.71429 11.8337C1.71429 14.11 2.50572 16.3202 3.95386 18.1005L2.4552 21.5177C2.33172 21.7988 2.46643 22.124 2.74707 22.2398C2.84811 22.2839 2.96037 22.2949 3.06701 22.2784L8.56207 21.3303C9.66221 21.7217 10.8185 21.9201 11.986 21.9146C17.6663 21.9146 22.2857 17.3785 22.2857 11.8006C22.2969 6.23933 17.7112 1.71975 12.0477 1.71423ZM11.9916 20.8178C10.9083 20.8178 9.83621 20.6249 8.82027 20.2501C8.72485 20.2115 8.62382 20.206 8.52278 20.2225L3.89773 21.0162L5.12135 18.2218C5.20554 18.0288 5.17186 17.8029 5.03154 17.643C4.36921 16.8879 3.8416 16.0281 3.47114 15.0966C3.05579 14.0549 2.84249 12.9471 2.84249 11.8282C2.84249 6.85664 6.96239 2.81657 12.0196 2.81657C17.0657 2.80555 21.1631 6.81255 21.1687 11.7676C21.1687 11.7786 21.1687 11.7896 21.1687 11.8006C21.1687 16.7777 17.0488 20.8178 11.9916 20.8178Z" fill="#262028"/>
<path d="M11.5536 9.7998H8.52266C8.21395 9.7998 7.96136 10.0478 7.96136 10.351C7.96136 10.6541 8.21395 10.9021 8.52266 10.9021H11.5536C11.8623 10.9021 12.1149 10.6541 12.1149 10.351C12.1149 10.0478 11.8623 9.7998 11.5536 9.7998Z" fill="#262028"/>
<path d="M15.4827 12.5558H8.52266C8.21395 12.5558 7.96136 12.8038 7.96136 13.107C7.96136 13.4101 8.21395 13.6581 8.52266 13.6581H15.4827C15.7914 13.6581 16.044 13.4101 16.044 13.107C16.044 12.8038 15.7914 12.5558 15.4827 12.5558Z" fill="#262028"/>
</svg>
