<svg width="24" height="24" viewBox="0 0 24 24" fill="none" xmlns="http://www.w3.org/2000/svg">
<path d="M12.0478 1.71423C12.0422 1.71975 12.0309 1.71975 12.0141 1.71975C6.3338 1.71975 1.71436 6.25587 1.71436 11.8337C1.71436 14.11 2.50578 16.3202 3.95392 18.1005L2.45526 21.5177C2.33178 21.7988 2.46649 22.124 2.74714 22.2398C2.84817 22.2839 2.96043 22.2949 3.06707 22.2784L8.56214 21.3303C9.66227 21.7217 10.8185 21.9201 11.986 21.9146C17.6663 21.9146 22.2858 17.3785 22.2858 11.8006C22.297 6.23933 17.7112 1.71975 12.0478 1.71423ZM11.9916 20.8178C10.9083 20.8178 9.83627 20.6249 8.82033 20.2501C8.72491 20.2115 8.62388 20.206 8.52285 20.2225L3.89779 21.0162L5.12141 18.2218C5.2056 18.0288 5.17192 17.8029 5.0316 17.643C4.36927 16.8879 3.84166 16.0281 3.4712 15.0966C3.05585 14.0549 2.84256 12.9471 2.84256 11.8282C2.84256 6.85664 6.96245 2.81657 12.0197 2.81657C17.0657 2.80555 21.1632 6.81255 21.1688 11.7676C21.1688 11.7786 21.1688 11.7896 21.1688 11.8006C21.1688 16.7777 17.0489 20.8178 11.9916 20.8178Z" fill="white"/>
<path d="M11.5537 9.7998H8.52272C8.21401 9.7998 7.96143 10.0478 7.96143 10.351C7.96143 10.6541 8.21401 10.9021 8.52272 10.9021H11.5537C11.8624 10.9021 12.115 10.6541 12.115 10.351C12.115 10.0478 11.8624 9.7998 11.5537 9.7998Z" fill="white"/>
<path d="M15.4828 12.5558H8.52272C8.21401 12.5558 7.96143 12.8038 7.96143 13.107C7.96143 13.4101 8.21401 13.6581 8.52272 13.6581H15.4828C15.7915 13.6581 16.044 13.4101 16.044 13.107C16.044 12.8038 15.7915 12.5558 15.4828 12.5558Z" fill="white"/>
</svg>
