<svg width="24" height="24" viewBox="0 0 24 24" fill="none" xmlns="http://www.w3.org/2000/svg">
<path d="M11.9985 7.95923L11.9966 12.6709C11.9966 12.8498 12.0644 13.0208 12.185 13.1471L15.4024 16.517L16.3114 15.5647L13.2823 12.392L13.2842 7.95923H11.9985Z" fill="#262028"/>
<path d="M13.2857 2.57141C8.76072 2.57141 5.0157 6.092 4.38847 10.6531H1.71429L4.92858 14.0204L8.14286 10.6531H5.68756C6.30258 6.837 9.47073 3.91836 13.2857 3.91836C17.5396 3.91836 21 7.54352 21 12C21 16.4565 17.5397 20.0817 13.2857 20.0817C10.8945 20.0817 8.67714 18.9478 7.20243 16.9708L6.18919 17.7995C7.90931 20.1053 10.4958 21.4286 13.2857 21.4286C18.2484 21.4286 22.2857 17.1983 22.2857 12C22.2857 6.80169 18.2484 2.57145 13.2857 2.57141Z" fill="#262028"/>
</svg>
