<svg width="24" height="24" viewBox="0 0 24 24" fill="none" xmlns="http://www.w3.org/2000/svg">
<path d="M12 21.4286C11.7071 21.4286 11.4248 21.3192 11.2048 21.1207C10.3737 20.372 9.5725 19.6684 8.86561 19.0477L8.862 19.0445C6.78951 17.2248 4.99983 15.6533 3.75461 14.1053C2.36264 12.3747 1.71429 10.7338 1.71429 8.94127C1.71429 7.19967 2.2939 5.59293 3.34624 4.41683C4.41112 3.22682 5.87231 2.57141 7.46109 2.57141C8.64855 2.57141 9.73604 2.95822 10.6933 3.721C11.1763 4.10602 11.6142 4.57724 12 5.12689C12.3859 4.57724 12.8237 4.10602 13.3069 3.721C14.2641 2.95822 15.3516 2.57141 16.5391 2.57141C18.1277 2.57141 19.5891 3.22682 20.6539 4.41683C21.7063 5.59293 22.2857 7.19967 22.2857 8.94127C22.2857 10.7338 21.6375 12.3747 20.2456 14.1051C19.0003 15.6533 17.2108 17.2246 15.1386 19.0442C14.4305 19.6658 13.628 20.3705 12.7951 21.121C12.5752 21.3192 12.2927 21.4286 12 21.4286ZM7.46109 3.81301C6.21288 3.81301 5.06622 4.32627 4.23205 5.25836C3.38547 6.20451 2.91918 7.51241 2.91918 8.94127C2.91918 10.4489 3.463 11.7972 4.68233 13.3131C5.86085 14.7783 7.6138 16.3174 9.64344 18.0996L9.64721 18.1029C10.3568 18.7259 11.1611 19.4323 11.9983 20.1865C12.8405 19.4308 13.6461 18.7233 14.357 18.0993C16.3865 16.3171 18.1393 14.7783 19.3178 13.3131C20.537 11.7972 21.0808 10.4489 21.0808 8.94127C21.0808 7.51241 20.6145 6.20451 19.768 5.25836C18.934 4.32627 17.7871 3.81301 16.5391 3.81301C15.6247 3.81301 14.7852 4.11249 14.0439 4.70305C13.3833 5.22957 12.9232 5.89517 12.6534 6.36089C12.5146 6.60038 12.2704 6.74333 12 6.74333C11.7296 6.74333 11.4854 6.60038 11.3466 6.36089C11.077 5.89517 10.6168 5.22957 9.95608 4.70305C9.21482 4.11249 8.37531 3.81301 7.46109 3.81301Z" fill="#262028"/>
</svg>
