<svg width="24" height="24" viewBox="0 0 24 24" fill="none" xmlns="http://www.w3.org/2000/svg">
<path d="M20.4777 5.14282H3.52233C2.52337 5.14282 1.71429 5.91471 1.71429 6.85711V17.1428C1.71429 18.0908 2.52932 18.8571 3.52233 18.8571H20.4777C21.4683 18.8571 22.2857 18.0941 22.2857 17.1428V6.85711C22.2857 5.91638 21.4799 5.14282 20.4777 5.14282ZM20.2245 6.28568C19.8551 6.63406 13.498 12.6298 13.2785 12.8368C12.937 13.1606 12.483 13.3389 12 13.3389C11.5171 13.3389 11.063 13.1606 10.7204 12.8357C10.5728 12.6965 4.28584 6.76697 3.77554 6.28568H20.2245ZM2.91965 16.9102V7.09044L8.12832 12.003L2.91965 16.9102ZM3.7763 17.7143L8.98292 12.809L9.86922 13.6449C10.4384 14.1846 11.1951 14.4818 12 14.4818C12.8049 14.4818 13.5616 14.1846 14.1297 13.646L15.0171 12.809L20.2237 17.7143H3.7763ZM21.0804 16.9102L15.8717 12.003L21.0804 7.09044V16.9102Z" fill="#fff"/>
</svg>
