<svg width="24" height="24" viewBox="0 0 24 24" fill="none" xmlns="http://www.w3.org/2000/svg">
<path d="M8.37431 17.0708C8.41365 17.076 8.45278 17.0786 8.49087 17.0786C8.91254 17.0786 9.28063 16.7665 9.33902 16.3371C9.40284 15.8678 9.07451 15.4358 8.60534 15.3724C5.65368 14.9713 3.42858 12.4158 3.42858 9.42852C3.42858 6.11985 6.11992 3.42852 9.42858 3.42852C12.7372 3.42852 15.4286 6.11985 15.4286 9.42852C15.4286 11.8679 13.9744 14.0434 11.7248 14.9704C11.2873 15.1508 11.0786 15.6518 11.2586 16.0894C11.439 16.5269 11.9404 16.7352 12.3775 16.5552C13.0612 16.2737 13.6852 15.8996 14.2435 15.4555L20.8221 22.0345C20.9902 22.2022 21.2091 22.2857 21.4286 22.2857C21.6481 22.2857 21.867 22.2022 22.0346 22.0345C22.3692 21.6997 22.3692 21.1573 22.0346 20.8225L15.4581 14.2458C16.5266 12.9094 17.1429 11.2255 17.1429 9.42852C17.1429 5.17503 13.6821 1.71423 9.42858 1.71423C5.17509 1.71423 1.71429 5.17503 1.71429 9.42852C1.71429 13.2693 4.57765 16.5548 8.37431 17.0708Z" fill="#fff"/>
</svg>
