<svg width="24" height="24" viewBox="0 0 24 24" fill="none" xmlns="http://www.w3.org/2000/svg">
<path d="M11.8703 11.6237C13.23 11.6237 14.4074 11.1355 15.3696 10.1721C16.3315 9.20893 16.8193 8.03041 16.8193 6.66889C16.8193 5.30783 16.3316 4.12916 15.3694 3.16565C14.4072 2.20262 13.2299 1.71436 11.8703 1.71436C10.5103 1.71436 9.33319 2.20262 8.37112 3.16581C7.40906 4.129 6.9212 5.30768 6.9212 6.66889C6.9212 8.03041 7.40906 9.20909 8.37112 10.1723C9.3335 11.1353 10.5108 11.6237 11.8703 11.6237ZM9.22267 4.01819C9.96087 3.27913 10.8268 2.91987 11.8703 2.91987C12.9135 2.91987 13.7797 3.27913 14.518 4.01819C15.2562 4.75742 15.6152 5.62455 15.6152 6.66889C15.6152 7.71353 15.2562 8.58051 14.518 9.31973C13.7797 10.059 12.9135 10.4182 11.8703 10.4182C10.8272 10.4182 9.96119 10.0588 9.22267 9.31973C8.48431 8.58067 8.12531 7.71353 8.12531 6.66889C8.12531 5.62455 8.48431 4.75742 9.22267 4.01819Z" fill="#262028"/>
<path d="M20.5299 17.5327C20.5022 17.1319 20.446 16.6946 20.3634 16.2329C20.28 15.7677 20.1726 15.3279 20.0441 14.926C19.9112 14.5106 19.7307 14.1003 19.5073 13.7071C19.2758 13.2991 19.0036 12.9437 18.6983 12.6514C18.3789 12.3455 17.988 12.0995 17.5359 11.9201C17.0853 11.7417 16.586 11.6513 16.0519 11.6513C15.8422 11.6513 15.6393 11.7374 15.2476 11.9928C15.0065 12.1502 14.7244 12.3323 14.4096 12.5336C14.1405 12.7053 13.7758 12.8662 13.3255 13.0119C12.8861 13.1542 12.4399 13.2264 11.9994 13.2264C11.5592 13.2264 11.113 13.1542 10.6733 13.0119C10.2234 12.8664 9.85861 12.7055 9.58992 12.5338C9.27811 12.3343 8.99593 12.1523 8.75122 11.9926C8.35978 11.7373 8.15693 11.6511 7.94718 11.6511C7.41292 11.6511 6.91378 11.7417 6.4634 11.9203C6.0116 12.0994 5.62047 12.3453 5.30083 12.6515C4.99545 12.9441 4.72331 13.2992 4.49192 13.7071C4.26885 14.1003 4.08826 14.5104 3.95532 14.9262C3.82693 15.3281 3.71954 15.7677 3.63615 16.2329C3.55337 16.694 3.49741 17.1314 3.46966 17.5332C3.44238 17.9261 3.42859 18.3349 3.42859 18.748C3.42859 19.8218 3.76955 20.6912 4.44192 21.3323C5.10597 21.9649 5.98448 22.2858 7.05315 22.2858H16.9469C18.0152 22.2858 18.8937 21.9649 19.558 21.3323C20.2305 20.6916 20.5714 19.822 20.5714 18.7478C20.5713 18.3333 20.5573 17.9245 20.5299 17.5327ZM18.7277 20.4589C18.2889 20.877 17.7064 21.0802 16.9467 21.0802H7.05315C6.29331 21.0802 5.71077 20.877 5.27214 20.459C4.84182 20.0489 4.6327 19.4891 4.6327 18.748C4.6327 18.3625 4.6454 17.9819 4.67079 17.6166C4.69556 17.2581 4.7462 16.8643 4.82129 16.4459C4.89544 16.0326 4.98981 15.6448 5.10205 15.2937C5.20975 14.9571 5.35664 14.6237 5.5388 14.3026C5.71265 13.9966 5.91268 13.734 6.13341 13.5224C6.33987 13.3245 6.6001 13.1625 6.90673 13.0411C7.19032 12.9287 7.50902 12.8672 7.855 12.8579C7.89717 12.8803 7.97226 12.9232 8.09391 13.0026C8.34144 13.1641 8.62675 13.3484 8.94216 13.55C9.29771 13.777 9.75577 13.982 10.303 14.1588C10.8625 14.34 11.4332 14.4319 11.9995 14.4319C12.5659 14.4319 13.1367 14.34 13.6959 14.159C14.2436 13.9818 14.7015 13.777 15.0576 13.5497C15.3803 13.3432 15.6577 13.1643 15.9052 13.0026C16.0268 12.9233 16.1019 12.8803 16.1441 12.8579C16.4902 12.8672 16.8089 12.9287 17.0927 13.0411C17.3992 13.1625 17.6594 13.3247 17.8658 13.5224C18.0866 13.7338 18.2866 13.9964 18.4605 14.3028C18.6428 14.6237 18.7898 14.9572 18.8974 15.2936C19.0098 15.6451 19.1043 16.0328 19.1783 16.4457C19.2532 16.8649 19.304 17.2589 19.3288 17.6167V17.617C19.3543 17.981 19.3672 18.3614 19.3673 18.748C19.3672 19.4893 19.1581 20.0489 18.7277 20.4589Z" fill="#262028"/>
</svg>
