<svg width="20" height="20" viewBox="0 0 20 20" fill="none" xmlns="http://www.w3.org/2000/svg">
<path d="M9.9999 18.5713C5.27342 18.5713 1.42847 14.7264 1.42847 9.9999C1.42847 5.27342 5.27342 1.42847 9.9999 1.42847C14.7264 1.42847 18.5713 5.27342 18.5713 9.9999C18.5713 14.7264 14.7264 18.5713 9.9999 18.5713ZM9.9999 2.4999C5.8642 2.4999 2.4999 5.8642 2.4999 9.9999C2.4999 14.1356 5.8642 17.4999 9.9999 17.4999C14.1356 17.4999 17.4999 14.1356 17.4999 9.9999C17.4999 5.8642 14.1356 2.4999 9.9999 2.4999Z" fill="#F86A45"/>
<path d="M7.02853 13.5713C6.87481 13.5713 6.7211 13.513 6.60431 13.3953C6.36985 13.1609 6.36985 12.7808 6.60431 12.5463L12.5463 6.60431C12.7809 6.36985 13.161 6.36985 13.3955 6.60431C13.6299 6.83876 13.6299 7.21886 13.3955 7.45346L7.45333 13.3953C7.33493 13.513 7.18136 13.5713 7.02853 13.5713Z" fill="#F86A45"/>
<path d="M12.9704 13.5713C12.8169 13.5713 12.6631 13.513 12.5464 13.3953L6.60442 7.45353C6.36982 7.21906 6.36982 6.83891 6.60442 6.60443C6.83887 6.36981 7.21898 6.36981 7.45343 6.60443L13.3954 12.547C13.63 12.7814 13.63 13.1616 13.3954 13.3961C13.2779 13.513 13.1241 13.5713 12.9704 13.5713Z" fill="#F86A45"/>
</svg>
