<svg width="20" height="20" viewBox="0 0 20 20" fill="none" xmlns="http://www.w3.org/2000/svg">
<path d="M14.8148 9.17272C14.7348 9.24995 14.671 9.34234 14.6272 9.44448C14.5833 9.54662 14.5602 9.65648 14.5592 9.76765C14.5582 9.87881 14.5794 9.98906 14.6215 10.0919C14.6636 10.1948 14.7258 10.2883 14.8044 10.3669C14.883 10.4455 14.9765 10.5077 15.0794 10.5498C15.1823 10.5919 15.2925 10.6131 15.4037 10.6121C15.5148 10.6111 15.6247 10.588 15.7268 10.5442C15.829 10.5003 15.9214 10.4365 15.9986 10.3565L17.2913 9.06388C18.1181 8.21784 18.5781 7.07989 18.5713 5.8969C18.5645 4.7139 18.0916 3.5813 17.2551 2.74478C16.4185 1.90827 15.2859 1.43532 14.1029 1.42854C12.9199 1.42176 11.782 1.8817 10.936 2.70858L9.64329 4.00124C9.56333 4.07847 9.49954 4.17085 9.45567 4.27299C9.41179 4.37514 9.38869 4.485 9.38773 4.59616C9.38676 4.70733 9.40794 4.81757 9.45004 4.92046C9.49214 5.02335 9.5543 5.11683 9.63291 5.19544C9.71152 5.27405 9.805 5.33621 9.90789 5.37831C10.0108 5.42041 10.121 5.44159 10.2322 5.44062C10.3434 5.43966 10.4532 5.41656 10.5554 5.37268C10.6575 5.32881 10.7499 5.26502 10.8271 5.18506L12.1198 3.8924C12.3811 3.62821 12.692 3.41828 13.0348 3.27467C13.3775 3.13106 13.7452 3.0566 14.1168 3.05559C14.4884 3.05457 14.8565 3.12701 15.2 3.26874C15.5435 3.41048 15.8556 3.61871 16.1184 3.88146C16.3811 4.14422 16.5894 4.45632 16.7311 4.79982C16.8728 5.14332 16.9453 5.51145 16.9442 5.88304C16.9432 6.25463 16.8688 6.62235 16.7252 6.96507C16.5816 7.30779 16.3716 7.61875 16.1074 7.88006L14.8148 9.17272Z" fill="#00A887"/>
<path d="M5.1935 10.8271C5.27364 10.7499 5.33756 10.6575 5.38154 10.5554C5.42552 10.4532 5.44866 10.3434 5.44963 10.2322C5.4506 10.121 5.42937 10.0108 5.38718 9.90789C5.34499 9.805 5.28268 9.71152 5.2039 9.63291C5.12511 9.5543 5.03143 9.49214 4.9283 9.45004C4.82518 9.40794 4.71469 9.38676 4.60328 9.38773C4.49186 9.38869 4.38175 9.41179 4.27938 9.45567C4.17701 9.49954 4.08442 9.56333 4.00701 9.64329L2.71145 10.936C1.88272 11.782 1.42175 12.9199 1.42854 14.1029C1.43533 15.2859 1.90934 16.4185 2.74774 17.2551C3.58613 18.0916 4.72128 18.5645 5.90693 18.5713C7.09258 18.5781 8.23309 18.1181 9.08103 17.2913L10.3766 15.9986C10.5294 15.8407 10.614 15.6292 10.6121 15.4097C10.6102 15.1902 10.5219 14.9802 10.3664 14.825C10.2108 14.6697 10.0003 14.5817 9.78033 14.5798C9.56033 14.5779 9.34837 14.6623 9.19011 14.8148L7.89455 16.1074C7.36357 16.6315 6.64628 16.9245 5.89944 16.9224C5.1526 16.9204 4.43693 16.6235 3.90883 16.0966C3.38074 15.5696 3.08315 14.8556 3.08111 14.1104C3.07906 13.3652 3.37273 12.6496 3.89793 12.1198L5.1935 10.8271Z" fill="#00A887"/>
<path d="M6.59113 13.4108C6.75924 13.5789 6.98722 13.6734 7.22492 13.6734C7.46263 13.6734 7.69061 13.5789 7.85871 13.4108L13.3997 7.86815C13.4853 7.78543 13.5536 7.68648 13.6006 7.57707C13.6476 7.46767 13.6723 7.35 13.6733 7.23093C13.6744 7.11187 13.6517 6.99379 13.6066 6.88358C13.5615 6.77338 13.495 6.67326 13.4108 6.58906C13.3266 6.50486 13.2265 6.43828 13.1164 6.39319C13.0062 6.3481 12.8881 6.32542 12.7691 6.32645C12.6501 6.32748 12.5325 6.35222 12.4231 6.39922C12.3137 6.44621 12.2148 6.51453 12.1321 6.60018L6.59113 12.1384C6.50725 12.2217 6.44067 12.3208 6.39524 12.43C6.34981 12.5392 6.32642 12.6563 6.32642 12.7746C6.32642 12.8928 6.34981 13.01 6.39524 13.1191C6.44067 13.2283 6.50725 13.3275 6.59113 13.4108Z" fill="#00A887"/>
</svg>
