<svg width="24" height="24" viewBox="0 0 24 24" fill="none" xmlns="http://www.w3.org/2000/svg">
<path d="M19.3034 4.67113C17.3491 2.78199 14.7777 1.71484 12.0391 1.71484C4.17913 1.71484 -0.756299 10.2306 3.16856 17.0046L1.71484 22.2863L7.14484 20.8703C9.51056 22.1483 11.4486 22.0351 12.0443 22.1106C21.1583 22.1106 25.6951 11.0843 19.2906 4.70456L19.3034 4.67113Z" fill="#ECEFF1"/>
<path d="M12.0584 20.3593L12.0533 20.3584H12.0396C9.31216 20.3584 7.56959 19.0667 7.39816 18.9922L4.18387 19.8279L5.0453 16.7036L4.84044 16.3822C3.99187 15.0313 3.54102 13.4756 3.54102 11.8736C3.54102 4.33673 12.751 0.567869 18.0807 5.89501C23.3976 11.1664 19.6647 20.3593 12.0584 20.3593Z" fill="#4CAF50"/>
<path d="M16.7212 13.9784L16.7135 14.0427C16.4555 13.9141 15.199 13.2996 14.965 13.2147C14.4395 13.0201 14.5878 13.1838 13.579 14.3393C13.429 14.5064 13.2798 14.5193 13.0252 14.4036C12.7681 14.275 11.9427 14.005 10.9655 13.1307C10.2044 12.4493 9.69353 11.6136 9.54267 11.3564C9.29153 10.9227 9.81696 10.861 10.2952 9.95584C10.381 9.77584 10.3372 9.63441 10.2738 9.5067C10.2095 9.37812 9.69781 8.11812 9.48353 7.61584C9.27781 7.11527 9.0661 7.1787 8.90753 7.1787C8.41381 7.13584 8.05296 7.1427 7.73496 7.47355C6.35153 8.99412 6.70038 10.5627 7.8841 12.2307C10.2104 15.2753 11.4498 15.8358 13.7161 16.6141C14.3281 16.8087 14.8861 16.7813 15.3275 16.7178C15.8195 16.6398 16.8421 16.0998 17.0555 15.4956C17.2741 14.8913 17.2741 14.3898 17.2098 14.2741C17.1464 14.1584 16.9784 14.0941 16.7212 13.9784Z" fill="#FAFAFA"/>
</svg>
