<svg width="167" height="32" viewBox="0 0 167 32" fill="none" xmlns="http://www.w3.org/2000/svg">
<path d="M15.6153 9.4828C15.8761 9.00664 16.1577 8.54082 16.4602 8.0957C16.7628 8.54082 17.0444 9.00664 17.3052 9.4828C17.4617 9.76229 17.6077 10.0418 17.7433 10.3316C17.8894 10.6318 18.025 10.932 18.1502 11.2426C18.3692 11.8015 18.5987 12.4226 18.7343 12.8677C18.7656 12.9505 18.7865 13.0437 18.8178 13.1265C18.8595 13.2818 18.9117 13.4371 18.9534 13.5923C18.9743 13.6855 19.0056 13.7787 19.0264 13.8822C19.0473 13.965 19.0681 14.0478 19.089 14.141C19.1099 14.2134 19.1203 14.2859 19.1412 14.3583C19.1516 14.379 19.1516 14.3998 19.162 14.4308C19.1829 14.5033 19.1933 14.5757 19.2142 14.6585C19.235 14.731 19.2455 14.8035 19.2559 14.8863C19.2663 14.9587 19.2872 15.0312 19.2976 15.114C19.3081 15.1761 19.3185 15.2486 19.3289 15.3107C19.3394 15.3935 19.3602 15.4763 19.3707 15.5695C19.3811 15.6212 19.3811 15.6626 19.3915 15.7144C19.3915 15.7454 19.402 15.7661 19.402 15.7972C19.402 15.8179 19.4124 15.849 19.4124 15.8697C19.4124 15.88 19.4124 15.8904 19.4124 15.9007C19.4228 15.9421 19.4228 15.9835 19.4333 16.0249C19.4333 16.0353 19.4333 16.056 19.4333 16.0663C19.4437 16.1077 19.4437 16.1492 19.4437 16.1906V16.2009C19.4437 16.2113 19.4437 16.2216 19.4437 16.232C19.4437 16.2423 19.4437 16.2423 19.4437 16.2527C19.4541 16.3148 19.4541 16.3665 19.4645 16.4286C19.475 16.4908 19.475 16.5425 19.4854 16.6046C19.4854 16.6564 19.4958 16.7185 19.5063 16.7702V16.7806C19.5167 16.8634 19.5167 16.9462 19.5271 17.029C19.548 17.2671 19.5584 17.4948 19.5689 17.7329C19.5689 17.8468 19.5793 17.9607 19.5793 18.0745V18.0952C19.5793 18.2091 19.5793 18.323 19.5793 18.4265V18.4368C19.5793 18.4472 19.5793 18.4575 19.5793 18.4679C19.5689 18.6439 19.4958 18.8198 19.3602 18.944C19.2663 19.0372 19.1516 19.1097 19.016 19.1407C19.0056 19.1407 18.9951 19.1511 18.9847 19.1511C18.9638 19.1511 18.943 19.1614 18.9117 19.1614C18.8908 19.1614 18.8595 19.1614 18.8386 19.1614H14.061C14.0401 19.1614 14.0088 19.1614 13.9879 19.1614C13.9671 19.1614 13.9462 19.1511 13.9149 19.1511C13.9045 19.1511 13.8941 19.1407 13.8836 19.1407C13.7584 19.1097 13.6437 19.0476 13.5394 18.944C13.4142 18.8198 13.3307 18.6439 13.3203 18.4679C13.3203 18.4575 13.3203 18.4472 13.3203 18.4368C13.3203 18.323 13.3203 18.2091 13.3203 18.1056V18.0538C13.3203 17.94 13.3307 17.8261 13.3307 17.7122C13.3412 17.4741 13.3516 17.2361 13.3725 17.0083C13.3829 16.8945 13.3933 16.7702 13.4038 16.6564C13.4246 16.4183 13.4559 16.1906 13.4872 15.9525C13.4977 15.8697 13.5081 15.7869 13.5185 15.704C13.5289 15.6212 13.5394 15.5384 13.5602 15.4556C13.5707 15.3728 13.5915 15.29 13.602 15.2175C13.6124 15.1658 13.6228 15.114 13.6333 15.0622C13.6333 15.0415 13.6437 15.0208 13.6437 15.0001C13.6437 14.9794 13.6541 14.9587 13.6541 14.938C13.6646 14.8863 13.675 14.8449 13.6854 14.7931C13.6854 14.7724 13.6959 14.7621 13.6959 14.7414C13.7063 14.6896 13.7167 14.6378 13.7271 14.5861C13.7376 14.5447 13.748 14.5033 13.748 14.4619C13.7897 14.2859 13.8315 14.0996 13.8732 13.9236C13.8941 13.8304 13.9149 13.7476 13.9462 13.6544C13.9462 13.6441 13.9566 13.6234 13.9566 13.613C13.9775 13.5406 13.9984 13.4578 14.0192 13.3853C14.0401 13.3025 14.0714 13.2197 14.0923 13.1369C14.1235 13.0437 14.1444 12.9505 14.1757 12.8574C14.3113 12.4226 14.5304 11.8119 14.7494 11.2633V11.2529C14.8851 10.932 15.0207 10.6215 15.1667 10.3213C15.3232 10.0418 15.4692 9.76229 15.6153 9.4828ZM15.7405 16.6357C15.7405 16.2527 16.043 15.9318 16.4289 15.9111C16.4394 15.9111 16.4498 15.9111 16.4707 15.9111C16.4811 15.9111 16.4915 15.9111 16.502 15.9111C16.8879 15.9318 17.1904 16.2423 17.1904 16.6357V17.7019H17.2009H18.1189C18.1084 17.5052 18.098 17.3189 18.0876 17.1222C18.0771 17.0497 18.0771 16.9669 18.0667 16.8945C18.0563 16.7288 18.0354 16.5632 18.0145 16.4079C18.0041 16.3562 18.0041 16.2941 17.9937 16.2423C17.9833 16.1595 17.9728 16.0767 17.9624 15.9835C17.952 15.9318 17.952 15.88 17.9415 15.8283C17.9311 15.7869 17.9311 15.7454 17.9207 15.704C17.9102 15.6419 17.8998 15.5798 17.8894 15.5281C17.8789 15.466 17.8685 15.4142 17.8581 15.3521C17.8372 15.2279 17.8163 15.114 17.7851 14.9898C17.7746 14.9277 17.7642 14.8656 17.7433 14.8138C17.7225 14.6999 17.6912 14.5861 17.6703 14.4722C17.6494 14.3998 17.639 14.3273 17.6181 14.2548C17.5973 14.1513 17.566 14.0375 17.5347 13.9339C17.5243 13.8718 17.5034 13.8201 17.4825 13.758C17.4408 13.6027 17.3991 13.4578 17.3469 13.3025C17.3261 13.2507 17.3156 13.1886 17.2948 13.1369C17.2635 13.023 17.2217 12.9091 17.18 12.7953C17.1279 12.6504 17.0757 12.5158 17.0235 12.3709C16.961 12.2156 16.8984 12.0603 16.8358 11.905C16.721 11.6152 16.5958 11.3357 16.4602 11.0459C16.3246 11.3254 16.1994 11.6152 16.0847 11.905C16.0221 12.0603 15.9595 12.2156 15.8969 12.3709C15.8448 12.5158 15.7926 12.6504 15.7405 12.7953C15.6987 12.9091 15.657 13.023 15.6257 13.1369C15.5631 13.3439 15.5005 13.5509 15.4379 13.758C15.4171 13.8201 15.4066 13.8718 15.3858 13.9339C15.3545 14.0375 15.3232 14.1513 15.3023 14.2548C15.2815 14.3273 15.271 14.3998 15.2502 14.4722C15.2189 14.5861 15.198 14.6999 15.1771 14.8138C15.1667 14.8759 15.1563 14.9277 15.1354 14.9898C15.1146 15.1037 15.0833 15.2279 15.0624 15.3521C15.052 15.4142 15.0415 15.4763 15.0311 15.5281C15.0207 15.5902 15.0102 15.6523 14.9998 15.704C14.9894 15.7454 14.9894 15.7869 14.9789 15.8283C14.9685 15.88 14.9581 15.9318 14.9581 15.9835C14.9476 16.0663 14.9372 16.1492 14.9268 16.2423C14.9164 16.2941 14.9164 16.3562 14.9059 16.4079C14.8851 16.5736 14.8746 16.7392 14.8538 16.8945C14.8433 16.9669 14.8433 17.0497 14.8329 17.1222C14.8225 17.3189 14.812 17.5052 14.8016 17.7019H15.7196H15.73V16.6357H15.7405Z" fill="#00A887"/>
<path d="M2.98345 0.0310544C3.2651 -0.0103515 3.54676 -0.0103515 3.82841 0.0310544C3.87014 0.0414059 3.92229 0.0414072 3.96402 0.0517587C4.22481 0.0931646 4.4856 0.144921 4.74639 0.196679C4.87157 0.227733 4.98632 0.248435 5.1115 0.279489C5.22625 0.310544 5.341 0.331249 5.45575 0.362303C8.98164 1.26288 12.2259 3.18825 14.6982 5.87964L14.7086 5.88999C15.1259 6.34546 15.5327 6.83197 15.8978 7.32885L15.9395 7.39096L15.0946 8.68489L15.0007 8.56067C14.9903 8.55032 14.9903 8.53997 14.9798 8.52962C14.959 8.50891 14.9485 8.47786 14.9277 8.45716C14.5939 7.99134 14.2392 7.53588 13.8532 7.10112C11.5895 4.5236 8.5748 2.68103 5.25754 1.81151C5.15323 1.78046 5.04891 1.75975 4.9446 1.7287C4.84028 1.69764 4.73596 1.67694 4.63165 1.65624C4.62121 1.65624 4.61078 1.65624 4.60035 1.64589C4.53776 1.63553 4.4856 1.62518 4.42301 1.60448C4.36042 1.59413 4.30826 1.58378 4.24568 1.57342C4.06834 1.54237 3.891 1.50096 3.71366 1.48026C3.17122 1.3871 2.62877 1.54237 2.20108 1.89432C1.77338 2.25662 1.52302 2.78455 1.52302 3.34353V10.2583C1.52302 14.3679 4.89244 17.701 9.02336 17.701C9.41977 17.701 9.75358 18.0219 9.75358 18.4256C9.75358 18.8293 9.4302 19.1502 9.02336 19.1502C7.53164 19.1502 6.31114 20.351 6.31114 21.8416V28.6115C6.31114 28.6839 6.31114 28.7564 6.32157 28.8289C6.32157 28.8599 6.332 28.9013 6.34243 28.9324C6.35287 28.9634 6.35287 29.0048 6.3633 29.0359C6.3633 29.0359 6.3633 29.0359 6.3633 29.0462C6.37373 29.0773 6.37373 29.098 6.38416 29.1291C6.39459 29.1498 6.39459 29.1808 6.40502 29.2015C6.51977 29.5638 6.74927 29.8847 7.06222 30.1332C7.52121 30.4851 8.10538 30.6093 8.65826 30.4747C8.67912 30.4747 8.68955 30.4644 8.71041 30.4644C8.72085 30.4644 8.73128 30.4644 8.74171 30.454C8.78344 30.4437 8.81473 30.4333 8.85646 30.423C8.88775 30.4126 8.92948 30.4023 8.96078 30.3919C9.01293 30.3816 9.05466 30.3609 9.10682 30.3505C9.15898 30.3298 9.22157 30.3195 9.27372 30.2988C9.28416 30.2988 9.29459 30.2884 9.30502 30.2884C9.37804 30.2677 9.45106 30.247 9.51365 30.2263C9.54495 30.216 9.57624 30.2056 9.60754 30.1953C9.67013 30.1746 9.72228 30.1539 9.78487 30.1332C9.80574 30.1228 9.83703 30.1124 9.85789 30.1124C9.92048 30.0917 9.98307 30.071 10.0457 30.04C10.0665 30.0296 10.077 30.0296 10.0874 30.0193C10.1604 29.9882 10.2334 29.9572 10.3169 29.9261C10.4003 29.8951 10.4838 29.8537 10.5672 29.8226C10.6507 29.7916 10.7342 29.7501 10.8176 29.7191C10.828 29.7191 10.8385 29.7087 10.8385 29.7087C10.9115 29.6777 10.9949 29.6363 11.068 29.6052C11.1514 29.5638 11.2349 29.5224 11.3183 29.481C11.4018 29.4396 11.4852 29.3982 11.5583 29.3568C11.6417 29.3154 11.7147 29.274 11.7982 29.2222C11.8816 29.1808 11.9547 29.1291 12.0381 29.0876C12.1007 29.0462 12.1633 29.0152 12.2259 28.9738C12.4136 28.8599 12.6014 28.7357 12.7788 28.6011C12.9144 28.508 13.05 28.4044 13.1856 28.3113C13.2273 28.2802 13.2795 28.2388 13.3212 28.2078C13.4046 28.1353 13.4985 28.0732 13.582 28.0007C13.6654 27.9283 13.7489 27.8558 13.8323 27.7834C13.9158 27.7109 13.9993 27.6384 14.0827 27.5556C14.1662 27.4832 14.2496 27.4004 14.3226 27.3279C14.3539 27.2968 14.3748 27.2761 14.4061 27.2451C14.4374 27.2244 14.4582 27.1933 14.4895 27.1623C14.5939 27.0588 14.6982 26.9449 14.8025 26.8414C14.8442 26.7896 14.8964 26.7379 14.9381 26.6861C15.2615 26.3238 15.564 25.9512 15.8457 25.5474C15.8769 25.506 15.9082 25.4646 15.9395 25.4336C15.9708 25.4025 16.0126 25.3715 16.0543 25.3404C16.1064 25.3094 16.1586 25.2887 16.2212 25.268C16.2942 25.2473 16.3672 25.2369 16.4403 25.2369C16.6385 25.2369 16.8158 25.3094 16.9514 25.4439C16.9827 25.475 17.014 25.506 17.0349 25.5474C17.0662 25.5889 17.087 25.6199 17.1183 25.6613C17.1496 25.7027 17.1705 25.7338 17.2018 25.7752C17.2539 25.8476 17.3165 25.9201 17.3687 25.9926C17.4208 26.065 17.4834 26.1375 17.5356 26.2099C17.7129 26.4273 17.8903 26.6343 18.078 26.831C18.1197 26.8828 18.1719 26.9345 18.2241 26.9863C18.2762 27.0381 18.3179 27.0898 18.3701 27.1312C18.464 27.2244 18.5683 27.3279 18.6622 27.4211C18.7978 27.5453 18.9334 27.6695 19.069 27.7937C19.142 27.8558 19.2046 27.9179 19.2777 27.9697C19.3507 28.0318 19.4237 28.0836 19.4863 28.1457C19.528 28.1767 19.5802 28.2181 19.6219 28.2492C19.8514 28.4252 20.0809 28.5908 20.3208 28.746C20.4147 28.8082 20.5086 28.8703 20.6129 28.9324C20.6859 28.9738 20.759 29.0255 20.832 29.0669C20.8424 29.0773 20.8528 29.0773 20.8528 29.0773C20.9259 29.1187 21.0093 29.1705 21.0823 29.2119C21.1658 29.2533 21.2388 29.305 21.3223 29.3464C21.4057 29.3878 21.4787 29.4292 21.5622 29.4707C21.6352 29.5121 21.7187 29.5535 21.8021 29.5845L21.8125 29.5949C21.8856 29.6259 21.9586 29.6673 22.0316 29.6984C22.042 29.7087 22.0525 29.7087 22.0629 29.7087C22.1359 29.7398 22.2194 29.7812 22.2924 29.8123C22.3028 29.8123 22.3028 29.8226 22.3133 29.8226C22.3967 29.8537 22.4802 29.8951 22.5636 29.9261C22.6366 29.9572 22.7097 29.9882 22.7931 30.0193C22.8036 30.0296 22.8244 30.0296 22.8348 30.04C22.887 30.0607 22.9392 30.0814 23.0018 30.1021C23.0331 30.1124 23.0748 30.1331 23.1061 30.1435C23.1478 30.1539 23.1895 30.1746 23.2313 30.1849C23.2834 30.2056 23.3356 30.216 23.3773 30.2367C23.4607 30.2677 23.5338 30.2884 23.6172 30.3091C23.6589 30.3195 23.7007 30.3298 23.7424 30.3505C23.805 30.3712 23.8676 30.3816 23.9302 30.4023C23.951 30.4023 23.9615 30.4126 23.9823 30.4126C24.0345 30.423 24.0866 30.4437 24.1284 30.454C24.1388 30.454 24.1492 30.4644 24.1597 30.4644C24.1701 30.4644 24.191 30.4747 24.2014 30.4747C24.7543 30.6093 25.3384 30.4955 25.7974 30.1332C26.1104 29.8951 26.3399 29.5742 26.4546 29.2015C26.4651 29.1808 26.4651 29.1498 26.4755 29.1291C26.4859 29.098 26.4859 29.0773 26.4964 29.0462C26.4964 29.0462 26.4964 29.0462 26.4964 29.0359C26.5068 29.0048 26.5068 28.9634 26.5172 28.9324C26.5276 28.9013 26.5276 28.8599 26.5381 28.8289C26.5485 28.7564 26.5485 28.6839 26.5485 28.6115V21.8313C26.5485 20.351 25.328 19.1399 23.8363 19.1399C23.4295 19.1399 23.1061 18.819 23.1061 18.4153C23.1061 18.0219 23.4295 17.6907 23.8363 17.6907C27.9776 17.6907 31.3366 14.3471 31.3366 10.248V3.33317C31.3366 2.77419 31.0863 2.24627 30.6586 1.88397C30.2413 1.53202 29.6884 1.37675 29.146 1.46991C28.9687 1.50096 28.7913 1.53202 28.614 1.56307C28.5514 1.57343 28.4992 1.58378 28.4366 1.59413C28.374 1.60448 28.3219 1.61483 28.2593 1.63553C28.2489 1.63553 28.2384 1.63553 28.228 1.64589C28.1237 1.66659 28.0194 1.69764 27.9151 1.71835C27.8107 1.73905 27.7064 1.7701 27.6021 1.80116C24.2744 2.68103 21.2701 4.5236 19.0064 7.09076C18.6205 7.52553 18.2658 7.98099 17.932 8.44681C17.9111 8.46751 17.9007 8.49856 17.8798 8.51927C17.8694 8.52962 17.8694 8.53997 17.859 8.55032L17.7651 8.67454L16.9201 7.3806L16.9618 7.31849C17.3374 6.82162 17.7338 6.3351 18.151 5.87964L18.1615 5.86929C20.6338 3.1779 23.8676 1.25253 27.4039 0.351951C27.5187 0.320896 27.6334 0.289843 27.7481 0.26914C27.8733 0.238086 27.9881 0.217381 28.1133 0.186327C28.374 0.134569 28.6348 0.0828125 28.8956 0.0414065C28.9374 0.0310551 28.9895 0.0310538 29.0312 0.0207023C29.0625 0.0207023 29.1043 0.0103534 29.1356 0.0103534C29.1668 0.0103534 29.2086 1.26407e-06 29.2399 1.26407e-06C29.2607 1.26407e-06 29.2816 1.26407e-06 29.3025 1.26407e-06C29.3546 1.26407e-06 29.4068 1.26407e-06 29.4589 1.26407e-06C29.4694 1.26407e-06 29.4798 1.26407e-06 29.4798 1.26407e-06C29.5111 1.26407e-06 29.532 1.26407e-06 29.5633 1.26407e-06C29.5945 1.26407e-06 29.6363 1.89572e-06 29.6676 0.0103534C29.7406 0.0103534 29.8032 0.020703 29.8762 0.0310544C29.9075 0.0310544 29.9492 0.0414072 29.9805 0.0517587C30.0744 0.0621101 30.1579 0.0828131 30.2413 0.103516C30.3248 0.124219 30.4186 0.155272 30.5021 0.175974C30.5751 0.196677 30.6377 0.227733 30.7003 0.248436C30.7942 0.289842 30.8776 0.331249 30.9611 0.372655C31.1802 0.486521 31.3784 0.62109 31.5661 0.776362C32.3276 1.4078 32.7553 2.33944 32.7553 3.32283V10.2376C32.7553 14.078 30.21 17.5354 26.5381 18.7051C27.4456 19.4918 27.9672 20.6201 27.9672 21.8209V28.6115C27.9672 28.7771 27.9568 28.9324 27.9359 29.098C27.9255 29.1912 27.9046 29.2843 27.8838 29.3775C27.8733 29.4085 27.8629 29.4396 27.8629 29.4707C27.842 29.5638 27.8107 29.6466 27.7794 29.7398C27.7794 29.7398 27.7794 29.7398 27.7794 29.7501C27.7481 29.8226 27.7273 29.8951 27.696 29.9675C27.4769 30.4644 27.1222 30.9095 26.6737 31.2615C25.86 31.8825 24.8377 32.1103 23.8363 31.8825C23.8259 31.8825 23.8259 31.8825 23.8154 31.8825C23.8154 31.8825 23.8154 31.8825 23.805 31.8825C23.7633 31.8722 23.7111 31.8618 23.6694 31.8515C23.6277 31.8411 23.5859 31.8308 23.5338 31.8204C23.4399 31.7997 23.3564 31.7687 23.2625 31.748C23.1687 31.7169 23.0852 31.6962 22.9913 31.6652C22.9079 31.6341 22.814 31.6134 22.7305 31.5824H22.7201C22.6366 31.5513 22.5428 31.5202 22.4593 31.4892C22.3759 31.4581 22.2924 31.4271 22.2194 31.396C22.209 31.396 22.1985 31.3857 22.1881 31.3857C22.1046 31.3546 22.0212 31.3236 21.9377 31.2822C21.8751 31.2615 21.823 31.2304 21.7604 31.2097C21.7187 31.189 21.6665 31.1683 21.6248 31.1476C21.6143 31.1476 21.6039 31.1372 21.5935 31.1372C21.5205 31.1062 21.437 31.0648 21.364 31.0337H21.3536C21.2701 30.9923 21.1867 30.9613 21.1136 30.9199C21.0302 30.8785 20.9467 30.837 20.8633 30.7956C20.7798 30.7542 20.6964 30.7128 20.6129 30.6714C20.5295 30.63 20.446 30.5886 20.373 30.5369C19.9557 30.2988 19.5385 30.04 19.1421 29.7605C19.0064 29.6673 18.8813 29.5742 18.7561 29.481C18.7039 29.4396 18.6413 29.3982 18.5892 29.3568C18.4849 29.274 18.3701 29.1808 18.2658 29.098C18.2136 29.0566 18.1615 29.0048 18.1093 28.9634C17.9111 28.7978 17.7233 28.6218 17.5356 28.4459C17.473 28.3838 17.4104 28.3216 17.3478 28.2699C17.2957 28.2181 17.2539 28.1767 17.2018 28.125C16.9097 27.8248 16.6385 27.5246 16.3672 27.1933C16.1064 27.5142 15.8248 27.8248 15.5327 28.125C15.4805 28.1767 15.4388 28.2181 15.3867 28.2699C15.3241 28.332 15.2615 28.3941 15.1989 28.4459C15.0111 28.6218 14.8234 28.7978 14.6252 28.9634C14.573 29.0048 14.5208 29.0566 14.4687 29.098C14.3644 29.1912 14.2496 29.274 14.1453 29.3568C14.0931 29.3982 14.041 29.4396 13.9784 29.481C13.7593 29.6466 13.5298 29.8019 13.3003 29.9572C13.2273 30.0089 13.1439 30.0607 13.0708 30.1124C12.9978 30.1642 12.9144 30.2056 12.8413 30.2574C12.7579 30.3091 12.6849 30.3505 12.6014 30.4023C12.518 30.4437 12.4449 30.4954 12.3615 30.5369C12.2989 30.5679 12.2363 30.6093 12.1633 30.6404C12.0694 30.6921 11.9651 30.7439 11.8712 30.7956C11.7877 30.837 11.7147 30.8785 11.6313 30.9199H11.6208C11.5478 30.9509 11.4748 30.9923 11.4018 31.0234C11.3913 31.0337 11.3809 31.0337 11.3705 31.0441C11.2975 31.0751 11.2244 31.1165 11.141 31.1476C11.1306 31.1476 11.1201 31.1579 11.1097 31.1579C11.068 31.1786 11.0158 31.1994 10.9741 31.2201C10.9115 31.2408 10.8593 31.2718 10.7967 31.2925C10.7133 31.3236 10.6298 31.365 10.5464 31.396C10.5359 31.396 10.5255 31.4064 10.5151 31.4064C10.4316 31.4374 10.3586 31.4685 10.2752 31.4995C10.1917 31.5306 10.1083 31.5617 10.0144 31.5927C10.0039 31.5927 9.99351 31.6031 9.99351 31.6031C9.91005 31.6341 9.8266 31.6548 9.74315 31.6859C9.65969 31.7169 9.56581 31.7376 9.48236 31.7687C9.38847 31.7997 9.30502 31.8204 9.21113 31.8411C9.12768 31.8618 9.04423 31.8825 8.96078 31.9032C8.95034 31.9032 8.93991 31.9136 8.92948 31.9136C7.92804 32.1413 6.90574 31.9136 6.09208 31.2925C5.51834 30.8578 5.1115 30.2574 4.92373 29.5845C4.9133 29.5431 4.90287 29.4914 4.89244 29.4499C4.87157 29.3464 4.85071 29.2429 4.82985 29.1291C4.80898 28.9738 4.79855 28.8082 4.79855 28.6425V21.8623C4.79855 20.6615 5.32013 19.5332 6.22769 18.7465C2.55575 17.5768 0 14.1194 0 10.279V3.36423C0 2.38084 0.438129 1.44921 1.19964 0.817767C1.38741 0.662495 1.59604 0.517575 1.80467 0.41406C1.88813 0.372654 1.98201 0.331247 2.06546 0.289841C2.12805 0.258787 2.20107 0.238086 2.26366 0.217383C2.34712 0.186328 2.43057 0.165624 2.52446 0.144921C2.60791 0.124218 2.70179 0.103515 2.78525 0.0931639C2.91043 0.0414065 2.95215 0.0414059 2.98345 0.0310544Z" fill="#951BC4"/>
<path d="M41.779 22.5348C40.1099 20.92 39.2754 18.9015 39.2754 16.4792C39.2754 14.057 40.1099 12.0384 41.779 10.4236C43.448 8.80878 45.5761 8.01172 48.1631 8.01172C51.0736 8.01172 53.3059 9.02616 54.8498 11.0551C54.9854 11.2207 55.1106 11.3967 55.2254 11.5726C55.9451 12.6388 55.1628 14.0777 53.8692 14.0777H53.7128C53.1703 14.0777 52.68 13.7878 52.388 13.3324C52.2315 13.0943 52.0541 12.8666 51.8455 12.6595C50.8754 11.6968 49.6444 11.2207 48.1527 11.2207C46.6401 11.2207 45.3988 11.7175 44.4286 12.7009C43.448 13.6843 42.9682 14.9472 42.9682 16.4896C42.9682 18.0941 43.4376 19.3673 44.3869 20.3196C45.3362 21.272 46.588 21.7481 48.1631 21.7481C49.7279 21.7481 50.9901 21.2099 51.9498 20.1437C52.1689 19.8952 52.3567 19.6364 52.5131 19.3673C52.8052 18.8704 53.3268 18.5392 53.911 18.5392H54.0153C55.2671 18.5392 56.0703 19.8952 55.4236 20.9614C55.2567 21.2306 55.0793 21.4893 54.8916 21.7481C53.2329 23.8805 50.9901 24.9571 48.1736 24.9571C45.5761 24.9467 43.448 24.1497 41.779 22.5348Z" fill="#951BC4"/>
<path d="M58.4277 23.2591V14.0463C58.4277 13.3631 58.9806 12.8145 59.6691 12.8145H64.8849C66.095 12.8145 67.0338 13.0836 67.7015 13.6115C68.3587 14.1498 68.6925 14.833 68.6925 15.6715C68.6925 16.5617 68.3587 17.2552 67.7015 17.7521C67.3885 17.9798 67.0756 18.1248 66.7313 18.1869V18.3007C67.1799 18.3939 67.5971 18.5492 68.004 18.7769C68.8489 19.3773 69.2766 20.164 69.2766 21.1577C69.2766 22.1308 68.8907 22.9278 68.1187 23.5489C67.3468 24.17 66.2723 24.4806 64.8849 24.4806H59.6691C58.9806 24.4909 58.4277 23.9423 58.4277 23.2591ZM61.6511 17.2759H64.4155C64.7702 17.2759 65.0518 17.1724 65.2605 16.9757C65.4691 16.7791 65.5734 16.5306 65.5734 16.2408C65.5734 15.951 65.4691 15.7025 65.2605 15.5058C65.0518 15.3092 64.7702 15.2056 64.4155 15.2056H61.6511V17.2759ZM61.6511 22.0894H64.6554C65.0518 22.0894 65.3856 21.9652 65.6464 21.7271C65.9072 21.4786 66.0428 21.1888 66.0428 20.8369C66.0428 20.4849 65.9072 20.1847 65.6464 19.9466C65.3856 19.6982 65.0518 19.5843 64.6554 19.5843H61.6511V22.0894Z" fill="#951BC4"/>
<path d="M72.375 23.0421C71.1545 21.8413 70.5391 20.3818 70.5391 18.6531C70.5391 16.9244 71.1545 15.4648 72.375 14.264C73.5955 13.0633 75.0977 12.4629 76.8815 12.4629C78.6966 12.4629 80.1779 13.0736 81.3567 14.2537C82.5041 15.3924 82.911 16.8726 83.057 17.9388C83.1509 18.6738 82.5772 19.3363 81.8261 19.3363H73.8876C74.0128 20.1023 74.357 20.7441 74.9308 21.2823C75.5045 21.8206 76.1513 22.0794 76.8919 22.0794C77.7056 22.0794 78.4045 21.8517 78.9887 21.3962C79.4998 20.9511 80.157 20.713 80.8455 20.713H80.8872C81.9617 20.713 82.5459 21.9552 81.8574 22.773C80.6265 24.1497 78.9783 24.8329 76.8919 24.8329C75.0977 24.8329 73.5955 24.2429 72.375 23.0421ZM74.0024 17.3902H79.6563C79.5311 16.7795 79.2182 16.2619 78.7175 15.8478C78.2167 15.4234 77.6013 15.2164 76.8815 15.2164C76.1617 15.2164 75.5462 15.4234 75.0351 15.8375C74.5344 16.2515 74.1797 16.7691 74.0024 17.3902Z" fill="#951BC4"/>
<path d="M115.426 23.0421C114.205 21.8413 113.59 20.3818 113.59 18.6531C113.59 16.9244 114.205 15.4648 115.426 14.264C116.646 13.0633 118.148 12.4629 119.932 12.4629C121.747 12.4629 123.229 13.0736 124.407 14.2537C125.555 15.3924 125.962 16.8726 126.108 17.9388C126.202 18.6738 125.628 19.3363 124.877 19.3363H116.938C117.064 20.1023 117.408 20.7441 117.982 21.2823C118.555 21.8206 119.202 22.0794 119.943 22.0794C120.756 22.0794 121.455 21.8517 122.039 21.3962C122.551 20.9511 123.208 20.713 123.896 20.713H123.938C125.012 20.713 125.597 21.9552 124.908 22.773C123.677 24.1497 122.029 24.8329 119.943 24.8329C118.159 24.8329 116.646 24.2429 115.426 23.0421ZM117.053 17.3902H122.707C122.582 16.7795 122.269 16.2619 121.768 15.8478C121.268 15.4234 120.652 15.2164 119.932 15.2164C119.213 15.2164 118.597 15.4234 118.086 15.8375C117.585 16.2515 117.241 16.7691 117.053 17.3902Z" fill="#00A887"/>
<path d="M83.9219 14.3051V14.0773C83.9219 13.3838 84.4852 12.8145 85.1945 12.8145H93.7276C94.4265 12.8145 95.0003 13.3838 95.0003 14.0773V14.3051C95.0003 14.9986 94.4265 15.5679 93.7276 15.5679H91.078V23.228C91.078 23.9216 90.5147 24.4909 89.8053 24.4909H89.1168C88.4179 24.4909 87.8442 23.9216 87.8442 23.228V15.5679H85.1945C84.4852 15.5679 83.9219 14.9986 83.9219 14.3051Z" fill="#951BC4"/>
<path d="M95.2305 26.0954V22.5241C95.2305 21.8409 95.7833 21.2923 96.4718 21.2923H97.0769L100.175 9.40878C100.321 8.8498 100.822 8.4668 101.406 8.4668H106.705C107.279 8.4668 107.79 8.86015 107.936 9.40878L111.034 21.2923H111.639C112.328 21.2923 112.881 21.8409 112.881 22.5241V26.0954C112.881 26.7889 112.307 27.3582 111.608 27.3582H110.805C110.106 27.3582 109.532 26.7889 109.532 26.0954V24.4909H98.5686V26.0954C98.5686 26.7889 97.9949 27.3582 97.2959 27.3582H96.4927C95.7938 27.3582 95.2305 26.7889 95.2305 26.0954ZM100.415 21.2923H107.686L105.151 11.6758H102.96L100.415 21.2923Z" fill="#00A887"/>
<path d="M127.807 23.0548V13.8937C127.807 13.2002 128.37 12.6309 129.079 12.6309H129.768C130.467 12.6309 131.04 13.2002 131.04 13.8937V16.9888H132.428L135.161 13.1691C135.401 12.8379 135.787 12.6412 136.194 12.6412H136.674C137.706 12.6412 138.301 13.7902 137.717 14.6287L135.317 18.024L138.186 22.3716C138.739 23.2101 138.134 24.3177 137.122 24.3177H136.465C136.037 24.3177 135.63 24.1003 135.401 23.7483L132.772 19.7423H131.04V23.0548C131.04 23.7483 130.477 24.3177 129.768 24.3177H129.079C128.37 24.3177 127.807 23.7587 127.807 23.0548Z" fill="#00A887"/>
<path d="M141.61 23.0421C140.379 21.8413 139.764 20.3818 139.764 18.6531C139.764 16.9244 140.379 15.4648 141.61 14.2641C142.841 13.0633 144.374 12.4629 146.221 12.4629C148.046 12.4629 149.59 13.0633 150.821 14.2641C152.063 15.4648 152.678 16.9244 152.678 18.6531C152.678 20.3818 152.063 21.8413 150.821 23.0421C149.58 24.2429 148.046 24.8433 146.221 24.8433C144.374 24.8329 142.841 24.2429 141.61 23.0421ZM144.009 16.1791C143.404 16.8209 143.112 17.649 143.112 18.6531C143.112 19.6572 143.415 20.4853 144.009 21.1271C144.614 21.7689 145.345 22.0898 146.221 22.0898C147.097 22.0898 147.838 21.7689 148.432 21.1271C149.027 20.4853 149.329 19.6572 149.329 18.6531C149.329 17.649 149.027 16.8209 148.432 16.1791C147.827 15.5373 147.097 15.2164 146.221 15.2164C145.345 15.2164 144.604 15.5373 144.009 16.1791Z" fill="#00A887"/>
<path d="M154.535 27.5878V14.0791C154.535 13.3855 155.098 12.8162 155.808 12.8162H156.496C157.195 12.8162 157.769 13.3752 157.769 14.0791V14.3068H157.884C158.134 13.9859 158.426 13.6857 158.781 13.3959C159.615 12.7852 160.544 12.4746 161.577 12.4746C163.11 12.4746 164.403 13.0439 165.447 14.1826C166.49 15.3213 167.001 16.8119 167.001 18.6544C167.001 20.497 166.479 21.998 165.447 23.1263C164.403 24.2649 163.12 24.8343 161.577 24.8343C160.544 24.8343 159.615 24.5341 158.781 23.9233C158.426 23.6335 158.124 23.3333 157.884 23.0124H157.769V27.5878C157.769 28.2813 157.206 28.8506 156.496 28.8506H155.808C155.098 28.8403 154.535 28.2813 154.535 27.5878ZM158.593 16.1287C158.04 16.7291 157.759 17.5779 157.759 18.6544C157.759 19.7413 158.04 20.5798 158.593 21.1802C159.146 21.7806 159.866 22.0808 160.763 22.0808C161.608 22.0808 162.296 21.7806 162.839 21.1698C163.381 20.5591 163.642 19.7206 163.642 18.6544C163.642 17.5882 163.371 16.7498 162.839 16.139C162.296 15.5283 161.608 15.2281 160.763 15.2281C159.866 15.2178 159.146 15.5179 158.593 16.1287Z" fill="#00A887"/>
</svg>
