<svg width="32" height="32" viewBox="0 0 32 32" fill="none" xmlns="http://www.w3.org/2000/svg">
<path d="M29.7145 16.0803C29.7145 8.55099 23.6101 2.44727 16.0799 2.44727C8.54973 2.44727 2.44531 8.55099 2.44531 16.0803C2.44531 23.6096 8.54973 29.7134 16.0799 29.7134C23.6101 29.7134 29.7145 23.6096 29.7145 16.0803Z" fill="url(#paint0_linear_2485_18184)"/>
<path opacity="0.1" d="M26.3412 7.11135C24.3534 10.76 21.5422 14.5234 18.0295 18.0357C14.5168 21.548 10.7529 24.3536 7.10925 26.3411C6.88081 26.1426 6.65895 25.9357 6.44367 25.7205C5.14238 24.4628 4.10454 22.9586 3.39066 21.2957C2.67678 19.6328 2.30114 17.8444 2.28566 16.0349C2.27017 14.2253 2.61514 12.4308 3.30046 10.7559C3.98578 9.08101 4.99772 7.55931 6.27729 6.27953C7.55686 4.99975 9.07845 3.98749 10.7533 3.30179C12.4282 2.61608 14.2228 2.27064 16.0326 2.28562C17.8424 2.3006 19.6311 2.6757 21.2944 3.38903C22.9577 4.10237 24.4623 5.13968 25.7205 6.44046C25.9358 6.65572 26.1427 6.87935 26.3412 7.11135Z" fill="white"/>
<path d="M19.3077 8.90625H12.8492C11.8024 8.90625 10.7985 9.32203 10.0584 10.0621C9.31817 10.8022 8.90234 11.806 8.90234 12.8527V19.3104C8.90234 20.3571 9.31817 21.3609 10.0584 22.101C10.7985 22.8411 11.8024 23.2568 12.8492 23.2568H19.3077C20.3545 23.2568 21.3584 22.8411 22.0986 22.101C22.8387 21.3609 23.2546 20.3571 23.2546 19.3104V12.8527C23.2546 11.806 22.8387 10.8022 22.0986 10.0621C21.3584 9.32203 20.3545 8.90625 19.3077 8.90625ZM21.9987 18.7436C21.9987 19.6075 21.6555 20.4361 21.0445 21.047C20.4335 21.658 19.6048 22.0012 18.7408 22.0012H13.4161C12.5521 22.0012 11.7234 21.658 11.1124 21.047C10.5014 20.4361 10.1582 19.6075 10.1582 18.7436V13.4195C10.1582 12.5555 10.5014 11.727 11.1124 11.1161C11.7234 10.5051 12.5521 10.1619 13.4161 10.1619H18.7408C19.6048 10.1619 20.4335 10.5051 21.0445 11.1161C21.6555 11.727 21.9987 12.5555 21.9987 13.4195V18.7436Z" fill="white"/>
<path d="M18.6957 13.4906L18.6616 13.4565L18.6329 13.4278C17.9546 12.7519 17.0358 12.3726 16.0782 12.373C15.5946 12.3763 15.1164 12.4749 14.6709 12.663C14.2254 12.8511 13.8213 13.1252 13.4818 13.4695C13.1423 13.8139 12.8739 14.2217 12.692 14.6698C12.5102 15.1178 12.4184 15.5973 12.422 16.0809C12.4212 17.0622 12.8081 18.0041 13.4984 18.7017C13.8365 19.0438 14.2394 19.3153 14.6836 19.5001C15.1278 19.6849 15.6043 19.7793 16.0854 19.778C16.807 19.7628 17.5086 19.538 18.1047 19.1311C18.7008 18.7241 19.1655 18.1524 19.4422 17.4859C19.719 16.8193 19.7957 16.0867 19.6632 15.3772C19.5306 14.6678 19.1944 14.0123 18.6957 13.4906ZM16.0782 18.5133C15.5957 18.5201 15.122 18.3832 14.7175 18.12C14.313 17.8569 13.9959 17.4794 13.8065 17.0356C13.6172 16.5918 13.5641 16.1016 13.6541 15.6276C13.7441 15.1535 13.973 14.7169 14.3118 14.3733C14.6507 14.0297 15.084 13.7946 15.5568 13.698C16.0296 13.6013 16.5205 13.6475 16.967 13.8305C17.4135 14.0136 17.7955 14.3253 18.0643 14.726C18.3332 15.1267 18.4768 15.5984 18.4768 16.0809C18.4792 16.3981 18.419 16.7127 18.2997 17.0067C18.1804 17.3006 18.0044 17.5682 17.7816 17.7941C17.5589 18.02 17.2938 18.1998 17.0015 18.3232C16.7092 18.4466 16.3955 18.5112 16.0782 18.5133Z" fill="white"/>
<path d="M20.8202 12.2032C20.8212 12.3183 20.7994 12.4325 20.7562 12.5392C20.7129 12.6458 20.6491 12.7429 20.5682 12.8249C20.4874 12.9069 20.3912 12.9721 20.2852 13.0169C20.1791 13.0617 20.0652 13.0851 19.9501 13.0858C19.836 13.0857 19.723 13.063 19.6176 13.019C19.5123 12.9749 19.4168 12.9104 19.3366 12.8292C19.215 12.7059 19.1324 12.5497 19.0988 12.3798C19.0652 12.21 19.0823 12.034 19.1478 11.8738C19.2133 11.7136 19.3244 11.5761 19.4674 11.4784C19.6103 11.3807 19.7788 11.3271 19.9519 11.3242C20.1545 11.3242 20.3507 11.3953 20.5063 11.5251L20.5242 11.5431C20.5531 11.5666 20.5796 11.5931 20.6031 11.622L20.6229 11.6435C20.7513 11.8017 20.821 11.9995 20.8202 12.2032Z" fill="white"/>
<defs>
<linearGradient id="paint0_linear_2485_18184" x1="6.43882" y1="6.44032" x2="25.7188" y2="25.7225" gradientUnits="userSpaceOnUse">
<stop stop-color="#FAE100"/>
<stop offset="0.15" stop-color="#FCB720"/>
<stop offset="0.3" stop-color="#FF7950"/>
<stop offset="0.5" stop-color="#FF1C74"/>
<stop offset="1" stop-color="#6C1CD1"/>
</linearGradient>
</defs>
</svg>
