<svg width="32" height="32" viewBox="0 0 32 32" fill="none" xmlns="http://www.w3.org/2000/svg">
<path d="M18.6443 18.6443C16.4892 20.868 16.3325 23.6403 16.1464 29.7137C21.8084 29.7137 25.717 29.6941 27.735 27.735C29.6941 25.717 29.7137 21.6223 29.7137 16.1464C23.6403 16.3423 20.868 16.4892 18.6443 18.6443ZM2.28516 16.1464C2.28516 21.6223 2.30475 25.717 4.26393 27.735C6.28189 29.6941 10.1905 29.7137 15.8525 29.7137C15.6566 23.6403 15.5096 20.868 13.3545 18.6443C11.1309 16.4892 8.35862 16.3325 2.28516 16.1464ZM15.8525 2.28516C10.2003 2.28516 6.28189 2.30475 4.26393 4.26393C2.30475 6.28189 2.28516 10.3766 2.28516 15.8525C8.35862 15.6566 11.1309 15.5096 13.3545 13.3545C15.5096 11.1309 15.6664 8.35862 15.8525 2.28516ZM18.6443 13.3545C16.4892 11.1309 16.3325 8.35862 16.1464 2.28516C21.8084 2.28516 25.717 2.30475 27.735 4.26393C29.6941 6.28189 29.7137 10.3766 29.7137 15.8525C23.6403 15.6566 20.868 15.5096 18.6443 13.3545Z" fill="#2C3036"/>
<path d="M29.7137 16.1464V15.8525C23.6403 15.6566 20.868 15.5096 18.6443 13.3545C16.4892 11.1309 16.3325 8.35862 16.1464 2.28516H15.8525C15.6566 8.35862 15.5096 11.1309 13.3545 13.3545C11.1309 15.5096 8.35862 15.6664 2.28516 15.8525V16.1464C8.35862 16.3423 11.1309 16.4892 13.3545 18.6443C15.5096 20.868 15.6664 23.6403 15.8525 29.7137H16.1464C16.3423 23.6403 16.4892 20.868 18.6443 18.6443C20.868 16.4892 23.6403 16.3325 29.7137 16.1464Z" fill="white"/>
</svg>
