<svg width="32" height="32" viewBox="0 0 32 32" fill="none" xmlns="http://www.w3.org/2000/svg">
<path d="M15.9994 29.7137C23.5736 29.7137 29.7137 23.5736 29.7137 15.9994C29.7137 8.42525 23.5736 2.28516 15.9994 2.28516C8.42525 2.28516 2.28516 8.42525 2.28516 15.9994C2.28516 23.5736 8.42525 29.7137 15.9994 29.7137Z" fill="#E53935"/>
<path d="M20.8517 10.6895H11.1481C9.62429 10.6895 8.38086 11.9329 8.38086 13.4567V18.534C8.38086 20.0578 9.62429 21.3013 11.1481 21.3013H20.8517C22.3755 21.3013 23.619 20.0578 23.619 18.534V13.4567C23.619 11.939 22.3755 10.6895 20.8517 10.6895ZM16.4266 17.4978L14.0616 18.9607V16.035V13.1093L16.4266 14.5721L18.7915 16.035L16.4266 17.4978Z" fill="white"/>
</svg>
