<svg width="32" height="32" viewBox="0 0 32 32" fill="none" xmlns="http://www.w3.org/2000/svg">
<path d="M15.9994 2.28516C23.574 2.28516 29.7137 8.42572 29.7137 15.9995C29.7137 23.5741 23.574 29.7137 15.9994 29.7137C8.42478 29.7137 2.28516 23.574 2.28516 15.9995C2.28516 8.42572 8.42488 2.28516 15.9994 2.28516Z" fill="#C8232C"/>
<path d="M16.4142 8.29102C11.5816 8.29102 9.14648 11.6459 9.14648 14.4427C9.14648 16.1364 9.80819 17.6432 11.2293 18.2047C11.4616 18.2964 11.6717 18.2081 11.7385 17.9587L11.9459 17.1675C12.0145 16.9215 11.9879 16.8341 11.8002 16.6189C11.3896 16.1518 11.1291 15.5458 11.1291 14.6878C11.1291 12.1995 13.0517 9.97174 16.1357 9.97174C18.8674 9.97174 20.3674 11.5875 20.3674 13.7449C20.3674 16.5838 19.0697 18.9804 17.1428 18.9804C16.0799 18.9804 15.2828 18.1293 15.5383 17.0827C15.8434 15.8363 16.4366 14.4898 16.4366 13.5889C16.4366 12.7841 15.99 12.1103 15.0643 12.1103C13.9765 12.1103 13.1032 13.1998 13.1032 14.6594C13.1032 15.5895 13.428 16.2178 13.428 16.2178L12.1192 21.5843C11.7309 23.176 12.0617 25.1286 12.0891 25.3258C12.1063 25.4423 12.2606 25.4697 12.3308 25.3823C12.4311 25.2555 13.7263 23.7066 14.1668 22.1586C14.2919 21.7206 14.8826 19.4517 14.8826 19.4517C15.2357 20.1057 16.2686 20.6801 17.3666 20.6801C20.6349 20.6801 22.8532 17.7941 22.8532 13.9317C22.8522 11.0116 20.2979 8.29102 16.4142 8.29102Z" fill="white"/>
</svg>
