<svg width="32" height="32" viewBox="0 0 32 32" fill="none" xmlns="http://www.w3.org/2000/svg">
<path d="M15.9994 2.28516C8.42525 2.28516 2.28516 8.42525 2.28516 15.9994C2.28516 23.5736 8.42525 29.7137 15.9994 29.7137C23.5736 29.7137 29.7137 23.5736 29.7137 15.9994C29.7137 8.42525 23.5736 2.28516 15.9994 2.28516ZM24.0476 21.0106L21.6819 21.043C21.6819 21.043 21.173 21.1441 20.5053 20.6821C19.6193 20.074 18.7856 18.4951 18.136 18.6971C17.4864 18.8992 17.4972 20.3212 17.4972 20.3212C17.4993 20.488 17.4481 20.6511 17.3511 20.7868C17.2145 20.9038 17.0461 20.9773 16.8675 20.9979H15.8191C15.8191 20.9979 13.4732 21.1369 11.4251 18.9967C9.17305 16.6725 7.18989 12.0295 7.18989 12.0295C7.18989 12.0295 7.0731 11.7602 7.20071 11.5784C7.31101 11.4212 7.58305 11.4043 7.72041 11.3979C8.31253 11.3702 10.0915 11.3817 10.0915 11.3817C10.2404 11.378 10.3404 11.3858 10.5246 11.4665C10.683 11.5448 10.8031 11.6613 10.8801 11.849C11.1538 12.5306 11.4715 13.1936 11.8311 13.834C12.8885 15.662 13.3812 16.0608 13.7403 15.8659C14.2618 15.5808 14.1012 13.2836 14.1012 13.2836C14.1012 13.2836 14.1012 12.4481 13.8377 12.0782C13.6394 11.8465 13.3597 11.6999 13.0564 11.6686C12.9138 11.6487 13.1484 11.3185 13.4516 11.1706C13.9063 10.9468 14.7112 10.9468 15.6603 10.9468C16.078 10.931 16.4958 10.9736 16.9018 11.0731C17.7752 11.2842 17.4792 12.0963 17.4792 14.0487C17.4792 14.6731 17.3656 15.5537 17.8167 15.8532C18.0116 15.9777 18.4844 15.8713 19.6717 13.8574C20.0505 13.191 20.3792 12.4974 20.6552 11.7822C20.7083 11.6686 20.7889 11.57 20.8898 11.4953C20.9964 11.4422 21.1162 11.4215 21.2344 11.4357L23.8979 11.4177C23.8979 11.4177 24.6973 11.3221 24.8272 11.6847C24.9571 12.0475 24.5276 12.9479 23.4395 14.3915C21.6531 16.7734 21.4546 16.5569 22.9379 17.9265C24.3544 19.242 24.6486 19.8826 24.6973 19.962C25.2855 20.933 24.0476 21.0106 24.0476 21.0106Z" fill="#4C75A3"/>
</svg>
