<svg width="12" height="12" viewBox="0 0 12 12" fill="none" xmlns="http://www.w3.org/2000/svg">
<path d="M11.1284 4.76317C11.0929 4.6488 10.9987 4.56545 10.8851 4.54818L7.69653 4.06244L6.2705 1.0335C6.21975 0.925676 6.11499 0.857422 6.0003 0.857422C5.88559 0.857422 5.78084 0.925676 5.73008 1.0335L4.30398 4.06244L1.11542 4.54818C1.00194 4.56545 0.907622 4.6488 0.872185 4.76315C0.836727 4.87753 0.866299 5.00306 0.948443 5.08699L3.25565 7.44469L2.71107 10.7739C2.69166 10.8924 2.73815 11.0121 2.83094 11.0828C2.88344 11.1228 2.94561 11.1431 3.00809 11.1431C3.05606 11.1431 3.1042 11.1312 3.14827 11.1068L6.00028 9.535L8.85216 11.1068C8.95371 11.1628 9.07672 11.1535 9.16951 11.0828C9.2623 11.0121 9.30881 10.8923 9.28942 10.7738L8.74466 7.44469L11.0521 5.08697C11.1343 5.00306 11.1638 4.87753 11.1284 4.76317Z" fill="#FFCE1F"/>
</svg>
