<svg width="20" height="20" viewBox="0 0 20 20" fill="none" xmlns="http://www.w3.org/2000/svg">
<path fill-rule="evenodd" clip-rule="evenodd" d="M17.4297 11.7857V12.9762C17.4279 13.6071 17.1865 14.2116 16.7582 14.6577C16.33 15.1038 15.7496 15.3553 15.144 15.3572H3.71541C3.10921 15.3572 2.52783 15.1063 2.09917 14.6598C1.67052 14.2133 1.4297 13.6077 1.4297 12.9762V7.02385C1.42864 6.71087 1.48704 6.40076 1.60154 6.1114C1.71603 5.82203 1.88436 5.55912 2.09681 5.33781C2.30927 5.1165 2.56167 4.94116 2.83946 4.82189C3.11725 4.70263 3.41495 4.6418 3.71541 4.6429H15.144C15.7502 4.6429 16.3316 4.89375 16.7602 5.34026C17.1889 5.78678 17.4297 6.39238 17.4297 7.02385V8.21432H18.5725V11.7857H17.4297ZM15.144 11.7857V7.02385H3.71541V12.9762H15.144V11.7857Z" fill="#A4A4A4"/>
<path d="M5.18277 16.4217C4.71076 16.135 4.57019 15.5259 4.8688 15.0613L12.172 3.69837C12.4706 3.23377 13.0953 3.0896 13.5673 3.37635L13.8997 3.57824C14.3717 3.86499 14.5122 4.47408 14.2136 4.93868L6.91043 16.3016C6.61182 16.7662 5.98711 16.9104 5.5151 16.6236L5.18277 16.4217Z" fill="#A4A4A4"/>
</svg>
