<svg width="20" height="20" viewBox="0 0 20 20" fill="none" xmlns="http://www.w3.org/2000/svg">
<path fill-rule="evenodd" clip-rule="evenodd" d="M17.4297 11.6667V12.7778C17.4279 13.3666 17.1865 13.9308 16.7582 14.3472C16.33 14.7636 15.7496 14.9982 15.144 15H3.71541C3.10921 15 2.52783 14.7659 2.09917 14.3491C1.67052 13.9324 1.4297 13.3672 1.4297 12.7778V7.22223C1.42864 6.93012 1.48704 6.64069 1.60154 6.37061C1.71603 6.10054 1.88436 5.85515 2.09681 5.64859C2.30927 5.44204 2.56167 5.27839 2.83946 5.16708C3.11725 5.05576 3.41495 4.99899 3.71541 5.00001H15.144C15.7502 5.00001 16.3316 5.23414 16.7602 5.65089C17.1889 6.06763 17.4297 6.63286 17.4297 7.22223V8.33334H18.5725V11.6667H17.4297ZM15.144 11.6667V7.22223H3.71541V12.7778H15.144V11.6667ZM7.14398 11.6667H4.85827V8.33334H7.14398V11.6667Z" fill="#F86A45"/>
</svg>
