<svg width="40" height="40" viewBox="0 0 40 40" fill="none" xmlns="http://www.w3.org/2000/svg">
<path d="M19.5611 0.5003L19.5615 0.500302C27.8238 0.531679 34.5 6.9874 34.5 14.8743C34.5 19.1852 32.2102 22.571 29.5393 26.0666C29.2318 26.4689 26.6176 29.8757 24.0795 33.1828L20.6286 37.6792L19.5051 39.143L19.4785 39.1776L9.46077 26.0664L9.06347 26.3699L9.46077 26.0664C6.78983 22.5707 4.5 19.1849 4.5 14.874C4.5 6.96805 11.2084 0.500603 19.4971 0.5C19.4975 0.5 19.4979 0.5 19.4983 0.5L19.5611 0.5003Z" fill="white" stroke="#00A887"/>
<path d="M19.1506 13.4446C19.27 13.2214 19.399 13.0031 19.5375 12.7944C19.676 13.0031 19.805 13.2214 19.9245 13.4446C19.9961 13.5756 20.063 13.7066 20.1251 13.8425C20.192 13.9832 20.2541 14.1239 20.3114 14.2695C20.4117 14.5315 20.5168 14.8227 20.5789 15.0313C20.5932 15.0701 20.6028 15.1138 20.6171 15.1526C20.6362 15.2254 20.6601 15.2982 20.6792 15.371C20.6888 15.4146 20.7031 15.4583 20.7127 15.5068C20.7222 15.5456 20.7318 15.5845 20.7413 15.6281C20.7509 15.6621 20.7557 15.6961 20.7652 15.73C20.77 15.7397 20.77 15.7494 20.7748 15.764C20.7843 15.798 20.7891 15.8319 20.7987 15.8707C20.8082 15.9047 20.813 15.9387 20.8178 15.9775C20.8225 16.0115 20.8321 16.0454 20.8369 16.0842C20.8416 16.1134 20.8464 16.1473 20.8512 16.1764C20.856 16.2153 20.8655 16.2541 20.8703 16.2977C20.8751 16.322 20.8751 16.3414 20.8799 16.3657C20.8799 16.3802 20.8846 16.3899 20.8846 16.4045C20.8846 16.4142 20.8894 16.4288 20.8894 16.4385C20.8894 16.4433 20.8894 16.4482 20.8894 16.453C20.8942 16.4724 20.8942 16.4918 20.899 16.5112C20.899 16.5161 20.899 16.5258 20.899 16.5307C20.9037 16.5501 20.9038 16.5695 20.9038 16.5889V16.5937C20.9038 16.5986 20.9038 16.6034 20.9038 16.6083C20.9038 16.6131 20.9038 16.6131 20.9038 16.618C20.9085 16.6471 20.9085 16.6714 20.9133 16.7005C20.9181 16.7296 20.9181 16.7539 20.9229 16.783C20.9229 16.8072 20.9276 16.8363 20.9324 16.8606V16.8655C20.9372 16.9043 20.9372 16.9431 20.942 16.9819C20.9515 17.0935 20.9563 17.2003 20.9611 17.3119C20.9611 17.3652 20.9659 17.4186 20.9659 17.472V17.4817C20.9659 17.5351 20.9659 17.5884 20.9659 17.637V17.6418C20.9659 17.6467 20.9659 17.6515 20.9659 17.6564C20.9611 17.7389 20.9276 17.8214 20.8655 17.8796C20.8225 17.9233 20.77 17.9572 20.7079 17.9718C20.7031 17.9718 20.6983 17.9766 20.6936 17.9766C20.684 17.9766 20.6745 17.9815 20.6601 17.9815C20.6506 17.9815 20.6362 17.9815 20.6267 17.9815H18.4388C18.4292 17.9815 18.4149 17.9815 18.4053 17.9815C18.3958 17.9815 18.3862 17.9766 18.3719 17.9766C18.3671 17.9766 18.3623 17.9718 18.3576 17.9718C18.3002 17.9572 18.2477 17.9281 18.1999 17.8796C18.1426 17.8214 18.1044 17.7389 18.0996 17.6564C18.0996 17.6515 18.0996 17.6467 18.0996 17.6418C18.0996 17.5884 18.0996 17.5351 18.0996 17.4865V17.4623C18.0996 17.4089 18.1044 17.3555 18.1044 17.3022C18.1092 17.1906 18.1139 17.079 18.1235 16.9722C18.1283 16.9188 18.133 16.8606 18.1378 16.8072C18.1474 16.6956 18.1617 16.5889 18.176 16.4773C18.1808 16.4385 18.1856 16.3996 18.1904 16.3608C18.1952 16.322 18.1999 16.2832 18.2095 16.2444C18.2143 16.2056 18.2238 16.1667 18.2286 16.1328C18.2334 16.1085 18.2381 16.0842 18.2429 16.06C18.2429 16.0503 18.2477 16.0406 18.2477 16.0309C18.2477 16.0212 18.2525 16.0115 18.2525 16.0018C18.2573 15.9775 18.262 15.9581 18.2668 15.9338C18.2668 15.9241 18.2716 15.9193 18.2716 15.9096C18.2764 15.8853 18.2811 15.861 18.2859 15.8368C18.2907 15.8174 18.2955 15.798 18.2955 15.7786C18.3146 15.6961 18.3337 15.6087 18.3528 15.5262C18.3623 15.4826 18.3719 15.4437 18.3862 15.4001C18.3862 15.3952 18.391 15.3855 18.391 15.3807C18.4006 15.3467 18.4101 15.3079 18.4197 15.2739C18.4292 15.2351 18.4436 15.1963 18.4531 15.1575C18.4674 15.1138 18.477 15.0701 18.4913 15.0265C18.5534 14.8227 18.6538 14.5364 18.7541 14.2792V14.2744C18.8162 14.1239 18.8783 13.9784 18.9452 13.8377C19.0168 13.7066 19.0837 13.5756 19.1506 13.4446ZM19.2079 16.7975C19.2079 16.618 19.3464 16.4676 19.5232 16.4579C19.528 16.4579 19.5327 16.4579 19.5423 16.4579C19.5471 16.4579 19.5518 16.4579 19.5566 16.4579C19.7334 16.4676 19.8719 16.6131 19.8719 16.7975V17.2973H19.8767H20.2971C20.2923 17.2051 20.2875 17.1178 20.2827 17.0256C20.278 16.9916 20.278 16.9528 20.2732 16.9188C20.2684 16.8412 20.2588 16.7636 20.2493 16.6908C20.2445 16.6665 20.2445 16.6374 20.2397 16.6131C20.235 16.5743 20.2302 16.5355 20.2254 16.4918C20.2206 16.4676 20.2206 16.4433 20.2159 16.4191C20.2111 16.3996 20.2111 16.3802 20.2063 16.3608C20.2015 16.3317 20.1967 16.3026 20.192 16.2783C20.1872 16.2492 20.1824 16.225 20.1776 16.1959C20.1681 16.1376 20.1585 16.0842 20.1442 16.026C20.1394 15.9969 20.1346 15.9678 20.1251 15.9435C20.1155 15.8902 20.1012 15.8368 20.0916 15.7834C20.0821 15.7494 20.0773 15.7155 20.0678 15.6815C20.0582 15.633 20.0439 15.5796 20.0295 15.5311C20.0248 15.502 20.0152 15.4777 20.0057 15.4486C19.9866 15.3758 19.9674 15.3079 19.9436 15.2351C19.934 15.2108 19.9292 15.1817 19.9197 15.1575C19.9053 15.1041 19.8862 15.0507 19.8671 14.9973C19.8432 14.9294 19.8194 14.8663 19.7955 14.7984C19.7668 14.7256 19.7381 14.6528 19.7095 14.58C19.6569 14.4442 19.5996 14.3132 19.5375 14.1773C19.4754 14.3083 19.4181 14.4442 19.3655 14.58C19.3369 14.6528 19.3082 14.7256 19.2795 14.7984C19.2557 14.8663 19.2318 14.9294 19.2079 14.9973C19.1888 15.0507 19.1697 15.1041 19.1553 15.1575C19.1267 15.2545 19.098 15.3516 19.0694 15.4486C19.0598 15.4777 19.055 15.502 19.0455 15.5311C19.0311 15.5796 19.0168 15.633 19.0073 15.6815C18.9977 15.7155 18.9929 15.7494 18.9834 15.7834C18.969 15.8368 18.9595 15.8902 18.9499 15.9435C18.9452 15.9726 18.9404 15.9969 18.9308 16.026C18.9213 16.0794 18.9069 16.1376 18.8974 16.1959C18.8926 16.225 18.8878 16.2541 18.883 16.2783C18.8783 16.3075 18.8735 16.3366 18.8687 16.3608C18.8639 16.3802 18.8639 16.3996 18.8592 16.4191C18.8544 16.4433 18.8496 16.4676 18.8496 16.4918C18.8448 16.5307 18.8401 16.5695 18.8353 16.6131C18.8305 16.6374 18.8305 16.6665 18.8257 16.6908C18.8162 16.7684 18.8114 16.8461 18.8018 16.9188C18.7971 16.9528 18.7971 16.9916 18.7923 17.0256C18.7875 17.1178 18.7827 17.2051 18.778 17.2973H19.1983H19.2031V16.7975H19.2079Z" fill="#00A887"/>
<path d="M13.3662 9.01456C13.4952 8.99515 13.6242 8.99515 13.7532 9.01456C13.7723 9.01941 13.7962 9.01941 13.8153 9.02426C13.9347 9.04367 14.0541 9.06793 14.1736 9.09219C14.2309 9.10675 14.2834 9.11645 14.3408 9.13101C14.3933 9.14557 14.4459 9.15527 14.4984 9.16983C16.1131 9.59198 17.5987 10.4945 18.7309 11.7561L18.7357 11.7609C18.9268 11.9744 19.1131 12.2025 19.2803 12.4354L19.2994 12.4645L18.9124 13.071L18.8694 13.0128C18.8646 13.008 18.8646 13.0031 18.8599 12.9983C18.8503 12.9886 18.8455 12.974 18.836 12.9643C18.6831 12.7459 18.5207 12.5324 18.3439 12.3286C17.3073 11.1204 15.9268 10.2567 14.4076 9.84915C14.3599 9.83459 14.3121 9.82488 14.2643 9.81033C14.2166 9.79577 14.1688 9.78607 14.121 9.77636C14.1162 9.77636 14.1115 9.77636 14.1067 9.77151C14.078 9.76666 14.0541 9.7618 14.0255 9.7521C13.9968 9.74725 13.9729 9.74239 13.9443 9.73754C13.8631 9.72299 13.7818 9.70358 13.7006 9.69387C13.4522 9.6502 13.2038 9.72299 13.008 9.88796C12.8121 10.0578 12.6975 10.3053 12.6975 10.5673V13.8086C12.6975 15.7349 14.2404 17.2974 16.1322 17.2974C16.3137 17.2974 16.4666 17.4478 16.4666 17.637C16.4666 17.8263 16.3185 17.9767 16.1322 17.9767C15.449 17.9767 14.8901 18.5395 14.8901 19.2383V22.4116C14.8901 22.4456 14.8901 22.4796 14.8949 22.5135C14.8949 22.5281 14.8997 22.5475 14.9045 22.5621C14.9092 22.5766 14.9092 22.596 14.914 22.6106C14.914 22.6106 14.914 22.6106 14.914 22.6154C14.9188 22.63 14.9188 22.6397 14.9236 22.6542C14.9283 22.6639 14.9283 22.6785 14.9331 22.6882C14.9857 22.858 15.0908 23.0085 15.2341 23.1249C15.4443 23.2899 15.7118 23.3481 15.965 23.285C15.9745 23.285 15.9793 23.2802 15.9889 23.2802C15.9936 23.2802 15.9984 23.2802 16.0032 23.2753C16.0223 23.2705 16.0366 23.2656 16.0557 23.2608C16.0701 23.2559 16.0892 23.2511 16.1035 23.2462C16.1274 23.2414 16.1465 23.2317 16.1704 23.2268C16.1943 23.2171 16.2229 23.2123 16.2468 23.2025C16.2516 23.2025 16.2564 23.1977 16.2611 23.1977C16.2946 23.188 16.328 23.1783 16.3567 23.1686C16.371 23.1637 16.3854 23.1589 16.3997 23.154C16.4283 23.1443 16.4522 23.1346 16.4809 23.1249C16.4904 23.1201 16.5048 23.1152 16.5143 23.1152C16.543 23.1055 16.5717 23.0958 16.6003 23.0812C16.6099 23.0764 16.6146 23.0764 16.6194 23.0715C16.6529 23.057 16.6863 23.0424 16.7245 23.0279C16.7627 23.0133 16.801 22.9939 16.8392 22.9793C16.8774 22.9648 16.9156 22.9454 16.9538 22.9308C16.9586 22.9308 16.9634 22.926 16.9634 22.926C16.9968 22.9114 17.035 22.892 17.0685 22.8774C17.1067 22.858 17.1449 22.8386 17.1831 22.8192C17.2213 22.7998 17.2596 22.7804 17.293 22.761C17.3312 22.7416 17.3646 22.7222 17.4029 22.6979C17.4411 22.6785 17.4745 22.6542 17.5127 22.6348C17.5414 22.6154 17.5701 22.6009 17.5987 22.5815C17.6847 22.5281 17.7707 22.4699 17.8519 22.4068C17.914 22.3631 17.9761 22.3146 18.0382 22.2709C18.0573 22.2564 18.0812 22.2369 18.1003 22.2224C18.1385 22.1884 18.1815 22.1593 18.2197 22.1253C18.258 22.0914 18.2962 22.0574 18.3344 22.0235C18.3726 21.9895 18.4108 21.9555 18.449 21.9167C18.4873 21.8827 18.5255 21.8439 18.5589 21.81C18.5732 21.7954 18.5828 21.7857 18.5971 21.7711C18.6115 21.7614 18.621 21.7469 18.6354 21.7323C18.6831 21.6838 18.7309 21.6304 18.7787 21.5819C18.7978 21.5576 18.8217 21.5334 18.8408 21.5091C18.9889 21.3393 19.1274 21.1646 19.2564 20.9754C19.2707 20.956 19.285 20.9365 19.2994 20.922C19.3137 20.9074 19.3328 20.8929 19.3519 20.8783C19.3758 20.8638 19.3997 20.8541 19.4283 20.8444C19.4618 20.8347 19.4952 20.8298 19.5287 20.8298C19.6194 20.8298 19.7006 20.8638 19.7627 20.9268C19.7771 20.9414 19.7914 20.956 19.801 20.9754C19.8153 20.9948 19.8248 21.0093 19.8392 21.0287C19.8535 21.0481 19.8631 21.0627 19.8774 21.0821C19.9013 21.1161 19.9299 21.15 19.9538 21.184C19.9777 21.218 20.0064 21.2519 20.0303 21.2859C20.1115 21.3878 20.1927 21.4849 20.2787 21.577C20.2978 21.6013 20.3217 21.6256 20.3455 21.6498C20.3694 21.6741 20.3885 21.6984 20.4124 21.7178C20.4554 21.7614 20.5032 21.81 20.5462 21.8536C20.6083 21.9118 20.6704 21.9701 20.7325 22.0283C20.7659 22.0574 20.7946 22.0865 20.828 22.1108C20.8615 22.1399 20.8949 22.1642 20.9236 22.1933C20.9427 22.2078 20.9666 22.2272 20.9857 22.2418C21.0908 22.3243 21.1959 22.4019 21.3057 22.4747C21.3487 22.5038 21.3917 22.5329 21.4395 22.5621C21.4729 22.5815 21.5064 22.6057 21.5398 22.6251C21.5446 22.63 21.5494 22.63 21.5494 22.63C21.5828 22.6494 21.621 22.6737 21.6545 22.6931C21.6927 22.7125 21.7261 22.7367 21.7643 22.7561C21.8025 22.7755 21.836 22.795 21.8742 22.8144C21.9076 22.8338 21.9459 22.8532 21.9841 22.8677L21.9889 22.8726C22.0223 22.8872 22.0557 22.9066 22.0892 22.9211C22.0939 22.926 22.0987 22.926 22.1035 22.926C22.1369 22.9405 22.1752 22.9599 22.2086 22.9745C22.2134 22.9745 22.2134 22.9793 22.2182 22.9793C22.2564 22.9939 22.2946 23.0133 22.3328 23.0279C22.3662 23.0424 22.3997 23.057 22.4379 23.0715C22.4427 23.0764 22.4522 23.0764 22.457 23.0812C22.4809 23.0909 22.5048 23.1007 22.5334 23.1104C22.5478 23.1152 22.5669 23.1249 22.5812 23.1298C22.6003 23.1346 22.6194 23.1443 22.6385 23.1492C22.6624 23.1589 22.6863 23.1637 22.7054 23.1734C22.7436 23.188 22.7771 23.1977 22.8153 23.2074C22.8344 23.2123 22.8535 23.2171 22.8726 23.2268C22.9013 23.2365 22.9299 23.2414 22.9586 23.2511C22.9682 23.2511 22.9729 23.2559 22.9825 23.2559C23.0064 23.2608 23.0303 23.2705 23.0494 23.2753C23.0541 23.2753 23.0589 23.2802 23.0637 23.2802C23.0685 23.2802 23.078 23.285 23.0828 23.285C23.336 23.3481 23.6035 23.2947 23.8137 23.1249C23.957 23.0133 24.0621 22.8629 24.1146 22.6882C24.1194 22.6785 24.1194 22.6639 24.1242 22.6542C24.129 22.6397 24.129 22.63 24.1338 22.6154C24.1338 22.6154 24.1338 22.6154 24.1338 22.6106C24.1385 22.596 24.1385 22.5766 24.1433 22.5621C24.1481 22.5475 24.1481 22.5281 24.1529 22.5135C24.1576 22.4796 24.1576 22.4456 24.1576 22.4116V19.2334C24.1576 18.5395 23.5987 17.9718 22.9156 17.9718C22.7293 17.9718 22.5812 17.8214 22.5812 17.6322C22.5812 17.4478 22.7293 17.2925 22.9156 17.2925C24.8121 17.2925 26.3503 15.7252 26.3503 13.8037V10.5624C26.3503 10.3004 26.2357 10.0529 26.0398 9.88311C25.8487 9.71813 25.5955 9.64535 25.3471 9.68902C25.2659 9.70358 25.1847 9.71813 25.1035 9.73269C25.0748 9.73754 25.051 9.7424 25.0223 9.74725C24.9936 9.7521 24.9697 9.75695 24.9411 9.76666C24.9363 9.76666 24.9315 9.76666 24.9268 9.77151C24.879 9.78121 24.8312 9.79577 24.7834 9.80548C24.7357 9.81518 24.6879 9.82974 24.6401 9.84429C23.1162 10.2567 21.7404 11.1204 20.7038 12.3238C20.5271 12.5276 20.3646 12.7411 20.2118 12.9594C20.2022 12.9691 20.1975 12.9837 20.1879 12.9934C20.1831 12.9983 20.1831 13.0031 20.1783 13.008L20.1354 13.0662L19.7484 12.4597L19.7675 12.4305C19.9395 12.1976 20.121 11.9696 20.3121 11.7561L20.3169 11.7512C21.449 10.4896 22.9299 9.58712 24.5494 9.16498C24.6019 9.15042 24.6545 9.13586 24.707 9.12616C24.7643 9.1116 24.8169 9.1019 24.8742 9.08734C24.9936 9.06308 25.1131 9.03882 25.2325 9.01941C25.2516 9.01456 25.2755 9.01456 25.2946 9.0097C25.3089 9.0097 25.328 9.00485 25.3424 9.00485C25.3567 9.00485 25.3758 9 25.3901 9C25.3997 9 25.4092 9 25.4188 9C25.4427 9 25.4666 9 25.4904 9C25.4952 9 25.5 9 25.5 9C25.5143 9 25.5239 9 25.5382 9C25.5525 9 25.5717 9 25.586 9.00485C25.6194 9.00485 25.6481 9.0097 25.6815 9.01456C25.6959 9.01456 25.715 9.01941 25.7293 9.02426C25.7723 9.02911 25.8105 9.03882 25.8487 9.04852C25.8869 9.05823 25.9299 9.07278 25.9682 9.08249C26.0016 9.09219 26.0303 9.10675 26.0589 9.11645C26.1019 9.13586 26.1401 9.15527 26.1783 9.17468C26.2787 9.22806 26.3694 9.29114 26.4554 9.36392C26.8041 9.65991 27 10.0966 27 10.5576V13.7989C27 15.5991 25.8344 17.2197 24.1529 17.768C24.5685 18.1368 24.8073 18.6657 24.8073 19.2286V22.4116C24.8073 22.4893 24.8025 22.5621 24.793 22.6397C24.7882 22.6834 24.7787 22.727 24.7691 22.7707C24.7643 22.7853 24.7596 22.7998 24.7596 22.8144C24.75 22.858 24.7357 22.8969 24.7213 22.9405C24.7213 22.9405 24.7213 22.9405 24.7213 22.9454C24.707 22.9793 24.6975 23.0133 24.6831 23.0473C24.5828 23.2802 24.4204 23.4888 24.215 23.6538C23.8424 23.9449 23.3742 24.0517 22.9156 23.9449C22.9108 23.9449 22.9108 23.9449 22.9061 23.9449C22.9061 23.9449 22.9061 23.9449 22.9013 23.9449C22.8822 23.9401 22.8583 23.9352 22.8392 23.9304C22.8201 23.9255 22.801 23.9207 22.7771 23.9158C22.7341 23.9061 22.6959 23.8916 22.6529 23.8819C22.6099 23.8673 22.5717 23.8576 22.5287 23.843C22.4904 23.8285 22.4475 23.8188 22.4092 23.8042H22.4045C22.3662 23.7897 22.3232 23.7751 22.285 23.7606C22.2468 23.746 22.2086 23.7314 22.1752 23.7169C22.1704 23.7169 22.1656 23.712 22.1608 23.712C22.1226 23.6975 22.0844 23.6829 22.0462 23.6635C22.0175 23.6538 21.9936 23.6393 21.965 23.6295C21.9459 23.6198 21.922 23.6101 21.9029 23.6004C21.8981 23.6004 21.8933 23.5956 21.8885 23.5956C21.8551 23.581 21.8169 23.5616 21.7834 23.5471H21.7787C21.7404 23.5277 21.7022 23.5131 21.6688 23.4937C21.6306 23.4743 21.5924 23.4549 21.5541 23.4355C21.5159 23.416 21.4777 23.3966 21.4395 23.3772C21.4013 23.3578 21.3631 23.3384 21.3296 23.3141C21.1385 23.2025 20.9475 23.0812 20.7659 22.9502C20.7038 22.9066 20.6465 22.8629 20.5892 22.8192C20.5653 22.7998 20.5366 22.7804 20.5127 22.761C20.465 22.7222 20.4124 22.6785 20.3646 22.6397C20.3408 22.6203 20.3169 22.596 20.293 22.5766C20.2022 22.499 20.1162 22.4165 20.0303 22.334C20.0016 22.3049 19.9729 22.2758 19.9443 22.2515C19.9204 22.2272 19.9013 22.2078 19.8774 22.1836C19.7436 22.0429 19.6194 21.9021 19.4952 21.7469C19.3758 21.8973 19.2468 22.0429 19.1131 22.1836C19.0892 22.2078 19.0701 22.2272 19.0462 22.2515C19.0175 22.2806 18.9889 22.3097 18.9602 22.334C18.8742 22.4165 18.7882 22.499 18.6975 22.5766C18.6736 22.596 18.6497 22.6203 18.6258 22.6397C18.578 22.6834 18.5255 22.7222 18.4777 22.761C18.4538 22.7804 18.4299 22.7998 18.4013 22.8192C18.301 22.8969 18.1959 22.9696 18.0908 23.0424C18.0573 23.0667 18.0191 23.0909 17.9857 23.1152C17.9522 23.1395 17.914 23.1589 17.8806 23.1831C17.8424 23.2074 17.8089 23.2268 17.7707 23.2511C17.7325 23.2705 17.699 23.2947 17.6608 23.3141C17.6322 23.3287 17.6035 23.3481 17.5701 23.3627C17.5271 23.3869 17.4793 23.4112 17.4363 23.4355C17.3981 23.4549 17.3647 23.4743 17.3264 23.4937H17.3217C17.2882 23.5082 17.2548 23.5276 17.2213 23.5422C17.2166 23.5471 17.2118 23.5471 17.207 23.5519C17.1736 23.5665 17.1401 23.5859 17.1019 23.6004C17.0971 23.6004 17.0924 23.6053 17.0876 23.6053C17.0685 23.615 17.0446 23.6247 17.0255 23.6344C16.9968 23.6441 16.9729 23.6587 16.9443 23.6684C16.9061 23.6829 16.8678 23.7023 16.8296 23.7169C16.8248 23.7169 16.8201 23.7217 16.8153 23.7217C16.7771 23.7363 16.7436 23.7509 16.7054 23.7654C16.6672 23.78 16.629 23.7945 16.586 23.8091C16.5812 23.8091 16.5764 23.8139 16.5764 23.8139C16.5382 23.8285 16.5 23.8382 16.4618 23.8528C16.4236 23.8673 16.3806 23.877 16.3424 23.8916C16.2994 23.9061 16.2611 23.9158 16.2182 23.9255C16.1799 23.9352 16.1417 23.9449 16.1035 23.9546C16.0987 23.9546 16.0939 23.9595 16.0892 23.9595C15.6306 24.0663 15.1624 23.9595 14.7898 23.6684C14.5271 23.4646 14.3408 23.1831 14.2548 22.8677C14.25 22.8483 14.2452 22.8241 14.2404 22.8047C14.2309 22.7561 14.2213 22.7076 14.2118 22.6542C14.2022 22.5815 14.1975 22.5038 14.1975 22.4262V19.248C14.1975 18.6851 14.4363 18.1562 14.8519 17.7874C13.1704 17.2391 12 15.6185 12 13.8183V10.577C12 10.116 12.2006 9.67932 12.5494 9.38333C12.6354 9.31054 12.7309 9.24261 12.8264 9.19409C12.8646 9.17468 12.9076 9.15527 12.9459 9.13586C12.9745 9.12131 13.008 9.1116 13.0366 9.1019C13.0748 9.08734 13.1131 9.07764 13.1561 9.06793C13.1943 9.05823 13.2373 9.04852 13.2755 9.04367C13.3328 9.01941 13.3519 9.01941 13.3662 9.01456Z" fill="#951BC4"/>
</svg>
