<svg width="24" height="24" viewBox="0 0 24 24" fill="none" xmlns="http://www.w3.org/2000/svg">
<path d="M21.9537 11.931L19.6534 9.04786C19.3707 8.69365 18.9515 8.49041 18.5033 8.49041H15.4492V5.78077C15.4492 4.94899 14.7845 4.27223 13.9675 4.27223H11.099V4.0935C11.099 3.7263 10.8066 3.42859 10.4459 3.42859H6.71713C6.35648 3.42859 6.06407 3.7263 6.06407 4.0935V4.27223H3.19553C2.37857 4.27223 1.71387 4.94899 1.71387 5.78077V16.5373C1.71387 17.3691 2.37857 18.0459 3.19553 18.0459H5.03856C5.12224 19.4524 6.26942 20.5714 7.67154 20.5714C9.07365 20.5714 10.2208 19.4524 10.3045 18.0459H14.7961H14.9788C15.0624 19.4524 16.2096 20.5714 17.6117 20.5714C19.0139 20.5714 20.161 19.4524 20.2447 18.0459H20.8036C21.6206 18.0459 22.2853 17.3691 22.2853 16.5373V12.8821C22.2853 12.5367 22.1675 12.199 21.9537 11.931ZM7.3702 4.75841H9.79287V7.55522L8.97024 6.93479C8.85481 6.84762 8.71817 6.80411 8.58153 6.80411C8.44489 6.80411 8.30825 6.84762 8.19282 6.93479L7.3702 7.55522V4.75841ZM3.01999 16.5373V5.78077C3.01999 5.68224 3.09875 5.60205 3.19553 5.60205H6.06407V8.87514C6.06407 9.12626 6.20302 9.35596 6.42337 9.46894C6.64379 9.58209 6.90774 9.55888 7.10585 9.40937L8.58153 8.29642L10.0572 9.40937C10.1719 9.49589 10.3085 9.54005 10.446 9.54005C10.5462 9.54005 10.6468 9.51667 10.7397 9.46894C10.96 9.35596 11.099 9.12626 11.099 8.87514V5.60205H13.9675C14.0643 5.60205 14.1431 5.68224 14.1431 5.78077V9.15532V16.7161H10.0476C9.61988 15.8167 8.71704 15.1934 7.67154 15.1934C6.62604 15.1934 5.72319 15.8167 5.29549 16.7161H3.19553C3.09875 16.7161 3.01999 16.6359 3.01999 16.5373ZM7.67154 19.2416C6.93541 19.2416 6.33656 18.6319 6.33656 17.8824C6.33656 17.1329 6.93541 16.5232 7.67154 16.5232C8.40766 16.5232 9.00652 17.1329 9.00652 17.8824C9.00652 18.6319 8.40766 19.2416 7.67154 19.2416ZM17.6117 19.2416C16.8756 19.2416 16.2768 18.6319 16.2768 17.8824C16.2768 17.1329 16.8756 16.5232 17.6117 16.5232C18.3479 16.5232 18.9467 17.1329 18.9467 17.8824C18.9467 18.6319 18.3479 19.2416 17.6117 19.2416ZM20.9792 16.5373C20.9792 16.6359 20.9004 16.7161 20.8036 16.7161H19.9878C19.5601 15.8167 18.6572 15.1934 17.6117 15.1934C16.7176 15.1934 15.9273 15.6492 15.4492 16.3434V9.82023H18.5033C18.5564 9.82023 18.6061 9.84442 18.6396 9.88646L20.9399 12.7696C20.9652 12.8013 20.9792 12.8412 20.9792 12.8821V16.5373Z" fill="#3E3E3E"/>
</svg>
