<svg width="24" height="24" viewBox="0 0 24 24" fill="none" xmlns="http://www.w3.org/2000/svg">
<path fill-rule="evenodd" clip-rule="evenodd" d="M20.9139 14V15.3333C20.9117 16.0399 20.622 16.717 20.1081 17.2166C19.5942 17.7163 18.8978 17.9979 18.171 18H4.45674C3.72929 18 3.03163 17.719 2.51725 17.219C2.00286 16.7189 1.71388 16.0406 1.71388 15.3333V8.66668C1.71262 8.31614 1.7827 7.96883 1.92009 7.64473C2.05748 7.32064 2.25947 7.02618 2.51442 6.77831C2.76937 6.53045 3.07224 6.33407 3.40559 6.20049C3.73895 6.06692 4.09619 5.99878 4.45674 6.00002H18.171C18.8985 6.00002 19.5961 6.28097 20.1105 6.78106C20.6249 7.28116 20.9139 7.95944 20.9139 8.66668V10H22.2853V14H20.9139ZM18.171 14V8.66668H4.45674V15.3333H18.171V14ZM8.57102 14H5.82817V10H8.57102V14ZM12.6853 14H9.94245V10H12.6853V14ZM16.7996 14H14.0567V10H16.7996V14Z" fill="#47C65F"/>
</svg>
