<svg width="20" height="20" viewBox="0 0 20 20" fill="none" xmlns="http://www.w3.org/2000/svg">
<path d="M10.0001 1.42857C5.27394 1.42857 1.42871 5.2738 1.42871 10C1.42871 14.7262 5.27394 18.5714 10.0001 18.5714C14.7263 18.5714 18.5716 14.7262 18.5716 10C18.5716 5.2738 14.7263 1.42857 10.0001 1.42857ZM10.0001 17.5C5.86457 17.5 2.50014 14.1356 2.50014 10C2.50014 5.86443 5.86457 2.50001 10.0001 2.50001C14.1357 2.50001 17.5001 5.86443 17.5001 10C17.5001 14.1356 14.1357 17.5 10.0001 17.5Z" fill="#262028"/>
<path d="M10.5363 4.64286H9.46484V10.2218L12.8361 13.593L13.5936 12.8355L10.5363 9.77817V4.64286Z" fill="#262028"/>
</svg>
