<svg width="20" height="20" viewBox="0 0 20 20" fill="none" xmlns="http://www.w3.org/2000/svg">
<path d="M9.99986 1.42857C6.45517 1.42857 3.57129 4.1017 3.57129 7.38735C3.57129 11.5171 10.0062 18.5714 10.0062 18.5714C10.0062 18.5714 16.4284 11.314 16.4284 7.38735C16.4284 4.1017 13.5447 1.42857 9.99986 1.42857ZM11.9395 9.13208C11.4047 9.62772 10.7023 9.87559 9.99986 9.87559C9.29751 9.87559 8.59494 9.62772 8.06034 9.13208C6.99079 8.1408 6.99079 6.5278 8.06034 5.53641C8.57824 5.05615 9.26715 4.79164 9.99986 4.79164C10.7326 4.79164 11.4214 5.05626 11.9395 5.53641C13.009 6.5278 13.009 8.1408 11.9395 9.13208Z" fill="#262028"/>
</svg>
