<svg width="24" height="24" viewBox="0 0 24 24" fill="none" xmlns="http://www.w3.org/2000/svg">
<path d="M15.5817 15.3061C17.8648 11.8711 17.5778 12.2996 17.6436 12.2101C18.4748 11.086 18.9141 9.76293 18.9141 8.38392C18.9141 4.72687 15.819 1.71428 11.9999 1.71428C8.19315 1.71428 5.08557 4.72092 5.08557 8.38392C5.08557 9.76205 5.53412 11.1197 6.39258 12.259L8.41793 15.3061C6.2525 15.6252 2.57129 16.576 2.57129 18.6696C2.57129 19.4328 3.09082 20.5205 5.56589 21.368C7.29412 21.9598 9.57906 22.2857 11.9999 22.2857C16.5266 22.2857 21.4284 21.0614 21.4284 18.6696C21.4284 16.5756 17.7515 15.6258 15.5817 15.3061ZM7.44268 11.596C7.43576 11.5856 7.42855 11.5755 7.42101 11.5655C6.70666 10.6233 6.34272 9.50655 6.34272 8.38392C6.34272 5.36981 8.87402 2.91964 11.9999 2.91964C15.1192 2.91964 17.657 5.37089 17.657 8.38392C17.657 9.50836 17.2999 10.5872 16.6242 11.5046C16.5637 11.5812 16.8796 11.1106 11.9999 18.4522L7.44268 11.596ZM11.9999 21.0803C7.05535 21.0803 3.82843 19.6868 3.82843 18.6696C3.82843 17.986 5.48652 16.8618 9.16073 16.4236L11.4698 19.8976C11.5852 20.0712 11.7851 20.1763 11.9998 20.1763C12.2146 20.1763 12.4145 20.0712 12.5299 19.8976L14.8389 16.4236C18.5132 16.8618 20.1713 17.986 20.1713 18.6696C20.1713 19.6782 16.9734 21.0803 11.9999 21.0803Z" fill="white"/>
<path d="M12.0003 5.37053C10.2673 5.37053 8.85742 6.72234 8.85742 8.38392C8.85742 10.0455 10.2673 11.3973 12.0003 11.3973C13.7333 11.3973 15.1431 10.0455 15.1431 8.38392C15.1431 6.72234 13.7333 5.37053 12.0003 5.37053ZM12.0003 10.192C10.9605 10.192 10.1146 9.38087 10.1146 8.38392C10.1146 7.38697 10.9605 6.57589 12.0003 6.57589C13.0401 6.57589 13.886 7.38697 13.886 8.38392C13.886 9.38087 13.0401 10.192 12.0003 10.192Z" fill="white"/>
</svg>
