<svg width="20" height="20" viewBox="0 0 20 20" fill="none" xmlns="http://www.w3.org/2000/svg">
<path d="M4.90263 12.824C6.59988 14.8452 8.643 16.4366 10.9749 17.5626C11.8628 17.9818 13.0501 18.4791 14.373 18.5643C14.455 18.5679 14.5335 18.5714 14.6155 18.5714C15.5033 18.5714 16.2164 18.2659 16.7977 17.6372C16.8012 17.6337 16.8083 17.6265 16.8119 17.6194C17.0187 17.3708 17.2541 17.147 17.5001 16.909C17.6677 16.7492 17.8388 16.5822 18.0028 16.4117C18.7623 15.6231 18.7623 14.6214 17.9957 13.8577L15.8528 11.7228C15.4891 11.3463 15.054 11.1474 14.5976 11.1474C14.1412 11.1474 13.7027 11.3463 13.3283 11.7193L12.0518 12.9909C11.9341 12.9235 11.8129 12.8631 11.6988 12.8062C11.5561 12.7352 11.4242 12.6677 11.3065 12.5931C10.1441 11.8578 9.08871 10.8987 8.07963 9.6661C7.56974 9.02315 7.22744 8.48322 6.98854 7.93263C7.32371 7.63069 7.63749 7.31455 7.94057 7.00551C8.04754 6.89539 8.15807 6.78527 8.26861 6.67515C8.6537 6.29152 8.86051 5.84749 8.86051 5.39637C8.86051 4.94524 8.65727 4.50122 8.26861 4.11758L7.20605 3.05903C7.08125 2.9347 6.96358 2.81393 6.84235 2.6896C6.60702 2.44805 6.36099 2.1994 6.11852 1.97561C5.75126 1.61684 5.31982 1.42857 4.86341 1.42857C4.41057 1.42857 3.97556 1.61684 3.59404 1.97916L2.26048 3.30768C1.77556 3.79078 1.501 4.37689 1.44395 5.05536C1.3762 5.90433 1.53309 6.80659 1.93958 7.89711C2.56357 9.5844 3.5049 11.1509 4.90263 12.824ZM2.31397 5.12995C2.35676 4.65751 2.53861 4.26322 2.88091 3.92221L4.20733 2.6008C4.41414 2.40187 4.64234 2.29886 4.86341 2.29886C5.08092 2.29886 5.30199 2.40187 5.50523 2.6079C5.74413 2.82814 5.96876 3.05903 6.21123 3.30413C6.33246 3.42845 6.45726 3.55278 6.58206 3.68066L7.64462 4.73921C7.86569 4.95945 7.97979 5.18324 7.97979 5.40347C7.97979 5.62371 7.86569 5.84749 7.64462 6.06773C7.53409 6.17785 7.42355 6.29152 7.31301 6.40164C6.98141 6.73554 6.6712 7.05169 6.3289 7.35362C6.32176 7.36073 6.3182 7.36428 6.31107 7.37138C6.01512 7.66621 6.06147 7.94684 6.13278 8.15997C6.13635 8.17063 6.13992 8.17773 6.14348 8.18839C6.41804 8.84554 6.79956 9.47073 7.39503 10.2167C8.46472 11.531 9.59147 12.5505 10.8323 13.3355C10.9856 13.435 11.1497 13.5131 11.303 13.5913C11.4456 13.6623 11.5775 13.7298 11.6952 13.8044C11.7095 13.8115 11.7202 13.8186 11.7344 13.8257C11.8521 13.8861 11.9662 13.9145 12.0803 13.9145C12.3655 13.9145 12.551 13.7334 12.6116 13.673L13.9451 12.3444C14.1519 12.1384 14.3766 12.0283 14.5976 12.0283C14.8686 12.0283 15.0897 12.1953 15.2288 12.3444L17.3789 14.4829C17.8067 14.9091 17.8032 15.3709 17.3682 15.822C17.2184 15.9819 17.0615 16.1346 16.8939 16.2945C16.6443 16.536 16.384 16.7847 16.1487 17.0653C15.7387 17.5058 15.2502 17.7118 14.619 17.7118C14.5584 17.7118 14.4942 17.7082 14.4336 17.7047C13.2641 17.6301 12.1766 17.1754 11.36 16.7882C9.14219 15.719 7.19535 14.2022 5.58011 12.277C4.25012 10.682 3.35514 9.19721 2.76324 7.60583C2.39598 6.62898 2.25692 5.84394 2.31397 5.12995Z" fill="#262028"/>
</svg>
