<svg width="12" height="12" viewBox="0 0 12 12" fill="none" xmlns="http://www.w3.org/2000/svg">
<g clip-path="url(#clip0_1755_89774)">
<path d="M6.3293 8.87341L11.8643 3.73486C12.0455 3.5665 12.0452 3.29392 11.8634 3.12585C11.6815 2.9579 11.3869 2.95833 11.2055 3.12671L5.99998 7.95941L0.794436 3.12654C0.61303 2.95818 0.318633 2.95775 0.136758 3.12567C0.0455866 3.20993 9.57494e-07 3.32031 9.5881e-07 3.43069C9.60123e-07 3.54079 0.0452814 3.65073 0.13582 3.73484L5.67068 8.87341C5.75782 8.9545 5.87642 9 5.99998 9C6.12354 9 6.24199 8.95437 6.3293 8.87341Z" fill="#262028"/>
</g>
<defs>
<clipPath id="clip0_1755_89774">
<rect width="12" height="12" fill="white" transform="translate(12) rotate(90)"/>
</clipPath>
</defs>
</svg>
