<svg width="24" height="24" viewBox="0 0 24 24" fill="none" xmlns="http://www.w3.org/2000/svg">
<path d="M14.2485 12.0979V11.1275C14.2485 10.0248 13.5347 9.09531 12.5701 8.82769V2.31356C12.542 1.51432 11.4572 1.51492 11.4294 2.31356V8.82769C10.4647 9.09531 9.75098 10.0248 9.75098 11.1275V12.0979C7.07114 13.0842 5.14258 15.7817 5.14258 18.9468C5.14258 19.2798 5.39795 19.5498 5.71294 19.5498H8.87691C9.56352 23.199 14.4372 23.1965 15.1225 19.5498H18.2865C18.6015 19.5498 18.8569 19.2798 18.8569 18.9468C18.8569 15.7817 16.9283 13.0843 14.2485 12.0979ZM10.8917 11.1275C10.9476 9.57515 13.0524 9.57632 13.1077 11.1275V11.7922C12.7469 11.73 12.3769 11.6971 11.9997 11.6971C11.6225 11.6971 11.2525 11.73 10.8917 11.7922V11.1275ZM11.9997 21.0976C11.076 21.0976 10.2946 20.4431 10.0473 19.5498H13.9522C13.7049 20.4431 12.9235 21.0976 11.9997 21.0976ZM6.31156 18.3437C7.15874 11.1366 16.8432 11.1418 17.6879 18.3437H6.31156Z" fill="#00A887"/>
</svg>
