<svg width="28" height="28" viewBox="0 0 28 28" fill="none" xmlns="http://www.w3.org/2000/svg">
<path d="M6.02924 26H21.9708C23.6419 26 25 24.5733 25 22.8178V6.95998C25 5.20442 23.6419 3.77774 21.9708 3.77774H20.7692V2.88887C20.7692 2.39998 20.3884 2 19.923 2C19.4576 2 19.0769 2.39998 19.0769 2.88887V3.77774H8.9231V2.88887C8.9231 2.39998 8.54229 2 8.0769 2C7.61151 2 7.23076 2.39998 7.23076 2.88887V3.77774H6.02924C4.35809 3.77774 3 5.20442 3 6.95998V22.8178C3 24.5733 4.35809 26 6.02924 26ZM4.69235 6.95998C4.69235 6.18667 5.29311 5.55556 6.02924 5.55556H7.23076V6.44444C7.23076 6.93333 7.61151 7.33331 8.0769 7.33331C8.54229 7.33331 8.92303 6.93333 8.92303 6.44444V5.55556H19.0769V6.44444C19.0769 6.93333 19.4576 7.33331 19.923 7.33331C20.3884 7.33331 20.7692 6.93333 20.7692 6.44444V5.55556H21.9707C22.7068 5.55556 23.3076 6.18667 23.3076 6.95998V22.8178C23.3076 23.5911 22.7068 24.2222 21.9707 24.2222H6.02924C5.29311 24.2222 4.69235 23.5911 4.69235 22.8178V6.95998Z" fill="#A4A4A4"/>
<path d="M9.13384 12.2222C9.71798 12.2222 10.1915 11.7247 10.1915 11.1111C10.1915 10.4975 9.71798 10 9.13384 10C8.54971 10 8.07617 10.4975 8.07617 11.1111C8.07617 11.7247 8.54971 12.2222 9.13384 12.2222Z" fill="#A4A4A4"/>
<path d="M13.7881 12.2222C14.3723 12.2222 14.8458 11.7247 14.8458 11.1111C14.8458 10.4975 14.3723 10 13.7881 10C13.204 10 12.7305 10.4975 12.7305 11.1111C12.7305 11.7247 13.204 12.2222 13.7881 12.2222Z" fill="#A4A4A4"/>
<path d="M18.4424 12.2222C19.0266 12.2222 19.5001 11.7247 19.5001 11.1111C19.5001 10.4975 19.0266 10 18.4424 10C17.8583 10 17.3848 10.4975 17.3848 11.1111C17.3848 11.7247 17.8583 12.2222 18.4424 12.2222Z" fill="#A4A4A4"/>
<path d="M9.13384 16.6668C9.71798 16.6668 10.1915 16.1693 10.1915 15.5557C10.1915 14.942 9.71798 14.4446 9.13384 14.4446C8.54971 14.4446 8.07617 14.942 8.07617 15.5557C8.07617 16.1693 8.54971 16.6668 9.13384 16.6668Z" fill="#A4A4A4"/>
<path d="M13.7881 16.6668C14.3723 16.6668 14.8458 16.1693 14.8458 15.5557C14.8458 14.942 14.3723 14.4446 13.7881 14.4446C13.204 14.4446 12.7305 14.942 12.7305 15.5557C12.7305 16.1693 13.204 16.6668 13.7881 16.6668Z" fill="#A4A4A4"/>
<path d="M18.4424 16.6668C19.0266 16.6668 19.5001 16.1693 19.5001 15.5557C19.5001 14.942 19.0266 14.4446 18.4424 14.4446C17.8583 14.4446 17.3848 14.942 17.3848 15.5557C17.3848 16.1693 17.8583 16.6668 18.4424 16.6668Z" fill="#A4A4A4"/>
<path d="M9.13384 21.1111C9.71798 21.1111 10.1915 20.6136 10.1915 20C10.1915 19.3864 9.71798 18.8889 9.13384 18.8889C8.54971 18.8889 8.07617 19.3864 8.07617 20C8.07617 20.6136 8.54971 21.1111 9.13384 21.1111Z" fill="#A4A4A4"/>
<path d="M13.7881 21.1111C14.3723 21.1111 14.8458 20.6136 14.8458 20C14.8458 19.3864 14.3723 18.8889 13.7881 18.8889C13.204 18.8889 12.7305 19.3864 12.7305 20C12.7305 20.6136 13.204 21.1111 13.7881 21.1111Z" fill="#A4A4A4"/>
<path d="M18.4424 21.1111C19.0266 21.1111 19.5001 20.6136 19.5001 20C19.5001 19.3864 19.0266 18.8889 18.4424 18.8889C17.8583 18.8889 17.3848 19.3864 17.3848 20C17.3848 20.6136 17.8583 21.1111 18.4424 21.1111Z" fill="#A4A4A4"/>
</svg>
