<svg width="32" height="32" viewBox="0 0 32 32" fill="none" xmlns="http://www.w3.org/2000/svg">
<path d="M16 2C23.7324 2 30 8.2685 30 16.0001C30 23.7325 23.7324 30 16 30C8.26754 30 2 23.7324 2 16.0001C2 8.2685 8.26763 2 16 2Z" fill="#C8232C"/>
<path d="M16.4271 8C11.4911 8 9.00391 11.3269 9.00391 14.1005C9.00391 15.7801 9.67977 17.2744 11.1313 17.8311C11.3686 17.9221 11.5831 17.8345 11.6514 17.5871L11.8633 16.8026C11.9333 16.5586 11.9062 16.4719 11.7144 16.2586C11.295 15.7953 11.0289 15.1944 11.0289 14.3435C11.0289 11.8759 12.9927 9.66673 16.1426 9.66673C18.9328 9.66673 20.4649 11.269 20.4649 13.4085C20.4649 16.2238 19.1394 18.6004 17.1713 18.6004C16.0857 18.6004 15.2715 17.7563 15.5324 16.7184C15.8441 15.4825 16.45 14.1471 16.45 13.2538C16.45 12.4557 15.9939 11.7875 15.0483 11.7875C13.9373 11.7875 13.0453 12.8679 13.0453 14.3154C13.0453 15.2377 13.377 15.8608 13.377 15.8608L12.0402 21.1826C11.6436 22.7611 11.9815 24.6974 12.0095 24.8929C12.027 25.0085 12.1847 25.0357 12.2564 24.949C12.3588 24.8233 13.6817 23.2872 14.1317 21.7522C14.2595 21.3178 14.8627 19.0678 14.8627 19.0678C15.2235 19.7163 16.2784 20.2859 17.3999 20.2859C20.7381 20.2859 23.0039 17.4239 23.0039 13.5937C23.0028 10.6979 20.3939 8 16.4271 8Z" fill="white"/>
</svg>
