<svg width="32" height="32" viewBox="0 0 32 32" fill="none" xmlns="http://www.w3.org/2000/svg">
<path d="M16 30C23.732 30 30 23.732 30 16C30 8.26801 23.732 2 16 2C8.26801 2 2 8.26801 2 16C2 23.732 8.26801 30 16 30Z" fill="#E53935"/>
<path d="M20.9533 10.5804H11.0475C9.49199 10.5804 8.22266 11.8498 8.22266 13.4053V18.5884C8.22266 20.144 9.49199 21.4133 11.0475 21.4133H20.9533C22.5089 21.4133 23.7782 20.144 23.7782 18.5884V13.4053C23.7782 11.856 22.5089 10.5804 20.9533 10.5804ZM16.436 17.5307L14.0218 19.024V16.0373V13.0507L16.436 14.544L18.8502 16.0373L16.436 17.5307Z" fill="white"/>
</svg>
