<svg width="32" height="32" viewBox="0 0 32 32" fill="none" xmlns="http://www.w3.org/2000/svg">
<path d="M29.3821 15.3799C29.3845 15.3799 29.3864 15.3799 29.3888 15.3799C29.5593 15.3799 29.7219 15.3084 29.8374 15.1831C29.9548 15.056 30.0129 14.8854 29.9976 14.7131C29.3839 7.96295 24.04 2.61689 17.2897 2.00197C17.1185 1.98852 16.9462 2.04415 16.819 2.16212C16.6919 2.27948 16.621 2.44513 16.6228 2.61812C16.7292 11.5889 17.9125 15.2546 29.3821 15.3799ZM29.3821 16.6196C17.9125 16.7449 16.7298 20.4106 16.6234 29.3814C16.6216 29.5544 16.6925 29.72 16.8196 29.8374C16.9333 29.9419 17.0819 30 17.2347 30C17.253 30 17.2719 29.9994 17.2903 29.9976C24.0406 29.3826 29.3845 24.0372 29.9976 17.2865C30.0129 17.1141 29.9554 16.9435 29.8374 16.8164C29.7195 16.6893 29.5551 16.6263 29.3821 16.6196ZM14.6694 2.00503C7.94042 2.63768 2.61363 7.98251 2.00301 14.7143C1.98773 14.8867 2.04519 15.0572 2.16316 15.1843C2.27868 15.3097 2.44187 15.3806 2.61179 15.3806C2.61424 15.3806 2.61668 15.3806 2.61913 15.3806C14.0508 15.2491 15.2311 11.5853 15.3386 2.62056C15.3405 2.44758 15.269 2.28131 15.1418 2.16395C15.0135 2.04659 14.8417 1.98913 14.6694 2.00503ZM2.61852 16.619C2.42843 16.5976 2.27929 16.688 2.16254 16.8152C2.04519 16.9423 1.98712 17.1129 2.0024 17.2852C2.61301 24.017 7.94042 29.3618 14.6694 29.9945C14.6883 29.9963 14.7079 29.9969 14.7268 29.9969C14.8796 29.9969 15.0275 29.9395 15.1412 29.835C15.2684 29.7176 15.3399 29.5513 15.338 29.3784C15.2305 20.4143 14.0508 16.7504 2.61852 16.619Z" fill="black"/>
</svg>
