<svg width="32" height="32" viewBox="0 0 32 32" fill="none" xmlns="http://www.w3.org/2000/svg">
<path d="M16 30C23.732 30 30 23.732 30 16C30 8.26801 23.732 2 16 2C8.26801 2 2 8.26801 2 16C2 23.732 8.26801 30 16 30Z" fill="url(#paint0_linear_2394_89718)"/>
<path fill-rule="evenodd" clip-rule="evenodd" d="M8.96212 15.1659C12.719 13.4724 15.2241 12.356 16.4775 11.8166C20.0564 10.2765 20.8001 10.0089 21.2848 10.0001C21.3914 9.99817 21.6298 10.0255 21.7842 10.1551C22.0132 10.3474 22.0145 10.7648 21.9891 11.0411C21.7951 13.1494 20.956 18.2657 20.529 20.6271C20.3483 21.6262 19.9926 21.9613 19.6483 21.9941C18.9 22.0653 18.3317 21.4823 17.6068 20.9908C16.4726 20.2215 15.8318 19.7426 14.7308 18.992C13.4585 18.1245 14.2833 17.6478 15.0084 16.8685C15.1982 16.6646 18.4955 13.5616 18.5594 13.28C18.5674 13.2448 18.5748 13.1136 18.4994 13.0443C18.424 12.975 18.3128 12.9987 18.2326 13.0175C18.1188 13.0443 16.3069 14.2834 12.7968 16.7348C12.2825 17.1002 11.8166 17.2783 11.3992 17.2689C10.9391 17.2587 10.054 16.9998 9.396 16.7785C8.58895 16.5071 7.94752 16.3635 8.00339 15.9026C8.03249 15.6624 8.35205 15.4169 8.96212 15.1659Z" fill="white"/>
<defs>
<linearGradient id="paint0_linear_2394_89718" x1="16" y1="2" x2="16" y2="29.7813" gradientUnits="userSpaceOnUse">
<stop stop-color="#2AABEE"/>
<stop offset="1" stop-color="#229ED9"/>
</linearGradient>
</defs>
</svg>
