<svg width="20" height="20" viewBox="0 0 20 20" fill="none" xmlns="http://www.w3.org/2000/svg">
<path d="M9.99833 0C6.05978 0 2.85547 3.11865 2.85547 6.9519C2.85547 11.7699 10.0053 20 10.0053 20C10.0053 20 17.1412 11.533 17.1412 6.9519C17.1412 3.11865 13.937 0 9.99833 0ZM12.1535 8.98743C11.5592 9.56567 10.7788 9.85486 9.99833 9.85486C9.21794 9.85486 8.43731 9.56567 7.8433 8.98743C6.65492 7.83093 6.65492 5.9491 7.8433 4.79248C8.41874 4.23218 9.1842 3.92358 9.99833 3.92358C10.8124 3.92358 11.5778 4.2323 12.1535 4.79248C13.3419 5.9491 13.3419 7.83093 12.1535 8.98743Z" fill="#262028"/>
</svg>
