<svg width="40" height="40" viewBox="0 0 40 40" fill="none" xmlns="http://www.w3.org/2000/svg">
<g clip-path="url(#clip0_1916_67200)">
<path d="M8.64422 32.998C8.64422 32.4401 9.02023 31.9823 9.63946 31.9823C10.2302 31.9823 10.6285 32.4215 10.6285 32.998C10.6285 33.5744 10.2302 34.0147 9.63946 34.0147C9.02023 34.0147 8.64422 33.5568 8.64422 32.998ZM11.3011 32.998V31.4118H10.5913V31.797C10.4684 31.6449 10.3096 31.5233 10.1284 31.4423C9.94722 31.3614 9.74865 31.3233 9.54886 31.3314C8.62931 31.3314 7.90956 32.0304 7.90956 32.998C7.90956 33.9656 8.62931 34.6647 9.54886 34.6647C9.74741 34.6727 9.94474 34.635 10.1259 34.5545C10.3059 34.4741 10.4647 34.3532 10.5875 34.2019V34.5843H11.2974L11.3011 32.998ZM35.4166 32.998C35.4166 32.4401 35.7951 31.9823 36.4106 31.9823C37.0038 31.9823 37.4009 32.4215 37.4009 32.998C37.4009 33.5744 37.0038 34.0147 36.4106 34.0147C35.7951 34.0147 35.4166 33.5568 35.4166 32.998ZM38.0735 32.998V30.1362H37.3636V31.797C37.242 31.6447 37.0832 31.523 36.9032 31.442C36.7221 31.361 36.5235 31.323 36.325 31.3314C35.4042 31.3314 34.6819 32.0293 34.6819 32.998C34.6819 33.9666 35.4042 34.6647 36.325 34.6647C36.5223 34.6729 36.7208 34.6353 36.9008 34.5547C37.0807 34.4742 37.2383 34.3532 37.3612 34.2019V34.5843H38.0697L38.0735 32.998ZM20.159 31.95C20.6194 31.95 20.9148 32.2284 20.9905 32.7196H19.2891C19.3624 32.2627 19.6502 31.95 20.159 31.95ZM20.1764 31.3314C19.2159 31.3314 18.5421 32.0069 18.5421 32.998C18.5421 34.0088 19.2432 34.6647 20.2248 34.6647C20.715 34.6813 21.194 34.5233 21.5712 34.2205L21.2213 33.7098C20.9495 33.9198 20.6132 34.0368 20.2657 34.0421C19.8054 34.0421 19.3859 33.8342 19.2829 33.2647H21.7214C21.7276 33.1784 21.7338 33.0902 21.7338 32.998C21.7276 32.0078 21.096 31.3314 20.1764 31.3314ZM28.7936 32.998C28.7936 32.4401 29.1733 31.9823 29.7901 31.9823C30.382 31.9823 30.7779 32.4215 30.7779 32.998C30.7779 33.5744 30.382 34.0147 29.7901 34.0147C29.1733 34.0147 28.7936 33.5568 28.7936 32.998ZM31.4517 32.998V31.4118H30.7431V31.797C30.6191 31.644 30.4602 31.5218 30.2778 31.4408C30.0966 31.3598 29.8968 31.3222 29.6958 31.3314C28.7762 31.3314 28.0565 32.0293 28.0565 32.998C28.0565 33.9666 28.7762 34.6647 29.6958 34.6647C29.8956 34.6729 30.0929 34.6353 30.2728 34.5547C30.454 34.4743 30.6116 34.3534 30.7345 34.2019V34.5843H31.4443L31.4517 32.998ZM24.7617 32.998C24.7617 33.9617 25.4542 34.6647 26.5127 34.6647C26.9421 34.6854 27.364 34.5504 27.6953 34.2863L27.3516 33.7293C27.1034 33.9103 26.8031 34.0101 26.4929 34.0147C25.922 34.0088 25.5026 33.6108 25.5026 32.998C25.5026 32.3853 25.922 31.9891 26.4929 31.9823C26.8031 31.9866 27.1047 32.0873 27.3516 32.2696L27.6953 31.7107C27.3628 31.4465 26.9409 31.3112 26.5115 31.3314C25.4529 31.3314 24.7593 32.0342 24.7593 32.998H24.7617ZM33.9634 31.3314C33.7897 31.3266 33.6172 31.3671 33.4646 31.4489C33.3119 31.5306 33.1854 31.6506 33.0972 31.796V31.4108H32.3874V34.5833H33.0972V32.8019C33.0972 32.2783 33.3318 31.9853 33.7971 31.9853C33.9498 31.9825 34.1024 32.0095 34.2439 32.0647L34.4648 31.4147C34.3022 31.358 34.1297 31.3287 33.9572 31.3284L33.9634 31.3314ZM14.8254 31.6587C14.4829 31.4421 14.0076 31.3284 13.4864 31.3284C12.655 31.3284 12.1201 31.7137 12.1201 32.3421C12.1201 32.8626 12.5185 33.1803 13.2531 33.2814L13.5882 33.3254C13.9803 33.3804 14.1677 33.4794 14.1677 33.6597C14.1677 33.9038 13.9046 34.0441 13.4182 34.0441C13.026 34.055 12.6413 33.9383 12.3261 33.7127L11.9898 34.249C12.4043 34.5303 12.9019 34.6746 13.4082 34.6607C14.3551 34.6607 14.9061 34.2294 14.9061 33.6264C14.9061 33.0676 14.4717 32.7765 13.7594 32.6745L13.4231 32.6294C13.1141 32.5912 12.8672 32.5313 12.8672 32.3166C12.8672 32.0852 13.0992 31.946 13.4926 31.946C13.8525 31.9517 14.2037 32.045 14.5164 32.2176L14.8254 31.6587ZM24.0395 31.3314C23.8658 31.3267 23.6933 31.3674 23.5406 31.4491C23.388 31.5309 23.2614 31.6507 23.1721 31.796V31.4108H22.4635V34.5833H23.1721V32.8019C23.1721 32.2783 23.4078 31.9853 23.8732 31.9853C24.0258 31.9825 24.1785 32.0095 24.3199 32.0647L24.5396 31.4147C24.3783 31.3577 24.2058 31.3285 24.0333 31.3284L24.0395 31.3314ZM17.9439 31.4078H16.7811V30.449H16.0589V31.4118H15.3925V32.0431H16.0589V33.4882C16.0589 34.2264 16.3543 34.6647 17.2006 34.6647C17.5158 34.6655 17.8248 34.5802 18.0916 34.4185L17.8893 33.8304C17.697 33.9417 17.4798 34.0041 17.2564 34.0117C16.8991 34.0117 16.7824 33.7989 16.7824 33.4794V32.0431H17.9452L17.9439 31.4078ZM7.27793 34.5843V32.595C7.27793 31.8451 6.78403 31.3392 5.98609 31.3323C5.56665 31.3245 5.13354 31.452 4.83199 31.896C4.72031 31.7171 4.56146 31.5703 4.3716 31.4709C4.18173 31.3717 3.96829 31.3234 3.75237 31.3314C3.56374 31.3225 3.37634 31.3614 3.20757 31.4441C3.0388 31.5267 2.89486 31.6505 2.79187 31.8029V31.4108H2.08203V34.5833H2.80427V32.8254C2.80427 32.2764 3.12073 31.9823 3.60594 31.9823C4.09239 31.9823 4.31575 32.2823 4.31575 32.8186V34.5833H5.03676V32.8254C5.03676 32.2764 5.36685 31.9823 5.84089 31.9823C6.3137 31.9823 6.56065 32.2823 6.56065 32.8186V34.5833L7.27793 34.5843Z" fill="black"/>
<path d="M25.4099 7.2251H14.5938V26.0239H25.4099V7.2251Z" fill="#EB611D"/>
<path d="M15.2786 16.621C15.2762 14.811 15.7006 13.0242 16.5184 11.396C17.3362 9.76772 18.5262 8.3408 19.998 7.2231C18.175 5.83742 15.9847 4.97584 13.679 4.7368C11.3721 4.49775 9.04408 4.8909 6.95803 5.87129C4.87198 6.85169 3.11355 8.3798 1.88253 10.281C0.65274 12.1821 0 14.3797 0 16.6225C0 18.8652 0.65274 21.0629 1.88253 22.9641C3.11355 24.8652 4.87198 26.3933 6.95803 27.3737C9.04408 28.3541 11.3721 28.7473 13.679 28.5082C15.9847 28.2692 18.175 27.4076 19.998 26.0219C18.5262 24.9036 17.3362 23.4761 16.5184 21.8474C15.7006 20.2187 15.2762 18.4315 15.2786 16.621Z" fill="#E41322"/>
<path d="M40.0017 16.6213C39.9992 18.8636 39.3453 21.0602 38.1142 22.9603C36.8832 24.8606 35.1248 26.3879 33.04 27.3682C30.9539 28.3484 28.6259 28.7419 26.3202 28.5039C24.0145 28.2659 21.8242 27.406 20 26.0222C21.4705 24.9029 22.6606 23.4754 23.4772 21.8472C24.2949 20.219 24.7193 18.4326 24.7193 16.6227C24.7193 14.8128 24.2949 13.0264 23.4772 11.3982C22.6606 9.77012 21.4705 8.34258 20 7.2233C21.8242 5.8369 24.0132 4.97465 26.3202 4.7351C28.6271 4.49557 30.9564 4.88841 33.0424 5.86873C35.1285 6.84905 36.8882 8.37729 38.1179 10.2787C39.349 12.1802 40.0017 14.3781 40.0017 16.6213Z" fill="#F59E21"/>
</g>
<defs>
<clipPath id="clip0_1916_67200">
<rect width="40" height="40" fill="white"/>
</clipPath>
</defs>
</svg>
