<svg width="40" height="40" viewBox="0 0 40 40" fill="none" xmlns="http://www.w3.org/2000/svg">
<g clip-path="url(#clip0_1916_67190)">
<path d="M39.6181 23.9911V23.5278H39.4981L39.3581 23.8367L39.2181 23.5278H39.0981V23.9911H39.1781V23.6437L39.3181 23.9525H39.4181L39.5581 23.6437V23.9911H39.6181ZM38.8181 23.9911V23.605H38.9781V23.5278H38.5781V23.605H38.7381V23.9911H38.8181Z" fill="#00A2E5"/>
<path d="M25.3981 25.9785H14.5781V7.2146H25.3981V25.9785Z" fill="#7375CF"/>
<path d="M15.28 16.5969C15.28 12.7939 17.12 9.39633 20 7.21493C17.9 5.61266 15.24 4.66675 12.36 4.66675C5.54 4.66675 0 10.0141 0 16.5969C0 23.1797 5.54 28.527 12.36 28.527C15.24 28.527 17.9 27.5811 20 25.9788C17.12 23.7974 15.28 20.3998 15.28 16.5969Z" fill="#EB001B"/>
<path d="M40 16.5969C40 23.1797 34.46 28.527 27.64 28.527C24.76 28.527 22.1 27.5811 20 25.9788C22.88 23.7974 24.72 20.3998 24.72 16.5969C24.72 12.7939 22.88 9.39633 20 7.21493C22.1 5.61266 24.76 4.66675 27.64 4.66675C34.46 4.66675 40 10.0141 40 16.5969Z" fill="#00A2E5"/>
<path d="M29.0395 31.2882C29.1795 31.2882 29.3995 31.3075 29.5395 31.3654L29.3195 32.0217C29.1595 31.9638 29.0195 31.9445 28.8795 31.9445C28.4195 31.9445 28.1795 32.2341 28.1795 32.7553V34.5313H27.4595V31.3654H28.1595V31.7515C28.3595 31.4619 28.6395 31.2882 29.0395 31.2882ZM26.3995 31.9831H25.2395V33.4117C25.2395 33.7205 25.3595 33.9329 25.7195 33.9329C25.8995 33.9329 26.1395 33.875 26.3595 33.7591L26.5595 34.3576C26.3395 34.512 25.9795 34.6085 25.6595 34.6085C24.8195 34.6085 24.5195 34.1645 24.5195 33.431V31.9831H23.8595V31.3461H24.5195V30.3809H25.2395V31.3461H26.3995V31.9831ZM17.2595 32.6588C17.3395 32.1955 17.6195 31.8866 18.1395 31.8866C18.5995 31.8866 18.8995 32.1569 18.9795 32.6588H17.2595ZM19.7195 32.9483C19.7195 31.9638 19.0795 31.2882 18.1595 31.2882C17.1995 31.2882 16.5195 31.9638 16.5195 32.9483C16.5195 33.9522 17.2195 34.6085 18.1995 34.6085C18.6995 34.6085 19.1395 34.4927 19.5395 34.1645L19.1795 33.6626C18.8995 33.875 18.5595 33.9908 18.2195 33.9908C17.7595 33.9908 17.3395 33.7784 17.2395 33.2186H19.6795C19.6995 33.1221 19.7195 33.0449 19.7195 32.9483ZM22.8595 32.1762C22.6595 32.0603 22.2595 31.9059 21.8395 31.9059C21.4395 31.9059 21.2195 32.041 21.2195 32.2727C21.2195 32.485 21.4595 32.543 21.7795 32.5816L22.1195 32.6202C22.8395 32.7167 23.2595 33.0063 23.2595 33.5661C23.2595 34.1645 22.7195 34.6085 21.7595 34.6085C21.2195 34.6085 20.7195 34.4734 20.3395 34.2031L20.6795 33.6626C20.9195 33.8364 21.2795 33.9908 21.7795 33.9908C22.2595 33.9908 22.5195 33.8557 22.5195 33.6047C22.5195 33.431 22.3395 33.3344 21.9395 33.2765L21.5995 33.2379C20.8595 33.1414 20.4595 32.8132 20.4595 32.3113C20.4595 31.6743 20.9995 31.2882 21.8195 31.2882C22.3395 31.2882 22.8195 31.404 23.1595 31.6163L22.8595 32.1762ZM31.6595 31.9252C31.5195 31.9252 31.3795 31.9445 31.2595 32.0024C31.1395 32.0603 31.0195 32.1183 30.9395 32.2148C30.8595 32.3113 30.7795 32.4078 30.7195 32.543C30.6595 32.6588 30.6395 32.8132 30.6395 32.9483C30.6395 33.1028 30.6595 33.2379 30.7195 33.3537C30.7795 33.4696 30.8395 33.5854 30.9395 33.6819C31.0395 33.7784 31.1395 33.8364 31.2595 33.8943C31.3795 33.9522 31.5195 33.9715 31.6595 33.9715C31.7995 33.9715 31.9395 33.9522 32.0595 33.8943C32.1795 33.8364 32.2995 33.7784 32.3795 33.6819C32.4795 33.5854 32.5395 33.4889 32.5995 33.3537C32.6595 33.2379 32.6795 33.0835 32.6795 32.9483C32.6795 32.7939 32.6595 32.6588 32.5995 32.543C32.5395 32.4271 32.4795 32.3113 32.3795 32.2148C32.2795 32.1183 32.1795 32.0603 32.0595 32.0024C31.9395 31.9638 31.7995 31.9252 31.6595 31.9252ZM31.6595 31.2882C31.9195 31.2882 32.1595 31.3268 32.3595 31.4233C32.5795 31.5005 32.7595 31.6163 32.9195 31.7708C33.0795 31.9252 33.1995 32.099 33.2995 32.292C33.3795 32.5043 33.4395 32.7167 33.4395 32.9483C33.4395 33.18 33.3995 33.4117 33.2995 33.6047C33.2195 33.817 33.0795 33.9908 32.9195 34.1259C32.7595 34.2804 32.5795 34.3962 32.3595 34.4734C32.1395 34.5506 31.8995 34.6085 31.6595 34.6085C31.3995 34.6085 31.1595 34.5699 30.9595 34.4734C30.7395 34.3962 30.5595 34.2804 30.3995 34.1259C30.2395 33.9715 30.1195 33.7977 30.0195 33.6047C29.9395 33.3923 29.8795 33.18 29.8795 32.9483C29.8795 32.7167 29.9195 32.485 30.0195 32.292C30.0995 32.0797 30.2395 31.9059 30.3995 31.7708C30.5595 31.6163 30.7395 31.5005 30.9595 31.4233C31.1595 31.3268 31.3995 31.2882 31.6595 31.2882ZM13.0995 32.9483C13.0995 32.3885 13.4795 31.9252 14.0995 31.9252C14.6995 31.9252 15.0795 32.3692 15.0795 32.9483C15.0795 33.5275 14.6795 33.9522 14.0995 33.9522C13.4795 33.9522 13.0995 33.5082 13.0995 32.9483ZM15.7595 32.9483V31.3654H15.0395V31.7515C14.8195 31.4619 14.4795 31.2882 13.9995 31.2882C13.0795 31.2882 12.3595 31.9831 12.3595 32.9483C12.3595 33.9136 13.0795 34.6085 13.9995 34.6085C14.4595 34.6085 14.7995 34.4348 15.0395 34.1452V34.5313H15.7595V32.9483ZM11.7395 34.5313V32.543C11.7395 31.7901 11.2395 31.2882 10.4395 31.2882C10.0195 31.2882 9.57953 31.404 9.27953 31.848C9.05953 31.5005 8.69953 31.2882 8.19953 31.2882C7.85953 31.2882 7.49953 31.3847 7.23953 31.7515V31.3654H6.51953V34.5313H7.23953V32.7746C7.23953 32.2341 7.55953 31.9252 8.03953 31.9252C8.51953 31.9252 8.75953 32.2148 8.75953 32.7553V34.512H9.47953V32.7553C9.47953 32.2148 9.81953 31.9059 10.2795 31.9059C10.7595 31.9059 10.9995 32.1955 10.9995 32.736V34.4927H11.7395V34.5313Z" fill="black"/>
<path d="M34.1983 34.28V34.3572H34.2784C34.2985 34.3572 34.3185 34.3572 34.3185 34.3379C34.3385 34.3379 34.3385 34.3186 34.3385 34.2993C34.3385 34.28 34.3385 34.28 34.3185 34.28C34.3185 34.28 34.2985 34.2607 34.2784 34.2607H34.1983V34.28ZM34.2784 34.2414C34.3185 34.2414 34.3385 34.2414 34.3585 34.2607C34.3786 34.28 34.3986 34.2993 34.3986 34.3379C34.3986 34.3572 34.3986 34.3765 34.3786 34.3958C34.3585 34.4151 34.3385 34.4151 34.2985 34.4151L34.3986 34.5309H34.3185L34.2184 34.4151H34.1983V34.5309H34.1383V34.2414H34.2784ZM34.2584 34.6275C34.2985 34.6275 34.3185 34.6275 34.3585 34.6082C34.3986 34.5888 34.4186 34.5695 34.4386 34.5502C34.4587 34.5309 34.4787 34.5116 34.4987 34.473C34.5187 34.4344 34.5188 34.4151 34.5188 34.3765C34.5188 34.3379 34.5187 34.3186 34.4987 34.28C34.4787 34.2414 34.4587 34.2221 34.4386 34.2028C34.4186 34.1835 34.3986 34.1641 34.3585 34.1448C34.3385 34.1255 34.2985 34.1255 34.2584 34.1255C34.2184 34.1255 34.1983 34.1255 34.1583 34.1448C34.1182 34.1641 34.0982 34.1835 34.0782 34.2028C34.0581 34.2221 34.0381 34.2607 34.0181 34.28C33.9981 34.3186 33.9981 34.3379 33.9981 34.3765C33.9981 34.4151 33.9981 34.4344 34.0181 34.473C34.0381 34.5116 34.0581 34.5309 34.0782 34.5502C34.0982 34.5695 34.1383 34.5888 34.1583 34.6082C34.1983 34.6275 34.2184 34.6275 34.2584 34.6275ZM34.2584 34.0676C34.2985 34.0676 34.3385 34.0676 34.3786 34.0869C34.4186 34.1062 34.4587 34.1255 34.4787 34.1448C34.4987 34.1641 34.5388 34.2028 34.5588 34.2414C34.5788 34.28 34.5788 34.3186 34.5788 34.3572C34.5788 34.3958 34.5788 34.4344 34.5588 34.473C34.5388 34.5116 34.5187 34.5502 34.4787 34.5695C34.4386 34.5888 34.4186 34.6275 34.3786 34.6468C34.3385 34.6661 34.2985 34.6661 34.2584 34.6661C34.2184 34.6661 34.1583 34.6661 34.1182 34.6468C34.0782 34.6275 34.0381 34.6081 34.0181 34.5695C33.9981 34.5502 33.958 34.5116 33.938 34.473C33.918 34.4344 33.918 34.3958 33.918 34.3572C33.918 34.3186 33.918 34.28 33.938 34.2414C33.958 34.2028 33.978 34.1641 34.0181 34.1448C34.0381 34.1255 34.0782 34.0869 34.1182 34.0869C34.1583 34.0676 34.2184 34.0676 34.2584 34.0676Z" fill="black"/>
</g>
<defs>
<clipPath id="clip0_1916_67190">
<rect width="40" height="40" fill="white"/>
</clipPath>
</defs>
</svg>
