<svg width="40" height="40" viewBox="0 0 40 40" fill="none" xmlns="http://www.w3.org/2000/svg">
<g clip-path="url(#clip0_1916_67161)">
<path d="M27.1587 26.1837L29.4505 24.5105H21.7773V34.5334H29.4505V32.8602H23.9691V30.3011H28.6539V28.6279H23.9691V26.1837H27.1587Z" fill="#21A038"/>
<path d="M15.9824 28.4146H13.3256V26.1837H17.5777L19.8695 24.5105H11.1328V34.5334H15.7003C18.2581 34.5334 19.7371 33.3851 19.7371 31.3838C19.7371 29.4645 18.4077 28.4146 15.9824 28.4146ZM15.6174 32.8602H13.3256V30.0879H15.6174C17.0126 30.0879 17.6606 30.5472 17.6606 31.4822C17.6606 32.4172 16.963 32.8602 15.6174 32.8602Z" fill="#21A038"/>
<path d="M35.6653 24.5105H31.4961V34.5334H33.6889V31.6955H35.6825C38.3403 31.6955 40.0013 30.3175 40.0013 28.103C40.0013 25.8884 38.3403 24.5105 35.6653 24.5105ZM35.6158 30.0222H33.6727V26.1837H35.6158C37.0281 26.1837 37.7924 26.8727 37.7924 28.103C37.7924 29.3333 37.0281 30.0222 35.6158 30.0222Z" fill="#21A038"/>
<path d="M7.37628 32.3682C6.79498 32.6799 6.14796 32.8439 5.48275 32.8439C3.50632 32.8439 2.07783 31.4496 2.07783 29.5303C2.07783 27.611 3.50632 26.2167 5.48275 26.2167C6.1975 26.2003 6.89506 26.4299 7.47636 26.84L9.05448 25.6918L8.95439 25.5933C8.04149 24.7895 6.81217 24.3794 5.41704 24.3794C3.90565 24.3794 2.5267 24.888 1.52989 25.8066C0.533086 26.758 -0.0310315 28.0867 0.00131925 29.4647C-0.0148561 30.859 0.533086 32.2042 1.52989 33.1884C2.57624 34.1562 3.97137 34.6976 5.39985 34.6648C6.97796 34.6648 8.35692 34.1234 9.287 33.1392L7.87469 32.1057L7.37628 32.3682Z" fill="#21A038"/>
<path d="M25.7738 7.91504C26.1731 8.42354 26.5047 8.98134 26.7878 9.57184L19.1136 15.1656L15.8906 13.1643V10.7693L19.0964 12.7542L25.7738 7.91504Z" fill="#21A038"/>
<path d="M12.6188 12.9995C12.6188 12.8846 12.6188 12.7862 12.636 12.6714L10.693 12.573C10.693 12.7042 10.6758 12.8518 10.6758 12.9831C10.6758 15.2796 11.623 17.363 13.1506 18.8721L14.5296 17.5106C13.3498 16.3623 12.6188 14.7711 12.6188 12.9995Z" fill="url(#paint0_linear_1916_67161)"/>
<path d="M19.0988 6.60167C19.2151 6.60167 19.3152 6.60167 19.4314 6.61807L19.5315 4.69877C19.3981 4.69877 19.2484 4.68237 19.116 4.68237C16.7898 4.68237 14.6809 5.61738 13.1523 7.12658L14.5313 8.48808C15.6939 7.32338 17.3216 6.60167 19.0988 6.60167Z" fill="url(#paint1_linear_1916_67161)"/>
<path d="M19.0957 19.397C18.9795 19.397 18.8804 19.397 18.7641 19.3806L18.6641 21.2998C18.7975 21.2998 18.9461 21.3162 19.0796 21.3162C21.4048 21.3162 23.5147 20.3812 25.0422 18.872L23.6643 17.5105C22.5017 18.6916 20.8902 19.397 19.0957 19.397Z" fill="url(#paint2_linear_1916_67161)"/>
<path d="M22.7523 7.71795L24.3971 6.52045C22.9514 5.37215 21.1074 4.66675 19.0977 4.66675V6.58605C20.4604 6.60245 21.7221 7.01255 22.7523 7.71795Z" fill="url(#paint3_linear_1916_67161)"/>
<path d="M27.5355 12.9994C27.5355 12.4909 27.486 11.9987 27.4031 11.5066L25.5925 12.8353C25.5925 12.8846 25.5925 12.9502 25.5925 12.9994C25.5925 14.8859 24.7614 16.5755 23.4492 17.7402L24.7614 19.1673C26.4558 17.6581 27.5355 15.4436 27.5355 12.9994Z" fill="#21A038"/>
<path d="M19.0973 19.3984C17.1876 19.3984 15.476 18.5782 14.2972 17.2822L12.8516 18.5782C14.3973 20.2678 16.6224 21.3176 19.0973 21.3176V19.3984Z" fill="url(#paint4_linear_1916_67161)"/>
<path d="M14.7621 8.25972L13.4499 6.83252C11.7393 8.35812 10.6758 10.5563 10.6758 13.0005H12.6188C12.6188 11.1304 13.4499 9.42442 14.7621 8.25972Z" fill="url(#paint5_linear_1916_67161)"/>
</g>
<defs>
<linearGradient id="paint0_linear_1916_67161" x1="12.9494" y1="18.6386" x2="11.0042" y2="12.9634" gradientUnits="userSpaceOnUse">
<stop offset="0.1444" stop-color="#F2E913"/>
<stop offset="0.3037" stop-color="#E7E518"/>
<stop offset="0.5823" stop-color="#CADB26"/>
<stop offset="0.891" stop-color="#A3CD39"/>
</linearGradient>
<linearGradient id="paint1_linear_1916_67161" x1="13.7064" y1="6.90407" x2="18.733" y2="4.97085" gradientUnits="userSpaceOnUse">
<stop offset="0.0592" stop-color="#0FA8E0"/>
<stop offset="0.5385" stop-color="#0099F9"/>
<stop offset="0.9234" stop-color="#0291EB"/>
</linearGradient>
<linearGradient id="paint2_linear_1916_67161" x1="18.5498" y1="19.679" x2="24.5506" y2="18.3102" gradientUnits="userSpaceOnUse">
<stop offset="0.1226" stop-color="#A3CD39"/>
<stop offset="0.2846" stop-color="#86C339"/>
<stop offset="0.8693" stop-color="#21A038"/>
</linearGradient>
<linearGradient id="paint3_linear_1916_67161" x1="18.6983" y1="5.89475" x2="23.685" y2="7.44754" gradientUnits="userSpaceOnUse">
<stop offset="0.0566" stop-color="#0291EB"/>
<stop offset="0.79" stop-color="#0C8ACB"/>
</linearGradient>
<linearGradient id="paint4_linear_1916_67161" x1="13.3459" y1="18.8899" x2="18.6957" y2="20.9075" gradientUnits="userSpaceOnUse">
<stop offset="0.1324" stop-color="#F2E913"/>
<stop offset="0.2977" stop-color="#EBE716"/>
<stop offset="0.5306" stop-color="#D9E01F"/>
<stop offset="0.8023" stop-color="#BBD62D"/>
<stop offset="0.9829" stop-color="#A3CD39"/>
</linearGradient>
<linearGradient id="paint5_linear_1916_67161" x1="12.1548" y1="13.2323" x2="14.2587" y2="7.70674" gradientUnits="userSpaceOnUse">
<stop offset="0.0698" stop-color="#A3CD39"/>
<stop offset="0.2599" stop-color="#81C55F"/>
<stop offset="0.9216" stop-color="#0FA8E0"/>
</linearGradient>
<clipPath id="clip0_1916_67161">
<rect width="40" height="40" fill="white"/>
</clipPath>
</defs>
</svg>
