<svg width="12" height="16" viewBox="0 0 12 16" fill="none" xmlns="http://www.w3.org/2000/svg">
<path fill-rule="evenodd" clip-rule="evenodd" d="M2.2748 10.0401H5.75894C7.016 10.0401 8.04433 9.07927 8.04433 7.90492V2.10305C8.04433 0.771805 6.72124 0.00280431 6.23731 0.00280431C5.62746 0.00280431 4.61741 -0.12142 3.74913 1.28371C3.21586 2.1467 1.74834 4.53385 1.10897 5.58975L0.444388 6.68724C-0.866097 8.8514 1.01779 10.04 2.27485 10.04L2.2748 10.0401Z" fill="#C14784"/>
<path fill-rule="evenodd" clip-rule="evenodd" d="M9.72656 5.95996H6.24242C4.98536 5.95996 3.95703 6.92076 3.95703 8.09511V13.897C3.95703 15.2282 5.28012 15.9972 5.76405 15.9972C6.3739 15.9972 7.38395 16.1214 8.25223 14.7163C8.7855 13.8533 10.253 11.4662 10.8924 10.4103L11.557 9.31279C12.8675 7.14863 10.9836 5.96001 9.7265 5.96001L9.72656 5.95996Z" fill="#C14784"/>
<path fill-rule="evenodd" clip-rule="evenodd" d="M3.95703 10.04H5.76042C7.01748 10.04 8.0458 9.07924 8.0458 7.9049V5.95996H6.24242C4.98536 5.95996 3.95703 6.92076 3.95703 8.09511V10.04Z" fill="#D92A6D"/>
</svg>
