<svg width="116" height="22" viewBox="0 0 116 22" fill="none" xmlns="http://www.w3.org/2000/svg">
<g clip-path="url(#clip0_1916_67300)">
<path d="M54.5099 18.6321H56.8132L60.0238 6.37811V18.6321H62.6062V2.43677H59.0466L55.836 14.3325L52.6255 2.43677H48.9961V18.6321H51.2296V6.37811L54.5099 18.6321ZM73.4245 10.6061C73.4245 7.73966 72.0286 6.66475 69.167 6.66475C67.3523 6.66475 65.9564 7.23804 65.1188 7.73966V10.0328C65.8168 9.45952 67.4221 8.88623 68.818 8.88623C70.1441 8.88623 70.7025 9.38786 70.7025 10.6061V11.251H70.2837C66.1658 11.251 64.2813 12.6843 64.2813 15.0491C64.2813 17.4139 65.6772 18.7754 67.7711 18.7754C69.3764 18.7754 70.0743 18.2738 70.5629 17.7005H70.7025C70.7025 17.9871 70.8421 18.4171 70.9119 18.6321H73.5641C73.4943 17.7005 73.4245 16.6973 73.4245 15.7657V10.6061ZM70.7025 15.8373C70.3535 16.339 69.7253 16.7689 68.7482 16.7689C67.6315 16.7689 67.0731 16.0523 67.0731 15.0491C67.0731 13.6875 67.9805 13.1859 70.3535 13.1859H70.7723V15.8373H70.7025ZM78.1008 6.87973H75.5882V22.0002H78.3102V17.2705C79.0081 18.3455 79.9853 18.8471 81.1718 18.8471C83.824 18.8471 85.6387 16.6973 85.6387 12.7559C85.6387 8.81457 83.8938 6.66475 81.3114 6.66475C80.0551 6.66475 79.0081 7.23804 78.2404 8.38461L78.1008 6.87973ZM80.404 16.6973C79.0081 16.6973 78.2404 15.479 78.2404 12.8276C78.2404 10.1045 79.0081 8.88623 80.5436 8.88623C82.0093 8.88623 82.7771 10.1045 82.7771 12.7559C82.7771 15.479 82.0093 16.6973 80.404 16.6973ZM94.0839 18.6321H97.1549L92.8276 12.326L96.6664 6.87973H93.9443L90.1056 12.326V6.87973H87.3836V18.6321H90.1056V12.8992L94.0839 18.6321ZM106.228 17.8438V15.5507C105.391 16.124 103.995 16.6256 102.669 16.6256C100.715 16.6256 99.9468 15.694 99.8072 13.6875H106.298V12.1826C106.298 8.09797 104.553 6.59309 101.831 6.59309C98.5508 6.59309 96.9455 9.17288 96.9455 12.7559C96.9455 16.8406 98.8998 18.8471 102.32 18.8471C104.204 18.8471 105.461 18.4171 106.228 17.8438ZM101.831 8.88623C103.157 8.88623 103.576 10.0328 103.576 11.466V11.681H99.8072C99.877 9.81782 100.575 8.88623 101.831 8.88623ZM116 9.10122V6.87973H106.926V9.10122H110.137V18.6321H112.859V9.10122H116Z" fill="black"/>
<path d="M32.8724 21.4982C38.6654 21.4982 43.3417 16.697 43.3417 10.7491C43.3417 4.80127 38.6654 0 32.8724 0C27.0794 0 22.4031 4.80127 22.4031 10.7491C22.3333 16.697 27.0794 21.4982 32.8724 21.4982Z" fill="#FED42B"/>
<path d="M10.4693 21.4982C16.2514 21.4982 20.9386 16.6857 20.9386 10.7491C20.9386 4.81254 16.2514 0 10.4693 0C4.68727 0 0 4.81254 0 10.7491C0 16.6857 4.68727 21.4982 10.4693 21.4982Z" fill="#FC3F1D"/>
<path d="M12.0048 6.01942H10.9578C9.14315 6.01942 8.23581 6.95101 8.23581 8.38422C8.23581 9.96076 8.86397 10.749 10.1901 11.6806L11.237 12.4689L8.23581 17.2702H5.79297L8.65458 12.8988C6.97949 11.6806 6.07215 10.534 6.07215 8.52754C6.07215 6.01942 7.74724 4.29956 10.9578 4.29956H14.1684V17.1985H12.0746V6.01942H12.0048Z" fill="white"/>
<path d="M27.7091 5.87608L18.4961 18.2734L20.9389 21.1398L27.7789 11.8239L27.0809 16.9118L30.9197 18.2734L35.596 10.6057C35.3866 12.0389 35.0376 15.3353 38.1086 16.3385C42.9245 17.8434 47.1122 8.95749 49.0665 4.44286L46.2747 2.93799C44.111 7.59594 40.7608 12.7555 39.4347 12.3972C38.1086 12.0389 39.2951 7.6676 40.0629 4.87283V4.80117L35.8054 3.29629L30.7103 11.8239L31.4082 7.16597L27.7091 5.87608Z" fill="black"/>
</g>
<defs>
<clipPath id="clip0_1916_67300">
<rect width="116" height="22" fill="white"/>
</clipPath>
</defs>
</svg>
