<svg width="28" height="28" viewBox="0 0 28 28" fill="none" xmlns="http://www.w3.org/2000/svg">
<path d="M14 0C21.7324 0 28 6.2685 28 14.0001C28 21.7325 21.7324 28 14 28C6.26754 28 0 21.7324 0 14.0001C0 6.2685 6.26763 0 14 0Z" fill="#C8232C"/>
<path d="M14.4271 6C9.49109 6 7.00391 9.32693 7.00391 12.1005C7.00391 13.7801 7.67977 15.2744 9.13133 15.8311C9.36857 15.9221 9.58312 15.8345 9.6514 15.5871L9.86326 14.8026C9.93327 14.5586 9.90615 14.4719 9.71439 14.2586C9.29501 13.7953 9.02891 13.1944 9.02891 12.3435C9.02891 9.87594 10.9927 7.66673 14.1426 7.66673C16.9328 7.66673 18.4649 9.26904 18.4649 11.4085C18.4649 14.2238 17.1394 16.6004 15.1713 16.6004C14.0857 16.6004 13.2715 15.7563 13.5324 14.7184C13.8441 13.4825 14.45 12.1471 14.45 11.2538C14.45 10.4557 13.9939 9.78752 13.0483 9.78752C11.9373 9.78752 11.0453 10.8679 11.0453 12.3154C11.0453 13.2377 11.377 13.8608 11.377 13.8608L10.0402 19.1826C9.64361 20.7611 9.98155 22.6974 10.0095 22.8929C10.027 23.0085 10.1847 23.0357 10.2564 22.949C10.3588 22.8233 11.6817 21.2872 12.1317 19.7522C12.2595 19.3178 12.8627 17.0678 12.8627 17.0678C13.2235 17.7163 14.2784 18.2859 15.3999 18.2859C18.7381 18.2859 21.0039 15.4239 21.0039 11.5937C21.0028 8.6979 18.3939 6 14.4271 6Z" fill="white"/>
</svg>
