<svg width="28" height="28" viewBox="0 0 28 28" fill="none" xmlns="http://www.w3.org/2000/svg">
<path d="M14 28C21.732 28 28 21.732 28 14C28 6.26801 21.732 0 14 0C6.26801 0 0 6.26801 0 14C0 21.732 6.26801 28 14 28Z" fill="url(#paint0_linear_1829_111836)"/>
<path fill-rule="evenodd" clip-rule="evenodd" d="M6.96212 13.1659C10.719 11.4724 13.2241 10.356 14.4775 9.8166C18.0564 8.2765 18.8001 8.00895 19.2848 8.00009C19.3914 7.99817 19.6298 8.02551 19.7842 8.15515C20.0132 8.34744 20.0145 8.76483 19.9891 9.04108C19.7951 11.1494 18.956 16.2657 18.529 18.6271C18.3483 19.6262 17.9926 19.9613 17.6483 19.9941C16.9 20.0653 16.3317 19.4823 15.6068 18.9908C14.4726 18.2215 13.8318 17.7426 12.7308 16.992C11.4585 16.1245 12.2833 15.6478 13.0084 14.8685C13.1982 14.6646 16.4955 11.5616 16.5594 11.28C16.5674 11.2448 16.5748 11.1136 16.4994 11.0443C16.424 10.975 16.3128 10.9987 16.2326 11.0175C16.1188 11.0443 14.3069 12.2834 10.7968 14.7348C10.2825 15.1002 9.81661 15.2783 9.39924 15.2689C8.93908 15.2587 8.054 14.9998 7.396 14.7785C6.58895 14.5071 5.94752 14.3635 6.00339 13.9026C6.03249 13.6624 6.35205 13.4169 6.96212 13.1659Z" fill="white"/>
<defs>
<linearGradient id="paint0_linear_1829_111836" x1="14" y1="0" x2="14" y2="27.7813" gradientUnits="userSpaceOnUse">
<stop stop-color="#2AABEE"/>
<stop offset="1" stop-color="#229ED9"/>
</linearGradient>
</defs>
</svg>
