<svg width="28" height="28" viewBox="0 0 28 28" fill="none" xmlns="http://www.w3.org/2000/svg">
<path d="M27.3821 13.3799C27.3845 13.3799 27.3864 13.3799 27.3888 13.3799C27.5593 13.3799 27.7219 13.3084 27.8374 13.1831C27.9548 13.056 28.0129 12.8854 27.9976 12.7131C27.3839 5.96295 22.04 0.616895 15.2897 0.00196984C15.1185 -0.0114778 14.9462 0.0441467 14.819 0.162119C14.6919 0.279481 14.621 0.445131 14.6228 0.618117C14.7292 9.58893 15.9125 13.2546 27.3821 13.3799ZM27.3821 14.6196C15.9125 14.7449 14.7298 18.4106 14.6234 27.3814C14.6216 27.5544 14.6925 27.72 14.8196 27.8374C14.9333 27.9419 15.0819 28 15.2347 28C15.253 28 15.2719 27.9994 15.2903 27.9976C22.0406 27.3826 27.3845 22.0372 27.9976 15.2865C28.0129 15.1141 27.9554 14.9435 27.8374 14.8164C27.7195 14.6893 27.5551 14.6263 27.3821 14.6196ZM12.6694 0.0050262C5.94042 0.637678 0.613625 5.98251 0.00301489 12.7143C-0.0122656 12.8867 0.0451892 13.0572 0.163155 13.1843C0.278676 13.3097 0.441872 13.3806 0.611792 13.3806C0.614237 13.3806 0.616682 13.3806 0.619126 13.3806C12.0508 13.2491 13.2311 9.58526 13.3386 0.620562C13.3405 0.447576 13.269 0.281315 13.1418 0.163953C13.0135 0.0465917 12.8417 -0.0108665 12.6694 0.0050262ZM0.618515 14.619C0.428425 14.5976 0.279287 14.688 0.162544 14.8152C0.0451893 14.9423 -0.0128768 15.1129 0.00240372 15.2852C0.613014 22.017 5.94042 27.3618 12.6694 27.9945C12.6883 27.9963 12.7079 27.9969 12.7268 27.9969C12.8796 27.9969 13.0275 27.9395 13.1412 27.835C13.2684 27.7176 13.3399 27.5513 13.338 27.3784C13.2305 18.4143 12.0508 14.7504 0.618515 14.619Z" fill="black"/>
</svg>
