<svg width="28" height="28" viewBox="0 0 28 28" fill="none" xmlns="http://www.w3.org/2000/svg">
<path d="M14 28C21.732 28 28 21.732 28 14C28 6.26801 21.732 0 14 0C6.26801 0 0 6.26801 0 14C0 21.732 6.26801 28 14 28Z" fill="#E53935"/>
<path d="M18.9533 8.58032H9.04754C7.49199 8.58032 6.22266 9.84966 6.22266 11.4052V16.5883C6.22266 18.1439 7.49199 19.4132 9.04754 19.4132H18.9533C20.5089 19.4132 21.7782 18.1439 21.7782 16.5883V11.4052C21.7782 9.85588 20.5089 8.58032 18.9533 8.58032ZM14.436 15.5305L12.0218 17.0239V14.0372V11.0505L14.436 12.5439L16.8502 14.0372L14.436 15.5305Z" fill="white"/>
</svg>
